M48
;Layer_Color=9474304
;FILE_FORMAT=4:4
METRIC,LZ
;TYPE=PLATED
T01F00S00C0.1500
%
T01
X00141036Y00005464
X00156564Y00015608
X00156368Y00019368
X00152106Y00027552
X00155205Y0003125
X00156121Y00039
X00153103Y00043201
X00145823Y00036465
X00145497Y00029
X00145808Y00050889
X00143Y00054
X0014254Y0005846
X00149835Y00058365
X00160665Y00057914
X00170235Y00056
X00171662Y00066972
X00168404Y00075446
X0016243Y00081963
X00150518Y00082365
X00146765Y00075
X00136686Y00069765
X0013669Y00066
X0013053Y00074937
X0013669Y00082566
X00138442Y00098513
X0014531Y0009578
X00155Y00095
X00158987Y000919
X0012575Y00091165
X001215Y000545
X00093309Y00109
X00089056Y00116884
X00072005Y00162005
X00204913Y00035731
X00209765Y00038259
X00256022Y0006097
X0025575Y0006575
M30
