G04*
G04 #@! TF.GenerationSoftware,Altium Limited,Altium Designer,23.10.1 (27)*
G04*
G04 Layer_Physical_Order=3*
G04 Layer_Color=36540*
%FSLAX44Y44*%
%MOMM*%
G71*
G04*
G04 #@! TF.SameCoordinates,CCD2D7E0-A0E0-4381-AC8D-D070E886EAC1*
G04*
G04*
G04 #@! TF.FilePolarity,Positive*
G04*
G01*
G75*
%ADD11C,0.2000*%
%ADD13C,0.1000*%
%ADD16C,0.0500*%
%ADD57C,2.0000*%
%ADD59O,2.5000X1.3000*%
%ADD60C,0.7000*%
%ADD61O,3.2000X1.3000*%
%ADD62C,0.9000*%
%ADD66C,0.1500*%
%ADD67C,0.3000*%
%ADD82C,0.3000*%
G36*
X76777Y189451D02*
X77030Y188181D01*
X76967Y188155D01*
X76330Y187518D01*
X75985Y186686D01*
Y185784D01*
X76330Y184952D01*
X76967Y184315D01*
X77800Y183970D01*
X78701D01*
X79533Y184315D01*
X80170Y184952D01*
X80515Y185784D01*
Y186686D01*
X80170Y187518D01*
X79533Y188155D01*
X79471Y188181D01*
X79723Y189451D01*
X84094D01*
X84347Y188181D01*
X83772Y187943D01*
X83135Y187306D01*
X82790Y186473D01*
Y185572D01*
X83135Y184740D01*
X83772Y184103D01*
X84605Y183758D01*
X85506D01*
X86338Y184103D01*
X86975Y184740D01*
X87320Y185572D01*
Y186473D01*
X86975Y187306D01*
X86338Y187943D01*
X85764Y188181D01*
X86016Y189451D01*
X110491Y189451D01*
X110744Y188181D01*
X110717Y188170D01*
X110080Y187533D01*
X109735Y186700D01*
Y185800D01*
X110080Y184967D01*
X110717Y184330D01*
X111550Y183985D01*
X112451D01*
X113283Y184330D01*
X113920Y184967D01*
X114265Y185800D01*
Y186700D01*
X113920Y187533D01*
X113283Y188170D01*
X113257Y188181D01*
X113509Y189451D01*
X362000Y189451D01*
X362488D01*
X363388Y189078D01*
X364078Y188388D01*
X364451Y187488D01*
Y187000D01*
X364451Y5000D01*
Y4512D01*
X364078Y3611D01*
X363388Y2922D01*
X362487Y2549D01*
X362000D01*
X203000Y2549D01*
X202512D01*
X201611Y2922D01*
X200922Y3611D01*
X200549Y4512D01*
Y5000D01*
X200549Y33000D01*
X200524Y33124D01*
X200536Y33250D01*
X200441Y34225D01*
X200332Y34584D01*
X200259Y34951D01*
X199512Y36753D01*
X198960Y37580D01*
X197580Y38960D01*
X197580Y38960D01*
X196753Y39512D01*
X194951Y40259D01*
X194583Y40332D01*
X194225Y40440D01*
X193250Y40536D01*
X193124Y40524D01*
X193000Y40549D01*
X181000D01*
X180876Y40524D01*
X180750Y40537D01*
X179775Y40441D01*
X179416Y40332D01*
X179049Y40259D01*
X177247Y39512D01*
X176420Y38960D01*
X175040Y37580D01*
X174488Y36753D01*
X173741Y34951D01*
X173668Y34584D01*
X173559Y34225D01*
X173463Y33250D01*
X173476Y33124D01*
X173451Y33000D01*
X173451Y30009D01*
X173449Y29556D01*
X173442Y29111D01*
X173430Y28665D01*
X173414Y28225D01*
X173393Y27779D01*
X173367Y27337D01*
X173337Y26895D01*
X173302Y26453D01*
X173263Y26015D01*
X173219Y25575D01*
X173170Y25135D01*
X173117Y24701D01*
X173059Y24264D01*
X172997Y23833D01*
X172982Y23733D01*
X172332Y23530D01*
X171685Y23564D01*
X171524Y23725D01*
X171398Y23914D01*
X171209Y24041D01*
X171048Y24202D01*
X170838Y24289D01*
X170649Y24415D01*
X170426Y24459D01*
X170215Y24546D01*
X169988D01*
X169765Y24591D01*
X169542Y24546D01*
X169314D01*
X169104Y24459D01*
X168881Y24415D01*
X168692Y24289D01*
X168482Y24202D01*
X168321Y24041D01*
X168132Y23914D01*
X168006Y23725D01*
X167845Y23564D01*
X167758Y23354D01*
X167631Y23165D01*
X167587Y22942D01*
X167500Y22732D01*
Y22504D01*
X167456Y22281D01*
Y21129D01*
X157636Y11309D01*
X149610D01*
X148727Y11134D01*
X148004Y10651D01*
X142760D01*
X142384Y11214D01*
X140060Y13537D01*
X139476Y13928D01*
X138788Y14065D01*
X125265D01*
X125265Y14065D01*
X124576Y13928D01*
X123993Y13537D01*
X123993Y13537D01*
X121463Y11008D01*
X120002Y11343D01*
X119944Y11483D01*
X119307Y12120D01*
X118475Y12465D01*
X117574D01*
X116741Y12120D01*
X116104Y11483D01*
X115880Y10943D01*
X115698Y10632D01*
X114489Y10249D01*
X114451Y10265D01*
X113549D01*
X112717Y9920D01*
X112370Y9573D01*
X111100Y9984D01*
Y10247D01*
X110755Y11079D01*
X110118Y11716D01*
X109285Y12061D01*
X108384D01*
X107552Y11716D01*
X106915Y11079D01*
X106570Y10247D01*
Y9346D01*
X106915Y8513D01*
X107552Y7876D01*
X108384Y7531D01*
X109285D01*
X110118Y7876D01*
X110465Y8223D01*
X111735Y7813D01*
Y7549D01*
X112080Y6717D01*
X112717Y6080D01*
X113549Y5735D01*
X114451D01*
X115070Y5992D01*
X115400Y5663D01*
X115983Y5273D01*
X116672Y5136D01*
X119935D01*
X120624Y5273D01*
X121208Y5663D01*
X126010Y10465D01*
X133822D01*
X134002Y10304D01*
X134566Y9195D01*
X134403Y8802D01*
Y7900D01*
X134748Y7068D01*
X134888Y6928D01*
X135190Y6397D01*
X134553Y5760D01*
X134208Y4928D01*
Y4027D01*
X134294Y3819D01*
X133539Y2549D01*
X131325D01*
X131243Y2470D01*
X131163Y2549D01*
X104656D01*
X104403Y3819D01*
X104783Y3976D01*
X105420Y4613D01*
X105765Y5446D01*
Y6347D01*
X105420Y7179D01*
X104783Y7817D01*
X103951Y8162D01*
X103049D01*
X102217Y7817D01*
X101580Y7179D01*
X101235Y6347D01*
Y5446D01*
X101580Y4613D01*
X102217Y3976D01*
X102597Y3819D01*
X102345Y2549D01*
X51270D01*
X50000Y3817D01*
Y123451D01*
X50012Y123451D01*
X59000D01*
X59124Y123476D01*
X59250Y123463D01*
X60225Y123560D01*
X60584Y123668D01*
X60951Y123741D01*
X62753Y124488D01*
X63580Y125040D01*
X64960Y126420D01*
X65512Y127247D01*
X66259Y129049D01*
X66332Y129416D01*
X66441Y129775D01*
X66537Y130750D01*
X66524Y130876D01*
X66549Y131000D01*
X66549Y143000D01*
X66524Y143124D01*
X66537Y143250D01*
X66441Y144225D01*
X66332Y144584D01*
X66259Y144951D01*
X65512Y146753D01*
X64960Y147580D01*
X63580Y148960D01*
X62753Y149512D01*
X60951Y150259D01*
X60584Y150332D01*
X60225Y150440D01*
X59250Y150536D01*
X59124Y150524D01*
X59000Y150549D01*
X4512Y150549D01*
X3611Y150922D01*
X2922Y151611D01*
X2549Y152512D01*
Y153000D01*
X2549Y187488D01*
X2922Y188389D01*
X3611Y189078D01*
X4512Y189451D01*
X5000D01*
X76777D01*
D02*
G37*
G36*
X141245Y7860D02*
X141222Y7849D01*
X141183Y7821D01*
X141127Y7775D01*
X140862Y7531D01*
X140280Y6960D01*
X139220Y8020D01*
X140120Y8985D01*
X141245Y7860D01*
D02*
G37*
%LPC*%
G36*
X130450Y181515D02*
X129549D01*
X128717Y181170D01*
X128080Y180533D01*
X127735Y179701D01*
Y178799D01*
X128080Y177967D01*
X128717Y177330D01*
X129549Y176985D01*
X130450D01*
X131283Y177330D01*
X131920Y177967D01*
X132265Y178799D01*
Y179701D01*
X131920Y180533D01*
X131283Y181170D01*
X130450Y181515D01*
D02*
G37*
G36*
X43429Y171265D02*
X42528D01*
X41696Y170920D01*
X41059Y170283D01*
X40714Y169450D01*
Y168549D01*
X41059Y167717D01*
X41696Y167080D01*
X42528Y166735D01*
X43429D01*
X44262Y167080D01*
X44899Y167717D01*
X45244Y168549D01*
Y169450D01*
X44899Y170283D01*
X44262Y170920D01*
X43429Y171265D01*
D02*
G37*
G36*
X321700Y185265D02*
X318866D01*
X316128Y184531D01*
X313673Y183114D01*
X311669Y181110D01*
X310252Y178655D01*
X309518Y175917D01*
Y173083D01*
X310252Y170345D01*
X311669Y167890D01*
X313673Y165886D01*
X316128Y164469D01*
X318866Y163735D01*
X321700D01*
X324438Y164469D01*
X326893Y165886D01*
X328897Y167890D01*
X330314Y170345D01*
X331048Y173083D01*
Y175917D01*
X330314Y178655D01*
X328897Y181110D01*
X326893Y183114D01*
X324438Y184531D01*
X321700Y185265D01*
D02*
G37*
G36*
X270900D02*
X268066D01*
X265328Y184531D01*
X262873Y183114D01*
X260869Y181110D01*
X259452Y178655D01*
X258718Y175917D01*
Y173083D01*
X259452Y170345D01*
X260869Y167890D01*
X262873Y165886D01*
X265328Y164469D01*
X268066Y163735D01*
X270900D01*
X273638Y164469D01*
X276093Y165886D01*
X278097Y167890D01*
X279514Y170345D01*
X280248Y173083D01*
Y175917D01*
X279514Y178655D01*
X278097Y181110D01*
X276093Y183114D01*
X273638Y184531D01*
X270900Y185265D01*
D02*
G37*
G36*
X245500D02*
X242666D01*
X239928Y184531D01*
X237473Y183114D01*
X235469Y181110D01*
X234052Y178655D01*
X233318Y175917D01*
Y173083D01*
X234052Y170345D01*
X235469Y167890D01*
X237473Y165886D01*
X239928Y164469D01*
X242666Y163735D01*
X245500D01*
X248238Y164469D01*
X250693Y165886D01*
X252697Y167890D01*
X254114Y170345D01*
X254848Y173083D01*
Y175917D01*
X254114Y178655D01*
X252697Y181110D01*
X250693Y183114D01*
X248238Y184531D01*
X245500Y185265D01*
D02*
G37*
G36*
X223683Y185378D02*
X213683D01*
X211434Y184930D01*
X209527Y183656D01*
X208253Y181749D01*
X207805Y179500D01*
Y169500D01*
X208253Y167251D01*
X209527Y165344D01*
X211434Y164069D01*
X213683Y163622D01*
X223683D01*
X225932Y164069D01*
X227839Y165344D01*
X229114Y167251D01*
X229561Y169500D01*
Y179500D01*
X229114Y181749D01*
X227839Y183656D01*
X225932Y184930D01*
X223683Y185378D01*
D02*
G37*
G36*
X113201Y167515D02*
X112299D01*
X111467Y167170D01*
X110830Y166533D01*
X110485Y165701D01*
Y164799D01*
X110830Y163967D01*
X111467Y163330D01*
X112299Y162985D01*
X113201D01*
X114033Y163330D01*
X114670Y163967D01*
X115015Y164799D01*
Y165701D01*
X114670Y166533D01*
X114033Y167170D01*
X113201Y167515D01*
D02*
G37*
G36*
X195488Y162058D02*
X194587D01*
X193754Y161713D01*
X193117Y161076D01*
X192772Y160243D01*
Y159342D01*
X191814Y158337D01*
X126352D01*
X125468Y158161D01*
X124719Y157661D01*
X119517Y152458D01*
X119162Y152456D01*
X118093Y152830D01*
X117905Y153283D01*
X117268Y153920D01*
X116435Y154265D01*
X115534D01*
X114702Y153920D01*
X114065Y153283D01*
X113720Y152451D01*
Y151550D01*
X114065Y150717D01*
X114702Y150080D01*
X115343Y149814D01*
X115594Y149629D01*
X116248Y148465D01*
X116191Y148175D01*
Y147258D01*
X114921Y146915D01*
X114681Y147274D01*
X113274Y148681D01*
X112613Y149123D01*
X110775Y149884D01*
X109994Y150039D01*
X77000Y150039D01*
X77000Y150039D01*
X76500D01*
X75946Y150135D01*
X75326Y151144D01*
X74982Y151977D01*
X74345Y152614D01*
X73512Y152959D01*
X72611D01*
X71778Y152614D01*
X71141Y151977D01*
X70796Y151144D01*
Y150243D01*
X71141Y149411D01*
X71400Y149151D01*
X71616Y147571D01*
X71319Y147274D01*
X70877Y146613D01*
X70116Y144775D01*
X69961Y143995D01*
Y131000D01*
X69961Y131000D01*
Y130005D01*
X70116Y129225D01*
X70877Y127387D01*
X71319Y126726D01*
X72726Y125319D01*
X73387Y124877D01*
X75225Y124116D01*
X76006Y123961D01*
X80802D01*
X81758Y122950D01*
Y122050D01*
X82103Y121217D01*
X82740Y120580D01*
X83573Y120235D01*
X84474D01*
X85306Y120580D01*
X85943Y121217D01*
X86288Y122050D01*
Y122950D01*
X87244Y123961D01*
X101545D01*
X101798Y122691D01*
X101712Y122655D01*
X101075Y122018D01*
X100730Y121186D01*
Y120285D01*
X101075Y119452D01*
X101712Y118815D01*
X102544Y118470D01*
X103445D01*
X104278Y118815D01*
X104915Y119452D01*
X105260Y120285D01*
Y121186D01*
X104915Y122018D01*
X104278Y122655D01*
X104192Y122691D01*
X104445Y123961D01*
X109000D01*
X109000Y123961D01*
X109995D01*
X110775Y124116D01*
X112613Y124877D01*
X113274Y125319D01*
X113955Y126000D01*
X116764D01*
X116867Y125846D01*
X128566Y114147D01*
X129315Y113646D01*
X130199Y113471D01*
X135849D01*
X136733Y113646D01*
X137482Y114147D01*
X137707Y114372D01*
X137834Y114561D01*
X137994Y114722D01*
X138082Y114932D01*
X138208Y115121D01*
X138252Y115344D01*
X138339Y115555D01*
Y115782D01*
X138384Y116005D01*
X138339Y116228D01*
Y116456D01*
X138252Y116666D01*
X138208Y116889D01*
X138082Y117078D01*
X137994Y117288D01*
X137834Y117449D01*
X137707Y117638D01*
X137518Y117765D01*
X137357Y117925D01*
X137147Y118012D01*
X136958Y118139D01*
X136735Y118183D01*
X136525Y118270D01*
X136297D01*
X136074Y118315D01*
X135851Y118270D01*
X135624D01*
X135414Y118183D01*
X135191Y118139D01*
X135117Y118089D01*
X131156D01*
X126554Y122691D01*
X127080Y123961D01*
X150164D01*
X151120Y122950D01*
Y122050D01*
X151465Y121217D01*
X152102Y120580D01*
X152935Y120235D01*
X153836D01*
X154668Y120580D01*
X155305Y121217D01*
X155650Y122050D01*
Y122829D01*
X155823Y123146D01*
X156304Y123689D01*
X156614Y123943D01*
X156798Y123932D01*
X157065Y123910D01*
X157330Y123882D01*
X157596Y123848D01*
X157861Y123807D01*
X158127Y123760D01*
X158392Y123706D01*
X158658Y123646D01*
X158921Y123581D01*
X159187Y123508D01*
X159451Y123429D01*
X159584Y123386D01*
X159781Y122843D01*
X159834Y122364D01*
X159771Y121974D01*
X159330Y121533D01*
X158985Y120701D01*
Y119799D01*
X159330Y118967D01*
X159967Y118330D01*
X160068Y118288D01*
X160163Y117811D01*
X159818Y116979D01*
Y116077D01*
X160163Y115245D01*
X160685Y114539D01*
X160048Y113902D01*
X159703Y113069D01*
Y112168D01*
X160048Y111336D01*
X160685Y110699D01*
X161517Y110354D01*
X162418D01*
X163251Y110699D01*
X163888Y111336D01*
X164233Y112168D01*
Y113069D01*
X163888Y113902D01*
X163366Y114608D01*
X164004Y115245D01*
X164348Y116077D01*
Y116979D01*
X164004Y117811D01*
X163366Y118448D01*
X163459Y119663D01*
X163515Y119799D01*
X164049Y120154D01*
X164785Y120334D01*
X164828Y120296D01*
X165070Y120077D01*
X165311Y119853D01*
X165550Y119621D01*
X165786Y119385D01*
X166021Y119140D01*
X166253Y118892D01*
X166484Y118636D01*
X166712Y118375D01*
X166938Y118108D01*
X167161Y117836D01*
X167381Y117558D01*
X167600Y117273D01*
X167816Y116983D01*
X168028Y116689D01*
X168238Y116388D01*
X168445Y116082D01*
X168649Y115771D01*
X168850Y115455D01*
X169050Y115132D01*
X169244Y114805D01*
X169436Y114475D01*
X169624Y114138D01*
X169809Y113798D01*
X169992Y113449D01*
X170170Y113100D01*
X170345Y112745D01*
X170517Y112384D01*
X170684Y112020D01*
X170848Y111653D01*
X171008Y111280D01*
X171165Y110904D01*
X171317Y110524D01*
X171467Y110137D01*
X171612Y109750D01*
X171752Y109360D01*
X171890Y108962D01*
X172022Y108565D01*
X172150Y108164D01*
X172276Y107757D01*
X172396Y107348D01*
X172512Y106939D01*
X172624Y106524D01*
X172731Y106108D01*
X172835Y105687D01*
X172934Y105262D01*
X173028Y104838D01*
X173118Y104412D01*
X173204Y103982D01*
X173285Y103549D01*
X173362Y103117D01*
X173434Y102681D01*
X173501Y102245D01*
X173564Y101804D01*
X173623Y101366D01*
X173677Y100921D01*
X173726Y100480D01*
X173771Y100033D01*
X173810Y99589D01*
X173845Y99144D01*
X173876Y98693D01*
X173902Y98248D01*
X173923Y97798D01*
X173939Y97350D01*
X173951Y96898D01*
X173958Y96450D01*
X173961Y95994D01*
Y95005D01*
X174116Y94225D01*
X174116Y94225D01*
X174877Y92387D01*
X175319Y91726D01*
X176726Y90319D01*
X177387Y89877D01*
X179225Y89116D01*
X179225Y89116D01*
X180005Y88961D01*
X181000Y88961D01*
X193995D01*
X194775Y89116D01*
X196613Y89877D01*
X197274Y90319D01*
X198681Y91726D01*
X199123Y92387D01*
X199884Y94225D01*
X200039Y95005D01*
Y96000D01*
X200039Y143000D01*
Y143995D01*
X199884Y144775D01*
X199123Y146613D01*
X198681Y147274D01*
X198681Y147274D01*
X197274Y148681D01*
X197274Y148681D01*
X196613Y149123D01*
X194775Y149884D01*
X193995Y150039D01*
X193000Y150039D01*
X193000Y150039D01*
X126005D01*
X125282Y149895D01*
X125179Y149963D01*
X124583Y150993D01*
X127309Y153718D01*
X209028D01*
X209251Y153763D01*
X209478D01*
X209688Y153850D01*
X209911Y153894D01*
X210100Y154021D01*
X210311Y154108D01*
X210471Y154268D01*
X210661Y154395D01*
X210787Y154584D01*
X210948Y154745D01*
X211035Y154955D01*
X211161Y155144D01*
X211206Y155367D01*
X211293Y155577D01*
Y155805D01*
X211337Y156028D01*
X211293Y156251D01*
Y156478D01*
X211206Y156688D01*
X211161Y156911D01*
X211035Y157100D01*
X210948Y157311D01*
X210787Y157472D01*
X210661Y157661D01*
X210471Y157787D01*
X210311Y157948D01*
X210100Y158035D01*
X209911Y158161D01*
X209688Y158206D01*
X209478Y158293D01*
X209251D01*
X209028Y158337D01*
X198260D01*
X197302Y159342D01*
Y160243D01*
X196957Y161076D01*
X196320Y161713D01*
X195488Y162058D01*
D02*
G37*
G36*
X74558Y120157D02*
X73657D01*
X72825Y119813D01*
X72187Y119175D01*
X71843Y118343D01*
Y117442D01*
X72187Y116609D01*
X72825Y115972D01*
X73657Y115627D01*
X74558D01*
X75391Y115972D01*
X76028Y116609D01*
X76373Y117442D01*
Y118343D01*
X76028Y119175D01*
X75391Y119813D01*
X74558Y120157D01*
D02*
G37*
G36*
X121109Y118811D02*
X120208D01*
X119375Y118466D01*
X118738Y117829D01*
X118393Y116996D01*
Y116095D01*
X118738Y115263D01*
X119375Y114626D01*
X120208Y114281D01*
X121109D01*
X121941Y114626D01*
X122578Y115263D01*
X122923Y116095D01*
Y116996D01*
X122578Y117829D01*
X121941Y118466D01*
X121109Y118811D01*
D02*
G37*
G36*
X143718Y120891D02*
X142817D01*
X141984Y120546D01*
X141347Y119909D01*
X141002Y119076D01*
Y118175D01*
X141347Y117343D01*
X141984Y116706D01*
X142817Y116361D01*
X143718D01*
X144550Y116706D01*
X144944Y117099D01*
X146126Y116543D01*
X146132Y116510D01*
X146132Y116209D01*
Y115609D01*
X146477Y114776D01*
X147114Y114139D01*
X147947Y113794D01*
X148848D01*
X149680Y114139D01*
X150317Y114776D01*
X150662Y115609D01*
Y116510D01*
X150317Y117342D01*
X149680Y117980D01*
X148848Y118324D01*
X147947D01*
X147114Y117980D01*
X146721Y117586D01*
X145538Y118142D01*
X145532Y118175D01*
X145532Y118476D01*
Y119076D01*
X145187Y119909D01*
X144550Y120546D01*
X143718Y120891D01*
D02*
G37*
G36*
X63687Y115144D02*
X62786D01*
X61953Y114799D01*
X61316Y114162D01*
X60971Y113329D01*
Y112429D01*
X61316Y111596D01*
X61953Y110959D01*
X62786Y110614D01*
X63687D01*
X64519Y110959D01*
X65156Y111596D01*
X65501Y112429D01*
Y113329D01*
X65156Y114162D01*
X64519Y114799D01*
X63687Y115144D01*
D02*
G37*
G36*
X141396Y114265D02*
X140494D01*
X139662Y113920D01*
X139025Y113283D01*
X138680Y112451D01*
Y111550D01*
X139025Y110717D01*
X139662Y110080D01*
X140494Y109735D01*
X141396D01*
X142228Y110080D01*
X143390Y109611D01*
X144027Y108974D01*
X144860Y108629D01*
X145760D01*
X146593Y108974D01*
X147230Y109611D01*
X147575Y110443D01*
Y111345D01*
X147230Y112177D01*
X146593Y112814D01*
X145760Y113159D01*
X144860D01*
X144027Y112814D01*
X142865Y113283D01*
X142228Y113920D01*
X141396Y114265D01*
D02*
G37*
G36*
X169646Y107630D02*
X168745D01*
X167913Y107285D01*
X167276Y106648D01*
X166931Y105815D01*
Y104914D01*
X167276Y104082D01*
X167913Y103445D01*
X168745Y103100D01*
X169646D01*
X170479Y103445D01*
X171116Y104082D01*
X171461Y104914D01*
Y105815D01*
X171116Y106648D01*
X170479Y107285D01*
X169646Y107630D01*
D02*
G37*
G36*
X63951Y106265D02*
X63050D01*
X62217Y105920D01*
X61580Y105283D01*
X61235Y104451D01*
Y103549D01*
X61580Y102717D01*
X62217Y102080D01*
X63050Y101735D01*
X63951D01*
X64783Y102080D01*
X65420Y102717D01*
X65765Y103549D01*
Y104451D01*
X65420Y105283D01*
X64783Y105920D01*
X63951Y106265D01*
D02*
G37*
G36*
X160860Y105781D02*
X159959D01*
X159127Y105436D01*
X158490Y104799D01*
X158145Y103966D01*
Y103065D01*
X158490Y102233D01*
X159127Y101596D01*
X159959Y101251D01*
X160860D01*
X161693Y101596D01*
X162330Y102233D01*
X162675Y103065D01*
Y103966D01*
X162330Y104799D01*
X161693Y105436D01*
X160860Y105781D01*
D02*
G37*
G36*
X86451Y104265D02*
X85549D01*
X84717Y103920D01*
X84080Y103283D01*
X83735Y102451D01*
Y101550D01*
X84080Y100717D01*
X84717Y100080D01*
X85549Y99735D01*
X86451D01*
X87283Y100080D01*
X87920Y100717D01*
X88265Y101550D01*
Y102451D01*
X87920Y103283D01*
X87283Y103920D01*
X86451Y104265D01*
D02*
G37*
G36*
X76378Y103005D02*
X75477D01*
X74645Y102660D01*
X74007Y102023D01*
X73663Y101190D01*
Y100289D01*
X74007Y99457D01*
X74645Y98820D01*
X75477Y98475D01*
X76378D01*
X77211Y98820D01*
X77848Y99457D01*
X78193Y100289D01*
Y101190D01*
X77848Y102023D01*
X77211Y102660D01*
X76378Y103005D01*
D02*
G37*
G36*
X121159Y102765D02*
X120257D01*
X119425Y102420D01*
X118788Y101783D01*
X118443Y100950D01*
Y100049D01*
X118788Y99217D01*
X119425Y98580D01*
X120257Y98235D01*
X121159D01*
X121991Y98580D01*
X122628Y99217D01*
X122973Y100049D01*
Y100950D01*
X122628Y101783D01*
X121991Y102420D01*
X121159Y102765D01*
D02*
G37*
G36*
X108186Y103030D02*
X107284D01*
X106452Y102685D01*
X105815Y102048D01*
X105470Y101215D01*
Y100315D01*
X105280Y100030D01*
X104799D01*
X103967Y99685D01*
X103330Y99048D01*
X102985Y98216D01*
Y97314D01*
X103330Y96482D01*
X103967Y95845D01*
X104799Y95500D01*
X105701D01*
X106533Y95845D01*
X107170Y96482D01*
X107515Y97314D01*
Y98216D01*
X107705Y98500D01*
X108186D01*
X109018Y98845D01*
X109655Y99482D01*
X110000Y100315D01*
Y101215D01*
X109655Y102048D01*
X109018Y102685D01*
X108186Y103030D01*
D02*
G37*
G36*
X121622Y93430D02*
X120721D01*
X119889Y93085D01*
X119251Y92448D01*
X118907Y91615D01*
Y90714D01*
X119251Y89882D01*
X119889Y89245D01*
X120721Y88900D01*
X121622D01*
X122455Y89245D01*
X123092Y89882D01*
X123437Y90714D01*
Y91615D01*
X123092Y92448D01*
X122455Y93085D01*
X121622Y93430D01*
D02*
G37*
G36*
X137441Y92460D02*
X136540D01*
X135708Y92115D01*
X135071Y91478D01*
X134726Y90646D01*
Y89745D01*
X135071Y88912D01*
X135708Y88275D01*
X136540Y87930D01*
X137441D01*
X138274Y88275D01*
X138911Y88912D01*
X139256Y89745D01*
Y90646D01*
X138911Y91478D01*
X138274Y92115D01*
X137441Y92460D01*
D02*
G37*
G36*
X169303Y91530D02*
X168402D01*
X167570Y91185D01*
X166932Y90548D01*
X166588Y89715D01*
Y88814D01*
X166932Y87982D01*
X167570Y87345D01*
X168402Y87000D01*
X169303D01*
X170136Y87345D01*
X170773Y87982D01*
X171118Y88814D01*
Y89715D01*
X170773Y90548D01*
X170136Y91185D01*
X169303Y91530D01*
D02*
G37*
G36*
X206542Y90545D02*
X205641D01*
X204808Y90200D01*
X204171Y89563D01*
X203826Y88730D01*
Y87829D01*
X204171Y86997D01*
X204808Y86360D01*
X205641Y86015D01*
X206542D01*
X207374Y86360D01*
X208011Y86997D01*
X208356Y87829D01*
Y88730D01*
X208011Y89563D01*
X207374Y90200D01*
X206542Y90545D01*
D02*
G37*
G36*
X160641Y90194D02*
X159739D01*
X158907Y89849D01*
X158270Y89212D01*
X157925Y88379D01*
Y87478D01*
X158270Y86646D01*
X158907Y86009D01*
X159739Y85664D01*
X160641D01*
X161473Y86009D01*
X162110Y86646D01*
X162455Y87478D01*
Y88379D01*
X162110Y89212D01*
X161473Y89849D01*
X160641Y90194D01*
D02*
G37*
G36*
X107971Y89765D02*
X107070D01*
X106237Y89420D01*
X105600Y88783D01*
X105255Y87950D01*
Y87050D01*
X105600Y86217D01*
X106237Y85580D01*
X107070Y85235D01*
X107971D01*
X108803Y85580D01*
X109440Y86217D01*
X109785Y87050D01*
Y87950D01*
X109440Y88783D01*
X108803Y89420D01*
X107971Y89765D01*
D02*
G37*
G36*
X226099Y92815D02*
X224501D01*
X223026Y92204D01*
X221896Y91074D01*
X221285Y89599D01*
Y88001D01*
X221896Y86526D01*
X223026Y85396D01*
X224501Y84785D01*
X226099D01*
X227574Y85396D01*
X228704Y86526D01*
X229315Y88001D01*
Y89599D01*
X228704Y91074D01*
X227574Y92204D01*
X226099Y92815D01*
D02*
G37*
G36*
X118280Y87354D02*
X117379D01*
X116547Y87009D01*
X115910Y86372D01*
X115565Y85540D01*
Y84638D01*
X115910Y83806D01*
X116547Y83169D01*
X117379Y82824D01*
X118280D01*
X119113Y83169D01*
X119750Y83806D01*
X120095Y84638D01*
Y85540D01*
X119750Y86372D01*
X119113Y87009D01*
X118280Y87354D01*
D02*
G37*
G36*
X303050Y86765D02*
X301950D01*
X300934Y86344D01*
X300156Y85566D01*
X299735Y84550D01*
Y83450D01*
X300156Y82434D01*
X300934Y81656D01*
X301950Y81235D01*
X303050D01*
X304066Y81656D01*
X304844Y82434D01*
X305265Y83450D01*
Y84550D01*
X304844Y85566D01*
X304066Y86344D01*
X303050Y86765D01*
D02*
G37*
G36*
X289550D02*
X288450D01*
X287434Y86344D01*
X286656Y85566D01*
X286235Y84550D01*
Y83450D01*
X286656Y82434D01*
X287434Y81656D01*
X288450Y81235D01*
X289550D01*
X290566Y81656D01*
X291344Y82434D01*
X291765Y83450D01*
Y84550D01*
X291344Y85566D01*
X290566Y86344D01*
X289550Y86765D01*
D02*
G37*
G36*
X171909Y82400D02*
X144257D01*
X143373Y82224D01*
X142624Y81724D01*
X141871Y80971D01*
X141129Y80445D01*
X140263Y80920D01*
X139431Y81265D01*
X138530D01*
X137697Y80920D01*
X137060Y80283D01*
X136715Y79450D01*
Y78549D01*
X137060Y77717D01*
X137697Y77080D01*
X138530Y76735D01*
X139431D01*
X140102Y77013D01*
X140642Y76585D01*
X141000Y76115D01*
X140713Y75421D01*
Y74520D01*
X141058Y73688D01*
X141695Y73051D01*
X141310Y71835D01*
X141151Y71451D01*
Y70550D01*
X141496Y69717D01*
X142133Y69080D01*
X142965Y68735D01*
X143867D01*
X144699Y69080D01*
X145336Y69717D01*
X145681Y70550D01*
Y71451D01*
X145336Y72283D01*
X144699Y72920D01*
X145084Y74135D01*
X145243Y74520D01*
Y75421D01*
X144898Y76254D01*
X144696Y76726D01*
X145518Y77782D01*
X158418D01*
X158756Y76974D01*
X158807Y76512D01*
X158270Y75974D01*
X157925Y75142D01*
Y74241D01*
X158270Y73408D01*
X158907Y72771D01*
X159739Y72426D01*
X160641D01*
X161473Y72771D01*
X162110Y73408D01*
X162455Y74241D01*
Y75142D01*
X162110Y75974D01*
X161573Y76512D01*
X161624Y76974D01*
X161962Y77782D01*
X171909D01*
X172132Y77826D01*
X172360D01*
X172570Y77913D01*
X172793Y77957D01*
X172982Y78084D01*
X173192Y78171D01*
X173353Y78331D01*
X173542Y78458D01*
X173668Y78647D01*
X173829Y78808D01*
X173916Y79018D01*
X174043Y79207D01*
X174087Y79430D01*
X174174Y79640D01*
Y79868D01*
X174219Y80091D01*
X174174Y80314D01*
Y80541D01*
X174087Y80752D01*
X174043Y80975D01*
X173916Y81164D01*
X173829Y81374D01*
X173668Y81535D01*
X173542Y81724D01*
X173353Y81850D01*
X173192Y82011D01*
X172982Y82098D01*
X172793Y82224D01*
X172570Y82269D01*
X172360Y82356D01*
X172132D01*
X171909Y82400D01*
D02*
G37*
G36*
X73075Y89265D02*
X72175D01*
X71342Y88920D01*
X70705Y88283D01*
X70360Y87451D01*
Y86550D01*
X70705Y85717D01*
X71342Y85080D01*
X72175Y84735D01*
X73075D01*
X73379Y84861D01*
X74032Y84134D01*
X74191Y83822D01*
X73884Y83082D01*
Y82181D01*
X74229Y81349D01*
X74866Y80712D01*
X75699Y80367D01*
X76600D01*
X77432Y80712D01*
X78069Y81349D01*
X79458Y81595D01*
X80360D01*
X81192Y81940D01*
X81829Y82577D01*
X82174Y83410D01*
Y84311D01*
X81829Y85143D01*
X81192Y85780D01*
X80360Y86125D01*
X80173D01*
X79443Y86159D01*
X78919Y87276D01*
X78655Y87913D01*
X78018Y88550D01*
X77186Y88895D01*
X76284D01*
X75757Y88677D01*
X74545Y88283D01*
X73908Y88920D01*
X73075Y89265D01*
D02*
G37*
G36*
X56868Y89745D02*
X55967D01*
X55134Y89400D01*
X54497Y88763D01*
X54152Y87930D01*
Y87029D01*
X54497Y86197D01*
X55134Y85560D01*
X55745Y85307D01*
X55912Y84509D01*
X55872Y83984D01*
X55717Y83920D01*
X55080Y83283D01*
X54735Y82451D01*
Y81549D01*
X55080Y80717D01*
X55717Y80080D01*
X56549Y79735D01*
X57450D01*
X58283Y80080D01*
X58920Y80717D01*
X59265Y81549D01*
Y82451D01*
X58920Y83283D01*
X58283Y83920D01*
X57672Y84173D01*
X57505Y84971D01*
X57546Y85496D01*
X57700Y85560D01*
X58337Y86197D01*
X58682Y87029D01*
Y87930D01*
X58337Y88763D01*
X57700Y89400D01*
X56868Y89745D01*
D02*
G37*
G36*
X108759Y81465D02*
X107858D01*
X107025Y81120D01*
X106388Y80483D01*
X106043Y79651D01*
Y78749D01*
X106388Y77917D01*
X107025Y77280D01*
X107858Y76935D01*
X108759D01*
X109591Y77280D01*
X109705Y77394D01*
X110360Y77264D01*
X110997Y76627D01*
X111830Y76282D01*
X112731D01*
X113563Y76627D01*
X114200Y77264D01*
X114545Y78096D01*
Y78997D01*
X114200Y79830D01*
X113563Y80467D01*
X112731Y80812D01*
X111830D01*
X110997Y80467D01*
X110883Y80353D01*
X110229Y80483D01*
X109591Y81120D01*
X108759Y81465D01*
D02*
G37*
G36*
X73295Y79643D02*
X72393D01*
X71561Y79298D01*
X70924Y78661D01*
X70579Y77828D01*
Y76927D01*
X70924Y76095D01*
X71561Y75458D01*
X72393Y75113D01*
X73295D01*
X74127Y75458D01*
X74764Y76095D01*
X75109Y76927D01*
Y77828D01*
X74764Y78661D01*
X74127Y79298D01*
X73295Y79643D01*
D02*
G37*
G36*
X303050Y78265D02*
X301950D01*
X300934Y77844D01*
X300156Y77066D01*
X299735Y76050D01*
Y74950D01*
X300156Y73934D01*
X300934Y73156D01*
X301950Y72735D01*
X303050D01*
X304066Y73156D01*
X304844Y73934D01*
X305265Y74950D01*
Y76050D01*
X304844Y77066D01*
X304066Y77844D01*
X303050Y78265D01*
D02*
G37*
G36*
X289550D02*
X288450D01*
X287434Y77844D01*
X286656Y77066D01*
X286235Y76050D01*
Y74950D01*
X286656Y73934D01*
X287434Y73156D01*
X288450Y72735D01*
X289550D01*
X290566Y73156D01*
X291344Y73934D01*
X291765Y74950D01*
Y76050D01*
X291344Y77066D01*
X290566Y77844D01*
X289550Y78265D01*
D02*
G37*
G36*
X238799Y80115D02*
X237201D01*
X235726Y79504D01*
X234596Y78374D01*
X233985Y76899D01*
Y75301D01*
X234596Y73826D01*
X235726Y72696D01*
X237201Y72085D01*
X238799D01*
X240274Y72696D01*
X241404Y73826D01*
X242015Y75301D01*
Y76899D01*
X241404Y78374D01*
X240274Y79504D01*
X238799Y80115D01*
D02*
G37*
G36*
X226099D02*
X224501D01*
X223026Y79504D01*
X221896Y78374D01*
X221285Y76899D01*
Y75301D01*
X221896Y73826D01*
X223026Y72696D01*
X224501Y72085D01*
X226099D01*
X227574Y72696D01*
X228704Y73826D01*
X229315Y75301D01*
Y76899D01*
X228704Y78374D01*
X227574Y79504D01*
X226099Y80115D01*
D02*
G37*
G36*
X119275Y76530D02*
X118374D01*
X117542Y76185D01*
X116905Y75548D01*
X116560Y74715D01*
Y73815D01*
X116905Y72982D01*
X117542Y72345D01*
X118374Y72000D01*
X119275D01*
X120108Y72345D01*
X120745Y72982D01*
X121090Y73815D01*
Y74715D01*
X120745Y75548D01*
X120108Y76185D01*
X119275Y76530D01*
D02*
G37*
G36*
X79701Y74515D02*
X78800D01*
X77967Y74170D01*
X77330Y73533D01*
X76985Y72701D01*
Y71800D01*
X77330Y70967D01*
X77967Y70330D01*
X78800Y69985D01*
X79701D01*
X80533Y70330D01*
X81170Y70967D01*
X81515Y71800D01*
Y72701D01*
X81170Y73533D01*
X80533Y74170D01*
X79701Y74515D01*
D02*
G37*
G36*
X107451Y74170D02*
X106549D01*
X105717Y73825D01*
X105080Y73188D01*
X104735Y72356D01*
Y71455D01*
X105080Y70622D01*
X105717Y69985D01*
X106549Y69640D01*
X107451D01*
X108283Y69985D01*
X108920Y70622D01*
X109265Y71455D01*
Y72356D01*
X108920Y73188D01*
X108283Y73825D01*
X107451Y74170D01*
D02*
G37*
G36*
X127216Y72630D02*
X126314D01*
X125482Y72285D01*
X124845Y71648D01*
X124500Y70816D01*
Y69914D01*
X124845Y69082D01*
X125482Y68445D01*
X126314Y68100D01*
X127216D01*
X128048Y68445D01*
X128685Y69082D01*
X129030Y69914D01*
Y70816D01*
X128685Y71648D01*
X128048Y72285D01*
X127216Y72630D01*
D02*
G37*
G36*
X113686Y70967D02*
X112785D01*
X111952Y70623D01*
X111315Y69985D01*
X110970Y69153D01*
Y68252D01*
X111315Y67419D01*
X111952Y66782D01*
X112785Y66438D01*
X113686D01*
X114518Y66782D01*
X115155Y67419D01*
X115500Y68252D01*
Y69153D01*
X115155Y69985D01*
X114518Y70623D01*
X113686Y70967D01*
D02*
G37*
G36*
X99556Y70515D02*
X98655D01*
X97822Y70170D01*
X97185Y69533D01*
X96840Y68700D01*
Y67800D01*
X97185Y66967D01*
X97822Y66330D01*
X98655Y65985D01*
X99556D01*
X100388Y66330D01*
X101025Y66967D01*
X101370Y67800D01*
Y68700D01*
X101025Y69533D01*
X100388Y70170D01*
X99556Y70515D01*
D02*
G37*
G36*
X303050Y69765D02*
X301950D01*
X300934Y69344D01*
X300156Y68566D01*
X299735Y67550D01*
Y66450D01*
X300156Y65434D01*
X300934Y64656D01*
X301950Y64235D01*
X303050D01*
X304066Y64656D01*
X304844Y65434D01*
X305265Y66450D01*
Y67550D01*
X304844Y68566D01*
X304066Y69344D01*
X303050Y69765D01*
D02*
G37*
G36*
X289550D02*
X288450D01*
X287434Y69344D01*
X286656Y68566D01*
X286235Y67550D01*
Y66450D01*
X286656Y65434D01*
X287434Y64656D01*
X288450Y64235D01*
X289550D01*
X290566Y64656D01*
X291344Y65434D01*
X291765Y66450D01*
Y67550D01*
X291344Y68566D01*
X290566Y69344D01*
X289550Y69765D01*
D02*
G37*
G36*
X107776Y68275D02*
X106875D01*
X106043Y67930D01*
X105406Y67293D01*
X105061Y66461D01*
Y65560D01*
X105276Y65041D01*
X104553Y64111D01*
X104428Y64021D01*
X103951Y64219D01*
X103049D01*
X102217Y63874D01*
X101580Y63237D01*
X101235Y62405D01*
Y62100D01*
X100609Y61261D01*
X100062Y61050D01*
X99550D01*
X98717Y60705D01*
X98080Y60068D01*
X97735Y59236D01*
Y58334D01*
X98080Y57502D01*
X98717Y56865D01*
X99550Y56520D01*
X100450D01*
X101283Y56865D01*
X101426Y57008D01*
X101879Y56918D01*
X102516Y56281D01*
X103348Y55936D01*
X104249D01*
X105082Y56281D01*
X105719Y56918D01*
X106064Y57751D01*
Y58652D01*
X105719Y59484D01*
X105082Y60121D01*
X105307Y60558D01*
X105420Y60671D01*
X105765Y61504D01*
Y62405D01*
X105550Y62923D01*
X106273Y63853D01*
X106398Y63943D01*
X106875Y63745D01*
X107776D01*
X108609Y64090D01*
X109246Y64727D01*
X109591Y65560D01*
Y66461D01*
X109246Y67293D01*
X108609Y67930D01*
X107776Y68275D01*
D02*
G37*
G36*
X89610Y64861D02*
X88709D01*
X87876Y64517D01*
X87239Y63879D01*
X86894Y63047D01*
Y62146D01*
X87239Y61314D01*
X87876Y60676D01*
X88709Y60332D01*
X89610D01*
X90442Y60676D01*
X91079Y61314D01*
X91424Y62146D01*
Y63047D01*
X91079Y63879D01*
X90442Y64517D01*
X89610Y64861D01*
D02*
G37*
G36*
X226099Y67415D02*
X224501D01*
X223026Y66804D01*
X221896Y65674D01*
X221285Y64199D01*
Y62601D01*
X221896Y61126D01*
X223026Y59996D01*
X224501Y59385D01*
X226099D01*
X227574Y59996D01*
X228704Y61126D01*
X229315Y62601D01*
Y64199D01*
X228704Y65674D01*
X227574Y66804D01*
X226099Y67415D01*
D02*
G37*
G36*
X113911Y63707D02*
X113010D01*
X112178Y63362D01*
X111541Y62725D01*
X111196Y61893D01*
Y60992D01*
X111541Y60159D01*
X112178Y59522D01*
X113010Y59177D01*
X113911D01*
X114744Y59522D01*
X115381Y60159D01*
X115726Y60992D01*
Y61893D01*
X115381Y62725D01*
X114744Y63362D01*
X113911Y63707D01*
D02*
G37*
G36*
X75964Y67848D02*
X75063D01*
X74231Y67504D01*
X73594Y66866D01*
X73249Y66034D01*
Y65133D01*
X73594Y64300D01*
X74184Y63710D01*
X73576Y63101D01*
X73231Y62269D01*
Y61368D01*
X73576Y60535D01*
X74213Y59898D01*
X75045Y59553D01*
X75069D01*
X76058Y59023D01*
X76194Y58380D01*
Y58049D01*
X76539Y57217D01*
X77176Y56580D01*
X78008Y56235D01*
X78910D01*
X79742Y56580D01*
X80379Y57217D01*
X80724Y58049D01*
Y58951D01*
X80379Y59783D01*
X79742Y60420D01*
X78910Y60765D01*
X78886D01*
X77897Y61295D01*
X77761Y61938D01*
Y62269D01*
X77416Y63101D01*
X76826Y63692D01*
X77434Y64300D01*
X77779Y65133D01*
Y66034D01*
X77434Y66866D01*
X76797Y67504D01*
X75964Y67848D01*
D02*
G37*
G36*
X303050Y61265D02*
X301950D01*
X300934Y60844D01*
X300156Y60066D01*
X299735Y59050D01*
Y57950D01*
X300156Y56934D01*
X300934Y56156D01*
X301950Y55735D01*
X303050D01*
X304066Y56156D01*
X304844Y56934D01*
X305265Y57950D01*
Y59050D01*
X304844Y60066D01*
X304066Y60844D01*
X303050Y61265D01*
D02*
G37*
G36*
X289550D02*
X288450D01*
X287434Y60844D01*
X286656Y60066D01*
X286235Y59050D01*
Y57950D01*
X286656Y56934D01*
X287434Y56156D01*
X288450Y55735D01*
X289550D01*
X290566Y56156D01*
X291344Y56934D01*
X291765Y57950D01*
Y59050D01*
X291344Y60066D01*
X290566Y60844D01*
X289550Y61265D01*
D02*
G37*
G36*
X95357Y57534D02*
X94456D01*
X93623Y57189D01*
X92986Y56552D01*
X92641Y55719D01*
Y54818D01*
X92986Y53986D01*
X93623Y53349D01*
X94456Y53004D01*
X95357D01*
X96189Y53349D01*
X96827Y53986D01*
X97171Y54818D01*
Y55719D01*
X96827Y56552D01*
X96189Y57189D01*
X95357Y57534D01*
D02*
G37*
G36*
X88777Y57530D02*
X87876D01*
X87044Y57185D01*
X86406Y56548D01*
X86062Y55716D01*
Y54815D01*
X86406Y53982D01*
X87044Y53345D01*
X87876Y53000D01*
X88777D01*
X89610Y53345D01*
X90247Y53982D01*
X90592Y54815D01*
Y55716D01*
X90247Y56548D01*
X89610Y57185D01*
X88777Y57530D01*
D02*
G37*
G36*
X168951Y52765D02*
X168049D01*
X167217Y52420D01*
X166580Y51783D01*
X166235Y50950D01*
Y50050D01*
X166580Y49217D01*
X167217Y48580D01*
X168049Y48235D01*
X168951D01*
X169783Y48580D01*
X170420Y49217D01*
X170765Y50050D01*
Y50950D01*
X170420Y51783D01*
X169783Y52420D01*
X168951Y52765D01*
D02*
G37*
G36*
X181000Y81039D02*
X181000Y81039D01*
X180005D01*
X179225Y80884D01*
X179225Y80884D01*
X177387Y80123D01*
X176726Y79681D01*
X175319Y78274D01*
X174877Y77613D01*
X174877Y77613D01*
X174116Y75775D01*
X174116Y75775D01*
X173961Y74995D01*
X173961Y74000D01*
X173961Y51000D01*
X173961Y51000D01*
Y50005D01*
X174116Y49225D01*
X174280Y48828D01*
X173308Y47856D01*
X173224Y47891D01*
X172323D01*
X171490Y47546D01*
X170853Y46909D01*
X170508Y46077D01*
Y45176D01*
X170853Y44343D01*
X171490Y43706D01*
X172323Y43361D01*
X173224D01*
X174056Y43706D01*
X174694Y44343D01*
X175038Y45176D01*
Y45211D01*
X176308Y45737D01*
X176726Y45319D01*
X177387Y44877D01*
X179225Y44116D01*
X180005Y43961D01*
X193000Y43961D01*
X193995Y43961D01*
X194775Y44116D01*
X196613Y44877D01*
X197274Y45319D01*
X198681Y46726D01*
X199123Y47387D01*
X199884Y49225D01*
X200039Y50005D01*
Y51254D01*
X201000Y52000D01*
X201309Y52000D01*
X210838D01*
Y74000D01*
X201309D01*
X201000Y74000D01*
X200039Y74746D01*
Y74995D01*
X199884Y75775D01*
X199123Y77613D01*
X198681Y78274D01*
X198681Y78274D01*
X197274Y79681D01*
X196613Y80123D01*
X194775Y80884D01*
X193995Y81039D01*
X193000D01*
X181000Y81039D01*
D02*
G37*
G36*
X303050Y52765D02*
X301950D01*
X300934Y52344D01*
X300156Y51566D01*
X299735Y50550D01*
Y49450D01*
X300156Y48434D01*
X300934Y47656D01*
X301950Y47235D01*
X303050D01*
X304066Y47656D01*
X304844Y48434D01*
X305265Y49450D01*
Y50550D01*
X304844Y51566D01*
X304066Y52344D01*
X303050Y52765D01*
D02*
G37*
G36*
X289550D02*
X288450D01*
X287434Y52344D01*
X286656Y51566D01*
X286235Y50550D01*
Y49450D01*
X286656Y48434D01*
X287434Y47656D01*
X288450Y47235D01*
X289550D01*
X290566Y47656D01*
X291344Y48434D01*
X291765Y49450D01*
Y50550D01*
X291344Y51566D01*
X290566Y52344D01*
X289550Y52765D01*
D02*
G37*
G36*
X138701Y56265D02*
X137799D01*
X136967Y55920D01*
X136330Y55283D01*
X135985Y54450D01*
Y53549D01*
X136330Y52717D01*
X136967Y52080D01*
X137799Y51735D01*
X138701D01*
X138882Y51810D01*
X139935Y50879D01*
X139925Y50788D01*
X139918Y50747D01*
X139800Y50460D01*
X139573Y49914D01*
Y49013D01*
X139918Y48181D01*
X140555Y47543D01*
X141388Y47199D01*
X142289D01*
X143122Y47543D01*
X143759Y48181D01*
X144103Y49013D01*
Y49914D01*
X143759Y50747D01*
X143122Y51384D01*
X142289Y51729D01*
X141388D01*
X141207Y51654D01*
X140154Y52584D01*
X140163Y52676D01*
X140170Y52717D01*
X140289Y53004D01*
X140515Y53549D01*
Y54450D01*
X140170Y55283D01*
X139533Y55920D01*
X138701Y56265D01*
D02*
G37*
G36*
X226099Y54715D02*
X224501D01*
X223026Y54104D01*
X221896Y52974D01*
X221285Y51499D01*
Y49901D01*
X221896Y48426D01*
X223026Y47296D01*
X224501Y46685D01*
X226099D01*
X227574Y47296D01*
X228704Y48426D01*
X229315Y49901D01*
Y51499D01*
X228704Y52974D01*
X227574Y54104D01*
X226099Y54715D01*
D02*
G37*
G36*
X79704Y50560D02*
X78803D01*
X77970Y50215D01*
X77333Y49578D01*
X76988Y48745D01*
Y47844D01*
X77333Y47012D01*
X77970Y46375D01*
X78803Y46030D01*
X79704D01*
X80536Y46375D01*
X81174Y47012D01*
X81518Y47844D01*
Y48745D01*
X81174Y49578D01*
X80536Y50215D01*
X79704Y50560D01*
D02*
G37*
G36*
X86000Y49248D02*
X85099D01*
X84267Y48903D01*
X83630Y48266D01*
X83285Y47434D01*
Y46533D01*
X83630Y45700D01*
X84267Y45063D01*
X85099Y44718D01*
X86000D01*
X86833Y45063D01*
X87470Y45700D01*
X87815Y46533D01*
Y47434D01*
X87470Y48266D01*
X86833Y48903D01*
X86000Y49248D01*
D02*
G37*
G36*
X156119Y49047D02*
X155218D01*
X154385Y48702D01*
X153748Y48065D01*
X153403Y47232D01*
Y46331D01*
X153748Y45499D01*
X154385Y44861D01*
X155218Y44517D01*
X156119D01*
X156951Y44861D01*
X157588Y45499D01*
X157933Y46331D01*
Y47232D01*
X157588Y48065D01*
X156951Y48702D01*
X156119Y49047D01*
D02*
G37*
G36*
X141068Y45883D02*
X140167D01*
X139335Y45538D01*
X138698Y44901D01*
X138353Y44068D01*
Y43167D01*
X138698Y42335D01*
X139335Y41698D01*
X140167Y41353D01*
X141068D01*
X141901Y41698D01*
X142538Y42335D01*
X142883Y43167D01*
Y44068D01*
X142538Y44901D01*
X141901Y45538D01*
X141068Y45883D01*
D02*
G37*
G36*
X204450Y45265D02*
X203549D01*
X202717Y44920D01*
X202080Y44283D01*
X201735Y43450D01*
Y42549D01*
X202080Y41717D01*
X202717Y41080D01*
X203549Y40735D01*
X204450D01*
X205283Y41080D01*
X205920Y41717D01*
X206265Y42549D01*
Y43450D01*
X205920Y44283D01*
X205283Y44920D01*
X204450Y45265D01*
D02*
G37*
G36*
X115804Y45171D02*
X114903D01*
X114070Y44827D01*
X113433Y44189D01*
X113088Y43357D01*
Y42456D01*
X113433Y41623D01*
X114070Y40986D01*
X114903Y40641D01*
X115804D01*
X116636Y40986D01*
X117274Y41623D01*
X117618Y42456D01*
Y43357D01*
X117274Y44189D01*
X116636Y44827D01*
X115804Y45171D01*
D02*
G37*
G36*
X303050Y44265D02*
X301950D01*
X300934Y43844D01*
X300156Y43066D01*
X299735Y42050D01*
Y40950D01*
X300156Y39934D01*
X300934Y39156D01*
X301950Y38735D01*
X303050D01*
X304066Y39156D01*
X304844Y39934D01*
X305265Y40950D01*
Y42050D01*
X304844Y43066D01*
X304066Y43844D01*
X303050Y44265D01*
D02*
G37*
G36*
X289550D02*
X288450D01*
X287434Y43844D01*
X286656Y43066D01*
X286235Y42050D01*
Y40950D01*
X286656Y39934D01*
X287434Y39156D01*
X288450Y38735D01*
X289550D01*
X290566Y39156D01*
X291344Y39934D01*
X291765Y40950D01*
Y42050D01*
X291344Y43066D01*
X290566Y43844D01*
X289550Y44265D01*
D02*
G37*
G36*
X69451Y42265D02*
X68549D01*
X67717Y41920D01*
X67080Y41283D01*
X66735Y40451D01*
Y39550D01*
X67080Y38717D01*
X67717Y38080D01*
X68549Y37735D01*
X69451D01*
X70283Y38080D01*
X70920Y38717D01*
X71265Y39550D01*
Y40451D01*
X70920Y41283D01*
X70283Y41920D01*
X69451Y42265D01*
D02*
G37*
G36*
X172253Y41860D02*
X171352D01*
X170519Y41515D01*
X169882Y40878D01*
X169537Y40046D01*
Y39145D01*
X169882Y38312D01*
X170519Y37675D01*
X171352Y37330D01*
X172253D01*
X173085Y37675D01*
X173722Y38312D01*
X174067Y39145D01*
Y40046D01*
X173722Y40878D01*
X173085Y41515D01*
X172253Y41860D01*
D02*
G37*
G36*
X100716Y51280D02*
X99815D01*
X98982Y50935D01*
X98345Y50298D01*
X98000Y49466D01*
Y48565D01*
X98345Y47732D01*
X98982Y47095D01*
X99500Y46880D01*
X99814Y46750D01*
Y45515D01*
X99500Y45385D01*
X98982Y45170D01*
X98345Y44533D01*
X98000Y43700D01*
Y42800D01*
X98345Y41967D01*
X98455Y41857D01*
X98968Y41295D01*
X98524Y40145D01*
X98265Y39520D01*
Y38619D01*
X98610Y37786D01*
X99247Y37149D01*
X100080Y36804D01*
X100981D01*
X101813Y37149D01*
X102450Y37786D01*
X102500Y37907D01*
X103129Y39021D01*
X104030D01*
X104863Y39366D01*
X105500Y40003D01*
X105845Y40835D01*
Y41736D01*
X105500Y42569D01*
X104863Y43206D01*
X104030Y43551D01*
X103129D01*
X102224Y44440D01*
X102185Y44533D01*
X101548Y45170D01*
X101031Y45385D01*
X100716Y45515D01*
Y46750D01*
X101031Y46880D01*
X101548Y47095D01*
X102185Y47732D01*
X102530Y48565D01*
Y49466D01*
X102185Y50298D01*
X101548Y50935D01*
X100716Y51280D01*
D02*
G37*
G36*
X133834Y40630D02*
X132933D01*
X132101Y40285D01*
X131463Y39648D01*
X131119Y38816D01*
Y37915D01*
X131463Y37082D01*
X132101Y36445D01*
X132933Y36100D01*
X133834D01*
X134667Y36445D01*
X135304Y37082D01*
X135649Y37915D01*
Y38816D01*
X135304Y39648D01*
X134667Y40285D01*
X133834Y40630D01*
D02*
G37*
G36*
X238799Y42015D02*
X237201D01*
X235726Y41404D01*
X234596Y40274D01*
X233985Y38799D01*
Y37201D01*
X234596Y35726D01*
X235726Y34596D01*
X237201Y33985D01*
X238799D01*
X240274Y34596D01*
X241404Y35726D01*
X242015Y37201D01*
Y38799D01*
X241404Y40274D01*
X240274Y41404D01*
X238799Y42015D01*
D02*
G37*
G36*
X226099D02*
X224501D01*
X223026Y41404D01*
X221896Y40274D01*
X221285Y38799D01*
Y37201D01*
X221896Y35726D01*
X223026Y34596D01*
X224501Y33985D01*
X226099D01*
X227574Y34596D01*
X228704Y35726D01*
X229315Y37201D01*
Y38799D01*
X228704Y40274D01*
X227574Y41404D01*
X226099Y42015D01*
D02*
G37*
G36*
X162966Y37534D02*
X162064D01*
X161232Y37189D01*
X160595Y36552D01*
X160250Y35719D01*
Y34818D01*
X160595Y33986D01*
X161232Y33349D01*
X162064Y33004D01*
X162966D01*
X163798Y33349D01*
X164435Y33986D01*
X164780Y34818D01*
Y35719D01*
X164435Y36552D01*
X163798Y37189D01*
X162966Y37534D01*
D02*
G37*
G36*
X86428Y40745D02*
X85527D01*
X84694Y40401D01*
X84057Y39763D01*
X83981Y39579D01*
X82950Y38765D01*
X82049D01*
X81217Y38420D01*
X80580Y37783D01*
X80235Y36951D01*
Y36049D01*
X80580Y35217D01*
X81217Y34580D01*
X82049Y34235D01*
X82950D01*
X83783Y34580D01*
X84420Y35217D01*
X84496Y35401D01*
X85527Y36215D01*
X86428D01*
X87607Y35942D01*
X88244Y35305D01*
X89077Y34960D01*
X89978D01*
X90731Y33898D01*
X90984Y33287D01*
X91621Y32650D01*
X92453Y32305D01*
X93354D01*
X94187Y32650D01*
X94824Y33287D01*
X95169Y34120D01*
Y35021D01*
X94824Y35853D01*
X94187Y36490D01*
X93354Y36835D01*
X92453D01*
X91700Y37898D01*
X91447Y38509D01*
X90810Y39146D01*
X89978Y39490D01*
X89077D01*
X87898Y39763D01*
X87261Y40401D01*
X86428Y40745D01*
D02*
G37*
G36*
X63450Y36265D02*
X62550D01*
X61717Y35920D01*
X61080Y35283D01*
X60735Y34451D01*
Y33549D01*
X61080Y32717D01*
X61717Y32080D01*
X62550Y31735D01*
X63450D01*
X64283Y32080D01*
X64920Y32717D01*
X65265Y33549D01*
Y34451D01*
X64920Y35283D01*
X64283Y35920D01*
X63450Y36265D01*
D02*
G37*
G36*
X119050Y35533D02*
X118149D01*
X117317Y35188D01*
X116679Y34551D01*
X116335Y33718D01*
Y32817D01*
X116679Y31985D01*
X117317Y31348D01*
X118149Y31003D01*
X119050D01*
X119883Y31348D01*
X120520Y31985D01*
X120865Y32817D01*
Y33718D01*
X120520Y34551D01*
X119883Y35188D01*
X119050Y35533D01*
D02*
G37*
G36*
X103985Y32842D02*
X103084D01*
X102251Y32497D01*
X101614Y31860D01*
X101269Y31027D01*
Y30126D01*
X101614Y29294D01*
X102251Y28657D01*
X103084Y28312D01*
X103985D01*
X104817Y28657D01*
X105454Y29294D01*
X105799Y30126D01*
Y31027D01*
X105454Y31860D01*
X104817Y32497D01*
X103985Y32842D01*
D02*
G37*
G36*
X69451Y32265D02*
X68549D01*
X67717Y31920D01*
X67080Y31283D01*
X66735Y30450D01*
Y29549D01*
X67080Y28717D01*
X67717Y28080D01*
X68549Y27735D01*
X69451D01*
X70283Y28080D01*
X70920Y28717D01*
X71265Y29549D01*
Y30450D01*
X70920Y31283D01*
X70283Y31920D01*
X69451Y32265D01*
D02*
G37*
G36*
X89512Y31785D02*
X88611D01*
X87779Y31440D01*
X87142Y30803D01*
X86797Y29970D01*
Y29069D01*
X87142Y28237D01*
X87779Y27599D01*
X88075Y27477D01*
X88642Y26882D01*
X88714Y25985D01*
X88607Y25725D01*
Y24824D01*
X88951Y23991D01*
X89589Y23354D01*
X90421Y23009D01*
X91322D01*
X92155Y23354D01*
X92792Y23991D01*
X93137Y24824D01*
Y25725D01*
X92792Y26557D01*
X92155Y27194D01*
X91859Y27317D01*
X91292Y27912D01*
X91219Y28809D01*
X91327Y29069D01*
Y29970D01*
X90982Y30803D01*
X90345Y31440D01*
X89512Y31785D01*
D02*
G37*
G36*
X74746Y26284D02*
X73845D01*
X73012Y25939D01*
X72375Y25302D01*
X72030Y24470D01*
Y23569D01*
X72375Y22736D01*
X73012Y22099D01*
X73845Y21754D01*
X74746D01*
X75578Y22099D01*
X76216Y22736D01*
X76560Y23569D01*
Y24470D01*
X76216Y25302D01*
X75578Y25939D01*
X74746Y26284D01*
D02*
G37*
G36*
X160628Y23928D02*
X159727D01*
X158894Y23583D01*
X158257Y22945D01*
X157913Y22113D01*
Y21212D01*
X158257Y20380D01*
X158894Y19742D01*
X159727Y19397D01*
X160628D01*
X161460Y19742D01*
X162098Y20380D01*
X162442Y21212D01*
Y22113D01*
X162098Y22945D01*
X161460Y23583D01*
X160628Y23928D01*
D02*
G37*
G36*
X137025Y23351D02*
X136124D01*
X135292Y23006D01*
X134655Y22369D01*
X134310Y21536D01*
Y20635D01*
X134655Y19803D01*
X135292Y19166D01*
X136124Y18821D01*
X137025D01*
X137858Y19166D01*
X138495Y19803D01*
X138840Y20635D01*
Y21536D01*
X138495Y22369D01*
X137858Y23006D01*
X137025Y23351D01*
D02*
G37*
G36*
X114201Y22325D02*
X113300D01*
X112467Y21980D01*
X111830Y21343D01*
X111485Y20510D01*
Y19609D01*
X111830Y18777D01*
X112467Y18140D01*
X113300Y17795D01*
X114201D01*
X115033Y18140D01*
X116026Y18247D01*
X116664Y17610D01*
X117496Y17265D01*
X118397D01*
X119230Y17610D01*
X119867Y18247D01*
X120211Y19080D01*
Y19981D01*
X119867Y20813D01*
X119230Y21450D01*
X118397Y21795D01*
X117496D01*
X116664Y21450D01*
X115670Y21343D01*
X115033Y21980D01*
X114201Y22325D01*
D02*
G37*
G36*
X102451Y16265D02*
X101550D01*
X100717Y15920D01*
X100080Y15283D01*
X99735Y14451D01*
Y13549D01*
X100080Y12717D01*
X100717Y12080D01*
X101550Y11735D01*
X102451D01*
X103283Y12080D01*
X103920Y12717D01*
X104265Y13549D01*
Y14451D01*
X103920Y15283D01*
X103283Y15920D01*
X102451Y16265D01*
D02*
G37*
G36*
X127451Y8500D02*
X126550D01*
X125717Y8155D01*
X125080Y7518D01*
X124735Y6686D01*
Y5785D01*
X125080Y4952D01*
X125717Y4315D01*
X126550Y3970D01*
X127451D01*
X128283Y4315D01*
X128920Y4952D01*
X129265Y5785D01*
Y6686D01*
X128920Y7518D01*
X128283Y8155D01*
X127451Y8500D01*
D02*
G37*
%LPD*%
G36*
X207522Y63588D02*
X207611Y63577D01*
X207710Y63555D01*
X207822Y63532D01*
X207944Y63510D01*
X208210Y63421D01*
X208354Y63355D01*
X208487Y63288D01*
X208632Y63199D01*
X208776Y63099D01*
X208920Y62988D01*
X209054Y62855D01*
X209065Y62844D01*
X209087Y62822D01*
X209120Y62778D01*
X209165Y62722D01*
X209220Y62655D01*
X209276Y62567D01*
X209342Y62467D01*
X209398Y62345D01*
X209464Y62222D01*
X209531Y62078D01*
X209586Y61934D01*
X209642Y61767D01*
X209686Y61590D01*
X209720Y61401D01*
X209742Y61212D01*
X209753Y61002D01*
Y60902D01*
X209742Y60835D01*
X209731Y60746D01*
X209720Y60646D01*
X209697Y60535D01*
X209675Y60413D01*
X209609Y60147D01*
X209498Y59869D01*
X209431Y59725D01*
X209353Y59592D01*
X209253Y59459D01*
X209153Y59325D01*
X209142Y59314D01*
X209120Y59292D01*
X209087Y59259D01*
X209042Y59226D01*
X208987Y59170D01*
X208909Y59114D01*
X208832Y59048D01*
X208732Y58981D01*
X208621Y58915D01*
X208510Y58848D01*
X208243Y58726D01*
X207932Y58626D01*
X207766Y58593D01*
X207588Y58571D01*
X207466Y59514D01*
X207477D01*
X207500Y59525D01*
X207544Y59536D01*
X207600Y59547D01*
X207666Y59559D01*
X207744Y59581D01*
X207910Y59636D01*
X208110Y59714D01*
X208299Y59814D01*
X208476Y59925D01*
X208632Y60058D01*
X208643Y60080D01*
X208687Y60125D01*
X208743Y60213D01*
X208798Y60324D01*
X208865Y60458D01*
X208920Y60624D01*
X208965Y60813D01*
X208976Y61013D01*
Y61079D01*
X208965Y61124D01*
X208954Y61246D01*
X208920Y61401D01*
X208865Y61579D01*
X208787Y61767D01*
X208676Y61956D01*
X208521Y62134D01*
X208499Y62156D01*
X208432Y62211D01*
X208332Y62278D01*
X208199Y62367D01*
X208032Y62456D01*
X207844Y62522D01*
X207622Y62578D01*
X207377Y62600D01*
X207366D01*
X207344D01*
X207311D01*
X207267Y62589D01*
X207144Y62578D01*
X207000Y62544D01*
X206822Y62500D01*
X206645Y62422D01*
X206467Y62311D01*
X206301Y62167D01*
X206279Y62145D01*
X206234Y62089D01*
X206168Y62000D01*
X206090Y61878D01*
X206012Y61723D01*
X205946Y61534D01*
X205901Y61323D01*
X205879Y61090D01*
Y60990D01*
X205890Y60913D01*
X205901Y60813D01*
X205923Y60702D01*
X205946Y60569D01*
X205979Y60424D01*
X205147Y60535D01*
Y60591D01*
X205158Y60635D01*
Y60780D01*
X205135Y60902D01*
X205113Y61046D01*
X205080Y61212D01*
X205024Y61401D01*
X204947Y61579D01*
X204847Y61767D01*
Y61778D01*
X204836Y61790D01*
X204791Y61845D01*
X204714Y61923D01*
X204614Y62012D01*
X204469Y62100D01*
X204303Y62178D01*
X204114Y62234D01*
X204003Y62256D01*
X203881D01*
X203870D01*
X203859D01*
X203792D01*
X203703Y62234D01*
X203581Y62211D01*
X203448Y62167D01*
X203304Y62112D01*
X203160Y62023D01*
X203026Y61901D01*
X203015Y61890D01*
X202971Y61834D01*
X202915Y61756D01*
X202849Y61656D01*
X202793Y61523D01*
X202738Y61368D01*
X202693Y61190D01*
X202682Y60990D01*
Y60902D01*
X202705Y60802D01*
X202727Y60669D01*
X202771Y60524D01*
X202827Y60380D01*
X202915Y60224D01*
X203026Y60080D01*
X203037Y60069D01*
X203093Y60025D01*
X203171Y59958D01*
X203282Y59880D01*
X203426Y59803D01*
X203604Y59725D01*
X203815Y59658D01*
X204059Y59614D01*
X203892Y58671D01*
X203881D01*
X203848Y58682D01*
X203803Y58693D01*
X203737Y58704D01*
X203659Y58726D01*
X203570Y58759D01*
X203359Y58826D01*
X203115Y58937D01*
X202871Y59070D01*
X202638Y59237D01*
X202427Y59447D01*
X202416Y59459D01*
X202405Y59481D01*
X202383Y59514D01*
X202349Y59559D01*
X202305Y59614D01*
X202260Y59692D01*
X202216Y59769D01*
X202161Y59869D01*
X202072Y60091D01*
X201983Y60347D01*
X201928Y60646D01*
X201905Y60802D01*
Y61079D01*
X201916Y61201D01*
X201939Y61346D01*
X201972Y61523D01*
X202027Y61723D01*
X202094Y61923D01*
X202183Y62123D01*
Y62134D01*
X202194Y62145D01*
X202227Y62211D01*
X202294Y62311D01*
X202372Y62422D01*
X202482Y62555D01*
X202605Y62689D01*
X202749Y62822D01*
X202915Y62933D01*
X202938Y62944D01*
X202993Y62977D01*
X203093Y63022D01*
X203215Y63077D01*
X203359Y63133D01*
X203526Y63177D01*
X203715Y63210D01*
X203903Y63222D01*
X203925D01*
X203992D01*
X204081Y63210D01*
X204203Y63188D01*
X204347Y63155D01*
X204503Y63099D01*
X204658Y63033D01*
X204813Y62944D01*
X204836Y62933D01*
X204880Y62900D01*
X204958Y62833D01*
X205047Y62744D01*
X205147Y62633D01*
X205257Y62500D01*
X205357Y62345D01*
X205457Y62156D01*
Y62167D01*
X205468Y62189D01*
X205479Y62222D01*
X205490Y62267D01*
X205535Y62389D01*
X205602Y62544D01*
X205690Y62722D01*
X205801Y62900D01*
X205946Y63066D01*
X206112Y63222D01*
X206134Y63233D01*
X206201Y63277D01*
X206312Y63344D01*
X206456Y63410D01*
X206634Y63477D01*
X206845Y63543D01*
X207089Y63588D01*
X207355Y63599D01*
X207366D01*
X207400D01*
X207455D01*
X207522Y63588D01*
D02*
G37*
D11*
X115799Y7809D02*
X116672Y6935D01*
X119935D02*
X125265Y12265D01*
X116672Y6935D02*
X119935D01*
X114191Y7809D02*
X115799D01*
X125265Y12265D02*
X138788D01*
X96250Y7235D02*
X100221D01*
X102148Y9161D02*
X104852D01*
X111014Y3000D01*
X100221Y7235D02*
X102148Y9161D01*
X138788Y12265D02*
X141111Y9941D01*
Y8851D02*
X149461D01*
X149610Y9000D01*
X141111Y8851D02*
Y9941D01*
X114000Y8000D02*
X114191Y7809D01*
X78500Y20500D02*
X78750Y20750D01*
X78500Y20250D02*
Y20500D01*
D13*
X85550Y46983D02*
Y47050D01*
X160177Y21662D02*
Y21789D01*
D16*
X198000Y143000D02*
G03*
X193000Y148000I-5000J0D01*
G01*
X198000Y33000D02*
G03*
X193000Y38000I-5000J0D01*
G01*
Y46000D02*
G03*
X198000Y51000I0J5000D01*
G01*
X198000Y74000D02*
G03*
X193000Y79000I-5000J0D01*
G01*
X193000Y91000D02*
G03*
X198000Y96000I0J5000D01*
G01*
X198000Y5000D02*
G03*
X203000Y0I5000J0D01*
G01*
X64000Y143000D02*
G03*
X59000Y148000I-5000J0D01*
G01*
X77000D02*
G03*
X72000Y143000I0J-5000D01*
G01*
X0Y153000D02*
G03*
X5000Y148000I5000J0D01*
G01*
X127000Y148000D02*
G03*
X122000Y143000I0J-5000D01*
G01*
X114000D02*
G03*
X109000Y148000I-5000J0D01*
G01*
X5000Y192000D02*
G03*
X0Y187000I0J-5000D01*
G01*
X367000D02*
G03*
X362000Y192000I-5000J0D01*
G01*
Y0D02*
G03*
X367000Y5000I0J5000D01*
G01*
X122000Y131000D02*
G03*
X127000Y126000I5000J0D01*
G01*
X59000D02*
G03*
X64000Y131000I0J5000D01*
G01*
X109000Y126000D02*
G03*
X114000Y131000I0J5000D01*
G01*
X72000Y131000D02*
G03*
X77000Y126000I5000J0D01*
G01*
X181000Y79000D02*
G03*
X176000Y74000I0J-5000D01*
G01*
X176000Y96000D02*
G03*
X181000Y91000I5000J0D01*
G01*
X181000Y38000D02*
G03*
X176000Y33000I0J-5000D01*
G01*
X176000Y51000D02*
G03*
X181000Y46000I5000J0D01*
G01*
X20000Y95000D02*
G03*
X30000Y105000I0J10000D01*
G01*
X0Y153000D02*
X0Y187000D01*
X203000Y0D02*
X362000D01*
X64000Y143045D02*
X64000Y131000D01*
X72000Y143000D02*
X72000Y131000D01*
X114000Y143000D02*
X114000Y131000D01*
X122000Y143000D02*
X122000Y131000D01*
X127000Y148000D02*
X193000D01*
X198000Y143000D02*
X198000Y96000D01*
X181000Y91000D02*
X193000D01*
X192000Y79000D02*
X193000D01*
X181000D02*
X192000D01*
X181000Y46000D02*
X193011D01*
X181000Y38000D02*
X193000D01*
X198000Y5000D02*
Y30000D01*
Y33000D01*
Y51000D02*
Y74000D01*
X77000Y148000D02*
X109000D01*
X5000Y148000D02*
X59000D01*
X5000Y192000D02*
X362000Y192000D01*
X367000Y5000D02*
Y187000D01*
X77000Y126000D02*
X109000D01*
X176000Y51000D02*
Y74000D01*
Y30000D02*
Y33000D01*
X127000Y126000D02*
X156000D01*
X175990Y29058D02*
X175998Y29529D01*
X175879Y26708D02*
X175911Y27177D01*
X175800Y25773D02*
X175842Y26240D01*
X175754Y25307D02*
X175800Y25773D01*
X175842Y26240D02*
X175879Y26708D01*
X175978Y28587D02*
X175990Y29058D01*
X175702Y24842D02*
X175754Y25307D01*
X175646Y24379D02*
X175702Y24842D01*
X175961Y28116D02*
X175978Y28587D01*
X175584Y23916D02*
X175646Y24379D01*
X175938Y27646D02*
X175961Y28116D01*
X175911Y27177D02*
X175938Y27646D01*
X175518Y23456D02*
X175584Y23916D01*
X173215Y14729D02*
X173373Y15136D01*
X173526Y15547D01*
X174228Y17655D02*
X174355Y18086D01*
X174097Y17227D02*
X174228Y17655D01*
X173960Y16802D02*
X174097Y17227D01*
X173053Y14325D02*
X173215Y14729D01*
X172887Y13925D02*
X173053Y14325D01*
X173820Y16380D02*
X173960Y16802D01*
X173675Y15962D02*
X173820Y16380D01*
X173526Y15547D02*
X173675Y15962D01*
X174596Y18956D02*
X174709Y19396D01*
X174922Y20282D02*
X175021Y20729D01*
X175447Y22997D02*
X175518Y23456D01*
X175372Y22539D02*
X175447Y22997D01*
X174818Y19838D02*
X174922Y20282D01*
X174709Y19396D02*
X174818Y19838D01*
X175291Y22084D02*
X175372Y22539D01*
X175206Y21630D02*
X175291Y22084D01*
X174478Y18520D02*
X174596Y18956D01*
X175116Y21179D02*
X175206Y21630D01*
X174355Y18086D02*
X174478Y18520D01*
X175021Y20729D02*
X175116Y21179D01*
X168008Y6010D02*
X168258Y6295D01*
X168748Y6885D02*
X168989Y7188D01*
X170142Y8787D02*
X170362Y9123D01*
X168505Y6587D02*
X168748Y6885D01*
X169918Y8456D02*
X170142Y8787D01*
X168258Y6295D02*
X168505Y6587D01*
X169691Y8131D02*
X169918Y8456D01*
X169460Y7811D02*
X169691Y8131D01*
X167756Y5730D02*
X168008Y6010D01*
X169226Y7497D02*
X169460Y7811D01*
X168989Y7188D02*
X169226Y7497D01*
X170362Y9123D02*
X170579Y9464D01*
X167242Y5188D02*
X167500Y5455D01*
X165909Y3941D02*
X166181Y4178D01*
X165635Y3711D02*
X165909Y3941D01*
X165359Y3487D02*
X165635Y3711D01*
X166980Y4926D02*
X167242Y5188D01*
X166716Y4670D02*
X166980Y4926D01*
X165080Y3270D02*
X165359Y3487D01*
X164799Y3059D02*
X165080Y3270D01*
X166450Y4421D02*
X166716Y4670D01*
X164516Y2855D02*
X164799Y3059D01*
X166181Y4178D02*
X166450Y4421D01*
X167500Y5455D02*
X167756Y5730D01*
X162180Y1468D02*
X162478Y1618D01*
X160363Y723D02*
X160669Y829D01*
X160056Y623D02*
X160363Y723D01*
X161881Y1326D02*
X162180Y1468D01*
X159748Y531D02*
X160056Y623D01*
X161580Y1191D02*
X161881Y1326D01*
X161277Y1063D02*
X161580Y1191D01*
X159439Y447D02*
X159748Y531D01*
X159129Y369D02*
X159439Y447D01*
X160974Y943D02*
X161277Y1063D01*
X160669Y829D02*
X160974Y943D01*
X162478Y1618D02*
X162775Y1774D01*
X172542Y13138D02*
X172716Y13529D01*
X171410Y10877D02*
X171609Y11243D01*
X171208Y10517D02*
X171410Y10877D01*
X172363Y12750D02*
X172542Y13138D01*
X172180Y12366D02*
X172363Y12750D01*
X171002Y10161D02*
X171208Y10517D01*
X170793Y9810D02*
X171002Y10161D01*
X171994Y11987D02*
X172180Y12366D01*
X170579Y9464D02*
X170793Y9810D01*
X171803Y11613D02*
X171994Y11987D01*
X172716Y13529D02*
X172887Y13925D01*
X171609Y11243D02*
X171803Y11613D01*
X156000Y0D02*
X156314Y4D01*
X156628Y15D01*
X156942Y33D01*
X157256Y59D01*
X158507Y237D02*
X158818Y299D01*
X158195Y181D02*
X158507Y237D01*
X157882Y133D02*
X158195Y181D01*
X157569Y93D02*
X157882Y133D01*
X157256Y59D02*
X157569Y93D01*
X158818Y299D02*
X159129Y369D01*
X162775Y1774D02*
X163069Y1937D01*
X163943Y2467D02*
X164230Y2658D01*
X163654Y2284D02*
X163943Y2467D01*
X163363Y2107D02*
X163654Y2284D01*
X163069Y1937D02*
X163363Y2107D01*
X164230Y2658D02*
X164516Y2855D01*
X175998Y29529D02*
X176000Y30000D01*
X175990Y96942D02*
X175998Y96471D01*
X175879Y99292D02*
X175911Y98823D01*
X175800Y100227D02*
X175842Y99760D01*
X175754Y100693D02*
X175800Y100227D01*
X175842Y99760D02*
X175879Y99292D01*
X175978Y97413D02*
X175990Y96942D01*
X175702Y101158D02*
X175754Y100693D01*
X175646Y101621D02*
X175702Y101158D01*
X175961Y97884D02*
X175978Y97413D01*
X175584Y102084D02*
X175646Y101621D01*
X175938Y98354D02*
X175961Y97884D01*
X175911Y98823D02*
X175938Y98354D01*
X175518Y102544D02*
X175584Y102084D01*
X173215Y111271D02*
X173373Y110864D01*
X173526Y110453D01*
X174228Y108345D02*
X174355Y107914D01*
X174097Y108773D02*
X174228Y108345D01*
X173960Y109198D02*
X174097Y108773D01*
X173053Y111675D02*
X173215Y111271D01*
X172887Y112075D02*
X173053Y111675D01*
X173820Y109620D02*
X173960Y109198D01*
X173675Y110038D02*
X173820Y109620D01*
X173526Y110453D02*
X173675Y110038D01*
X174596Y107044D02*
X174709Y106604D01*
X174922Y105717D02*
X175021Y105271D01*
X175447Y103003D02*
X175518Y102544D01*
X175372Y103461D02*
X175447Y103003D01*
X174818Y106162D02*
X174922Y105717D01*
X174709Y106604D02*
X174818Y106162D01*
X175291Y103916D02*
X175372Y103461D01*
X175206Y104370D02*
X175291Y103916D01*
X174478Y107480D02*
X174596Y107044D01*
X175116Y104821D02*
X175206Y104370D01*
X174355Y107914D02*
X174478Y107480D01*
X175021Y105271D02*
X175116Y104821D01*
X168008Y119991D02*
X168258Y119705D01*
X168748Y119115D02*
X168989Y118812D01*
X170142Y117213D02*
X170362Y116877D01*
X168505Y119413D02*
X168748Y119115D01*
X169918Y117544D02*
X170142Y117213D01*
X168258Y119705D02*
X168505Y119413D01*
X169691Y117869D02*
X169918Y117544D01*
X169460Y118189D02*
X169691Y117869D01*
X167756Y120270D02*
X168008Y119991D01*
X169226Y118503D02*
X169460Y118189D01*
X168989Y118812D02*
X169226Y118503D01*
X170362Y116877D02*
X170579Y116536D01*
X167242Y120812D02*
X167500Y120544D01*
X165909Y122059D02*
X166181Y121822D01*
X165635Y122289D02*
X165909Y122059D01*
X165359Y122513D02*
X165635Y122289D01*
X166980Y121074D02*
X167242Y120812D01*
X166716Y121330D02*
X166980Y121074D01*
X165080Y122730D02*
X165359Y122513D01*
X164799Y122941D02*
X165080Y122730D01*
X166450Y121579D02*
X166716Y121330D01*
X164516Y123145D02*
X164799Y122941D01*
X166181Y121822D02*
X166450Y121579D01*
X167500Y120544D02*
X167756Y120270D01*
X162180Y124532D02*
X162478Y124382D01*
X160363Y125277D02*
X160669Y125171D01*
X160056Y125377D02*
X160363Y125277D01*
X161881Y124674D02*
X162180Y124532D01*
X159748Y125469D02*
X160056Y125377D01*
X161580Y124809D02*
X161881Y124674D01*
X161277Y124937D02*
X161580Y124809D01*
X159439Y125553D02*
X159748Y125469D01*
X159129Y125631D02*
X159439Y125553D01*
X160974Y125057D02*
X161277Y124937D01*
X160669Y125171D02*
X160974Y125057D01*
X162478Y124382D02*
X162775Y124226D01*
X172542Y112863D02*
X172716Y112471D01*
X171410Y115123D02*
X171609Y114757D01*
X171208Y115483D02*
X171410Y115123D01*
X172363Y113250D02*
X172542Y112863D01*
X172180Y113633D02*
X172363Y113250D01*
X171002Y115839D02*
X171208Y115483D01*
X170793Y116190D02*
X171002Y115839D01*
X171994Y114012D02*
X172180Y113633D01*
X170579Y116536D02*
X170793Y116190D01*
X171803Y114387D02*
X171994Y114012D01*
X172716Y112471D02*
X172887Y112075D01*
X171609Y114757D02*
X171803Y114387D01*
X156000Y126000D02*
X156314Y125996D01*
X156628Y125985D01*
X156942Y125967D01*
X157256Y125941D01*
X158507Y125763D02*
X158818Y125701D01*
X158195Y125819D02*
X158507Y125763D01*
X157882Y125867D02*
X158195Y125819D01*
X157569Y125907D02*
X157882Y125867D01*
X157256Y125941D02*
X157569Y125907D01*
X158818Y125701D02*
X159129Y125631D01*
X162775Y124226D02*
X163069Y124063D01*
X163943Y123533D02*
X164230Y123342D01*
X163654Y123716D02*
X163943Y123533D01*
X163363Y123893D02*
X163654Y123716D01*
X163069Y124063D02*
X163363Y123893D01*
X164230Y123342D02*
X164516Y123145D01*
X175998Y96471D02*
X176000Y96000D01*
X50000Y126000D02*
X59000D01*
X884Y84411D02*
X979Y84635D01*
X628Y83730D02*
X709Y83958D01*
X415Y83042D02*
X482Y83272D01*
X1405Y85522D02*
X1522Y85740D01*
X2785Y87636D02*
X2947Y87837D01*
X4197Y89194D02*
X4391Y89379D01*
X154Y9215D02*
X222Y9059D01*
X616Y8436D02*
X745Y8281D01*
X4792Y89742D02*
X4998Y89920D01*
X5207Y90095D02*
X5421Y90268D01*
X5858Y90607D02*
X6082Y90772D01*
X6309Y90934D02*
X6540Y91095D01*
X7495Y91706D02*
X7742Y91852D01*
X5099Y5601D02*
X5450Y5460D01*
X9550Y92790D02*
X9819Y92911D01*
X10920Y93365D02*
X11201Y93470D01*
X11484Y93572D01*
X6963Y4910D02*
X7368Y4775D01*
X18118Y94933D02*
X18431Y94954D01*
X19058Y94983D02*
X19372Y94993D01*
X30062Y106648D02*
X30089Y106976D01*
X30121Y107304D02*
X30158Y107632D01*
X30354Y108935D02*
X30415Y109258D01*
X31182Y112114D02*
X31291Y112423D01*
X31405Y112731D02*
X31522Y113036D01*
X31772Y113642D02*
X31904Y113941D01*
X32474Y115117D02*
X32627Y115405D01*
X34590Y118386D02*
X34792Y118638D01*
X33063Y591D02*
X33804Y539D01*
X37992Y121793D02*
X38244Y121989D01*
X38758Y122369D02*
X39020Y122552D01*
X39550Y122905D02*
X39819Y123076D01*
X40641Y123559D02*
X40920Y123711D01*
X43522Y124868D02*
X43820Y124972D01*
X44119Y125072D02*
X44420Y125166D01*
X46860Y20D02*
X47645Y11D01*
X48429Y5D01*
X47805Y125873D02*
X48118Y125907D01*
X48431Y125935D02*
X48744Y125959D01*
X49058Y125977D02*
X49372Y125990D01*
X48744Y125959D02*
X49058Y125977D01*
X1522Y85740D02*
X1645Y85957D01*
X1772Y86173D02*
X1903Y86387D01*
X2325Y87019D02*
X2474Y87226D01*
X0Y80000D02*
X3Y80236D01*
X0Y10000D02*
Y80000D01*
X6Y9843D02*
X25Y9686D01*
X55Y9529D02*
X99Y9372D01*
X222Y9059D02*
X302Y8903D01*
X1571Y7513D02*
X1772Y7361D01*
X3228Y6465D02*
X3511Y6319D01*
X3806Y6173D01*
X4430Y5885D02*
X4759Y5742D01*
X5099Y5601D01*
X9819Y92911D02*
X10091Y93029D01*
X5812Y5321D02*
X6185Y5182D01*
X6568Y5045D01*
X9093Y4250D02*
X9549Y4122D01*
X16252Y94734D02*
X16561Y94777D01*
X11474Y3626D02*
X11980Y3505D01*
X17805Y94909D02*
X18118Y94933D01*
X13018Y3270D02*
X13552Y3155D01*
X18744Y94970D02*
X19058Y94983D01*
X30010Y105660D02*
X30022Y105989D01*
X31078Y111802D02*
X31182Y112114D01*
X23875Y1474D02*
X24548Y1393D01*
X25227Y1314D02*
X25912Y1237D01*
X32180Y114534D02*
X32325Y114826D01*
X30143Y822D02*
X30866Y761D01*
X31594Y702D02*
X32326Y646D01*
X36806Y354D02*
X37566Y314D01*
X39020Y122552D02*
X39283Y122731D01*
X40631Y177D02*
X41403Y149D01*
X45295Y44D02*
X46077Y31D01*
X46871Y125742D02*
X47182Y125791D01*
X47493Y125834D01*
X49215Y1D02*
X50000Y0D01*
X482Y83272D02*
X553Y83502D01*
X246Y82346D02*
X298Y82579D01*
X4391Y89379D02*
X4590Y89561D01*
X4792Y89742D01*
X302Y8903D02*
X394Y8747D01*
X745Y8281D02*
X886Y8126D01*
X7992Y91995D02*
X8244Y92135D01*
X3806Y6173D02*
X4112Y6029D01*
X8758Y92406D02*
X9020Y92537D01*
X4112Y6029D02*
X4430Y5885D01*
X6568Y5045D02*
X6963Y4910D01*
X10016Y3996D02*
X10492Y3871D01*
X10978Y3748D01*
X15331Y94586D02*
X15637Y94639D01*
X15944Y94688D02*
X16252Y94734D01*
X17493Y94882D02*
X17805Y94909D01*
X18431Y94954D02*
X18744Y94970D01*
X14094Y3041D02*
X14645Y2929D01*
X30089Y106976D02*
X30121Y107304D01*
X19979Y2003D02*
X20611Y1910D01*
X30628Y110223D02*
X30709Y110541D01*
X22549Y1642D02*
X23209Y1557D01*
X30794Y110859D02*
X30884Y111175D01*
X30979Y111489D02*
X31078Y111802D01*
X31645Y113340D02*
X31772Y113642D01*
X33458Y116804D02*
X33637Y117075D01*
X34998Y118888D02*
X35207Y119133D01*
X33804Y539D02*
X34549Y489D01*
X36540Y120532D02*
X36774Y120752D01*
X37011Y120969D01*
X38500Y122181D02*
X38758Y122369D01*
X39093Y241D02*
X39861Y208D01*
X44513Y60D02*
X45295Y44D01*
X44420Y125166D02*
X44722Y125256D01*
X46077Y31D02*
X46860Y20D01*
X46252Y125628D02*
X46561Y125687D01*
X1182Y85081D02*
X1291Y85302D01*
X1903Y86387D02*
X2039Y86599D01*
X2180Y86810D01*
X22Y80707D02*
X39Y80942D01*
X3113Y88037D02*
X3284Y88235D01*
X3458Y88431D01*
X4006Y89006D02*
X4197Y89194D01*
X394Y8747D02*
X499Y8591D01*
X1985Y7210D02*
X2210Y7060D01*
X2447Y6910D02*
X2696Y6761D01*
X8244Y92135D02*
X8500Y92272D01*
X10091Y93029D02*
X10365Y93145D01*
X8646Y4379D02*
X9093Y4250D01*
X14119Y94337D02*
X14420Y94404D01*
X16561Y94777D02*
X16871Y94815D01*
X17182Y94850D01*
X15204Y2819D02*
X15773Y2710D01*
X30000Y105000D02*
X30003Y105330D01*
X18129Y2295D02*
X18738Y2196D01*
X19355Y2098D02*
X19979Y2003D01*
X20611Y1910D02*
X21250Y1819D01*
X30553Y109902D02*
X30628Y110223D01*
X31522Y113036D02*
X31645Y113340D01*
X25912Y1237D02*
X26604Y1162D01*
X28711Y952D02*
X29424Y886D01*
X34391Y118130D02*
X34590Y118386D01*
X35207Y119133D02*
X35421Y119375D01*
X35638Y119614D01*
X36082Y120081D02*
X36309Y120308D01*
X35298Y442D02*
X36050Y397D01*
X37011Y120969D02*
X37252Y121181D01*
X39283Y122731D02*
X39550Y122905D01*
X41484Y124001D02*
X41770Y124139D01*
X42057Y124273D01*
X42955Y100D02*
X43733Y79D01*
X44722Y125256D02*
X45026Y125340D01*
X45331Y125420D01*
X48429Y5D02*
X49215Y1D01*
X709Y83958D02*
X794Y84185D01*
X553Y83502D02*
X628Y83730D01*
X89Y81412D02*
X121Y81646D01*
X3Y80236D02*
X10Y80471D01*
X62Y81177D02*
X89Y81412D01*
X3637Y88625D02*
X3820Y88817D01*
X0Y10000D02*
X6Y9843D01*
X3820Y88817D02*
X4006Y89006D01*
X4998Y89920D02*
X5207Y90095D01*
X886Y8126D02*
X1039Y7972D01*
X1772Y7361D02*
X1985Y7210D01*
X2210Y7060D02*
X2447Y6910D01*
X2696Y6761D02*
X2956Y6613D01*
X8500Y92272D02*
X8758Y92406D01*
X9283Y92665D02*
X9550Y92790D01*
X12057Y93766D02*
X12346Y93858D01*
X7784Y4642D02*
X8210Y4510D01*
X14420Y94404D02*
X14723Y94468D01*
X15637Y94639D02*
X15944Y94688D01*
X30199Y107959D02*
X30246Y108285D01*
X21250Y1819D02*
X21896Y1729D01*
X30482Y109581D02*
X30553Y109902D01*
X30709Y110541D02*
X30794Y110859D01*
X30884Y111175D02*
X30979Y111489D01*
X32325Y114826D02*
X32474Y115117D01*
X33284Y116530D02*
X33458Y116804D01*
X34197Y117871D02*
X34391Y118130D01*
X34792Y118638D02*
X34998Y118888D01*
X34549Y489D02*
X35298Y442D01*
X37495Y121389D02*
X37742Y121593D01*
X36050Y397D02*
X36806Y354D01*
X37566Y314D02*
X38328Y276D01*
X42178Y123D02*
X42955Y100D01*
X42638Y124525D02*
X42930Y124644D01*
X43225Y124759D02*
X43522Y124868D01*
X43820Y124972D02*
X44119Y125072D01*
X45637Y125494D02*
X45944Y125564D01*
X46561Y125687D02*
X46871Y125742D01*
X979Y84635D02*
X1078Y84859D01*
X1182Y85081D01*
X1645Y85957D02*
X1772Y86173D01*
X200Y82114D02*
X246Y82346D01*
X121Y81646D02*
X158Y81880D01*
X39Y80942D02*
X62Y81177D01*
X10Y80471D02*
X22Y80707D01*
X5421Y90268D02*
X5638Y90439D01*
X1382Y7666D02*
X1571Y7513D01*
X6540Y91095D02*
X6774Y91252D01*
X7011Y91406D01*
X7251Y91558D01*
X7495Y91706D01*
X2956Y6613D02*
X3228Y6465D01*
X10641Y93257D02*
X10920Y93365D01*
X7368Y4775D02*
X7784Y4642D01*
X12637Y93947D02*
X12931Y94032D01*
X13225Y94113D01*
X13522Y94191D02*
X13820Y94266D01*
X15026Y94529D02*
X15331Y94586D01*
X9549Y4122D02*
X10016Y3996D01*
X10978Y3748D02*
X11474Y3626D01*
X19372Y94993D02*
X19686Y94998D01*
X30003Y105330D02*
X30010Y105660D01*
X30022Y105989D02*
X30040Y106319D01*
X30062Y106648D01*
X18738Y2196D02*
X19355Y2098D01*
X30246Y108285D02*
X30298Y108610D01*
X32947Y115972D02*
X33113Y116252D01*
X29424Y886D02*
X30143Y822D01*
X34006Y117609D02*
X34197Y117871D01*
X30866Y761D02*
X31594Y702D01*
X32326Y646D02*
X33063Y591D01*
X37252Y121181D02*
X37495Y121389D01*
X39819Y123076D02*
X40091Y123241D01*
X42057Y124273D02*
X42346Y124402D01*
X42638Y124525D01*
X42930Y124644D02*
X43225Y124759D01*
X49372Y125990D02*
X49686Y125997D01*
X50000Y0D02*
X156000D01*
X298Y82579D02*
X354Y82811D01*
X2627Y87432D02*
X2785Y87636D01*
X3458Y88431D02*
X3637Y88625D01*
X25Y9686D02*
X55Y9529D01*
X499Y8591D02*
X616Y8436D01*
X5638Y90439D02*
X5858Y90607D01*
X1204Y7819D02*
X1382Y7666D01*
X6082Y90772D02*
X6309Y90934D01*
X9020Y92537D02*
X9283Y92665D01*
X10365Y93145D02*
X10641Y93257D01*
X11770Y93671D02*
X12057Y93766D01*
X12346Y93858D02*
X12637Y93947D01*
X13225Y94113D02*
X13522Y94191D01*
X14723Y94468D02*
X15026Y94529D01*
X11980Y3505D02*
X12494Y3387D01*
X13552Y3155D02*
X14094Y3041D01*
X14645Y2929D02*
X15204Y2819D01*
X15773Y2710D02*
X16349Y2604D01*
X16934Y2499D01*
X30158Y107632D02*
X30199Y107959D01*
X30298Y108610D02*
X30354Y108935D01*
X30415Y109258D02*
X30482Y109581D01*
X21896Y1729D02*
X22549Y1642D01*
X32039Y114239D02*
X32180Y114534D01*
X32627Y115405D02*
X32785Y115690D01*
X27301Y1090D02*
X28003Y1020D01*
X28711Y952D01*
X32785Y115690D02*
X32947Y115972D01*
X35638Y119614D02*
X35858Y119849D01*
X37742Y121593D02*
X37992Y121793D01*
X39861Y208D02*
X40631Y177D01*
X41403Y149D02*
X42178Y123D01*
X40920Y123711D02*
X41201Y123859D01*
X45944Y125564D02*
X46252Y125628D01*
X794Y84185D02*
X884Y84411D01*
X1291Y85302D02*
X1405Y85522D01*
X354Y82811D02*
X415Y83042D01*
X158Y81880D02*
X200Y82114D01*
X2180Y86810D02*
X2325Y87019D01*
X2474Y87226D02*
X2627Y87432D01*
X2947Y87837D02*
X3113Y88037D01*
X99Y9372D02*
X154Y9215D01*
X1039Y7972D02*
X1204Y7819D01*
X7742Y91852D02*
X7992Y91995D01*
X5450Y5460D02*
X5812Y5321D01*
X11484Y93572D02*
X11770Y93671D01*
X8210Y4510D02*
X8646Y4379D01*
X13820Y94266D02*
X14119Y94337D01*
X17182Y94850D02*
X17493Y94882D01*
X12494Y3387D02*
X13018Y3270D01*
X19686Y94998D02*
X20000Y95000D01*
X16934Y2499D02*
X17528Y2396D01*
X18129Y2295D01*
X23209Y1557D02*
X23875Y1474D01*
X31291Y112423D02*
X31405Y112731D01*
X24548Y1393D02*
X25227Y1314D01*
X31904Y113941D02*
X32039Y114239D01*
X26604Y1162D02*
X27301Y1090D01*
X33113Y116252D02*
X33284Y116530D01*
X33637Y117075D02*
X33820Y117344D01*
X34006Y117609D01*
X35858Y119849D02*
X36082Y120081D01*
X36309Y120308D02*
X36540Y120532D01*
X38244Y121989D02*
X38500Y122181D01*
X38328Y276D02*
X39093Y241D01*
X40091Y123241D02*
X40365Y123402D01*
X40641Y123559D01*
X41201Y123859D02*
X41484Y124001D01*
X43733Y79D02*
X44513Y60D01*
X45331Y125420D02*
X45637Y125494D01*
X47493Y125834D02*
X47805Y125873D01*
X48118Y125907D02*
X48431Y125935D01*
X49686Y125997D02*
X50000Y126000D01*
D57*
X294883Y174500D02*
D03*
X345683D02*
D03*
D59*
X336500Y105950D02*
D03*
Y19550D02*
D03*
D60*
X302500Y92500D02*
D03*
Y33000D02*
D03*
X289000D02*
D03*
Y92500D02*
D03*
D61*
X294000Y105950D02*
D03*
Y19550D02*
D03*
D62*
X238000Y88800D02*
D03*
Y63400D02*
D03*
Y50700D02*
D03*
D66*
X139750Y5356D02*
Y7490D01*
X138871Y4477D02*
X139750Y5356D01*
X136473Y4477D02*
X138871D01*
X139750Y7490D02*
X141111Y8851D01*
X130712Y3000D02*
X132750Y5038D01*
X111014Y3000D02*
X130712D01*
D67*
X118500Y127479D02*
Y148175D01*
X126352Y156028D01*
X209028D01*
X130199Y115780D02*
X135849D01*
X136074Y116005D01*
X118500Y127479D02*
X130199Y115780D01*
X142901Y78735D02*
X144257Y80091D01*
X171909D01*
X149610Y9000D02*
X158593D01*
X169765Y20172D01*
Y22281D01*
D82*
X106775Y44440D02*
D03*
X102000Y19530D02*
D03*
X66753Y85254D02*
D03*
X117529Y55015D02*
D03*
X209028Y156028D02*
D03*
X136074Y116005D02*
D03*
X112000Y101000D02*
D03*
X82537Y112552D02*
D03*
X59455Y106545D02*
D03*
X166250Y97250D02*
D03*
X68325Y76738D02*
D03*
X116735Y90861D02*
D03*
X89344Y68127D02*
D03*
X78704Y54733D02*
D03*
X87704Y83043D02*
D03*
X129323Y42365D02*
D03*
X118000Y27355D02*
D03*
X71768Y65965D02*
D03*
X142901Y78735D02*
D03*
X139000Y75000D02*
D03*
X87764Y92129D02*
D03*
X120000Y69750D02*
D03*
X85550Y46983D02*
D03*
X160177Y21662D02*
D03*
X169765Y22281D02*
D03*
X136473Y4477D02*
D03*
X132750Y5038D02*
D03*
X114000Y8000D02*
D03*
X92915Y49745D02*
D03*
X93000Y42849D02*
D03*
X172500Y32810D02*
D03*
X172066Y76321D02*
D03*
X96250Y7235D02*
D03*
X170105Y109180D02*
D03*
X249000Y11000D02*
D03*
X232000D02*
D03*
X215000D02*
D03*
X249000Y23000D02*
D03*
X232000D02*
D03*
X215000D02*
D03*
X171909Y80091D02*
D03*
X67555Y49296D02*
D03*
X75019Y40975D02*
D03*
X96145Y13259D02*
D03*
X78378Y14570D02*
D03*
X62012D02*
D03*
X66360D02*
D03*
X71608D02*
D03*
X57230D02*
D03*
X82500Y30201D02*
D03*
X69000Y34000D02*
D03*
X67958Y20208D02*
D03*
X78378Y20070D02*
D03*
X52378Y14570D02*
D03*
M02*
