G04*
G04 #@! TF.GenerationSoftware,Altium Limited,Altium Designer,23.10.1 (27)*
G04*
G04 Layer_Physical_Order=5*
G04 Layer_Color=16737945*
%FSLAX44Y44*%
%MOMM*%
G71*
G04*
G04 #@! TF.SameCoordinates,CCD2D7E0-A0E0-4381-AC8D-D070E886EAC1*
G04*
G04*
G04 #@! TF.FilePolarity,Positive*
G04*
G01*
G75*
%ADD11C,0.2000*%
%ADD13C,0.1000*%
%ADD16C,0.0500*%
%ADD57C,2.0000*%
%ADD59O,2.5000X1.3000*%
%ADD60C,0.7000*%
%ADD61O,3.2000X1.3000*%
%ADD62C,0.9000*%
%ADD65C,0.1800*%
%ADD66C,0.1500*%
%ADD67C,0.3000*%
%ADD68C,0.1499*%
%ADD69C,0.2200*%
%ADD82C,0.3000*%
G36*
X76777Y189451D02*
X77030Y188181D01*
X76967Y188155D01*
X76330Y187518D01*
X75985Y186686D01*
Y185784D01*
X76330Y184952D01*
X76967Y184315D01*
X77800Y183970D01*
X78701D01*
X79533Y184315D01*
X80170Y184952D01*
X80515Y185784D01*
Y186686D01*
X80170Y187518D01*
X79533Y188155D01*
X79471Y188181D01*
X79723Y189451D01*
X84094D01*
X84347Y188181D01*
X83772Y187943D01*
X83135Y187306D01*
X82790Y186473D01*
Y185572D01*
X83135Y184740D01*
X83772Y184103D01*
X84605Y183758D01*
X85506D01*
X86338Y184103D01*
X86975Y184740D01*
X87320Y185572D01*
Y186473D01*
X86975Y187306D01*
X86338Y187943D01*
X85764Y188181D01*
X86016Y189451D01*
X94719Y189451D01*
X95063Y188181D01*
X94617Y187883D01*
X65503Y158769D01*
X65002Y158020D01*
X64826Y157136D01*
Y149373D01*
X63653Y148887D01*
X63580Y148960D01*
X62753Y149512D01*
X60951Y150259D01*
X60584Y150332D01*
X60225Y150440D01*
X59250Y150536D01*
X59124Y150524D01*
X59000Y150549D01*
X4512Y150549D01*
X3611Y150922D01*
X2922Y151611D01*
X2549Y152512D01*
Y153000D01*
X2549Y187488D01*
X2922Y188389D01*
X3611Y189078D01*
X4512Y189451D01*
X5000D01*
X76777D01*
D02*
G37*
G36*
X66191Y114787D02*
X66027Y114688D01*
X64921Y114398D01*
X64519Y114799D01*
X63687Y115144D01*
X62786D01*
X61953Y114799D01*
X61316Y114162D01*
X60971Y113329D01*
Y112429D01*
X61316Y111596D01*
X61953Y110959D01*
X62786Y110614D01*
X63687D01*
X64519Y110959D01*
X64921Y111360D01*
X66027Y111070D01*
X66191Y110971D01*
Y108167D01*
X66367Y107284D01*
X66867Y106534D01*
X74295Y99107D01*
X73900Y97900D01*
X68000Y92000D01*
Y84375D01*
X63458Y79833D01*
X63057Y78865D01*
Y56716D01*
X63458Y55748D01*
X68000Y51206D01*
Y42037D01*
X67717Y41920D01*
X67080Y41283D01*
X66735Y40451D01*
Y39550D01*
X67080Y38717D01*
X67717Y38080D01*
X68000Y37963D01*
Y32037D01*
X67717Y31920D01*
X67080Y31283D01*
X66735Y30450D01*
Y29549D01*
X67080Y28717D01*
X67717Y28080D01*
X68000Y27963D01*
Y14000D01*
X50000D01*
Y123451D01*
X50012Y123451D01*
X59000D01*
X59124Y123476D01*
X59250Y123463D01*
X60225Y123560D01*
X60584Y123668D01*
X60951Y123741D01*
X61576Y124000D01*
X66191D01*
Y114787D01*
D02*
G37*
G36*
X85133Y123545D02*
X85319Y123431D01*
X85518Y123330D01*
X85728Y123242D01*
X85950Y123168D01*
X86184Y123108D01*
X86430Y123061D01*
X86687Y123027D01*
X86956Y123007D01*
X87237Y123000D01*
Y122000D01*
X86956Y121993D01*
X86430Y121939D01*
X86184Y121892D01*
X85950Y121832D01*
X85728Y121758D01*
X85518Y121670D01*
X85319Y121569D01*
X85133Y121455D01*
X84958Y121327D01*
Y123673D01*
X85133Y123545D01*
D02*
G37*
G36*
X162575Y120975D02*
X162637Y120928D01*
X162716Y120886D01*
X162814Y120850D01*
X162930Y120819D01*
X163065Y120794D01*
X163218Y120775D01*
X163579Y120753D01*
X163787Y120750D01*
Y119750D01*
X163579Y119747D01*
X163065Y119706D01*
X162930Y119681D01*
X162814Y119650D01*
X162716Y119614D01*
X162637Y119572D01*
X162575Y119525D01*
X162533Y119472D01*
Y121028D01*
X162575Y120975D01*
D02*
G37*
G36*
X160315Y119077D02*
X160140Y119205D01*
X159954Y119319D01*
X159755Y119420D01*
X159545Y119508D01*
X159323Y119582D01*
X159089Y119642D01*
X158844Y119689D01*
X158586Y119723D01*
X158317Y119743D01*
X158036Y119750D01*
Y120750D01*
X158317Y120757D01*
X158844Y120811D01*
X159089Y120858D01*
X159323Y120918D01*
X159545Y120992D01*
X159755Y121080D01*
X159954Y121181D01*
X160140Y121295D01*
X160315Y121423D01*
Y119077D01*
D02*
G37*
G36*
X141832Y121127D02*
X142453Y120596D01*
X142641Y120462D01*
X142819Y120350D01*
X142988Y120259D01*
X143147Y120190D01*
X143296Y120142D01*
X143436Y120116D01*
X141777Y118457D01*
X141751Y118597D01*
X141703Y118746D01*
X141634Y118905D01*
X141543Y119074D01*
X141431Y119252D01*
X141297Y119440D01*
X140964Y119844D01*
X140766Y120061D01*
X140546Y120287D01*
X141606Y121348D01*
X141832Y121127D01*
D02*
G37*
G36*
X76006Y123961D02*
X81000D01*
Y105000D01*
X78767Y102767D01*
X77561Y102373D01*
X70809Y109124D01*
Y116617D01*
X72079Y116870D01*
X72187Y116609D01*
X72825Y115972D01*
X73657Y115627D01*
X74558D01*
X75391Y115972D01*
X76028Y116609D01*
X76373Y117442D01*
Y118343D01*
X76028Y119175D01*
X75391Y119813D01*
X74558Y120157D01*
X73657D01*
X72825Y119813D01*
X72187Y119175D01*
X72079Y118915D01*
X70809Y119167D01*
Y124000D01*
X75808D01*
X76006Y123961D01*
D02*
G37*
G36*
X90420Y114459D02*
X88920Y114165D01*
X88916Y114391D01*
X88890Y114779D01*
X88866Y114940D01*
X88836Y115080D01*
X88799Y115199D01*
X88756Y115297D01*
X88705Y115372D01*
X88648Y115427D01*
X88585Y115460D01*
X90422Y116264D01*
X90420Y114459D01*
D02*
G37*
G36*
X141448Y114304D02*
X141486Y113803D01*
X141509Y113673D01*
X141537Y113561D01*
X141570Y113467D01*
X141608Y113392D01*
X141652Y113335D01*
X141700Y113296D01*
X140190D01*
X140238Y113335D01*
X140282Y113392D01*
X140320Y113467D01*
X140353Y113561D01*
X140381Y113673D01*
X140404Y113803D01*
X140422Y113952D01*
X140442Y114304D01*
X140445Y114507D01*
X141445D01*
X141448Y114304D01*
D02*
G37*
G36*
X161411Y111226D02*
X159480Y111092D01*
Y112592D01*
X159666Y112594D01*
X160218Y112637D01*
X160308Y112657D01*
X160378Y112680D01*
X160430Y112707D01*
X160462Y112738D01*
X160476Y112772D01*
X161411Y111226D01*
D02*
G37*
G36*
X170712Y105393D02*
X170760Y105244D01*
X170829Y105085D01*
X170920Y104916D01*
X171032Y104738D01*
X171166Y104550D01*
X171498Y104146D01*
X171697Y103929D01*
X171917Y103703D01*
X170857Y102643D01*
X170631Y102863D01*
X170010Y103394D01*
X169822Y103528D01*
X169644Y103641D01*
X169476Y103731D01*
X169317Y103801D01*
X169167Y103848D01*
X169027Y103874D01*
X170686Y105533D01*
X170712Y105393D01*
D02*
G37*
G36*
X161462Y104608D02*
X161601Y104536D01*
X161763Y104473D01*
X161946Y104418D01*
X162151Y104371D01*
X162379Y104333D01*
X162900Y104282D01*
X163193Y104270D01*
X163509Y104265D01*
Y102766D01*
X163193Y102762D01*
X162379Y102699D01*
X162151Y102661D01*
X161946Y102614D01*
X161763Y102559D01*
X161601Y102495D01*
X161462Y102423D01*
X161345Y102343D01*
Y104689D01*
X161462Y104608D01*
D02*
G37*
G36*
X122217Y100606D02*
X122260Y100521D01*
X122327Y100417D01*
X122418Y100293D01*
X122675Y99987D01*
X123241Y99384D01*
X123478Y99144D01*
X122064Y97730D01*
X121824Y97967D01*
X120791Y98881D01*
X120687Y98948D01*
X120602Y98991D01*
X120536Y99010D01*
X122198Y100672D01*
X122217Y100606D01*
D02*
G37*
G36*
X146420Y96826D02*
X146606Y96711D01*
X146805Y96610D01*
X147015Y96523D01*
X147237Y96449D01*
X147471Y96388D01*
X147716Y96341D01*
X147974Y96307D01*
X148243Y96287D01*
X148524Y96280D01*
Y95281D01*
X148243Y95274D01*
X147716Y95220D01*
X147471Y95173D01*
X147237Y95112D01*
X147015Y95038D01*
X146805Y94951D01*
X146606Y94850D01*
X146420Y94735D01*
X146245Y94607D01*
Y96953D01*
X146420Y96826D01*
D02*
G37*
G36*
X156110Y96045D02*
X156296Y95931D01*
X156495Y95830D01*
X156705Y95742D01*
X156927Y95668D01*
X157161Y95608D01*
X157406Y95561D01*
X157664Y95527D01*
X157933Y95507D01*
X158214Y95500D01*
Y94500D01*
X157933Y94493D01*
X157406Y94439D01*
X157161Y94392D01*
X156927Y94332D01*
X156705Y94258D01*
X156495Y94170D01*
X156296Y94069D01*
X156110Y93955D01*
X155935Y93827D01*
Y96173D01*
X156110Y96045D01*
D02*
G37*
G36*
X160097Y92945D02*
X160284Y92830D01*
X160482Y92729D01*
X160692Y92642D01*
X160914Y92568D01*
X161148Y92507D01*
X161394Y92460D01*
X161651Y92427D01*
X161920Y92406D01*
X162201Y92400D01*
Y91400D01*
X161920Y91393D01*
X161394Y91339D01*
X161148Y91292D01*
X160914Y91231D01*
X160692Y91157D01*
X160482Y91070D01*
X160284Y90969D01*
X160097Y90855D01*
X159922Y90727D01*
Y93073D01*
X160097Y92945D01*
D02*
G37*
G36*
X125288Y79595D02*
X125199Y79654D01*
X125058Y79707D01*
X124865Y79754D01*
X124620Y79794D01*
X123972Y79857D01*
X122608Y79903D01*
X122048Y79906D01*
Y81406D01*
X122608Y81409D01*
X124865Y81559D01*
X125058Y81606D01*
X125199Y81658D01*
X125288Y81718D01*
Y79595D01*
D02*
G37*
G36*
X151677Y81395D02*
X151665Y81325D01*
X151654Y81222D01*
X151630Y80708D01*
X151618Y79545D01*
X149418D01*
X149345Y81430D01*
X151691D01*
X151677Y81395D01*
D02*
G37*
G36*
X147767Y77580D02*
X147850Y76205D01*
X147876Y76084D01*
X147905Y75994D01*
X147938Y75935D01*
X145592D01*
X145625Y75994D01*
X145654Y76084D01*
X145680Y76205D01*
X145703Y76357D01*
X145737Y76753D01*
X145763Y77580D01*
X145765Y77918D01*
X147765D01*
X147767Y77580D01*
D02*
G37*
G36*
X117982Y73024D02*
X117829Y73118D01*
X117660Y73201D01*
X117474Y73275D01*
X117273Y73339D01*
X117055Y73394D01*
X116821Y73438D01*
X116305Y73497D01*
X116023Y73512D01*
X115725Y73517D01*
X115546Y74517D01*
X115810Y74525D01*
X116067Y74551D01*
X116314Y74593D01*
X116553Y74652D01*
X116783Y74729D01*
X117004Y74822D01*
X117217Y74932D01*
X117422Y75059D01*
X117618Y75204D01*
X117805Y75365D01*
X117982Y73024D01*
D02*
G37*
G36*
X135751Y68592D02*
X135576Y68720D01*
X135390Y68834D01*
X135191Y68935D01*
X134981Y69023D01*
X134759Y69097D01*
X134525Y69157D01*
X134279Y69204D01*
X134022Y69238D01*
X133753Y69258D01*
X133472Y69265D01*
Y70265D01*
X133753Y70272D01*
X134279Y70325D01*
X134525Y70373D01*
X134759Y70433D01*
X134981Y70507D01*
X135191Y70595D01*
X135390Y70696D01*
X135576Y70810D01*
X135751Y70938D01*
Y68592D01*
D02*
G37*
G36*
X256504Y68534D02*
X256567Y67719D01*
X256605Y67492D01*
X256652Y67286D01*
X256707Y67103D01*
X256770Y66941D01*
X256842Y66802D01*
X256923Y66685D01*
X254577D01*
X254657Y66802D01*
X254729Y66941D01*
X254793Y67103D01*
X254848Y67286D01*
X254895Y67492D01*
X254933Y67719D01*
X254984Y68240D01*
X254996Y68534D01*
X255001Y68849D01*
X256499D01*
X256504Y68534D01*
D02*
G37*
G36*
X114757Y68652D02*
X114803Y68445D01*
X114866Y68241D01*
X114944Y68040D01*
X115038Y67842D01*
X115149Y67647D01*
X115275Y67454D01*
X115417Y67265D01*
X115575Y67079D01*
X115750Y66895D01*
X115042Y66188D01*
X114859Y66362D01*
X114672Y66520D01*
X114483Y66662D01*
X114291Y66789D01*
X114096Y66899D01*
X113897Y66993D01*
X113696Y67072D01*
X113493Y67134D01*
X113286Y67180D01*
X113076Y67211D01*
X114727Y68861D01*
X114757Y68652D01*
D02*
G37*
G36*
X108452Y67038D02*
X108641Y66919D01*
X108841Y66814D01*
X109052Y66723D01*
X109274Y66645D01*
X109508Y66582D01*
X109752Y66533D01*
X110008Y66498D01*
X110275Y66477D01*
X110554Y66470D01*
X110525Y65470D01*
X110241Y65464D01*
X109711Y65412D01*
X109464Y65367D01*
X109230Y65309D01*
X109009Y65238D01*
X108799Y65155D01*
X108603Y65058D01*
X108418Y64948D01*
X108246Y64826D01*
X108275Y67172D01*
X108452Y67038D01*
D02*
G37*
G36*
X135815Y64781D02*
X135654Y64887D01*
X135478Y64981D01*
X135287Y65064D01*
X135082Y65136D01*
X134862Y65197D01*
X134628Y65247D01*
X134379Y65285D01*
X133838Y65330D01*
X133545Y65335D01*
X133428Y66335D01*
X133698Y66343D01*
X133958Y66367D01*
X134209Y66406D01*
X134451Y66462D01*
X134683Y66533D01*
X134905Y66620D01*
X135117Y66722D01*
X135320Y66841D01*
X135514Y66975D01*
X135698Y67125D01*
X135815Y64781D01*
D02*
G37*
G36*
X76566Y66676D02*
X76705Y66604D01*
X76866Y66541D01*
X77050Y66486D01*
X77255Y66439D01*
X77482Y66401D01*
X78003Y66350D01*
X78297Y66338D01*
X78613Y66333D01*
Y64833D01*
X78297Y64829D01*
X77482Y64766D01*
X77255Y64728D01*
X77050Y64681D01*
X76866Y64626D01*
X76705Y64563D01*
X76566Y64491D01*
X76448Y64410D01*
Y66756D01*
X76566Y66676D01*
D02*
G37*
G36*
X172707Y65862D02*
X172593Y65676D01*
X172491Y65477D01*
X172404Y65267D01*
X172330Y65045D01*
X172269Y64811D01*
X172222Y64566D01*
X172189Y64308D01*
X172169Y64039D01*
X172162Y63758D01*
X171162D01*
X171155Y64039D01*
X171101Y64566D01*
X171054Y64811D01*
X170993Y65045D01*
X170919Y65267D01*
X170832Y65477D01*
X170731Y65676D01*
X170617Y65862D01*
X170489Y66037D01*
X172835D01*
X172707Y65862D01*
D02*
G37*
G36*
X258744Y62632D02*
X258524Y62406D01*
X257993Y61785D01*
X257859Y61597D01*
X257747Y61419D01*
X257656Y61250D01*
X257587Y61091D01*
X257539Y60942D01*
X257513Y60802D01*
X255854Y62461D01*
X255994Y62487D01*
X256143Y62535D01*
X256302Y62604D01*
X256471Y62695D01*
X256649Y62807D01*
X256837Y62941D01*
X257241Y63273D01*
X257458Y63472D01*
X257684Y63692D01*
X258744Y62632D01*
D02*
G37*
G36*
X76522Y62935D02*
X76656Y62870D01*
X76813Y62812D01*
X76993Y62762D01*
X77197Y62720D01*
X77423Y62686D01*
X77946Y62640D01*
X78561Y62625D01*
X78626Y61125D01*
X78314Y61120D01*
X77503Y61051D01*
X77275Y61009D01*
X77068Y60958D01*
X76882Y60898D01*
X76718Y60828D01*
X76574Y60750D01*
X76451Y60662D01*
X76411Y63007D01*
X76522Y62935D01*
D02*
G37*
G36*
X100507Y61718D02*
X100561Y61191D01*
X100608Y60946D01*
X100668Y60712D01*
X100742Y60490D01*
X100830Y60280D01*
X100931Y60081D01*
X101045Y59895D01*
X101173Y59720D01*
X98827D01*
X98955Y59895D01*
X99069Y60081D01*
X99170Y60280D01*
X99258Y60490D01*
X99332Y60712D01*
X99392Y60946D01*
X99439Y61191D01*
X99473Y61449D01*
X99493Y61718D01*
X99500Y61999D01*
X100500D01*
X100507Y61718D01*
D02*
G37*
G36*
X362000Y189451D02*
X362488D01*
X363388Y189078D01*
X364078Y188388D01*
X364451Y187488D01*
Y187000D01*
X364451Y5000D01*
Y4512D01*
X364078Y3611D01*
X363388Y2922D01*
X362487Y2549D01*
X362000D01*
X203000Y2549D01*
X202512D01*
X201611Y2922D01*
X200922Y3611D01*
X200549Y4512D01*
Y5000D01*
X200549Y33000D01*
X200524Y33124D01*
X200536Y33250D01*
X200482Y33801D01*
X200579Y33927D01*
X201389Y34507D01*
X201655Y34586D01*
X202195Y34362D01*
X203079D01*
X203630Y33811D01*
X204462Y33466D01*
X205363D01*
X206196Y33811D01*
X206833Y34448D01*
X207178Y35280D01*
Y35847D01*
X208170Y36425D01*
X208351Y36469D01*
X208482Y36339D01*
X209314Y35994D01*
X210216D01*
X211048Y36339D01*
X211685Y36976D01*
X212030Y37808D01*
Y38709D01*
X211685Y39542D01*
X211048Y40179D01*
X210216Y40524D01*
X209314D01*
X208482Y40179D01*
X208245Y39942D01*
X205804D01*
X205506Y40594D01*
X205415Y41212D01*
X205920Y41717D01*
X206265Y42549D01*
Y43450D01*
X205920Y44283D01*
X205283Y44920D01*
X204450Y45265D01*
X203549D01*
X202717Y44920D01*
X202080Y44283D01*
X201735Y43450D01*
Y42908D01*
X200664Y42308D01*
X200562Y42285D01*
X199518Y43328D01*
X198550Y43729D01*
X197124D01*
X196824Y44403D01*
X196795Y44999D01*
X197274Y45319D01*
X198681Y46726D01*
X199123Y47387D01*
X199884Y49225D01*
X200039Y50005D01*
Y51254D01*
X201000Y52000D01*
X201309Y52000D01*
X210838D01*
Y74000D01*
X201309D01*
X201000Y74000D01*
X200039Y74746D01*
Y74995D01*
X199884Y75775D01*
X199123Y77613D01*
X198681Y78274D01*
X198681Y78274D01*
X197274Y79681D01*
X196660Y80091D01*
X196636Y80211D01*
X196942Y81361D01*
X201202D01*
X202361Y81841D01*
X204236Y83716D01*
X204716Y84875D01*
Y85023D01*
X205641Y86015D01*
X206542D01*
X207374Y86360D01*
X208011Y86997D01*
X208356Y87829D01*
Y88730D01*
X208011Y89563D01*
X207374Y90200D01*
X207422Y91555D01*
X209963Y94097D01*
X247585D01*
X254111Y87571D01*
Y67824D01*
X254082Y67652D01*
X254047Y67497D01*
X254010Y67374D01*
X253974Y67284D01*
X253946Y67228D01*
X253894Y67153D01*
X253879Y67082D01*
X253830Y67033D01*
X253485Y66200D01*
Y65299D01*
X253830Y64467D01*
X254243Y64054D01*
X254445Y63580D01*
X254352Y62503D01*
X254102Y62253D01*
X253757Y61421D01*
Y60520D01*
X254102Y59687D01*
X254739Y59050D01*
X255572Y58705D01*
X256473D01*
X257305Y59050D01*
X257943Y59687D01*
X258287Y60520D01*
Y60590D01*
X258327Y60651D01*
X258344Y60740D01*
X258363Y60800D01*
X258401Y60888D01*
X258462Y61002D01*
X258547Y61136D01*
X258646Y61275D01*
X258651Y61281D01*
X259923Y62553D01*
X260404Y63712D01*
Y88437D01*
X259923Y89596D01*
X250361Y99159D01*
X249202Y99639D01*
X208347D01*
X207188Y99159D01*
X200555Y92527D01*
X199478Y93246D01*
X199884Y94225D01*
X200039Y95005D01*
Y96000D01*
X200039Y143000D01*
Y143995D01*
X199884Y144775D01*
X199123Y146613D01*
X198681Y147274D01*
X198681Y147274D01*
X197274Y148681D01*
X197274Y148681D01*
X196613Y149123D01*
X194775Y149884D01*
X193995Y150039D01*
X193000Y150039D01*
X193000Y150039D01*
X126005D01*
X125225Y149884D01*
X123387Y149123D01*
X122726Y148681D01*
X121910Y147865D01*
X120640Y148391D01*
Y159000D01*
X120160Y160159D01*
X115015Y165304D01*
Y165701D01*
X114670Y166533D01*
X114033Y167170D01*
X113201Y167515D01*
X112299D01*
X111467Y167170D01*
X110830Y166533D01*
X110485Y165701D01*
Y164799D01*
X110830Y163967D01*
X111467Y163330D01*
X112299Y162985D01*
X112696D01*
X117360Y158321D01*
Y155257D01*
X116435Y154265D01*
X115534D01*
X114702Y153920D01*
X114065Y153283D01*
X113720Y152451D01*
Y151550D01*
X114065Y150717D01*
X114702Y150080D01*
X115534Y149735D01*
X116435D01*
X117360Y148743D01*
Y141000D01*
X116039D01*
Y143000D01*
X116039Y143000D01*
X116039Y143995D01*
X115884Y144775D01*
X115123Y146613D01*
X114681Y147274D01*
X113274Y148681D01*
X112613Y149123D01*
X110775Y149884D01*
X109994Y150039D01*
X77000Y150039D01*
X77000Y150039D01*
X76500D01*
X75946Y150135D01*
X75326Y151144D01*
X74982Y151977D01*
X74345Y152614D01*
X73512Y152959D01*
X72611D01*
X71778Y152614D01*
X71141Y151977D01*
X70796Y151144D01*
Y150243D01*
X71141Y149411D01*
X71125Y147996D01*
X70635Y147511D01*
X69445Y148011D01*
Y156179D01*
X97207Y183941D01*
X112000D01*
X112223Y183985D01*
X112451D01*
X112661Y184072D01*
X112884Y184116D01*
X113073Y184243D01*
X113283Y184330D01*
X113444Y184491D01*
X113633Y184617D01*
X113759Y184806D01*
X113920Y184967D01*
X114007Y185177D01*
X114134Y185366D01*
X114178Y185589D01*
X114265Y185800D01*
Y186027D01*
X114309Y186250D01*
X114265Y186473D01*
Y186700D01*
X114178Y186911D01*
X114134Y187134D01*
X114007Y187323D01*
X113920Y187533D01*
X113759Y187694D01*
X113633Y187883D01*
X113444Y188009D01*
X113283Y188170D01*
X113073Y188257D01*
X113531Y189451D01*
X362000Y189451D01*
D02*
G37*
G36*
X90348Y56902D02*
X90189Y56741D01*
X89608Y56078D01*
X89605Y56072D01*
X89608Y56068D01*
X89689Y56005D01*
X89789Y55949D01*
X89906Y55900D01*
X90041Y55859D01*
X90195Y55825D01*
X90367Y55799D01*
X90557Y55780D01*
X90992Y55765D01*
Y54765D01*
X90766Y54761D01*
X90367Y54731D01*
X90195Y54705D01*
X90041Y54672D01*
X89906Y54630D01*
X89789Y54582D01*
X89689Y54526D01*
X89608Y54462D01*
X89546Y54391D01*
Y55950D01*
X88678Y56818D01*
X88710Y56817D01*
X88756Y56835D01*
X88817Y56870D01*
X88892Y56922D01*
X88981Y56992D01*
X89334Y57309D01*
X89641Y57609D01*
X90348Y56902D01*
D02*
G37*
G36*
X170034Y58343D02*
X170048Y58175D01*
X170070Y58025D01*
X170100Y57892D01*
X170140Y57779D01*
X170189Y57683D01*
X170246Y57605D01*
X170312Y57546D01*
X170387Y57505D01*
X170471Y57481D01*
X168874Y56631D01*
X168904Y56711D01*
X168930Y56814D01*
X168954Y56943D01*
X168991Y57274D01*
X169016Y57703D01*
X169030Y58530D01*
X170030D01*
X170034Y58343D01*
D02*
G37*
G36*
X105240Y57751D02*
X105250Y57681D01*
X105276Y57603D01*
X105319Y57515D01*
X105378Y57417D01*
X105453Y57310D01*
X105545Y57194D01*
X105777Y56933D01*
X105918Y56789D01*
X105211Y56082D01*
X105067Y56223D01*
X104690Y56547D01*
X104583Y56622D01*
X104486Y56681D01*
X104397Y56724D01*
X104319Y56750D01*
X104249Y56760D01*
X104190Y56753D01*
X105247Y57810D01*
X105240Y57751D01*
D02*
G37*
G36*
X161859Y56979D02*
X161790Y56821D01*
X161729Y56645D01*
X161676Y56450D01*
X161631Y56237D01*
X161566Y55753D01*
X161546Y55484D01*
X161530Y54889D01*
X160530Y54620D01*
X160521Y54877D01*
X160493Y55127D01*
X160446Y55369D01*
X160381Y55603D01*
X160298Y55831D01*
X160196Y56051D01*
X160075Y56263D01*
X159936Y56468D01*
X159778Y56666D01*
X159601Y56856D01*
X161936Y57118D01*
X161859Y56979D01*
D02*
G37*
G36*
X141284Y56432D02*
X141695Y56098D01*
X141902Y55958D01*
X142110Y55835D01*
X142319Y55730D01*
X142530Y55644D01*
X142741Y55575D01*
X142954Y55524D01*
X143168Y55490D01*
X141510Y53832D01*
X141476Y54046D01*
X141425Y54258D01*
X141356Y54470D01*
X141270Y54681D01*
X141165Y54890D01*
X141042Y55098D01*
X140902Y55305D01*
X140744Y55511D01*
X140568Y55716D01*
X140374Y55919D01*
X141081Y56626D01*
X141284Y56432D01*
D02*
G37*
G36*
X171739Y55805D02*
X171762Y55655D01*
X171803Y55502D01*
X171864Y55346D01*
X171943Y55185D01*
X172040Y55021D01*
X172156Y54853D01*
X172291Y54681D01*
X172444Y54506D01*
X172616Y54327D01*
X171908Y53619D01*
X171729Y53791D01*
X171382Y54079D01*
X171214Y54195D01*
X171050Y54292D01*
X170889Y54371D01*
X170733Y54432D01*
X170580Y54473D01*
X170430Y54496D01*
X170285Y54501D01*
X171734Y55950D01*
X171739Y55805D01*
D02*
G37*
G36*
X96430Y55223D02*
X96481Y55010D01*
X96550Y54799D01*
X96637Y54588D01*
X96742Y54379D01*
X96864Y54171D01*
X97004Y53964D01*
X97163Y53758D01*
X97339Y53553D01*
X97533Y53350D01*
X96826Y52643D01*
X96622Y52837D01*
X96212Y53171D01*
X96005Y53311D01*
X95796Y53434D01*
X95587Y53538D01*
X95377Y53625D01*
X95165Y53694D01*
X94952Y53745D01*
X94738Y53779D01*
X96397Y55437D01*
X96430Y55223D01*
D02*
G37*
G36*
X121669Y53010D02*
X121455Y52976D01*
X121242Y52925D01*
X121030Y52856D01*
X120819Y52769D01*
X120610Y52665D01*
X120402Y52542D01*
X120195Y52402D01*
X119989Y52244D01*
X119784Y52067D01*
X119581Y51874D01*
X118874Y52581D01*
X119067Y52784D01*
X119402Y53195D01*
X119542Y53402D01*
X119665Y53610D01*
X119769Y53819D01*
X119856Y54030D01*
X119925Y54242D01*
X119976Y54455D01*
X120009Y54669D01*
X121669Y53010D01*
D02*
G37*
G36*
X146688Y53904D02*
X146692Y53596D01*
X146751Y52786D01*
X146787Y52554D01*
X146882Y52147D01*
X146941Y51972D01*
X147008Y51816D01*
X147083Y51679D01*
X144750Y51952D01*
X144928Y52142D01*
X145087Y52340D01*
X145228Y52545D01*
X145350Y52757D01*
X145453Y52977D01*
X145538Y53204D01*
X145603Y53438D01*
X145650Y53679D01*
X145679Y53928D01*
X145688Y54184D01*
X146688Y53904D01*
D02*
G37*
G36*
X101375Y50060D02*
X101561Y49946D01*
X101760Y49845D01*
X101970Y49757D01*
X102192Y49683D01*
X102426Y49623D01*
X102671Y49576D01*
X102929Y49542D01*
X103198Y49522D01*
X103479Y49515D01*
Y48515D01*
X103198Y48508D01*
X102671Y48454D01*
X102426Y48407D01*
X102192Y48347D01*
X101970Y48273D01*
X101760Y48185D01*
X101561Y48084D01*
X101375Y47970D01*
X101200Y47842D01*
Y50188D01*
X101375Y50060D01*
D02*
G37*
G36*
X84618Y45808D02*
X84442Y45936D01*
X84254Y46051D01*
X84055Y46153D01*
X83844Y46240D01*
X83622Y46315D01*
X83388Y46375D01*
X83142Y46423D01*
X82885Y46456D01*
X82616Y46477D01*
X82336Y46483D01*
Y47483D01*
X82616Y47490D01*
X83142Y47544D01*
X83388Y47591D01*
X83622Y47652D01*
X83844Y47726D01*
X84055Y47814D01*
X84254Y47915D01*
X84442Y48030D01*
X84618Y48158D01*
Y45808D01*
D02*
G37*
G36*
X116877Y42861D02*
X116928Y42648D01*
X116997Y42436D01*
X117084Y42226D01*
X117188Y42016D01*
X117311Y41808D01*
X117451Y41601D01*
X117610Y41395D01*
X117786Y41191D01*
X117980Y40987D01*
X117273Y40280D01*
X117069Y40474D01*
X116659Y40809D01*
X116452Y40949D01*
X116243Y41071D01*
X116034Y41176D01*
X115823Y41263D01*
X115612Y41332D01*
X115399Y41383D01*
X115185Y41416D01*
X116844Y43075D01*
X116877Y42861D01*
D02*
G37*
G36*
X156908Y42077D02*
X156913Y41776D01*
X156982Y40974D01*
X157024Y40741D01*
X157075Y40524D01*
X157136Y40325D01*
X157205Y40142D01*
X157284Y39976D01*
X157372Y39828D01*
X155033Y40033D01*
X155200Y40221D01*
X155348Y40418D01*
X155479Y40623D01*
X155593Y40836D01*
X155689Y41057D01*
X155768Y41286D01*
X155829Y41523D01*
X155873Y41769D01*
X155899Y42023D01*
X155908Y42285D01*
X156908Y42077D01*
D02*
G37*
G36*
X173026Y40480D02*
X173090Y40442D01*
X173173Y40409D01*
X173276Y40380D01*
X173398Y40356D01*
X173539Y40336D01*
X173879Y40309D01*
X174297Y40300D01*
Y39300D01*
X174107Y39298D01*
X173780Y39275D01*
X173643Y39256D01*
X173523Y39231D01*
X173421Y39200D01*
X173336Y39164D01*
X173270Y39122D01*
X173220Y39075D01*
X173188Y39022D01*
X172981Y40522D01*
X173026Y40480D01*
D02*
G37*
G36*
X170873Y38417D02*
X170696Y38546D01*
X170507Y38661D01*
X170306Y38763D01*
X170095Y38851D01*
X169872Y38926D01*
X169638Y38987D01*
X169392Y39034D01*
X169135Y39068D01*
X168867Y39088D01*
X168588Y39095D01*
Y40095D01*
X168867Y40102D01*
X169392Y40156D01*
X169638Y40204D01*
X169872Y40265D01*
X170095Y40339D01*
X170306Y40427D01*
X170507Y40529D01*
X170696Y40644D01*
X170873Y40773D01*
Y38417D01*
D02*
G37*
G36*
X70509Y40104D02*
X70552Y40019D01*
X70619Y39915D01*
X70710Y39792D01*
X70966Y39487D01*
X71533Y38884D01*
X71771Y38644D01*
X70356Y37229D01*
X70116Y37467D01*
X69085Y38381D01*
X68981Y38448D01*
X68896Y38491D01*
X68832Y38510D01*
X70490Y40168D01*
X70509Y40104D01*
D02*
G37*
G36*
X90099Y30632D02*
X90275Y30538D01*
X90466Y30455D01*
X90671Y30383D01*
X90891Y30322D01*
X91125Y30272D01*
X91374Y30233D01*
X91915Y30188D01*
X92207Y30183D01*
X92324Y29183D01*
X92053Y29175D01*
X91793Y29151D01*
X91542Y29112D01*
X91300Y29057D01*
X91069Y28986D01*
X90847Y28899D01*
X90634Y28796D01*
X90431Y28678D01*
X90237Y28544D01*
X90053Y28394D01*
X89937Y30738D01*
X90099Y30632D01*
D02*
G37*
G36*
X151074Y29837D02*
X151694Y29306D01*
X151823Y29218D01*
X151941Y29148D01*
X152049Y29096D01*
X152147Y29062D01*
X152233Y29046D01*
X150744Y28179D01*
X150770Y28260D01*
X150779Y28349D01*
X150769Y28444D01*
X150740Y28547D01*
X150694Y28656D01*
X150629Y28772D01*
X150545Y28896D01*
X150444Y29026D01*
X150323Y29163D01*
X150185Y29307D01*
X150892Y30014D01*
X151074Y29837D01*
D02*
G37*
G36*
X156278Y30202D02*
X156106Y30012D01*
X155952Y29815D01*
X155816Y29610D01*
X155698Y29397D01*
X155598Y29177D01*
X155516Y28949D01*
X155453Y28713D01*
X155408Y28470D01*
X155380Y28218D01*
X155371Y27959D01*
X154371Y28203D01*
X154367Y28508D01*
X154303Y29313D01*
X154264Y29546D01*
X154161Y29958D01*
X154096Y30137D01*
X154024Y30298D01*
X153942Y30441D01*
X156278Y30202D01*
D02*
G37*
G36*
X144562Y27827D02*
X144387Y27955D01*
X144200Y28069D01*
X144002Y28170D01*
X143792Y28258D01*
X143569Y28332D01*
X143336Y28393D01*
X143090Y28440D01*
X142833Y28473D01*
X142563Y28493D01*
X142282Y28500D01*
Y29500D01*
X142563Y29507D01*
X143090Y29561D01*
X143336Y29608D01*
X143569Y29668D01*
X143792Y29743D01*
X144002Y29830D01*
X144200Y29931D01*
X144387Y30045D01*
X144562Y30173D01*
Y27827D01*
D02*
G37*
G36*
X75297Y26600D02*
X75380Y25224D01*
X75406Y25103D01*
X75436Y25013D01*
X75468Y24954D01*
X73122D01*
X73155Y25013D01*
X73185Y25103D01*
X73211Y25224D01*
X73233Y25376D01*
X73268Y25772D01*
X73294Y26600D01*
X73295Y26937D01*
X75295D01*
X75297Y26600D01*
D02*
G37*
G36*
X91981Y26319D02*
X92168Y26205D01*
X92366Y26104D01*
X92577Y26016D01*
X92799Y25942D01*
X93032Y25882D01*
X93278Y25835D01*
X93535Y25801D01*
X93805Y25781D01*
X94086Y25774D01*
Y24774D01*
X93805Y24767D01*
X93278Y24714D01*
X93032Y24667D01*
X92799Y24606D01*
X92577Y24532D01*
X92366Y24444D01*
X92168Y24344D01*
X91981Y24229D01*
X91806Y24101D01*
Y26447D01*
X91981Y26319D01*
D02*
G37*
G36*
X139329Y22592D02*
X139116Y22373D01*
X138589Y21760D01*
X138450Y21570D01*
X138227Y21210D01*
X138143Y21040D01*
X138077Y20878D01*
X138030Y20722D01*
X136670Y22583D01*
X136899Y22577D01*
X137122Y22590D01*
X137340Y22622D01*
X137551Y22673D01*
X137756Y22742D01*
X137955Y22830D01*
X138148Y22937D01*
X138336Y23062D01*
X138517Y23206D01*
X138692Y23368D01*
X139329Y22592D01*
D02*
G37*
G36*
X118790Y20786D02*
X118928Y20738D01*
X119087Y20695D01*
X119270Y20657D01*
X119704Y20600D01*
X120228Y20565D01*
X120843Y20554D01*
X121246Y19554D01*
X121000Y19544D01*
X120759Y19513D01*
X120525Y19461D01*
X120297Y19388D01*
X120074Y19295D01*
X119858Y19182D01*
X119648Y19047D01*
X119444Y18892D01*
X119247Y18716D01*
X119055Y18520D01*
X118676Y20841D01*
X118790Y20786D01*
D02*
G37*
G36*
X155605Y18076D02*
X155458Y18154D01*
X155294Y18223D01*
X155112Y18285D01*
X154913Y18338D01*
X154696Y18383D01*
X154212Y18448D01*
X153944Y18469D01*
X153355Y18485D01*
X153336Y19485D01*
X153576Y19493D01*
X153803Y19517D01*
X154019Y19557D01*
X154222Y19613D01*
X154412Y19684D01*
X154590Y19772D01*
X154756Y19875D01*
X154909Y19994D01*
X155049Y20130D01*
X155178Y20281D01*
X155605Y18076D01*
D02*
G37*
G36*
X155629Y14435D02*
X155455Y14563D01*
X155268Y14677D01*
X155070Y14778D01*
X154859Y14866D01*
X154637Y14940D01*
X154404Y15000D01*
X154158Y15047D01*
X153900Y15081D01*
X153631Y15101D01*
X153350Y15108D01*
Y16108D01*
X153631Y16115D01*
X154158Y16169D01*
X154404Y16216D01*
X154637Y16276D01*
X154859Y16350D01*
X155070Y16438D01*
X155268Y16539D01*
X155455Y16653D01*
X155629Y16781D01*
Y14435D01*
D02*
G37*
G36*
X103214Y14907D02*
X103329Y14822D01*
X103460Y14746D01*
X103608Y14681D01*
X103772Y14626D01*
X103952Y14580D01*
X104149Y14545D01*
X104362Y14520D01*
X104837Y14500D01*
Y13500D01*
X104591Y13495D01*
X104149Y13455D01*
X103952Y13420D01*
X103772Y13374D01*
X103608Y13319D01*
X103460Y13254D01*
X103329Y13178D01*
X103214Y13093D01*
X103116Y12997D01*
Y15003D01*
X103214Y14907D01*
D02*
G37*
G36*
X119544Y10260D02*
X119602Y10070D01*
X119679Y9878D01*
X119773Y9683D01*
X119886Y9485D01*
X120017Y9284D01*
X120166Y9081D01*
X120518Y8667D01*
X120721Y8456D01*
X120102Y7661D01*
X119905Y7846D01*
X119705Y8013D01*
X119499Y8162D01*
X119290Y8293D01*
X119075Y8407D01*
X118856Y8502D01*
X118632Y8579D01*
X118404Y8638D01*
X118172Y8680D01*
X117934Y8703D01*
X119504Y10447D01*
X119544Y10260D01*
D02*
G37*
G36*
X135871Y7080D02*
X135732Y7157D01*
X135575Y7226D01*
X135398Y7287D01*
X135203Y7340D01*
X134990Y7385D01*
X134507Y7450D01*
X134237Y7470D01*
X133642Y7486D01*
X133374Y8486D01*
X133631Y8496D01*
X133881Y8523D01*
X134123Y8570D01*
X134357Y8635D01*
X134585Y8718D01*
X134804Y8820D01*
X135017Y8941D01*
X135222Y9080D01*
X135420Y9238D01*
X135610Y9414D01*
X135871Y7080D01*
D02*
G37*
G36*
X166292Y7735D02*
X166084Y7705D01*
X165878Y7659D01*
X165675Y7597D01*
X165475Y7519D01*
X165278Y7425D01*
X165083Y7315D01*
X164891Y7189D01*
X164702Y7047D01*
X164516Y6888D01*
X164332Y6714D01*
X163625Y7421D01*
X163799Y7605D01*
X163957Y7791D01*
X164099Y7981D01*
X164226Y8172D01*
X164336Y8367D01*
X164430Y8565D01*
X164508Y8765D01*
X164569Y8968D01*
X164615Y9173D01*
X164645Y9382D01*
X166292Y7735D01*
D02*
G37*
G36*
X129626Y8154D02*
X129432Y7951D01*
X129098Y7540D01*
X128958Y7333D01*
X128835Y7125D01*
X128730Y6916D01*
X128644Y6705D01*
X128575Y6493D01*
X128524Y6281D01*
X128490Y6067D01*
X126832Y7725D01*
X127046Y7759D01*
X127259Y7810D01*
X127470Y7879D01*
X127681Y7965D01*
X127890Y8070D01*
X128098Y8193D01*
X128305Y8333D01*
X128511Y8491D01*
X128716Y8667D01*
X128919Y8861D01*
X129626Y8154D01*
D02*
G37*
G36*
X142146Y6509D02*
X142332Y6395D01*
X142530Y6294D01*
X142741Y6206D01*
X142963Y6132D01*
X143197Y6072D01*
X143442Y6025D01*
X143700Y5991D01*
X143969Y5971D01*
X144250Y5964D01*
Y4964D01*
X143969Y4957D01*
X143442Y4904D01*
X143197Y4857D01*
X142963Y4796D01*
X142741Y4722D01*
X142530Y4634D01*
X142332Y4533D01*
X142146Y4419D01*
X141971Y4291D01*
Y6637D01*
X142146Y6509D01*
D02*
G37*
G36*
X207184Y69627D02*
X207273Y69616D01*
X207373Y69604D01*
X207495Y69582D01*
X207617Y69560D01*
X207906Y69493D01*
X208205Y69382D01*
X208361Y69316D01*
X208505Y69227D01*
X208661Y69138D01*
X208805Y69027D01*
X208816Y69016D01*
X208849Y68994D01*
X208894Y68949D01*
X208949Y68894D01*
X209016Y68816D01*
X209104Y68727D01*
X209182Y68616D01*
X209271Y68494D01*
X209360Y68361D01*
X209438Y68206D01*
X209515Y68039D01*
X209593Y67862D01*
X209648Y67673D01*
X209693Y67462D01*
X209726Y67240D01*
X209737Y67007D01*
Y66907D01*
X209726Y66829D01*
X209715Y66741D01*
X209704Y66641D01*
X209693Y66519D01*
X209660Y66396D01*
X209593Y66119D01*
X209493Y65841D01*
X209426Y65697D01*
X209349Y65553D01*
X209260Y65420D01*
X209160Y65286D01*
X209149Y65275D01*
X209138Y65253D01*
X209093Y65231D01*
X209049Y65187D01*
X208993Y65131D01*
X208927Y65076D01*
X208838Y65009D01*
X208738Y64953D01*
X208638Y64887D01*
X208516Y64820D01*
X208250Y64698D01*
X207939Y64598D01*
X207773Y64565D01*
X207595Y64543D01*
X207517Y65531D01*
X207528D01*
X207551D01*
X207584Y65542D01*
X207639Y65553D01*
X207761Y65586D01*
X207928Y65631D01*
X208094Y65697D01*
X208283Y65786D01*
X208450Y65897D01*
X208605Y66030D01*
X208616Y66052D01*
X208661Y66097D01*
X208716Y66186D01*
X208783Y66308D01*
X208849Y66441D01*
X208905Y66607D01*
X208949Y66796D01*
X208960Y67007D01*
Y67074D01*
X208949Y67118D01*
X208938Y67251D01*
X208894Y67407D01*
X208838Y67595D01*
X208749Y67784D01*
X208616Y67984D01*
X208538Y68073D01*
X208450Y68161D01*
X208438Y68172D01*
X208427Y68184D01*
X208394Y68206D01*
X208361Y68239D01*
X208239Y68317D01*
X208083Y68406D01*
X207895Y68483D01*
X207661Y68561D01*
X207384Y68616D01*
X207240Y68639D01*
X207084D01*
X207073D01*
X207051D01*
X207007D01*
X206951Y68628D01*
X206884D01*
X206807Y68616D01*
X206629Y68583D01*
X206418Y68528D01*
X206208Y68450D01*
X206008Y68339D01*
X205819Y68184D01*
X205808D01*
X205797Y68161D01*
X205741Y68106D01*
X205664Y68006D01*
X205575Y67873D01*
X205497Y67695D01*
X205419Y67495D01*
X205364Y67262D01*
X205342Y67129D01*
Y66918D01*
X205353Y66829D01*
X205364Y66718D01*
X205397Y66585D01*
X205431Y66452D01*
X205486Y66308D01*
X205553Y66163D01*
X205564Y66152D01*
X205586Y66108D01*
X205641Y66041D01*
X205697Y65953D01*
X205775Y65864D01*
X205875Y65775D01*
X205974Y65675D01*
X206096Y65597D01*
X205974Y64709D01*
X202023Y65453D01*
Y69271D01*
X202922D01*
Y66197D01*
X204998Y65786D01*
X204986Y65797D01*
X204975Y65819D01*
X204953Y65853D01*
X204920Y65908D01*
X204887Y65975D01*
X204842Y66052D01*
X204753Y66230D01*
X204665Y66452D01*
X204587Y66696D01*
X204531Y66963D01*
X204509Y67096D01*
Y67340D01*
X204520Y67407D01*
X204531Y67495D01*
X204543Y67595D01*
X204565Y67706D01*
X204598Y67828D01*
X204676Y68095D01*
X204731Y68239D01*
X204809Y68383D01*
X204887Y68528D01*
X204975Y68672D01*
X205086Y68805D01*
X205208Y68938D01*
X205220Y68949D01*
X205242Y68972D01*
X205275Y69005D01*
X205331Y69049D01*
X205408Y69105D01*
X205486Y69160D01*
X205586Y69227D01*
X205697Y69294D01*
X205819Y69349D01*
X205952Y69416D01*
X206108Y69471D01*
X206263Y69527D01*
X206430Y69571D01*
X206618Y69604D01*
X206807Y69627D01*
X207007Y69638D01*
X207018D01*
X207051D01*
X207106D01*
X207184Y69627D01*
D02*
G37*
%LPC*%
G36*
X43429Y171265D02*
X42528D01*
X41696Y170920D01*
X41059Y170283D01*
X40714Y169450D01*
Y168549D01*
X41059Y167717D01*
X41696Y167080D01*
X42528Y166735D01*
X43429D01*
X44262Y167080D01*
X44899Y167717D01*
X45244Y168549D01*
Y169450D01*
X44899Y170283D01*
X44262Y170920D01*
X43429Y171265D01*
D02*
G37*
G36*
X63951Y106265D02*
X63050D01*
X62217Y105920D01*
X61580Y105283D01*
X61235Y104451D01*
Y103549D01*
X61580Y102717D01*
X62217Y102080D01*
X63050Y101735D01*
X63951D01*
X64783Y102080D01*
X65420Y102717D01*
X65765Y103549D01*
Y104451D01*
X65420Y105283D01*
X64783Y105920D01*
X63951Y106265D01*
D02*
G37*
G36*
X56868Y89745D02*
X55967D01*
X55134Y89400D01*
X54497Y88763D01*
X54152Y87930D01*
Y87029D01*
X54497Y86197D01*
X55134Y85560D01*
X55745Y85307D01*
X55912Y84509D01*
X55872Y83984D01*
X55717Y83920D01*
X55080Y83283D01*
X54735Y82451D01*
Y81549D01*
X55080Y80717D01*
X55717Y80080D01*
X56549Y79735D01*
X57450D01*
X58283Y80080D01*
X58920Y80717D01*
X59265Y81549D01*
Y82451D01*
X58920Y83283D01*
X58283Y83920D01*
X57672Y84173D01*
X57505Y84971D01*
X57546Y85496D01*
X57700Y85560D01*
X58337Y86197D01*
X58682Y87029D01*
Y87930D01*
X58337Y88763D01*
X57700Y89400D01*
X56868Y89745D01*
D02*
G37*
G36*
X63450Y36265D02*
X62550D01*
X61717Y35920D01*
X61080Y35283D01*
X60735Y34451D01*
Y33549D01*
X61080Y32717D01*
X61717Y32080D01*
X62550Y31735D01*
X63450D01*
X64283Y32080D01*
X64920Y32717D01*
X65265Y33549D01*
Y34451D01*
X64920Y35283D01*
X64283Y35920D01*
X63450Y36265D01*
D02*
G37*
G36*
X130450Y181515D02*
X129549D01*
X128717Y181170D01*
X128080Y180533D01*
X127735Y179701D01*
Y178799D01*
X128080Y177967D01*
X128717Y177330D01*
X129549Y176985D01*
X130450D01*
X131283Y177330D01*
X131920Y177967D01*
X132265Y178799D01*
Y179701D01*
X131920Y180533D01*
X131283Y181170D01*
X130450Y181515D01*
D02*
G37*
G36*
X321700Y185265D02*
X318866D01*
X316128Y184531D01*
X313673Y183114D01*
X311669Y181110D01*
X310252Y178655D01*
X309518Y175917D01*
Y173083D01*
X310252Y170345D01*
X311669Y167890D01*
X313673Y165886D01*
X316128Y164469D01*
X318866Y163735D01*
X321700D01*
X324438Y164469D01*
X326893Y165886D01*
X328897Y167890D01*
X330314Y170345D01*
X331048Y173083D01*
Y175917D01*
X330314Y178655D01*
X328897Y181110D01*
X326893Y183114D01*
X324438Y184531D01*
X321700Y185265D01*
D02*
G37*
G36*
X270900D02*
X268066D01*
X265328Y184531D01*
X262873Y183114D01*
X260869Y181110D01*
X259452Y178655D01*
X258718Y175917D01*
Y173083D01*
X259452Y170345D01*
X260869Y167890D01*
X262873Y165886D01*
X265328Y164469D01*
X268066Y163735D01*
X270900D01*
X273638Y164469D01*
X276093Y165886D01*
X278097Y167890D01*
X279514Y170345D01*
X280248Y173083D01*
Y175917D01*
X279514Y178655D01*
X278097Y181110D01*
X276093Y183114D01*
X273638Y184531D01*
X270900Y185265D01*
D02*
G37*
G36*
X245500D02*
X242666D01*
X239928Y184531D01*
X237473Y183114D01*
X235469Y181110D01*
X234052Y178655D01*
X233318Y175917D01*
Y173083D01*
X234052Y170345D01*
X235469Y167890D01*
X237473Y165886D01*
X239928Y164469D01*
X242666Y163735D01*
X245500D01*
X248238Y164469D01*
X250693Y165886D01*
X252697Y167890D01*
X254114Y170345D01*
X254848Y173083D01*
Y175917D01*
X254114Y178655D01*
X252697Y181110D01*
X250693Y183114D01*
X248238Y184531D01*
X245500Y185265D01*
D02*
G37*
G36*
X223683Y185378D02*
X213683D01*
X211434Y184930D01*
X209527Y183656D01*
X208253Y181749D01*
X207805Y179500D01*
Y169500D01*
X208253Y167251D01*
X209527Y165344D01*
X211434Y164069D01*
X213683Y163622D01*
X223683D01*
X225932Y164069D01*
X227839Y165344D01*
X229114Y167251D01*
X229561Y169500D01*
Y179500D01*
X229114Y181749D01*
X227839Y183656D01*
X225932Y184930D01*
X223683Y185378D01*
D02*
G37*
G36*
X195488Y162058D02*
X194587D01*
X193754Y161713D01*
X193117Y161076D01*
X192772Y160243D01*
Y159342D01*
X193117Y158510D01*
X193754Y157872D01*
X194587Y157528D01*
X195488D01*
X196320Y157872D01*
X196957Y158510D01*
X197302Y159342D01*
Y160243D01*
X196957Y161076D01*
X196320Y161713D01*
X195488Y162058D01*
D02*
G37*
G36*
X209478Y158293D02*
X208577D01*
X207745Y157948D01*
X207108Y157311D01*
X206763Y156478D01*
Y155577D01*
X207108Y154745D01*
X207745Y154108D01*
X208577Y153763D01*
X209478D01*
X210311Y154108D01*
X210948Y154745D01*
X211293Y155577D01*
Y156478D01*
X210948Y157311D01*
X210311Y157948D01*
X209478Y158293D01*
D02*
G37*
G36*
X226099Y92815D02*
X224501D01*
X223026Y92204D01*
X221896Y91074D01*
X221285Y89599D01*
Y88001D01*
X221896Y86526D01*
X223026Y85396D01*
X224501Y84785D01*
X226099D01*
X227574Y85396D01*
X228704Y86526D01*
X229315Y88001D01*
Y89599D01*
X228704Y91074D01*
X227574Y92204D01*
X226099Y92815D01*
D02*
G37*
G36*
X303050Y86765D02*
X301950D01*
X300934Y86344D01*
X300156Y85566D01*
X299735Y84550D01*
Y83450D01*
X300156Y82434D01*
X300934Y81656D01*
X301950Y81235D01*
X303050D01*
X304066Y81656D01*
X304844Y82434D01*
X305265Y83450D01*
Y84550D01*
X304844Y85566D01*
X304066Y86344D01*
X303050Y86765D01*
D02*
G37*
G36*
X289550D02*
X288450D01*
X287434Y86344D01*
X286656Y85566D01*
X286235Y84550D01*
Y83450D01*
X286656Y82434D01*
X287434Y81656D01*
X288450Y81235D01*
X289550D01*
X290566Y81656D01*
X291344Y82434D01*
X291765Y83450D01*
Y84550D01*
X291344Y85566D01*
X290566Y86344D01*
X289550Y86765D01*
D02*
G37*
G36*
X303050Y78265D02*
X301950D01*
X300934Y77844D01*
X300156Y77066D01*
X299735Y76050D01*
Y74950D01*
X300156Y73934D01*
X300934Y73156D01*
X301950Y72735D01*
X303050D01*
X304066Y73156D01*
X304844Y73934D01*
X305265Y74950D01*
Y76050D01*
X304844Y77066D01*
X304066Y77844D01*
X303050Y78265D01*
D02*
G37*
G36*
X289550D02*
X288450D01*
X287434Y77844D01*
X286656Y77066D01*
X286235Y76050D01*
Y74950D01*
X286656Y73934D01*
X287434Y73156D01*
X288450Y72735D01*
X289550D01*
X290566Y73156D01*
X291344Y73934D01*
X291765Y74950D01*
Y76050D01*
X291344Y77066D01*
X290566Y77844D01*
X289550Y78265D01*
D02*
G37*
G36*
X238799Y80115D02*
X237201D01*
X235726Y79504D01*
X234596Y78374D01*
X233985Y76899D01*
Y75301D01*
X234596Y73826D01*
X235726Y72696D01*
X237201Y72085D01*
X238799D01*
X240274Y72696D01*
X241404Y73826D01*
X242015Y75301D01*
Y76899D01*
X241404Y78374D01*
X240274Y79504D01*
X238799Y80115D01*
D02*
G37*
G36*
X226099D02*
X224501D01*
X223026Y79504D01*
X221896Y78374D01*
X221285Y76899D01*
Y75301D01*
X221896Y73826D01*
X223026Y72696D01*
X224501Y72085D01*
X226099D01*
X227574Y72696D01*
X228704Y73826D01*
X229315Y75301D01*
Y76899D01*
X228704Y78374D01*
X227574Y79504D01*
X226099Y80115D01*
D02*
G37*
G36*
X303348Y71265D02*
X301652D01*
X300084Y70616D01*
X298884Y69416D01*
X298253Y67891D01*
X296752D01*
X295593Y67411D01*
X292560Y64378D01*
X292482Y64315D01*
X292059Y64018D01*
X291667Y63783D01*
X291606Y63756D01*
X291494Y63788D01*
X291123Y65213D01*
X291344Y65434D01*
X291765Y66450D01*
Y67550D01*
X291344Y68566D01*
X290566Y69344D01*
X289550Y69765D01*
X288450D01*
X287434Y69344D01*
X286656Y68566D01*
X286235Y67550D01*
Y66450D01*
X286656Y65434D01*
X287434Y64656D01*
X288379Y64264D01*
X288491Y63960D01*
X288640Y62965D01*
X288264Y62765D01*
X288152D01*
X286584Y62116D01*
X285384Y60916D01*
X284735Y59348D01*
Y57652D01*
X285384Y56084D01*
X286584Y54884D01*
X288152Y54235D01*
X289848D01*
X291416Y54884D01*
X292616Y56084D01*
X293265Y57652D01*
Y57935D01*
X293298Y57990D01*
X293383Y58589D01*
X293496Y59139D01*
X293640Y59667D01*
X293814Y60172D01*
X294018Y60655D01*
X294253Y61118D01*
X294518Y61559D01*
X294815Y61982D01*
X294878Y62060D01*
X297431Y64612D01*
X298873D01*
X298884Y64584D01*
X300084Y63384D01*
X301652Y62735D01*
X303348D01*
X304916Y63384D01*
X306116Y64584D01*
X306765Y66152D01*
Y67848D01*
X306116Y69416D01*
X304916Y70616D01*
X303348Y71265D01*
D02*
G37*
G36*
X226099Y67415D02*
X224501D01*
X223026Y66804D01*
X221896Y65674D01*
X221285Y64199D01*
Y62601D01*
X221896Y61126D01*
X223026Y59996D01*
X224501Y59385D01*
X226099D01*
X227574Y59996D01*
X228704Y61126D01*
X229315Y62601D01*
Y64199D01*
X228704Y65674D01*
X227574Y66804D01*
X226099Y67415D01*
D02*
G37*
G36*
X303050Y61265D02*
X301950D01*
X300934Y60844D01*
X300156Y60066D01*
X299735Y59050D01*
Y57950D01*
X300156Y56934D01*
X300934Y56156D01*
X301950Y55735D01*
X303050D01*
X304066Y56156D01*
X304844Y56934D01*
X305265Y57950D01*
Y59050D01*
X304844Y60066D01*
X304066Y60844D01*
X303050Y61265D01*
D02*
G37*
G36*
Y52765D02*
X301950D01*
X300934Y52344D01*
X300156Y51566D01*
X299735Y50550D01*
Y49450D01*
X300156Y48434D01*
X300934Y47656D01*
X301950Y47235D01*
X303050D01*
X304066Y47656D01*
X304844Y48434D01*
X305265Y49450D01*
Y50550D01*
X304844Y51566D01*
X304066Y52344D01*
X303050Y52765D01*
D02*
G37*
G36*
X289550D02*
X288450D01*
X287434Y52344D01*
X286656Y51566D01*
X286235Y50550D01*
Y49450D01*
X286656Y48434D01*
X287434Y47656D01*
X288450Y47235D01*
X289550D01*
X290566Y47656D01*
X291344Y48434D01*
X291765Y49450D01*
Y50550D01*
X291344Y51566D01*
X290566Y52344D01*
X289550Y52765D01*
D02*
G37*
G36*
X226099Y54715D02*
X224501D01*
X223026Y54104D01*
X221896Y52974D01*
X221285Y51499D01*
Y49901D01*
X221896Y48426D01*
X223026Y47296D01*
X224501Y46685D01*
X226099D01*
X227574Y47296D01*
X228704Y48426D01*
X229315Y49901D01*
Y51499D01*
X228704Y52974D01*
X227574Y54104D01*
X226099Y54715D01*
D02*
G37*
G36*
X303050Y44265D02*
X301950D01*
X300934Y43844D01*
X300156Y43066D01*
X299735Y42050D01*
Y40950D01*
X300156Y39934D01*
X300934Y39156D01*
X301950Y38735D01*
X303050D01*
X304066Y39156D01*
X304844Y39934D01*
X305265Y40950D01*
Y42050D01*
X304844Y43066D01*
X304066Y43844D01*
X303050Y44265D01*
D02*
G37*
G36*
X289550D02*
X288450D01*
X287434Y43844D01*
X286656Y43066D01*
X286235Y42050D01*
Y40950D01*
X286656Y39934D01*
X287434Y39156D01*
X288450Y38735D01*
X289550D01*
X290566Y39156D01*
X291344Y39934D01*
X291765Y40950D01*
Y42050D01*
X291344Y43066D01*
X290566Y43844D01*
X289550Y44265D01*
D02*
G37*
G36*
X238799Y42015D02*
X237201D01*
X235726Y41404D01*
X234596Y40274D01*
X233985Y38799D01*
Y37201D01*
X234596Y35726D01*
X235726Y34596D01*
X237201Y33985D01*
X238799D01*
X240274Y34596D01*
X241404Y35726D01*
X242015Y37201D01*
Y38799D01*
X241404Y40274D01*
X240274Y41404D01*
X238799Y42015D01*
D02*
G37*
G36*
X226099D02*
X224501D01*
X223026Y41404D01*
X221896Y40274D01*
X221285Y38799D01*
Y37201D01*
X221896Y35726D01*
X223026Y34596D01*
X224501Y33985D01*
X226099D01*
X227574Y34596D01*
X228704Y35726D01*
X229315Y37201D01*
Y38799D01*
X228704Y40274D01*
X227574Y41404D01*
X226099Y42015D01*
D02*
G37*
%LPD*%
G36*
X294917Y63357D02*
X294518Y62930D01*
X294154Y62481D01*
X293824Y62011D01*
X293528Y61518D01*
X293267Y61004D01*
X293040Y60468D01*
X292848Y59911D01*
X292690Y59331D01*
X292567Y58730D01*
X292478Y58107D01*
X288607Y61978D01*
X289230Y62067D01*
X289831Y62190D01*
X290411Y62348D01*
X290968Y62540D01*
X291504Y62767D01*
X292018Y63028D01*
X292511Y63323D01*
X292981Y63654D01*
X293430Y64018D01*
X293857Y64417D01*
X294917Y63357D01*
D02*
G37*
D11*
X124654Y98195D02*
X129831Y93018D01*
X123013Y98195D02*
X124654D01*
X120708Y100500D02*
X123013Y98195D01*
X131002Y85831D02*
X138042D01*
X129831Y87002D02*
Y93018D01*
Y87002D02*
X131002Y85831D01*
X144747Y82000D02*
X146765Y79982D01*
X141873Y82000D02*
X144747D01*
X138042Y85831D02*
X141873Y82000D01*
X146765Y75000D02*
Y79982D01*
X69000Y40000D02*
X74295Y34705D01*
Y24019D02*
Y34705D01*
D13*
X121442Y20054D02*
X121447Y20058D01*
X117947Y19530D02*
X118470Y20054D01*
X121447Y20058D02*
X122937D01*
X118470Y20054D02*
X121442D01*
X105472Y14635D02*
X107768D01*
X104837Y14000D02*
X105472Y14635D01*
X102000Y14000D02*
X104837D01*
X125000Y3470D02*
X128145D01*
X159993Y11078D02*
X164867Y15952D01*
X111520Y14730D02*
X144263D01*
X100976Y25274D02*
X111520Y14730D01*
X99063Y29683D02*
X112251Y16495D01*
X107768Y14635D02*
X109438Y12965D01*
X118024Y10200D02*
X118270D01*
X109438Y12965D02*
X143532D01*
X118270Y10200D02*
X125000Y3470D01*
X112251Y16495D02*
X145255D01*
X139756Y90791D02*
X143402Y87145D01*
X138780Y93076D02*
X139756Y92100D01*
Y90791D02*
Y92100D01*
X109530Y75782D02*
X113656D01*
X101870Y70686D02*
X105855Y74670D01*
X108799Y74017D02*
X118576D01*
X118825Y74265D01*
X115124Y77250D02*
X123414D01*
X113656Y75782D02*
X115124Y77250D01*
X108876Y76435D02*
X109530Y75782D01*
X108145Y74670D02*
X108799Y74017D01*
X96340Y69395D02*
X103380Y76435D01*
X209451Y38572D02*
X209765Y38259D01*
X174997Y40500D02*
X197426D01*
X202195Y35731D01*
X204913D01*
X202338Y38572D02*
X209451D01*
X168587Y39595D02*
X171802D01*
X170000Y43233D02*
X170873Y42360D01*
X198550D01*
X121895Y121235D02*
X137251D01*
X121164Y119470D02*
X136520D01*
X119058Y121576D02*
X121164Y119470D01*
X110422Y121576D02*
X119058D01*
X94852Y123500D02*
X119629D01*
X121895Y121235D01*
X106816Y117970D02*
X110422Y121576D01*
X137251Y121235D02*
X140604Y117881D01*
X136520Y119470D02*
X138839Y117150D01*
X96451Y119649D02*
X98130Y117970D01*
X85500Y117384D02*
X87765Y119649D01*
X96451D01*
X98130Y117970D02*
X106816D01*
X138839Y116613D02*
Y117150D01*
X140604Y117344D02*
X142105Y115844D01*
X138839Y116613D02*
X140945Y114507D01*
X140604Y117344D02*
Y117881D01*
X140945Y112000D02*
Y114507D01*
X142105Y115844D02*
X144395D01*
X146015Y117463D01*
X148677Y120250D02*
X151725D01*
X146015Y117463D02*
Y117588D01*
X148677Y120250D01*
X84023Y122500D02*
X93852D01*
X85500Y111000D02*
Y117384D01*
X93852Y122500D02*
X94852Y123500D01*
X75580Y85397D02*
X76735Y86552D01*
Y86630D01*
X117325Y61488D02*
X130374D01*
X130392Y61470D02*
X143440D01*
X135526Y63253D02*
X135545Y63235D01*
X103956Y61954D02*
X107233Y58677D01*
X114606D01*
X127481Y57940D02*
X139060D01*
X127463Y57958D02*
X127481Y57940D01*
X112876Y65938D02*
X117325Y61488D01*
X114606Y58677D02*
X115652Y59723D01*
X103799Y58201D02*
X105565Y56435D01*
X144171Y63235D02*
X147070Y60336D01*
X118056Y63253D02*
X135526D01*
X128194Y59723D02*
X128212Y59705D01*
X115396Y65914D02*
X118056Y63253D01*
X135545Y63235D02*
X144171D01*
X128212Y59705D02*
X140957D01*
X130374Y61488D02*
X130392Y61470D01*
X115652Y59723D02*
X128194D01*
X116383Y57958D02*
X127463D01*
X114860Y56435D02*
X116383Y57958D01*
X105565Y56435D02*
X114860D01*
X122938Y20060D02*
X127216D01*
X122937Y20058D02*
X122938Y20060D01*
X124000Y69220D02*
Y76664D01*
X123414Y77250D02*
X124000Y76664D01*
X112057Y65970D02*
X112090Y65938D01*
X112876D01*
X107366Y65970D02*
X112057D01*
X119172Y52172D02*
X121500Y54500D01*
X114305Y54250D02*
X116383Y52172D01*
X119172D01*
X100625Y54250D02*
X114305D01*
X98395Y51780D02*
X112886D01*
X100265Y49015D02*
X113155D01*
X130405Y31765D01*
X112886Y51780D02*
X130966Y33700D01*
X129260Y29000D02*
X145497D01*
X130405Y31765D02*
X146642D01*
X130966Y33700D02*
X147203D01*
X115353Y42906D02*
X129260Y29000D01*
X113235Y68703D02*
X115396Y66542D01*
Y65914D02*
Y66542D01*
X82674Y82715D02*
Y108174D01*
X85500Y111000D01*
X169530Y56000D02*
Y58530D01*
X170000Y43233D02*
Y47611D01*
X172262Y49873D02*
Y53973D01*
X170235Y56000D02*
X172262Y53973D01*
X170000Y47611D02*
X172262Y49873D01*
X163430Y41070D02*
X165280Y39220D01*
X159750Y32746D02*
Y40312D01*
X161030Y41592D01*
X164867Y15952D02*
Y28709D01*
X165280Y29122D01*
Y39220D01*
X159750Y32746D02*
X162942Y29553D01*
X152611Y18260D02*
X153336Y18985D01*
X144263Y14730D02*
X146150Y12843D01*
X129016Y18260D02*
X152611D01*
X143532Y12965D02*
X145419Y11078D01*
X127216Y20060D02*
X129016Y18260D01*
X137116Y21086D02*
X139045Y23015D01*
X136575Y21086D02*
X137116D01*
X139045Y23015D02*
X154130D01*
X158817Y12843D02*
X162942Y16969D01*
X145255Y16495D02*
X146142Y15608D01*
X155985Y18985D02*
X156368Y19368D01*
X153336Y18985D02*
X155985D01*
X89225Y29683D02*
X99063D01*
X90872Y25274D02*
X100976D01*
X66500Y57138D02*
Y68743D01*
X74363Y74613D02*
X77030Y77280D01*
X66500Y68743D02*
X72369Y74613D01*
X74363D01*
X168853Y89265D02*
Y89536D01*
X155045Y120250D02*
X161250D01*
X163787D02*
X167213Y116824D01*
X161250Y120250D02*
X163787D01*
X151725D02*
X152240Y119735D01*
X154530D01*
X155045Y120250D01*
X100000Y62504D02*
X103635Y66139D01*
X106545Y69140D02*
X109884D01*
X107326Y66010D02*
X107366Y65970D01*
X103635Y66139D02*
Y66230D01*
X106545Y69140D01*
X101870Y66870D02*
Y70686D01*
X105855Y74670D02*
X108145D01*
X103380Y76435D02*
X108876D01*
X114380Y71467D02*
X117192Y68655D01*
X109884Y69140D02*
X110470Y69726D01*
X117192Y68647D02*
X120005Y65835D01*
X110470Y69848D02*
X112090Y71467D01*
X120005Y65835D02*
X136525D01*
X112090Y71467D02*
X114380D01*
X117192Y68647D02*
Y68655D01*
X110470Y69726D02*
Y69848D01*
X88327Y55265D02*
X90992D01*
X94852Y59125D01*
X78108Y45530D02*
X80832D01*
X66500Y57138D02*
X78108Y45530D01*
X80832D02*
X82285Y46983D01*
X85550D01*
X77239Y77280D02*
X82674Y82715D01*
X77030Y77280D02*
X77239D01*
X64426Y56716D02*
X77690Y43453D01*
X64426Y78865D02*
X69766Y84205D01*
X64426Y56716D02*
Y78865D01*
X75004Y85397D02*
X75580D01*
X73812Y84205D02*
X75004Y85397D01*
X146364Y36465D02*
X147180Y37281D01*
X147250D01*
X145823Y36465D02*
X146364D01*
X147250Y37281D02*
X148573Y38604D01*
Y55118D01*
X165195Y41801D02*
Y83876D01*
Y41801D02*
X167401Y39595D01*
X163430Y41070D02*
Y80421D01*
X167401Y39595D02*
X168117D01*
X162430Y81421D02*
Y81963D01*
Y81421D02*
X163430Y80421D01*
X157175Y49185D02*
Y82468D01*
Y49185D02*
X158433Y47927D01*
X157900Y45103D02*
X158433Y45636D01*
X156408Y43025D02*
X157900Y44517D01*
X158433Y45636D02*
Y47927D01*
X157900Y44517D02*
Y45103D01*
X146150Y12843D02*
X158817D01*
X145419Y11078D02*
X159993D01*
X127000Y6235D02*
X131965Y11200D01*
X142801D02*
X144703Y9297D01*
X131965Y11200D02*
X142801D01*
X147203Y33700D02*
X150539Y30364D01*
X69766Y84205D02*
X73812D01*
X89062Y29520D02*
X89225Y29683D01*
X171802Y39800D02*
X174297D01*
X167278Y39009D02*
X167763Y39495D01*
X161030Y41592D02*
Y57549D01*
X164000Y85071D02*
X165195Y83876D01*
X160665Y57914D02*
X161030Y57549D01*
X168786Y75829D02*
Y76818D01*
X168404Y75446D02*
X168786Y75829D01*
Y76818D02*
X169000Y77032D01*
X162464Y91900D02*
X164000Y90363D01*
X158987Y91900D02*
X162464D01*
X164000Y85071D02*
Y90363D01*
X165765Y85802D02*
X169000Y82567D01*
X165765Y85802D02*
Y91094D01*
X169000Y77032D02*
Y82567D01*
X150338Y40662D02*
Y55849D01*
Y40662D02*
X157970Y33030D01*
X103500Y61954D02*
X103956D01*
X94852Y59125D02*
Y63057D01*
X96340Y64545D02*
Y69395D01*
X94852Y63057D02*
X96340Y64545D01*
X96617Y61617D02*
X101870Y66870D01*
X139060Y57940D02*
X143000Y54000D01*
X145310Y110894D02*
Y112560D01*
X131788Y7986D02*
X136303D01*
X136668Y8351D01*
X167213Y111551D02*
Y116824D01*
X162473Y106811D02*
X167213Y111551D01*
X159795Y106811D02*
X162473D01*
X136010Y101278D02*
X154262D01*
X159795Y106811D01*
X125620Y67600D02*
X127910D01*
X124000Y69220D02*
X125620Y67600D01*
X96617Y58258D02*
Y61617D01*
X100000Y58785D02*
Y62504D01*
X96617Y58258D02*
X100625Y54250D01*
X94906Y55269D02*
X98395Y51780D01*
X163978Y7068D02*
X166137Y9227D01*
X146788Y7068D02*
X163978D01*
X160709Y9297D02*
X166632Y15221D01*
X144703Y9297D02*
X160709D01*
X166632Y15221D02*
Y27978D01*
X145184Y5464D02*
X146788Y7068D01*
X141036Y5464D02*
X145184D01*
X162942Y16969D02*
Y29553D01*
X154130Y23015D02*
X157970Y26855D01*
Y33030D01*
X198550Y42360D02*
X202338Y38572D01*
X146142Y15608D02*
X156564D01*
X128145Y3470D02*
X129967Y5292D01*
X167278Y28624D02*
Y39009D01*
X129967Y6165D02*
X131788Y7986D01*
X129967Y5292D02*
Y6165D01*
X146642Y31765D02*
X148774Y29633D01*
X150539Y29661D02*
X152106Y28093D01*
X150539Y29661D02*
Y30364D01*
X152106Y27552D02*
Y28093D01*
X148774Y26974D02*
Y29633D01*
Y26974D02*
X150961Y24787D01*
X154871Y26407D02*
Y30916D01*
X150961Y24787D02*
X153252D01*
X154871Y30916D02*
X155205Y31250D01*
X153252Y24787D02*
X154871Y26407D01*
X156121Y39000D02*
X156408Y39287D01*
X142202Y58460D02*
X142540D01*
X143440Y61470D02*
X145305Y59605D01*
Y55890D02*
Y59605D01*
X147070Y56621D02*
Y60336D01*
Y56621D02*
X148573Y55118D01*
X149835Y56352D02*
Y58365D01*
X136525Y65835D02*
X136690Y66000D01*
X145310Y95780D02*
X151257D01*
X134772Y97094D02*
X138780Y93086D01*
X134772Y97094D02*
Y100040D01*
X136010Y101278D01*
X77690Y43453D02*
X84916D01*
X89145Y39224D01*
Y37608D02*
Y39224D01*
Y37608D02*
X89527Y37225D01*
X174297Y39800D02*
X174997Y40500D01*
X166632Y27978D02*
X167278Y28624D01*
X146188Y51269D02*
Y55007D01*
X149835Y56352D02*
X150338Y55849D01*
X145808Y50889D02*
X146188Y51269D01*
X138780Y93076D02*
Y93086D01*
X143402Y87145D02*
X152498D01*
X157175Y82468D01*
X167530Y90858D02*
X168853Y89536D01*
X153241Y97765D02*
X161590D01*
X167530Y91825D01*
X155000Y95000D02*
X161859D01*
X165765Y91094D01*
X167530Y90858D02*
Y91825D01*
X151257Y95780D02*
X153241Y97765D01*
X156408Y39287D02*
Y43025D01*
X145305Y55890D02*
X146188Y55007D01*
X140957Y59705D02*
X142202Y58460D01*
X169530Y56000D02*
X170235D01*
X127910Y67600D02*
X130075Y69765D01*
X136686D01*
X169530Y58530D02*
X171662Y60662D01*
Y66972D01*
D16*
X198000Y143000D02*
G03*
X193000Y148000I-5000J0D01*
G01*
X198000Y33000D02*
G03*
X193000Y38000I-5000J0D01*
G01*
Y46000D02*
G03*
X198000Y51000I0J5000D01*
G01*
X198000Y74000D02*
G03*
X193000Y79000I-5000J0D01*
G01*
X193000Y91000D02*
G03*
X198000Y96000I0J5000D01*
G01*
X198000Y5000D02*
G03*
X203000Y0I5000J0D01*
G01*
X64000Y143000D02*
G03*
X59000Y148000I-5000J0D01*
G01*
X77000D02*
G03*
X72000Y143000I0J-5000D01*
G01*
X0Y153000D02*
G03*
X5000Y148000I5000J0D01*
G01*
X127000Y148000D02*
G03*
X122000Y143000I0J-5000D01*
G01*
X114000D02*
G03*
X109000Y148000I-5000J0D01*
G01*
X5000Y192000D02*
G03*
X0Y187000I0J-5000D01*
G01*
X367000D02*
G03*
X362000Y192000I-5000J0D01*
G01*
Y0D02*
G03*
X367000Y5000I0J5000D01*
G01*
X122000Y131000D02*
G03*
X127000Y126000I5000J0D01*
G01*
X59000D02*
G03*
X64000Y131000I0J5000D01*
G01*
X109000Y126000D02*
G03*
X114000Y131000I0J5000D01*
G01*
X72000Y131000D02*
G03*
X77000Y126000I5000J0D01*
G01*
X181000Y79000D02*
G03*
X176000Y74000I0J-5000D01*
G01*
X176000Y96000D02*
G03*
X181000Y91000I5000J0D01*
G01*
X181000Y38000D02*
G03*
X176000Y33000I0J-5000D01*
G01*
X176000Y51000D02*
G03*
X181000Y46000I5000J0D01*
G01*
X20000Y95000D02*
G03*
X30000Y105000I0J10000D01*
G01*
X0Y153000D02*
X0Y187000D01*
X203000Y0D02*
X362000D01*
X64000Y143045D02*
X64000Y131000D01*
X72000Y143000D02*
X72000Y131000D01*
X114000Y143000D02*
X114000Y131000D01*
X122000Y143000D02*
X122000Y131000D01*
X127000Y148000D02*
X193000D01*
X198000Y143000D02*
X198000Y96000D01*
X181000Y91000D02*
X193000D01*
X192000Y79000D02*
X193000D01*
X181000D02*
X192000D01*
X181000Y46000D02*
X193011D01*
X181000Y38000D02*
X193000D01*
X198000Y5000D02*
Y30000D01*
Y33000D01*
Y51000D02*
Y74000D01*
X77000Y148000D02*
X109000D01*
X5000Y148000D02*
X59000D01*
X5000Y192000D02*
X362000Y192000D01*
X367000Y5000D02*
Y187000D01*
X77000Y126000D02*
X109000D01*
X176000Y51000D02*
Y74000D01*
Y30000D02*
Y33000D01*
X127000Y126000D02*
X156000D01*
X175990Y29058D02*
X175998Y29529D01*
X175879Y26708D02*
X175911Y27177D01*
X175800Y25773D02*
X175842Y26240D01*
X175754Y25307D02*
X175800Y25773D01*
X175842Y26240D02*
X175879Y26708D01*
X175978Y28587D02*
X175990Y29058D01*
X175702Y24842D02*
X175754Y25307D01*
X175646Y24379D02*
X175702Y24842D01*
X175961Y28116D02*
X175978Y28587D01*
X175584Y23916D02*
X175646Y24379D01*
X175938Y27646D02*
X175961Y28116D01*
X175911Y27177D02*
X175938Y27646D01*
X175518Y23456D02*
X175584Y23916D01*
X173215Y14729D02*
X173373Y15136D01*
X173526Y15547D01*
X174228Y17655D02*
X174355Y18086D01*
X174097Y17227D02*
X174228Y17655D01*
X173960Y16802D02*
X174097Y17227D01*
X173053Y14325D02*
X173215Y14729D01*
X172887Y13925D02*
X173053Y14325D01*
X173820Y16380D02*
X173960Y16802D01*
X173675Y15962D02*
X173820Y16380D01*
X173526Y15547D02*
X173675Y15962D01*
X174596Y18956D02*
X174709Y19396D01*
X174922Y20282D02*
X175021Y20729D01*
X175447Y22997D02*
X175518Y23456D01*
X175372Y22539D02*
X175447Y22997D01*
X174818Y19838D02*
X174922Y20282D01*
X174709Y19396D02*
X174818Y19838D01*
X175291Y22084D02*
X175372Y22539D01*
X175206Y21630D02*
X175291Y22084D01*
X174478Y18520D02*
X174596Y18956D01*
X175116Y21179D02*
X175206Y21630D01*
X174355Y18086D02*
X174478Y18520D01*
X175021Y20729D02*
X175116Y21179D01*
X168008Y6010D02*
X168258Y6295D01*
X168748Y6885D02*
X168989Y7188D01*
X170142Y8787D02*
X170362Y9123D01*
X168505Y6587D02*
X168748Y6885D01*
X169918Y8456D02*
X170142Y8787D01*
X168258Y6295D02*
X168505Y6587D01*
X169691Y8131D02*
X169918Y8456D01*
X169460Y7811D02*
X169691Y8131D01*
X167756Y5730D02*
X168008Y6010D01*
X169226Y7497D02*
X169460Y7811D01*
X168989Y7188D02*
X169226Y7497D01*
X170362Y9123D02*
X170579Y9464D01*
X167242Y5188D02*
X167500Y5455D01*
X165909Y3941D02*
X166181Y4178D01*
X165635Y3711D02*
X165909Y3941D01*
X165359Y3487D02*
X165635Y3711D01*
X166980Y4926D02*
X167242Y5188D01*
X166716Y4670D02*
X166980Y4926D01*
X165080Y3270D02*
X165359Y3487D01*
X164799Y3059D02*
X165080Y3270D01*
X166450Y4421D02*
X166716Y4670D01*
X164516Y2855D02*
X164799Y3059D01*
X166181Y4178D02*
X166450Y4421D01*
X167500Y5455D02*
X167756Y5730D01*
X162180Y1468D02*
X162478Y1618D01*
X160363Y723D02*
X160669Y829D01*
X160056Y623D02*
X160363Y723D01*
X161881Y1326D02*
X162180Y1468D01*
X159748Y531D02*
X160056Y623D01*
X161580Y1191D02*
X161881Y1326D01*
X161277Y1063D02*
X161580Y1191D01*
X159439Y447D02*
X159748Y531D01*
X159129Y369D02*
X159439Y447D01*
X160974Y943D02*
X161277Y1063D01*
X160669Y829D02*
X160974Y943D01*
X162478Y1618D02*
X162775Y1774D01*
X172542Y13138D02*
X172716Y13529D01*
X171410Y10877D02*
X171609Y11243D01*
X171208Y10517D02*
X171410Y10877D01*
X172363Y12750D02*
X172542Y13138D01*
X172180Y12366D02*
X172363Y12750D01*
X171002Y10161D02*
X171208Y10517D01*
X170793Y9810D02*
X171002Y10161D01*
X171994Y11987D02*
X172180Y12366D01*
X170579Y9464D02*
X170793Y9810D01*
X171803Y11613D02*
X171994Y11987D01*
X172716Y13529D02*
X172887Y13925D01*
X171609Y11243D02*
X171803Y11613D01*
X156000Y0D02*
X156314Y4D01*
X156628Y15D01*
X156942Y33D01*
X157256Y59D01*
X158507Y237D02*
X158818Y299D01*
X158195Y181D02*
X158507Y237D01*
X157882Y133D02*
X158195Y181D01*
X157569Y93D02*
X157882Y133D01*
X157256Y59D02*
X157569Y93D01*
X158818Y299D02*
X159129Y369D01*
X162775Y1774D02*
X163069Y1937D01*
X163943Y2467D02*
X164230Y2658D01*
X163654Y2284D02*
X163943Y2467D01*
X163363Y2107D02*
X163654Y2284D01*
X163069Y1937D02*
X163363Y2107D01*
X164230Y2658D02*
X164516Y2855D01*
X175998Y29529D02*
X176000Y30000D01*
X175990Y96942D02*
X175998Y96471D01*
X175879Y99292D02*
X175911Y98823D01*
X175800Y100227D02*
X175842Y99760D01*
X175754Y100693D02*
X175800Y100227D01*
X175842Y99760D02*
X175879Y99292D01*
X175978Y97413D02*
X175990Y96942D01*
X175702Y101158D02*
X175754Y100693D01*
X175646Y101621D02*
X175702Y101158D01*
X175961Y97884D02*
X175978Y97413D01*
X175584Y102084D02*
X175646Y101621D01*
X175938Y98354D02*
X175961Y97884D01*
X175911Y98823D02*
X175938Y98354D01*
X175518Y102544D02*
X175584Y102084D01*
X173215Y111271D02*
X173373Y110864D01*
X173526Y110453D01*
X174228Y108345D02*
X174355Y107914D01*
X174097Y108773D02*
X174228Y108345D01*
X173960Y109198D02*
X174097Y108773D01*
X173053Y111675D02*
X173215Y111271D01*
X172887Y112075D02*
X173053Y111675D01*
X173820Y109620D02*
X173960Y109198D01*
X173675Y110038D02*
X173820Y109620D01*
X173526Y110453D02*
X173675Y110038D01*
X174596Y107044D02*
X174709Y106604D01*
X174922Y105717D02*
X175021Y105271D01*
X175447Y103003D02*
X175518Y102544D01*
X175372Y103461D02*
X175447Y103003D01*
X174818Y106162D02*
X174922Y105717D01*
X174709Y106604D02*
X174818Y106162D01*
X175291Y103916D02*
X175372Y103461D01*
X175206Y104370D02*
X175291Y103916D01*
X174478Y107480D02*
X174596Y107044D01*
X175116Y104821D02*
X175206Y104370D01*
X174355Y107914D02*
X174478Y107480D01*
X175021Y105271D02*
X175116Y104821D01*
X168008Y119991D02*
X168258Y119705D01*
X168748Y119115D02*
X168989Y118812D01*
X170142Y117213D02*
X170362Y116877D01*
X168505Y119413D02*
X168748Y119115D01*
X169918Y117544D02*
X170142Y117213D01*
X168258Y119705D02*
X168505Y119413D01*
X169691Y117869D02*
X169918Y117544D01*
X169460Y118189D02*
X169691Y117869D01*
X167756Y120270D02*
X168008Y119991D01*
X169226Y118503D02*
X169460Y118189D01*
X168989Y118812D02*
X169226Y118503D01*
X170362Y116877D02*
X170579Y116536D01*
X167242Y120812D02*
X167500Y120544D01*
X165909Y122059D02*
X166181Y121822D01*
X165635Y122289D02*
X165909Y122059D01*
X165359Y122513D02*
X165635Y122289D01*
X166980Y121074D02*
X167242Y120812D01*
X166716Y121330D02*
X166980Y121074D01*
X165080Y122730D02*
X165359Y122513D01*
X164799Y122941D02*
X165080Y122730D01*
X166450Y121579D02*
X166716Y121330D01*
X164516Y123145D02*
X164799Y122941D01*
X166181Y121822D02*
X166450Y121579D01*
X167500Y120544D02*
X167756Y120270D01*
X162180Y124532D02*
X162478Y124382D01*
X160363Y125277D02*
X160669Y125171D01*
X160056Y125377D02*
X160363Y125277D01*
X161881Y124674D02*
X162180Y124532D01*
X159748Y125469D02*
X160056Y125377D01*
X161580Y124809D02*
X161881Y124674D01*
X161277Y124937D02*
X161580Y124809D01*
X159439Y125553D02*
X159748Y125469D01*
X159129Y125631D02*
X159439Y125553D01*
X160974Y125057D02*
X161277Y124937D01*
X160669Y125171D02*
X160974Y125057D01*
X162478Y124382D02*
X162775Y124226D01*
X172542Y112863D02*
X172716Y112471D01*
X171410Y115123D02*
X171609Y114757D01*
X171208Y115483D02*
X171410Y115123D01*
X172363Y113250D02*
X172542Y112863D01*
X172180Y113633D02*
X172363Y113250D01*
X171002Y115839D02*
X171208Y115483D01*
X170793Y116190D02*
X171002Y115839D01*
X171994Y114012D02*
X172180Y113633D01*
X170579Y116536D02*
X170793Y116190D01*
X171803Y114387D02*
X171994Y114012D01*
X172716Y112471D02*
X172887Y112075D01*
X171609Y114757D02*
X171803Y114387D01*
X156000Y126000D02*
X156314Y125996D01*
X156628Y125985D01*
X156942Y125967D01*
X157256Y125941D01*
X158507Y125763D02*
X158818Y125701D01*
X158195Y125819D02*
X158507Y125763D01*
X157882Y125867D02*
X158195Y125819D01*
X157569Y125907D02*
X157882Y125867D01*
X157256Y125941D02*
X157569Y125907D01*
X158818Y125701D02*
X159129Y125631D01*
X162775Y124226D02*
X163069Y124063D01*
X163943Y123533D02*
X164230Y123342D01*
X163654Y123716D02*
X163943Y123533D01*
X163363Y123893D02*
X163654Y123716D01*
X163069Y124063D02*
X163363Y123893D01*
X164230Y123342D02*
X164516Y123145D01*
X175998Y96471D02*
X176000Y96000D01*
X50000Y126000D02*
X59000D01*
X884Y84411D02*
X979Y84635D01*
X628Y83730D02*
X709Y83958D01*
X415Y83042D02*
X482Y83272D01*
X1405Y85522D02*
X1522Y85740D01*
X2785Y87636D02*
X2947Y87837D01*
X4197Y89194D02*
X4391Y89379D01*
X154Y9215D02*
X222Y9059D01*
X616Y8436D02*
X745Y8281D01*
X4792Y89742D02*
X4998Y89920D01*
X5207Y90095D02*
X5421Y90268D01*
X5858Y90607D02*
X6082Y90772D01*
X6309Y90934D02*
X6540Y91095D01*
X7495Y91706D02*
X7742Y91852D01*
X5099Y5601D02*
X5450Y5460D01*
X9550Y92790D02*
X9819Y92911D01*
X10920Y93365D02*
X11201Y93470D01*
X11484Y93572D01*
X6963Y4910D02*
X7368Y4775D01*
X18118Y94933D02*
X18431Y94954D01*
X19058Y94983D02*
X19372Y94993D01*
X30062Y106648D02*
X30089Y106976D01*
X30121Y107304D02*
X30158Y107632D01*
X30354Y108935D02*
X30415Y109258D01*
X31182Y112114D02*
X31291Y112423D01*
X31405Y112731D02*
X31522Y113036D01*
X31772Y113642D02*
X31904Y113941D01*
X32474Y115117D02*
X32627Y115405D01*
X34590Y118386D02*
X34792Y118638D01*
X33063Y591D02*
X33804Y539D01*
X37992Y121793D02*
X38244Y121989D01*
X38758Y122369D02*
X39020Y122552D01*
X39550Y122905D02*
X39819Y123076D01*
X40641Y123559D02*
X40920Y123711D01*
X43522Y124868D02*
X43820Y124972D01*
X44119Y125072D02*
X44420Y125166D01*
X46860Y20D02*
X47645Y11D01*
X48429Y5D01*
X47805Y125873D02*
X48118Y125907D01*
X48431Y125935D02*
X48744Y125959D01*
X49058Y125977D02*
X49372Y125990D01*
X48744Y125959D02*
X49058Y125977D01*
X1522Y85740D02*
X1645Y85957D01*
X1772Y86173D02*
X1903Y86387D01*
X2325Y87019D02*
X2474Y87226D01*
X0Y80000D02*
X3Y80236D01*
X0Y10000D02*
Y80000D01*
X6Y9843D02*
X25Y9686D01*
X55Y9529D02*
X99Y9372D01*
X222Y9059D02*
X302Y8903D01*
X1571Y7513D02*
X1772Y7361D01*
X3228Y6465D02*
X3511Y6319D01*
X3806Y6173D01*
X4430Y5885D02*
X4759Y5742D01*
X5099Y5601D01*
X9819Y92911D02*
X10091Y93029D01*
X5812Y5321D02*
X6185Y5182D01*
X6568Y5045D01*
X9093Y4250D02*
X9549Y4122D01*
X16252Y94734D02*
X16561Y94777D01*
X11474Y3626D02*
X11980Y3505D01*
X17805Y94909D02*
X18118Y94933D01*
X13018Y3270D02*
X13552Y3155D01*
X18744Y94970D02*
X19058Y94983D01*
X30010Y105660D02*
X30022Y105989D01*
X31078Y111802D02*
X31182Y112114D01*
X23875Y1474D02*
X24548Y1393D01*
X25227Y1314D02*
X25912Y1237D01*
X32180Y114534D02*
X32325Y114826D01*
X30143Y822D02*
X30866Y761D01*
X31594Y702D02*
X32326Y646D01*
X36806Y354D02*
X37566Y314D01*
X39020Y122552D02*
X39283Y122731D01*
X40631Y177D02*
X41403Y149D01*
X45295Y44D02*
X46077Y31D01*
X46871Y125742D02*
X47182Y125791D01*
X47493Y125834D01*
X49215Y1D02*
X50000Y0D01*
X482Y83272D02*
X553Y83502D01*
X246Y82346D02*
X298Y82579D01*
X4391Y89379D02*
X4590Y89561D01*
X4792Y89742D01*
X302Y8903D02*
X394Y8747D01*
X745Y8281D02*
X886Y8126D01*
X7992Y91995D02*
X8244Y92135D01*
X3806Y6173D02*
X4112Y6029D01*
X8758Y92406D02*
X9020Y92537D01*
X4112Y6029D02*
X4430Y5885D01*
X6568Y5045D02*
X6963Y4910D01*
X10016Y3996D02*
X10492Y3871D01*
X10978Y3748D01*
X15331Y94586D02*
X15637Y94639D01*
X15944Y94688D02*
X16252Y94734D01*
X17493Y94882D02*
X17805Y94909D01*
X18431Y94954D02*
X18744Y94970D01*
X14094Y3041D02*
X14645Y2929D01*
X30089Y106976D02*
X30121Y107304D01*
X19979Y2003D02*
X20611Y1910D01*
X30628Y110223D02*
X30709Y110541D01*
X22549Y1642D02*
X23209Y1557D01*
X30794Y110859D02*
X30884Y111175D01*
X30979Y111489D02*
X31078Y111802D01*
X31645Y113340D02*
X31772Y113642D01*
X33458Y116804D02*
X33637Y117075D01*
X34998Y118888D02*
X35207Y119133D01*
X33804Y539D02*
X34549Y489D01*
X36540Y120532D02*
X36774Y120752D01*
X37011Y120969D01*
X38500Y122181D02*
X38758Y122369D01*
X39093Y241D02*
X39861Y208D01*
X44513Y60D02*
X45295Y44D01*
X44420Y125166D02*
X44722Y125256D01*
X46077Y31D02*
X46860Y20D01*
X46252Y125628D02*
X46561Y125687D01*
X1182Y85081D02*
X1291Y85302D01*
X1903Y86387D02*
X2039Y86599D01*
X2180Y86810D01*
X22Y80707D02*
X39Y80942D01*
X3113Y88037D02*
X3284Y88235D01*
X3458Y88431D01*
X4006Y89006D02*
X4197Y89194D01*
X394Y8747D02*
X499Y8591D01*
X1985Y7210D02*
X2210Y7060D01*
X2447Y6910D02*
X2696Y6761D01*
X8244Y92135D02*
X8500Y92272D01*
X10091Y93029D02*
X10365Y93145D01*
X8646Y4379D02*
X9093Y4250D01*
X14119Y94337D02*
X14420Y94404D01*
X16561Y94777D02*
X16871Y94815D01*
X17182Y94850D01*
X15204Y2819D02*
X15773Y2710D01*
X30000Y105000D02*
X30003Y105330D01*
X18129Y2295D02*
X18738Y2196D01*
X19355Y2098D02*
X19979Y2003D01*
X20611Y1910D02*
X21250Y1819D01*
X30553Y109902D02*
X30628Y110223D01*
X31522Y113036D02*
X31645Y113340D01*
X25912Y1237D02*
X26604Y1162D01*
X28711Y952D02*
X29424Y886D01*
X34391Y118130D02*
X34590Y118386D01*
X35207Y119133D02*
X35421Y119375D01*
X35638Y119614D01*
X36082Y120081D02*
X36309Y120308D01*
X35298Y442D02*
X36050Y397D01*
X37011Y120969D02*
X37252Y121181D01*
X39283Y122731D02*
X39550Y122905D01*
X41484Y124001D02*
X41770Y124139D01*
X42057Y124273D01*
X42955Y100D02*
X43733Y79D01*
X44722Y125256D02*
X45026Y125340D01*
X45331Y125420D01*
X48429Y5D02*
X49215Y1D01*
X709Y83958D02*
X794Y84185D01*
X553Y83502D02*
X628Y83730D01*
X89Y81412D02*
X121Y81646D01*
X3Y80236D02*
X10Y80471D01*
X62Y81177D02*
X89Y81412D01*
X3637Y88625D02*
X3820Y88817D01*
X0Y10000D02*
X6Y9843D01*
X3820Y88817D02*
X4006Y89006D01*
X4998Y89920D02*
X5207Y90095D01*
X886Y8126D02*
X1039Y7972D01*
X1772Y7361D02*
X1985Y7210D01*
X2210Y7060D02*
X2447Y6910D01*
X2696Y6761D02*
X2956Y6613D01*
X8500Y92272D02*
X8758Y92406D01*
X9283Y92665D02*
X9550Y92790D01*
X12057Y93766D02*
X12346Y93858D01*
X7784Y4642D02*
X8210Y4510D01*
X14420Y94404D02*
X14723Y94468D01*
X15637Y94639D02*
X15944Y94688D01*
X30199Y107959D02*
X30246Y108285D01*
X21250Y1819D02*
X21896Y1729D01*
X30482Y109581D02*
X30553Y109902D01*
X30709Y110541D02*
X30794Y110859D01*
X30884Y111175D02*
X30979Y111489D01*
X32325Y114826D02*
X32474Y115117D01*
X33284Y116530D02*
X33458Y116804D01*
X34197Y117871D02*
X34391Y118130D01*
X34792Y118638D02*
X34998Y118888D01*
X34549Y489D02*
X35298Y442D01*
X37495Y121389D02*
X37742Y121593D01*
X36050Y397D02*
X36806Y354D01*
X37566Y314D02*
X38328Y276D01*
X42178Y123D02*
X42955Y100D01*
X42638Y124525D02*
X42930Y124644D01*
X43225Y124759D02*
X43522Y124868D01*
X43820Y124972D02*
X44119Y125072D01*
X45637Y125494D02*
X45944Y125564D01*
X46561Y125687D02*
X46871Y125742D01*
X979Y84635D02*
X1078Y84859D01*
X1182Y85081D01*
X1645Y85957D02*
X1772Y86173D01*
X200Y82114D02*
X246Y82346D01*
X121Y81646D02*
X158Y81880D01*
X39Y80942D02*
X62Y81177D01*
X10Y80471D02*
X22Y80707D01*
X5421Y90268D02*
X5638Y90439D01*
X1382Y7666D02*
X1571Y7513D01*
X6540Y91095D02*
X6774Y91252D01*
X7011Y91406D01*
X7251Y91558D01*
X7495Y91706D01*
X2956Y6613D02*
X3228Y6465D01*
X10641Y93257D02*
X10920Y93365D01*
X7368Y4775D02*
X7784Y4642D01*
X12637Y93947D02*
X12931Y94032D01*
X13225Y94113D01*
X13522Y94191D02*
X13820Y94266D01*
X15026Y94529D02*
X15331Y94586D01*
X9549Y4122D02*
X10016Y3996D01*
X10978Y3748D02*
X11474Y3626D01*
X19372Y94993D02*
X19686Y94998D01*
X30003Y105330D02*
X30010Y105660D01*
X30022Y105989D02*
X30040Y106319D01*
X30062Y106648D01*
X18738Y2196D02*
X19355Y2098D01*
X30246Y108285D02*
X30298Y108610D01*
X32947Y115972D02*
X33113Y116252D01*
X29424Y886D02*
X30143Y822D01*
X34006Y117609D02*
X34197Y117871D01*
X30866Y761D02*
X31594Y702D01*
X32326Y646D02*
X33063Y591D01*
X37252Y121181D02*
X37495Y121389D01*
X39819Y123076D02*
X40091Y123241D01*
X42057Y124273D02*
X42346Y124402D01*
X42638Y124525D01*
X42930Y124644D02*
X43225Y124759D01*
X49372Y125990D02*
X49686Y125997D01*
X50000Y0D02*
X156000D01*
X298Y82579D02*
X354Y82811D01*
X2627Y87432D02*
X2785Y87636D01*
X3458Y88431D02*
X3637Y88625D01*
X25Y9686D02*
X55Y9529D01*
X499Y8591D02*
X616Y8436D01*
X5638Y90439D02*
X5858Y90607D01*
X1204Y7819D02*
X1382Y7666D01*
X6082Y90772D02*
X6309Y90934D01*
X9020Y92537D02*
X9283Y92665D01*
X10365Y93145D02*
X10641Y93257D01*
X11770Y93671D02*
X12057Y93766D01*
X12346Y93858D02*
X12637Y93947D01*
X13225Y94113D02*
X13522Y94191D01*
X14723Y94468D02*
X15026Y94529D01*
X11980Y3505D02*
X12494Y3387D01*
X13552Y3155D02*
X14094Y3041D01*
X14645Y2929D02*
X15204Y2819D01*
X15773Y2710D02*
X16349Y2604D01*
X16934Y2499D01*
X30158Y107632D02*
X30199Y107959D01*
X30298Y108610D02*
X30354Y108935D01*
X30415Y109258D02*
X30482Y109581D01*
X21896Y1729D02*
X22549Y1642D01*
X32039Y114239D02*
X32180Y114534D01*
X32627Y115405D02*
X32785Y115690D01*
X27301Y1090D02*
X28003Y1020D01*
X28711Y952D01*
X32785Y115690D02*
X32947Y115972D01*
X35638Y119614D02*
X35858Y119849D01*
X37742Y121593D02*
X37992Y121793D01*
X39861Y208D02*
X40631Y177D01*
X41403Y149D02*
X42178Y123D01*
X40920Y123711D02*
X41201Y123859D01*
X45944Y125564D02*
X46252Y125628D01*
X794Y84185D02*
X884Y84411D01*
X1291Y85302D02*
X1405Y85522D01*
X354Y82811D02*
X415Y83042D01*
X158Y81880D02*
X200Y82114D01*
X2180Y86810D02*
X2325Y87019D01*
X2474Y87226D02*
X2627Y87432D01*
X2947Y87837D02*
X3113Y88037D01*
X99Y9372D02*
X154Y9215D01*
X1039Y7972D02*
X1204Y7819D01*
X7742Y91852D02*
X7992Y91995D01*
X5450Y5460D02*
X5812Y5321D01*
X11484Y93572D02*
X11770Y93671D01*
X8210Y4510D02*
X8646Y4379D01*
X13820Y94266D02*
X14119Y94337D01*
X17182Y94850D02*
X17493Y94882D01*
X12494Y3387D02*
X13018Y3270D01*
X19686Y94998D02*
X20000Y95000D01*
X16934Y2499D02*
X17528Y2396D01*
X18129Y2295D01*
X23209Y1557D02*
X23875Y1474D01*
X31291Y112423D02*
X31405Y112731D01*
X24548Y1393D02*
X25227Y1314D01*
X31904Y113941D02*
X32039Y114239D01*
X26604Y1162D02*
X27301Y1090D01*
X33113Y116252D02*
X33284Y116530D01*
X33637Y117075D02*
X33820Y117344D01*
X34006Y117609D01*
X35858Y119849D02*
X36082Y120081D01*
X36309Y120308D02*
X36540Y120532D01*
X38244Y121989D02*
X38500Y122181D01*
X38328Y276D02*
X39093Y241D01*
X40091Y123241D02*
X40365Y123402D01*
X40641Y123559D01*
X41201Y123859D02*
X41484Y124001D01*
X43733Y79D02*
X44513Y60D01*
X45331Y125420D02*
X45637Y125494D01*
X47493Y125834D02*
X47805Y125873D01*
X48118Y125907D02*
X48431Y125935D01*
X49686Y125997D02*
X50000Y126000D01*
D57*
X294883Y174500D02*
D03*
X345683D02*
D03*
D59*
X336500Y105950D02*
D03*
Y19550D02*
D03*
D60*
X302500Y67000D02*
D03*
Y92500D02*
D03*
Y33000D02*
D03*
X289000D02*
D03*
Y92500D02*
D03*
Y58500D02*
D03*
D61*
X294000Y105950D02*
D03*
Y19550D02*
D03*
D62*
X238000Y88800D02*
D03*
Y63400D02*
D03*
Y50700D02*
D03*
D65*
X152503Y45471D02*
X152874Y45100D01*
Y43430D02*
X153103Y43201D01*
X152874Y43430D02*
Y45100D01*
X152503Y45471D02*
Y48479D01*
X153000Y48976D01*
Y70000D01*
X151433Y71567D02*
X153000Y70000D01*
X151433Y72433D02*
Y74000D01*
Y71567D02*
Y72433D01*
D66*
X112750Y165250D02*
X119000Y159000D01*
Y126979D02*
Y159000D01*
Y126979D02*
X122729Y123250D01*
X138085D01*
X138643D01*
X143267Y118626D01*
X90250Y100250D02*
Y113584D01*
X89670Y114165D02*
X90250Y113584D01*
X89056Y116884D02*
X89670Y116270D01*
Y114165D02*
Y116270D01*
X84689Y94689D02*
X90250Y100250D01*
X106201Y82215D02*
X116125D01*
X117684Y80656D01*
X126348D01*
X73420Y70820D02*
X77865Y75265D01*
X68515Y59342D02*
X71750Y56107D01*
X71427Y70820D02*
X73420D01*
X68515Y67909D02*
X71427Y70820D01*
X68515Y59342D02*
Y67909D01*
X159480Y111842D02*
X160785D01*
X161677Y116528D02*
X162083D01*
X160055Y115620D02*
X160770D01*
X161677Y116528D01*
X152696Y105058D02*
X159480Y111842D01*
X160785D02*
X161562Y112619D01*
X161968D01*
X151758Y107323D02*
X160055Y115620D01*
X104275Y80289D02*
X106201Y82215D01*
X92211Y63266D02*
X94325Y65380D01*
X90124Y59124D02*
X92211Y61211D01*
Y63266D01*
X71750Y56107D02*
X76139Y51718D01*
X79953D02*
X86663Y58428D01*
X88233D01*
X76139Y51718D02*
X79953D01*
X77865Y75265D02*
X78074D01*
X84689Y81881D02*
Y94689D01*
X92984Y76031D02*
Y87984D01*
X79333Y65583D02*
X90719Y76969D01*
X78828Y61875D02*
X92984Y76031D01*
X90719Y76969D02*
Y88922D01*
X95985Y94188D01*
X78074Y75265D02*
X84689Y81881D01*
X92984Y87984D02*
X98250Y93250D01*
X103870Y107323D02*
X151758D01*
X104808Y105058D02*
X152696D01*
X98250Y98500D02*
X104808Y105058D01*
X95985Y99438D02*
X103870Y107323D01*
X75514Y65583D02*
X79333D01*
X88929Y59124D02*
X90124D01*
X88233Y58428D02*
X88929Y59124D01*
X71750Y56107D02*
Y56107D01*
X94325Y70230D02*
X104275Y80179D01*
X94325Y65380D02*
Y70230D01*
X104275Y80179D02*
Y80289D01*
X98250Y93250D02*
Y98500D01*
X95985Y94188D02*
Y99438D01*
X75496Y61818D02*
X75553Y61875D01*
X78828D01*
D67*
X67136Y157136D02*
X96250Y186250D01*
X68500Y108167D02*
Y145385D01*
X67136Y146749D02*
X68500Y145385D01*
X67136Y146749D02*
Y157136D01*
X133505Y116005D02*
X136074D01*
X96790Y112480D02*
X129980D01*
X133505Y116005D01*
X68500Y108167D02*
X75928Y100740D01*
X96250Y186250D02*
X112000D01*
X93309Y109000D02*
X96790Y112480D01*
X107520Y88535D02*
X113915Y94930D01*
X107520Y87500D02*
Y88535D01*
X113915Y94930D02*
X122765D01*
X123062Y83942D02*
X126765Y80239D01*
X123062Y83942D02*
Y85481D01*
X126765Y70365D02*
Y80239D01*
X130530Y76406D02*
X136690Y82566D01*
X130530Y74937D02*
Y76406D01*
X146249Y92015D02*
X147249Y91015D01*
X143751Y92015D02*
X146249D01*
X141545Y94221D02*
X143751Y92015D01*
X141545Y94221D02*
Y95410D01*
X138442Y98513D02*
X141545Y95410D01*
X121205Y91165D02*
X121985Y90385D01*
X121172Y91165D02*
X121205D01*
X121985Y86557D02*
Y90385D01*
Y86557D02*
X123062Y85481D01*
X125750Y91165D02*
Y91944D01*
X122765Y94930D02*
X125750Y91944D01*
X147249Y91015D02*
X153599D01*
X156685Y87929D02*
X160190D01*
X153599Y91015D02*
X156685Y87929D01*
D68*
X209284Y95736D02*
X248264D01*
X203077Y89529D02*
X209284Y95736D01*
X208347Y98000D02*
X249202D01*
X200813Y86142D02*
Y90466D01*
X208347Y98000D01*
X203077Y84875D02*
Y89529D01*
X201202Y83000D02*
X203077Y84875D01*
X175798Y83000D02*
X201202D01*
X177418Y85264D02*
X199935D01*
X200813Y86142D01*
X171808Y93832D02*
X174415Y91225D01*
Y88268D02*
X177418Y85264D01*
X174415Y88268D02*
Y91225D01*
X171808Y93832D02*
Y102752D01*
X169196Y105365D02*
X171808Y102752D01*
X164887Y103516D02*
X169544Y98858D01*
Y92894D02*
Y98858D01*
Y92894D02*
X171867Y90571D01*
X160410Y103516D02*
X164887D01*
X289000Y58500D02*
X296752Y66252D01*
X301752D01*
X302500Y67000D01*
X171867Y86931D02*
X175798Y83000D01*
X171867Y86931D02*
Y90571D01*
X255750Y65750D02*
Y88250D01*
X248264Y95736D02*
X255750Y88250D01*
X258764Y63712D02*
Y88437D01*
X256022Y60970D02*
X258764Y63712D01*
X249202Y98000D02*
X258764Y88437D01*
D69*
X139000Y72210D02*
Y75000D01*
Y72210D02*
X140051Y71159D01*
Y68289D02*
Y71159D01*
X141340Y67000D02*
X146000D01*
X140051Y68289D02*
X141340Y67000D01*
X151433Y74000D02*
Y76833D01*
X150518Y77749D02*
X151433Y76833D01*
X150518Y77749D02*
Y82365D01*
X146000Y67000D02*
X151433Y72433D01*
D82*
X117947Y19530D02*
D03*
X102000Y14000D02*
D03*
X66753Y85254D02*
D03*
X118024Y10200D02*
D03*
X118825Y74265D02*
D03*
X209765Y38259D02*
D03*
X204913Y35731D02*
D03*
X171802Y39595D02*
D03*
X136074Y116005D02*
D03*
X72005Y162005D02*
D03*
X112750Y165250D02*
D03*
X93309Y109000D02*
D03*
X143267Y118626D02*
D03*
X76735Y86630D02*
D03*
X89056Y116884D02*
D03*
X84023Y122500D02*
D03*
X59455Y106545D02*
D03*
X113235Y68703D02*
D03*
X115353Y42906D02*
D03*
X136575Y21086D02*
D03*
X168853Y89265D02*
D03*
X169196Y105365D02*
D03*
X160410Y103516D02*
D03*
X161968Y112619D02*
D03*
X162083Y116528D02*
D03*
X120708Y100500D02*
D03*
X107326Y66010D02*
D03*
X88327Y55265D02*
D03*
X112000Y186250D02*
D03*
X161250Y120250D02*
D03*
X145823Y36465D02*
D03*
X75514Y65583D02*
D03*
X162430Y81963D02*
D03*
X160665Y57914D02*
D03*
X168404Y75446D02*
D03*
X153103Y43201D02*
D03*
X139000Y75000D02*
D03*
X107520Y87500D02*
D03*
X75928Y100740D02*
D03*
X140945Y112000D02*
D03*
X145310Y110894D02*
D03*
X136668Y8351D02*
D03*
X130530Y74937D02*
D03*
X121500Y54500D02*
D03*
X100265Y49015D02*
D03*
X85550Y46983D02*
D03*
X166137Y9227D02*
D03*
X141036Y5464D02*
D03*
X156564Y15608D02*
D03*
X127000Y6235D02*
D03*
X145497Y29000D02*
D03*
X156121Y39000D02*
D03*
X152106Y27552D02*
D03*
X156368Y19368D02*
D03*
X142540Y58460D02*
D03*
X149835Y58365D02*
D03*
X136690Y66000D02*
D03*
X145310Y95780D02*
D03*
X138442Y98513D02*
D03*
X89062Y29520D02*
D03*
X94906Y55269D02*
D03*
X100000Y58785D02*
D03*
X89527Y37225D02*
D03*
X155205Y31250D02*
D03*
X145808Y50889D02*
D03*
X160190Y87929D02*
D03*
X136690Y82566D02*
D03*
X150518Y82365D02*
D03*
X249000Y11000D02*
D03*
X232000D02*
D03*
X215000D02*
D03*
X249000Y23000D02*
D03*
X232000D02*
D03*
X215000D02*
D03*
X155000Y95000D02*
D03*
X75496Y61818D02*
D03*
X170235Y56000D02*
D03*
X90872Y25274D02*
D03*
X146765Y75000D02*
D03*
X126765Y70365D02*
D03*
X143000Y54000D02*
D03*
X136686Y69765D02*
D03*
X67555Y49296D02*
D03*
X121172Y91165D02*
D03*
X158987Y91900D02*
D03*
X125750Y91165D02*
D03*
X255750Y65750D02*
D03*
X256022Y60970D02*
D03*
X103799Y58201D02*
D03*
X171662Y66972D02*
D03*
X62012Y14570D02*
D03*
X66360D02*
D03*
X57230D02*
D03*
X74295Y24019D02*
D03*
X103500Y61954D02*
D03*
X69000Y34000D02*
D03*
X67958Y20208D02*
D03*
X69000Y40000D02*
D03*
X52378Y14570D02*
D03*
M02*
