G04*
G04 #@! TF.GenerationSoftware,Altium Limited,Altium Designer,23.10.1 (27)*
G04*
G04 Layer_Color=65535*
%FSLAX44Y44*%
%MOMM*%
G71*
G04*
G04 #@! TF.SameCoordinates,75C69956-F49F-4592-A11B-EFE5AB9CB6E8*
G04*
G04*
G04 #@! TF.FilePolarity,Positive*
G04*
G01*
G75*
%ADD10C,0.1270*%
%ADD11C,0.2000*%
%ADD12C,0.1250*%
%ADD13C,0.1000*%
%ADD14C,0.2540*%
%ADD15R,0.6750X1.4500*%
%ADD16C,0.0500*%
G36*
X138040Y156964D02*
X137990D01*
Y157014D01*
X127253D01*
Y158368D01*
X121182D01*
Y158419D01*
X120631D01*
Y158469D01*
X120279D01*
Y158519D01*
X120028D01*
Y158569D01*
X119828D01*
X119828Y158619D01*
X119627D01*
X119627Y158669D01*
X119477D01*
Y158720D01*
X119326D01*
Y158770D01*
X119226D01*
Y158820D01*
X119125D01*
Y158870D01*
X118975D01*
Y158920D01*
X118925D01*
Y158970D01*
X118825D01*
Y159021D01*
X118724D01*
Y159071D01*
X118624D01*
Y159121D01*
X118574D01*
Y159171D01*
X118523D01*
Y159221D01*
X118423D01*
Y159271D01*
X118373D01*
Y159322D01*
X118323D01*
Y159372D01*
X118272D01*
Y159422D01*
X118222D01*
Y159472D01*
X118172D01*
Y159522D01*
X118122D01*
Y159572D01*
X118072D01*
Y159623D01*
X118022D01*
Y159673D01*
X117971D01*
Y159723D01*
X117921D01*
Y159823D01*
X117871D01*
Y159874D01*
X117821D01*
Y159974D01*
X117771D01*
Y160074D01*
X117721D01*
Y160175D01*
X117670D01*
Y160275D01*
X117620D01*
Y160375D01*
X117570D01*
Y160526D01*
X117520D01*
Y160626D01*
X117470D01*
Y160877D01*
X117420D01*
Y161078D01*
X117369D01*
Y161629D01*
X117319D01*
Y162031D01*
X117369D01*
Y162533D01*
X117420D01*
X117420Y162783D01*
X117470D01*
Y162984D01*
X117520D01*
Y163084D01*
X117570D01*
Y163235D01*
X117620D01*
Y163335D01*
X117670D01*
Y163436D01*
X117721D01*
Y163536D01*
X117771D01*
Y163586D01*
X117821D01*
Y163686D01*
X117871D01*
Y163737D01*
X117921D01*
Y163837D01*
X117971Y163837D01*
Y163887D01*
X118022D01*
Y163937D01*
X118072D01*
Y163988D01*
X118122D01*
Y164038D01*
X118172D01*
Y164088D01*
X118222D01*
Y164138D01*
X118272D01*
Y164188D01*
X118373D01*
Y164238D01*
X118423D01*
Y164289D01*
X118473D01*
Y164339D01*
X118574D01*
Y164389D01*
X118624D01*
Y164439D01*
X118724D01*
Y164489D01*
X118825D01*
Y164539D01*
X118925D01*
Y164590D01*
X119025D01*
Y164640D01*
X119125D01*
Y164690D01*
X119276D01*
Y164740D01*
X119376D01*
Y164790D01*
X119577D01*
Y164840D01*
X119727D01*
Y164891D01*
X119928D01*
Y164941D01*
X120179D01*
Y164991D01*
X120530D01*
Y165041D01*
X120982D01*
Y165091D01*
X127253D01*
Y166496D01*
X121182D01*
Y166546D01*
X120731D01*
Y166596D01*
X120480D01*
Y166646D01*
X120279D01*
Y166697D01*
X120079D01*
Y166747D01*
X119928D01*
Y166797D01*
X119778D01*
Y166847D01*
X119677D01*
Y166897D01*
X119527D01*
X119527Y166947D01*
X119426D01*
Y166998D01*
X119376D01*
Y167048D01*
X119276D01*
Y167098D01*
X119176D01*
Y167148D01*
X119125D01*
Y167198D01*
X119025D01*
Y167249D01*
X118975D01*
Y167299D01*
X118925D01*
Y167349D01*
X118875D01*
Y167399D01*
X118774D01*
Y167449D01*
X118724D01*
X118724Y167499D01*
X118674D01*
Y167550D01*
X118624D01*
Y167650D01*
X118574D01*
Y167700D01*
X118523D01*
X118523Y167750D01*
X118473D01*
Y167801D01*
X118423D01*
Y167901D01*
X118373D01*
Y167951D01*
X118323D01*
Y168051D01*
X118272D01*
Y168152D01*
X118222D01*
Y168252D01*
X118172D01*
Y168352D01*
X118122D01*
Y168503D01*
X118072D01*
Y168703D01*
X118022D01*
Y168954D01*
X117971D01*
Y169807D01*
X118022D01*
X118022Y170159D01*
X118072D01*
Y170409D01*
X118122D01*
Y170560D01*
X118172D01*
Y170710D01*
X118222D01*
Y170811D01*
X118272D01*
Y170911D01*
X118323D01*
Y171011D01*
X118373D01*
Y171112D01*
X118423D01*
Y171212D01*
X118473D01*
Y171262D01*
X118523D01*
X118523Y171312D01*
X118574D01*
Y171413D01*
X118624D01*
Y171463D01*
X118674D01*
Y171513D01*
X118724D01*
X118724Y171563D01*
X118774D01*
Y171614D01*
X118824D01*
X118825Y171664D01*
X118875D01*
Y171714D01*
X118925D01*
Y171764D01*
X119025D01*
X119025Y171814D01*
X119075D01*
Y171864D01*
X119125D01*
Y171915D01*
X119226D01*
Y171965D01*
X119326D01*
Y172015D01*
X119426Y172015D01*
Y172065D01*
X119527D01*
X119527Y172115D01*
X119627D01*
X119627Y172165D01*
X119727D01*
Y172215D01*
X119878D01*
Y172266D01*
X120028D01*
Y172316D01*
X120229D01*
Y172366D01*
X120430D01*
X120430Y172416D01*
X120781Y172416D01*
Y172466D01*
X121233D01*
Y172516D01*
X133775D01*
Y172567D01*
X134177D01*
Y172617D01*
X134428D01*
Y172667D01*
X134678D01*
Y172717D01*
X134829D01*
Y172767D01*
X134979D01*
Y172817D01*
X135130D01*
Y172868D01*
X135281D01*
Y172918D01*
X135381D01*
Y172968D01*
X135531D01*
Y173018D01*
X135632D01*
Y173068D01*
X135732D01*
Y173119D01*
X135832D01*
Y173169D01*
X135883D01*
Y173219D01*
X135983D01*
Y173269D01*
X136083D01*
Y173319D01*
X136133D01*
Y173369D01*
X136234D01*
X136234Y173420D01*
X136284D01*
Y173470D01*
X136334D01*
Y173520D01*
X136434D01*
Y173570D01*
X136485D01*
Y173620D01*
X136535D01*
X136535Y173671D01*
X136585D01*
Y173721D01*
X136635D01*
Y173771D01*
X136735D01*
Y173821D01*
X136786Y173821D01*
Y173921D01*
X136836D01*
Y173972D01*
X136886D01*
Y174022D01*
X136936D01*
Y174072D01*
X136986D01*
Y174122D01*
X137037D01*
Y174172D01*
X137087D01*
Y174222D01*
X137137D01*
Y174323D01*
X137187D01*
Y174373D01*
X137237D01*
Y174423D01*
X137287D01*
Y174523D01*
X137338D01*
Y174574D01*
X137388D01*
Y174674D01*
X137438D01*
Y174774D01*
X137488D01*
Y174824D01*
X137538D01*
Y174925D01*
X137588D01*
Y175075D01*
X137639D01*
Y175176D01*
X137689D01*
Y175276D01*
X137739D01*
Y175426D01*
X137789D01*
Y175577D01*
X137839D01*
Y175728D01*
X137889D01*
Y175928D01*
X137940D01*
Y176179D01*
X137990D01*
Y176480D01*
X138040D01*
Y177032D01*
X138090D01*
Y177684D01*
X138040D01*
Y178236D01*
X137990D01*
Y178537D01*
X137940D01*
Y178788D01*
X137889D01*
Y178989D01*
X137839D01*
Y179139D01*
X137789D01*
Y179290D01*
X137739D01*
Y179440D01*
X137689D01*
Y179541D01*
X137639D01*
Y179641D01*
X137588D01*
Y179741D01*
X137538Y179741D01*
Y179841D01*
X137488D01*
Y179942D01*
X137438D01*
Y180042D01*
X137388D01*
Y180092D01*
X137338D01*
Y180193D01*
X137287D01*
Y180243D01*
X137237Y180243D01*
Y180343D01*
X137187D01*
Y180393D01*
X137137D01*
Y180444D01*
X137087D01*
Y180544D01*
X137037D01*
Y180594D01*
X136986D01*
Y180644D01*
X136936D01*
Y180694D01*
X136886D01*
Y180745D01*
X136836D01*
Y180795D01*
X136786D01*
Y180845D01*
X136735D01*
Y180895D01*
X136685D01*
Y180945D01*
X136635D01*
Y180995D01*
X136585D01*
Y181046D01*
X136535D01*
Y181096D01*
X136485D01*
Y181146D01*
X136384D01*
Y181196D01*
X136334D01*
Y181246D01*
X136284D01*
Y181297D01*
X136184D01*
Y181347D01*
X136133D01*
Y181397D01*
X136033D01*
Y181447D01*
X135983D01*
Y181497D01*
X135883D01*
Y181547D01*
X135782D01*
Y181597D01*
X135682D01*
Y181648D01*
X135582D01*
Y181698D01*
X135481D01*
Y181748D01*
X135381D01*
Y181798D01*
X135230D01*
X135230Y181848D01*
X135130D01*
Y181898D01*
X134979D01*
Y181949D01*
X134779D01*
Y181999D01*
X134628D01*
Y182049D01*
X134377D01*
Y182099D01*
X134076D01*
Y182149D01*
X133675D01*
Y182199D01*
X132417D01*
X127253Y182199D01*
Y180795D01*
X132038D01*
X133274D01*
Y180745D01*
X133675D01*
Y180694D01*
X133926D01*
Y180644D01*
X134076D01*
Y180594D01*
X134277D01*
Y180544D01*
X134428D01*
Y180494D01*
X134528D01*
Y180444D01*
X134678D01*
Y180393D01*
X134779D01*
Y180343D01*
X134879D01*
Y180293D01*
X134929D01*
X134929Y180243D01*
X135030D01*
Y180193D01*
X135130D01*
Y180142D01*
X135180D01*
Y180092D01*
X135230D01*
X135230Y180042D01*
X135331D01*
Y179992D01*
X135381D01*
Y179942D01*
X135431D01*
X135431Y179892D01*
X135481D01*
Y179841D01*
X135531D01*
Y179791D01*
X135582D01*
Y179741D01*
X135632Y179741D01*
Y179691D01*
X135682D01*
Y179641D01*
X135732D01*
Y179541D01*
X135782D01*
Y179490D01*
X135832D01*
Y179440D01*
X135883D01*
Y179340D01*
X135933D01*
Y179290D01*
X135983D01*
Y179189D01*
X136033D01*
Y179089D01*
X136083D01*
Y178989D01*
X136133D01*
Y178888D01*
X136184D01*
Y178738D01*
X136234D01*
Y178587D01*
X136284D01*
Y178437D01*
X136334D01*
Y178186D01*
X136384D01*
Y177835D01*
X136434D01*
Y176881D01*
X136384D01*
Y176480D01*
X136334D01*
Y176279D01*
X136284D01*
Y176129D01*
X136234D01*
Y175978D01*
X136184D01*
Y175828D01*
X136133D01*
Y175728D01*
X136083D01*
Y175627D01*
X136033D01*
X136033Y175527D01*
X135983D01*
Y175426D01*
X135933D01*
X135933Y175376D01*
X135883D01*
Y175276D01*
X135832D01*
Y175226D01*
X135782D01*
Y175126D01*
X135732D01*
Y175075D01*
X135682D01*
Y175025D01*
X135632D01*
Y174975D01*
X135582D01*
Y174925D01*
X135531D01*
Y174875D01*
X135481D01*
Y174824D01*
X135431D01*
Y174774D01*
X135381D01*
Y174724D01*
X135281D01*
Y174674D01*
X135230D01*
X135230Y174624D01*
X135180D01*
Y174574D01*
X135080D01*
Y174523D01*
X135030D01*
Y174473D01*
X134929D01*
X134929Y174423D01*
X134829D01*
Y174373D01*
X134729D01*
Y174323D01*
X134628D01*
Y174272D01*
X134528D01*
Y174222D01*
X134428D01*
Y174172D01*
X134277D01*
Y174122D01*
X134076D01*
Y174072D01*
X133926D01*
Y174022D01*
X133675D01*
Y173972D01*
X133324D01*
Y173921D01*
X121132D01*
Y173871D01*
X120580D01*
Y173821D01*
X120179Y173821D01*
Y173771D01*
X119928D01*
Y173721D01*
X119677D01*
Y173671D01*
X119477D01*
Y173620D01*
X119276Y173620D01*
Y173570D01*
X119125D01*
Y173520D01*
X118975Y173520D01*
Y173470D01*
X118875D01*
Y173420D01*
X118724D01*
Y173369D01*
X118624D01*
Y173319D01*
X118523D01*
Y173269D01*
X118373D01*
Y173219D01*
X118272D01*
Y173169D01*
X118222D01*
Y173119D01*
X118122D01*
Y173068D01*
X118022D01*
Y173018D01*
X117971Y173018D01*
Y172968D01*
X117871D01*
Y172918D01*
X117821D01*
Y172868D01*
X117771D01*
Y172817D01*
X117670Y172818D01*
Y172767D01*
X117620D01*
Y172717D01*
X117570D01*
Y172667D01*
X117520D01*
Y172617D01*
X117470D01*
Y172567D01*
X117420D01*
X117420Y172516D01*
X117319D01*
Y172466D01*
X117269D01*
Y172416D01*
X117219D01*
Y172316D01*
X117169D01*
Y172266D01*
X117119D01*
Y172215D01*
X117068D01*
Y172115D01*
X117018D01*
Y172065D01*
X116968D01*
Y172015D01*
X116918Y172015D01*
Y171915D01*
X116868Y171915D01*
Y171814D01*
X116818D01*
Y171764D01*
X116767D01*
Y171664D01*
X116717D01*
Y171563D01*
X116667D01*
Y171413D01*
X116617D01*
Y171312D01*
X116567D01*
Y171162D01*
X116517D01*
Y170961D01*
X116466D01*
Y170811D01*
X116416Y170811D01*
Y170459D01*
X116366D01*
Y169857D01*
X116316D01*
Y169607D01*
X116366D01*
Y169055D01*
X116416D01*
Y168854D01*
X116466D01*
Y168653D01*
X116517D01*
Y168453D01*
X116567D01*
Y168352D01*
X116617D01*
Y168202D01*
X116667D01*
Y168102D01*
X116717D01*
Y168001D01*
X116767D01*
Y167901D01*
X116818D01*
Y167801D01*
X116868D01*
Y167700D01*
X116918Y167700D01*
Y167600D01*
X116968D01*
Y167550D01*
X117018D01*
Y167499D01*
X117068D01*
Y167399D01*
X117119D01*
Y167349D01*
X117169D01*
Y167249D01*
X117219D01*
Y167198D01*
X117269D01*
Y167148D01*
X117319D01*
Y167098D01*
X117369D01*
Y167048D01*
X117420D01*
Y166998D01*
X117470D01*
Y166947D01*
X117520D01*
Y166897D01*
X117570D01*
Y166847D01*
X117620D01*
Y166797D01*
X117670D01*
Y166747D01*
X117721D01*
Y166697D01*
X117771D01*
Y166646D01*
X117821D01*
Y166596D01*
X117921D01*
Y166546D01*
X117971D01*
Y166496D01*
X118022D01*
X118022Y166446D01*
X118122D01*
Y166396D01*
X118222D01*
X118222Y166346D01*
X118272D01*
Y166295D01*
X118373D01*
Y166245D01*
X118473D01*
Y166195D01*
X118574D01*
Y166145D01*
X118724D01*
X118724Y166095D01*
X118875D01*
Y166045D01*
X119025D01*
Y165994D01*
X119176D01*
Y165944D01*
X119226D01*
Y165894D01*
X118925D01*
Y165844D01*
X118724D01*
X118724Y165794D01*
X118523Y165794D01*
Y165744D01*
X118373D01*
Y165693D01*
X118222D01*
X118222Y165643D01*
X118122D01*
Y165593D01*
X117971D01*
Y165543D01*
X117871D01*
Y165493D01*
X117771D01*
Y165442D01*
X117670D01*
Y165392D01*
X117620D01*
Y165342D01*
X117520D01*
Y165292D01*
X117420D01*
Y165242D01*
X117369D01*
Y165192D01*
X117319D01*
Y165141D01*
X117219D01*
Y165091D01*
X117169D01*
Y165041D01*
X117119D01*
Y164991D01*
X117068D01*
Y164941D01*
X117018D01*
Y164891D01*
X116918D01*
Y164840D01*
X116868D01*
Y164740D01*
X116818D01*
Y164690D01*
X116767D01*
Y164640D01*
X116717D01*
Y164590D01*
X116667D01*
Y164539D01*
X116617D01*
Y164489D01*
X116567D01*
Y164439D01*
X116517D01*
Y164339D01*
X116466D01*
Y164289D01*
X116416D01*
Y164188D01*
X116366D01*
Y164138D01*
X116316D01*
Y164038D01*
X116266D01*
Y163988D01*
X116215D01*
Y163887D01*
X116165D01*
Y163787D01*
X116115D01*
Y163686D01*
X116065D01*
Y163586D01*
X116015D01*
Y163436D01*
X115965D01*
Y163335D01*
X115914Y163335D01*
Y163134D01*
X115864D01*
Y162984D01*
X115814D01*
Y162733D01*
X115764D01*
Y162432D01*
X115714D01*
Y161078D01*
X115764D01*
Y160726D01*
X115814D01*
Y160476D01*
X115864D01*
Y160275D01*
X115914D01*
Y160074D01*
X115965D01*
Y159924D01*
X116015D01*
Y159823D01*
X116065D01*
Y159673D01*
X116115D01*
Y159572D01*
X116165D01*
Y159472D01*
X116215D01*
Y159372D01*
X116266D01*
Y159271D01*
X116316D01*
Y159171D01*
X116366D01*
Y159121D01*
X116416Y159121D01*
Y159021D01*
X116466D01*
Y158970D01*
X116517D01*
Y158870D01*
X116567D01*
Y158820D01*
X116617D01*
Y158770D01*
X116667D01*
Y158720D01*
X116717D01*
Y158619D01*
X116767D01*
Y158569D01*
X116818D01*
Y158519D01*
X116868D01*
Y158469D01*
X116918D01*
Y158419D01*
X116968D01*
Y158368D01*
X117018D01*
Y158318D01*
X117068D01*
Y158268D01*
X117169D01*
Y158218D01*
X117219D01*
Y158168D01*
X117269D01*
Y158118D01*
X117319D01*
Y158067D01*
X117420D01*
Y158017D01*
X117470D01*
Y157967D01*
X117570D01*
Y157917D01*
X117620D01*
Y157867D01*
X117721D01*
Y157816D01*
X117821D01*
Y157766D01*
X117921D01*
Y157716D01*
X118022D01*
X118022Y157666D01*
X118122D01*
Y157616D01*
X118222D01*
X118222Y157566D01*
X118323D01*
Y157515D01*
X118473Y157515D01*
Y157465D01*
X118574D01*
Y157415D01*
X118724D01*
X118724Y157365D01*
X118925D01*
Y157315D01*
X119075D01*
Y157264D01*
X119276D01*
Y157214D01*
X119477D01*
Y157164D01*
X119727D01*
Y157114D01*
X120079D01*
Y157064D01*
X120480D01*
Y157014D01*
X121182D01*
Y156964D01*
X127203D01*
Y155609D01*
X138040Y155609D01*
Y156964D01*
D02*
G37*
G36*
X141000Y174975D02*
Y154003D01*
X139334D01*
Y183805D01*
X140147D01*
Y183855D01*
X141000D01*
Y175025D01*
Y174975D01*
D02*
G37*
G36*
X142907Y162332D02*
Y163385D01*
X144512D01*
Y156913D01*
X148476Y156913D01*
X148476Y155559D01*
X142907D01*
Y162282D01*
Y162332D01*
D02*
G37*
G36*
X148024Y164941D02*
X147873D01*
Y164891D01*
X147572D01*
Y164840D01*
X146619D01*
Y164790D01*
X142957D01*
Y164840D01*
X142907D01*
Y172717D01*
X146970D01*
Y172667D01*
X147422D01*
Y172617D01*
X147673D01*
X147673Y172567D01*
X147823D01*
Y172516D01*
X147974D01*
Y172466D01*
X148074D01*
Y172416D01*
X148174D01*
X148174Y172366D01*
X148275D01*
Y172316D01*
X148325D01*
Y172266D01*
X148375D01*
Y172215D01*
X148476D01*
Y172165D01*
X148526D01*
Y172115D01*
X148576D01*
X148576Y172065D01*
X148626D01*
Y172015D01*
X148676D01*
Y171965D01*
X148726D01*
Y171915D01*
X148777D01*
Y171814D01*
X148827D01*
Y171764D01*
X148877D01*
Y171664D01*
X148927D01*
Y171613D01*
X148977Y171614D01*
Y171513D01*
X149027D01*
Y171363D01*
X149078D01*
Y171212D01*
X149128D01*
Y171011D01*
X149178D01*
Y170409D01*
X149128D01*
Y170159D01*
X149078D01*
Y170058D01*
X149027D01*
Y169908D01*
X148977D01*
Y169807D01*
X148927D01*
Y169757D01*
X148877Y169757D01*
Y169657D01*
X148827D01*
Y169607D01*
X148777D01*
Y169506D01*
X148726D01*
Y169456D01*
X148676D01*
Y169406D01*
X148626D01*
Y169356D01*
X148576D01*
Y169306D01*
X148526D01*
Y169255D01*
X148425D01*
Y169205D01*
X148375D01*
Y169155D01*
X148325D01*
Y169105D01*
X148225D01*
Y169055D01*
X148124D01*
Y169005D01*
X148174D01*
X148174Y168954D01*
X148325D01*
Y168904D01*
X148425D01*
Y168854D01*
X148526D01*
Y168804D01*
X148626D01*
Y168754D01*
X148726D01*
Y168703D01*
X148777D01*
Y168653D01*
X148827D01*
Y168603D01*
X148877D01*
Y168553D01*
X148977D01*
Y168503D01*
X149027D01*
Y168453D01*
X149078D01*
Y168403D01*
X149128D01*
Y168302D01*
X149178D01*
Y168252D01*
X149228D01*
Y168202D01*
X149278D01*
Y168102D01*
X149328D01*
Y168001D01*
X149378D01*
Y167901D01*
X149429D01*
Y167750D01*
X149479D01*
Y167600D01*
X149529D01*
Y167198D01*
X149579D01*
Y166947D01*
X149529D01*
Y166596D01*
X149479Y166596D01*
Y166446D01*
X149429D01*
Y166295D01*
X149378D01*
Y166145D01*
X149328D01*
Y166045D01*
X149278D01*
Y165944D01*
X149228D01*
Y165844D01*
X149178D01*
Y165794D01*
X149128D01*
Y165744D01*
X149078D01*
Y165643D01*
X149027D01*
Y165593D01*
X148977D01*
Y165543D01*
X148927D01*
Y165493D01*
X148877D01*
Y165442D01*
X148827D01*
Y165392D01*
X148777D01*
Y165342D01*
X148726D01*
Y165292D01*
X148676D01*
Y165242D01*
X148576D01*
Y165192D01*
X148526D01*
Y165141D01*
X148425D01*
Y165091D01*
X148325D01*
Y165041D01*
X148225D01*
Y164991D01*
X148074D01*
Y164941D01*
X148024D01*
D02*
G37*
G36*
X144512Y176079D02*
Y174272D01*
X142907D01*
Y182149D01*
X146770D01*
Y182099D01*
X147221D01*
Y182049D01*
X147422D01*
Y181999D01*
X147572D01*
Y181949D01*
X147723D01*
Y181898D01*
X147823D01*
Y181848D01*
X147873D01*
Y181798D01*
X147974D01*
X147974Y181748D01*
X148074D01*
Y181698D01*
X148124D01*
Y181648D01*
X148174D01*
X148174Y181597D01*
X148225D01*
Y181547D01*
X148275D01*
Y181497D01*
X148325D01*
Y181447D01*
X148375D01*
Y181397D01*
X148425D01*
Y181347D01*
X148476D01*
X148476Y181297D01*
X148526D01*
Y181246D01*
X148576D01*
Y181146D01*
X148626D01*
Y181046D01*
X148676D01*
Y180995D01*
X148726D01*
Y180895D01*
X148777D01*
Y180745D01*
X148827D01*
Y180594D01*
X148877D01*
Y180393D01*
X148927D01*
Y180193D01*
X148977D01*
Y179290D01*
X148927D01*
Y178989D01*
X148877D01*
Y178838D01*
X148827Y178838D01*
Y178688D01*
X148777D01*
Y178587D01*
X148726D01*
Y178487D01*
X148676D01*
Y178386D01*
X148626D01*
Y178286D01*
X148576D01*
X148576Y178236D01*
X148526D01*
Y178136D01*
X148476D01*
Y178085D01*
X148425D01*
Y178035D01*
X148375D01*
Y177985D01*
X148325D01*
Y177935D01*
X148275D01*
Y177885D01*
X148225D01*
Y177835D01*
X148174D01*
X148174Y177785D01*
X148124D01*
Y177734D01*
X148024D01*
Y177684D01*
X147974D01*
X147974Y177634D01*
X147873D01*
Y177584D01*
X147773D01*
Y177534D01*
X147673D01*
X147673Y177484D01*
X147572D01*
Y177433D01*
X147472D01*
Y177383D01*
X147322D01*
Y177333D01*
X147021D01*
Y177283D01*
X146569D01*
Y177233D01*
X144512D01*
Y176129D01*
Y176079D01*
D02*
G37*
%LPC*%
G36*
X144913Y166145D02*
X146569D01*
Y166195D01*
X147121D01*
Y166245D01*
X147322D01*
Y166295D01*
X147422D01*
Y166346D01*
X147522D01*
Y166396D01*
X147572D01*
Y166446D01*
X147623D01*
Y166496D01*
X147673D01*
Y166546D01*
X147723D01*
Y166646D01*
X147773D01*
Y166747D01*
X147823D01*
Y166847D01*
X147873D01*
Y167499D01*
X147823D01*
Y167650D01*
X147773D01*
Y167750D01*
X147723D01*
Y167801D01*
X147673D01*
Y167851D01*
X147623D01*
Y167901D01*
X147572D01*
Y167951D01*
X147522D01*
Y168001D01*
X147422D01*
Y168051D01*
X147322D01*
Y168102D01*
X147221D01*
Y168152D01*
X147021D01*
Y168202D01*
X146368D01*
Y168252D01*
X144562D01*
Y166145D01*
X144863D01*
X144913D01*
D02*
G37*
G36*
X144562Y169908D02*
Y169556D01*
X146017D01*
Y169607D01*
X146870D01*
Y169657D01*
X147071D01*
Y169707D01*
X147171D01*
Y169757D01*
X147271D01*
Y169807D01*
X147322D01*
Y169857D01*
X147372D01*
Y169908D01*
X147422D01*
Y169958D01*
X147472D01*
Y170058D01*
X147522D01*
Y170159D01*
X147572D01*
Y170811D01*
X147522D01*
Y170911D01*
X147472D01*
Y171011D01*
X147422D01*
Y171062D01*
X147372D01*
Y171112D01*
X147322D01*
Y171162D01*
X147271D01*
Y171212D01*
X147171D01*
Y171262D01*
X147071D01*
Y171312D01*
X146820D01*
Y171363D01*
X144562D01*
Y169958D01*
Y169908D01*
D02*
G37*
G36*
X145967Y180795D02*
X144512D01*
Y178587D01*
X145967D01*
Y178637D01*
X146469D01*
Y178688D01*
X146669D01*
Y178738D01*
X146770D01*
Y178788D01*
X146870D01*
Y178838D01*
X146920D01*
Y178888D01*
X146970D01*
Y178938D01*
X147021D01*
Y178989D01*
X147071D01*
Y179039D01*
X147121D01*
Y179089D01*
X147171D01*
Y179189D01*
X147221D01*
Y179290D01*
X147271D01*
Y179490D01*
X147322D01*
Y179942D01*
X147271D01*
Y180092D01*
X147221D01*
Y180193D01*
X147171D01*
Y180293D01*
X147121D01*
Y180343D01*
X147071D01*
Y180393D01*
X147021D01*
Y180444D01*
X146970D01*
Y180494D01*
X146920D01*
Y180544D01*
X146870D01*
Y180594D01*
X146820D01*
Y180644D01*
X146669D01*
Y180694D01*
X146569D01*
Y180745D01*
X146268D01*
Y180795D01*
X146017D01*
X145967D01*
D02*
G37*
%LPD*%
D10*
X255144Y36730D02*
G03*
X255144Y36730I-1904J0D01*
G01*
X47500Y89000D02*
Y94000D01*
Y89000D02*
X52500D01*
X76000Y113500D02*
Y122500D01*
X66750D02*
X76000D01*
X205983Y161800D02*
X358383D01*
X205983Y187200D02*
X358383D01*
X205983Y161800D02*
Y187200D01*
X358383Y161800D02*
Y187200D01*
X59750Y31000D02*
X65000D01*
Y26000D02*
Y31000D01*
X143495Y13950D02*
Y18950D01*
X138483D02*
X143495D01*
X125971Y7450D02*
Y9700D01*
Y7450D02*
X128233D01*
X122572Y20489D02*
X127572D01*
X122572D02*
Y25489D01*
X122822Y55239D02*
Y60239D01*
X127822D01*
X172262Y20750D02*
Y25750D01*
X167262Y20750D02*
X172262D01*
X172262Y49750D02*
Y60250D01*
X162218D02*
X172262D01*
X161500Y112750D02*
Y115762D01*
X164250D01*
X165750Y102238D02*
X170500D01*
Y107250D01*
X126488Y62250D02*
X136532D01*
X126488D02*
Y72750D01*
X126488Y91750D02*
X131488D01*
X126488Y86750D02*
Y91750D01*
X146428Y62261D02*
X151428D01*
Y67261D01*
X151428Y86761D02*
Y91761D01*
X146428D02*
X151428D01*
X78750Y97988D02*
Y103000D01*
Y97988D02*
X83500D01*
X86500Y113762D02*
X89250D01*
Y110750D02*
Y113762D01*
X113659Y63819D02*
Y68819D01*
X108659D02*
X113659D01*
X108537Y23559D02*
X113537D01*
Y28559D01*
X72463Y68941D02*
X77463D01*
X72463Y63941D02*
Y68941D01*
D11*
X240751Y145092D02*
G03*
X240751Y145092I-9254J0D01*
G01*
X118500Y117500D02*
Y122500D01*
X217750Y145250D02*
X221750D01*
X217750D02*
Y161250D01*
X245750Y145250D02*
Y161250D01*
X240748Y145250D02*
X245750D01*
D12*
X72426Y23644D02*
Y32788D01*
Y23644D02*
X81570D01*
D13*
X249430Y30380D02*
Y96420D01*
X213870Y30380D02*
Y96420D01*
Y30380D02*
X249430D01*
X213870Y96420D02*
X249430D01*
D14*
X228788Y140790D02*
Y146715D01*
X231750Y149677D01*
X234712Y146715D01*
Y140790D01*
Y145233D01*
X228788D01*
X265751Y130942D02*
X275749D01*
X265751D02*
Y135226D01*
X266227Y136655D01*
X266703Y137131D01*
X267655Y137607D01*
X268608D01*
X269560Y137131D01*
X270036Y136655D01*
X270512Y135226D01*
Y130942D02*
Y135226D01*
X270988Y136655D01*
X271464Y137131D01*
X272416Y137607D01*
X273845D01*
X274797Y137131D01*
X275273Y136655D01*
X275749Y135226D01*
Y130942D01*
Y147462D02*
X265751Y143653D01*
X275749Y139845D01*
X272416Y141273D02*
Y146034D01*
X265751Y153127D02*
X275749D01*
X265751Y149795D02*
Y156460D01*
X343131Y137083D02*
X342179Y136607D01*
X341227Y135655D01*
X340751Y134703D01*
Y132798D01*
X341227Y131846D01*
X342179Y130894D01*
X343131Y130418D01*
X344560Y129942D01*
X346940D01*
X348368Y130418D01*
X349321Y130894D01*
X350273Y131846D01*
X350749Y132798D01*
Y134703D01*
X350273Y135655D01*
X349321Y136607D01*
X348368Y137083D01*
X346940D01*
Y134703D02*
Y137083D01*
X340751Y139368D02*
X350749D01*
X340751D02*
X350749Y146033D01*
X340751D02*
X350749D01*
X340751Y148795D02*
X350749D01*
X340751D02*
Y152127D01*
X341227Y153556D01*
X342179Y154508D01*
X343131Y154984D01*
X344560Y155460D01*
X346940D01*
X348368Y154984D01*
X349321Y154508D01*
X350273Y153556D01*
X350749Y152127D01*
Y148795D01*
X318132Y136083D02*
X317179Y135607D01*
X316227Y134655D01*
X315751Y133703D01*
Y131798D01*
X316227Y130846D01*
X317179Y129894D01*
X318132Y129418D01*
X319560Y128942D01*
X321940D01*
X323368Y129418D01*
X324321Y129894D01*
X325273Y130846D01*
X325749Y131798D01*
Y133703D01*
X325273Y134655D01*
X324321Y135607D01*
X323368Y136083D01*
X315751Y138892D02*
X325749D01*
X315751Y145557D02*
X325749D01*
X320512Y138892D02*
Y145557D01*
X318132Y155460D02*
X317179Y154984D01*
X316227Y154032D01*
X315751Y153080D01*
Y151175D01*
X316227Y150223D01*
X317179Y149271D01*
X318132Y148795D01*
X319560Y148319D01*
X321940D01*
X323368Y148795D01*
X324321Y149271D01*
X325273Y150223D01*
X325749Y151175D01*
Y153080D01*
X325273Y154032D01*
X324321Y154984D01*
X323368Y155460D01*
X321940D01*
Y153080D02*
Y155460D01*
X292132Y137083D02*
X291179Y136607D01*
X290227Y135655D01*
X289751Y134703D01*
Y132798D01*
X290227Y131846D01*
X291179Y130894D01*
X292132Y130418D01*
X293560Y129942D01*
X295940D01*
X297369Y130418D01*
X298321Y130894D01*
X299273Y131846D01*
X299749Y132798D01*
Y134703D01*
X299273Y135655D01*
X298321Y136607D01*
X297369Y137083D01*
X295940D01*
Y134703D02*
Y137083D01*
X289751Y139368D02*
X299749D01*
X289751D02*
X299749Y146033D01*
X289751D02*
X299749D01*
X289751Y148795D02*
X299749D01*
X289751D02*
Y152127D01*
X290227Y153556D01*
X291179Y154508D01*
X292132Y154984D01*
X293560Y155460D01*
X295940D01*
X297369Y154984D01*
X298321Y154508D01*
X299273Y153556D01*
X299749Y152127D01*
Y148795D01*
D15*
X252805Y63770D02*
D03*
D16*
X198000Y143000D02*
G03*
X193000Y148000I-5000J0D01*
G01*
X198000Y33000D02*
G03*
X193000Y38000I-5000J0D01*
G01*
Y46000D02*
G03*
X198000Y51000I0J5000D01*
G01*
X198000Y74000D02*
G03*
X193000Y79000I-5000J0D01*
G01*
X193000Y91000D02*
G03*
X198000Y96000I0J5000D01*
G01*
X198000Y5000D02*
G03*
X203000Y0I5000J0D01*
G01*
X64000Y143000D02*
G03*
X59000Y148000I-5000J0D01*
G01*
X77000D02*
G03*
X72000Y143000I0J-5000D01*
G01*
X0Y153000D02*
G03*
X5000Y148000I5000J0D01*
G01*
X127000Y148000D02*
G03*
X122000Y143000I0J-5000D01*
G01*
X114000D02*
G03*
X109000Y148000I-5000J0D01*
G01*
X5000Y192000D02*
G03*
X0Y187000I0J-5000D01*
G01*
X367000D02*
G03*
X362000Y192000I-5000J0D01*
G01*
Y0D02*
G03*
X367000Y5000I0J5000D01*
G01*
X122000Y131000D02*
G03*
X127000Y126000I5000J0D01*
G01*
X59000D02*
G03*
X64000Y131000I0J5000D01*
G01*
X109000Y126000D02*
G03*
X114000Y131000I0J5000D01*
G01*
X72000Y131000D02*
G03*
X77000Y126000I5000J0D01*
G01*
X181000Y79000D02*
G03*
X176000Y74000I0J-5000D01*
G01*
X176000Y96000D02*
G03*
X181000Y91000I5000J0D01*
G01*
X181000Y38000D02*
G03*
X176000Y33000I0J-5000D01*
G01*
X176000Y51000D02*
G03*
X181000Y46000I5000J0D01*
G01*
X20000Y95000D02*
G03*
X30000Y105000I0J10000D01*
G01*
X0Y153000D02*
X0Y187000D01*
X203000Y0D02*
X362000D01*
X64000Y143045D02*
X64000Y131000D01*
X72000Y143000D02*
X72000Y131000D01*
X114000Y143000D02*
X114000Y131000D01*
X122000Y143000D02*
X122000Y131000D01*
X127000Y148000D02*
X193000D01*
X198000Y143000D02*
X198000Y96000D01*
X181000Y91000D02*
X193000D01*
X192000Y79000D02*
X193000D01*
X181000D02*
X192000D01*
X181000Y46000D02*
X193011D01*
X181000Y38000D02*
X193000D01*
X198000Y5000D02*
Y30000D01*
Y33000D01*
Y51000D02*
Y74000D01*
X77000Y148000D02*
X109000D01*
X5000Y148000D02*
X59000D01*
X5000Y192000D02*
X362000Y192000D01*
X367000Y5000D02*
Y187000D01*
X77000Y126000D02*
X109000D01*
X176000Y51000D02*
Y74000D01*
Y30000D02*
Y33000D01*
X127000Y126000D02*
X156000D01*
X175990Y29058D02*
X175998Y29529D01*
X175879Y26708D02*
X175911Y27177D01*
X175800Y25773D02*
X175842Y26240D01*
X175754Y25307D02*
X175800Y25773D01*
X175842Y26240D02*
X175879Y26708D01*
X175978Y28587D02*
X175990Y29058D01*
X175702Y24842D02*
X175754Y25307D01*
X175646Y24379D02*
X175702Y24842D01*
X175961Y28116D02*
X175978Y28587D01*
X175584Y23916D02*
X175646Y24379D01*
X175938Y27646D02*
X175961Y28116D01*
X175911Y27177D02*
X175938Y27646D01*
X175518Y23456D02*
X175584Y23916D01*
X173215Y14729D02*
X173373Y15136D01*
X173526Y15547D01*
X174228Y17655D02*
X174355Y18086D01*
X174097Y17227D02*
X174228Y17655D01*
X173960Y16802D02*
X174097Y17227D01*
X173053Y14325D02*
X173215Y14729D01*
X172887Y13925D02*
X173053Y14325D01*
X173820Y16380D02*
X173960Y16802D01*
X173675Y15962D02*
X173820Y16380D01*
X173526Y15547D02*
X173675Y15962D01*
X174596Y18956D02*
X174709Y19396D01*
X174922Y20282D02*
X175021Y20729D01*
X175447Y22997D02*
X175518Y23456D01*
X175372Y22539D02*
X175447Y22997D01*
X174818Y19838D02*
X174922Y20282D01*
X174709Y19396D02*
X174818Y19838D01*
X175291Y22084D02*
X175372Y22539D01*
X175206Y21630D02*
X175291Y22084D01*
X174478Y18520D02*
X174596Y18956D01*
X175116Y21179D02*
X175206Y21630D01*
X174355Y18086D02*
X174478Y18520D01*
X175021Y20729D02*
X175116Y21179D01*
X168008Y6010D02*
X168258Y6295D01*
X168748Y6885D02*
X168989Y7188D01*
X170142Y8787D02*
X170362Y9123D01*
X168505Y6587D02*
X168748Y6885D01*
X169918Y8456D02*
X170142Y8787D01*
X168258Y6295D02*
X168505Y6587D01*
X169691Y8131D02*
X169918Y8456D01*
X169460Y7811D02*
X169691Y8131D01*
X167756Y5730D02*
X168008Y6010D01*
X169226Y7497D02*
X169460Y7811D01*
X168989Y7188D02*
X169226Y7497D01*
X170362Y9123D02*
X170579Y9464D01*
X167242Y5188D02*
X167500Y5455D01*
X165909Y3941D02*
X166181Y4178D01*
X165635Y3711D02*
X165909Y3941D01*
X165359Y3487D02*
X165635Y3711D01*
X166980Y4926D02*
X167242Y5188D01*
X166716Y4670D02*
X166980Y4926D01*
X165080Y3270D02*
X165359Y3487D01*
X164799Y3059D02*
X165080Y3270D01*
X166450Y4421D02*
X166716Y4670D01*
X164516Y2855D02*
X164799Y3059D01*
X166181Y4178D02*
X166450Y4421D01*
X167500Y5455D02*
X167756Y5730D01*
X162180Y1468D02*
X162478Y1618D01*
X160363Y723D02*
X160669Y829D01*
X160056Y623D02*
X160363Y723D01*
X161881Y1326D02*
X162180Y1468D01*
X159748Y531D02*
X160056Y623D01*
X161580Y1191D02*
X161881Y1326D01*
X161277Y1063D02*
X161580Y1191D01*
X159439Y447D02*
X159748Y531D01*
X159129Y369D02*
X159439Y447D01*
X160974Y943D02*
X161277Y1063D01*
X160669Y829D02*
X160974Y943D01*
X162478Y1618D02*
X162775Y1774D01*
X172542Y13138D02*
X172716Y13529D01*
X171410Y10877D02*
X171609Y11243D01*
X171208Y10517D02*
X171410Y10877D01*
X172363Y12750D02*
X172542Y13138D01*
X172180Y12366D02*
X172363Y12750D01*
X171002Y10161D02*
X171208Y10517D01*
X170793Y9810D02*
X171002Y10161D01*
X171994Y11987D02*
X172180Y12366D01*
X170579Y9464D02*
X170793Y9810D01*
X171803Y11613D02*
X171994Y11987D01*
X172716Y13529D02*
X172887Y13925D01*
X171609Y11243D02*
X171803Y11613D01*
X156000Y0D02*
X156314Y4D01*
X156628Y15D01*
X156942Y33D01*
X157256Y59D01*
X158507Y237D02*
X158818Y299D01*
X158195Y181D02*
X158507Y237D01*
X157882Y133D02*
X158195Y181D01*
X157569Y93D02*
X157882Y133D01*
X157256Y59D02*
X157569Y93D01*
X158818Y299D02*
X159129Y369D01*
X162775Y1774D02*
X163069Y1937D01*
X163943Y2467D02*
X164230Y2658D01*
X163654Y2284D02*
X163943Y2467D01*
X163363Y2107D02*
X163654Y2284D01*
X163069Y1937D02*
X163363Y2107D01*
X164230Y2658D02*
X164516Y2855D01*
X175998Y29529D02*
X176000Y30000D01*
X175990Y96942D02*
X175998Y96471D01*
X175879Y99292D02*
X175911Y98823D01*
X175800Y100227D02*
X175842Y99760D01*
X175754Y100693D02*
X175800Y100227D01*
X175842Y99760D02*
X175879Y99292D01*
X175978Y97413D02*
X175990Y96942D01*
X175702Y101158D02*
X175754Y100693D01*
X175646Y101621D02*
X175702Y101158D01*
X175961Y97884D02*
X175978Y97413D01*
X175584Y102084D02*
X175646Y101621D01*
X175938Y98354D02*
X175961Y97884D01*
X175911Y98823D02*
X175938Y98354D01*
X175518Y102544D02*
X175584Y102084D01*
X173215Y111271D02*
X173373Y110864D01*
X173526Y110453D01*
X174228Y108345D02*
X174355Y107914D01*
X174097Y108773D02*
X174228Y108345D01*
X173960Y109198D02*
X174097Y108773D01*
X173053Y111675D02*
X173215Y111271D01*
X172887Y112075D02*
X173053Y111675D01*
X173820Y109620D02*
X173960Y109198D01*
X173675Y110038D02*
X173820Y109620D01*
X173526Y110453D02*
X173675Y110038D01*
X174596Y107044D02*
X174709Y106604D01*
X174922Y105717D02*
X175021Y105271D01*
X175447Y103003D02*
X175518Y102544D01*
X175372Y103461D02*
X175447Y103003D01*
X174818Y106162D02*
X174922Y105717D01*
X174709Y106604D02*
X174818Y106162D01*
X175291Y103916D02*
X175372Y103461D01*
X175206Y104370D02*
X175291Y103916D01*
X174478Y107480D02*
X174596Y107044D01*
X175116Y104821D02*
X175206Y104370D01*
X174355Y107914D02*
X174478Y107480D01*
X175021Y105271D02*
X175116Y104821D01*
X168008Y119991D02*
X168258Y119705D01*
X168748Y119115D02*
X168989Y118812D01*
X170142Y117213D02*
X170362Y116877D01*
X168505Y119413D02*
X168748Y119115D01*
X169918Y117544D02*
X170142Y117213D01*
X168258Y119705D02*
X168505Y119413D01*
X169691Y117869D02*
X169918Y117544D01*
X169460Y118189D02*
X169691Y117869D01*
X167756Y120270D02*
X168008Y119991D01*
X169226Y118503D02*
X169460Y118189D01*
X168989Y118812D02*
X169226Y118503D01*
X170362Y116877D02*
X170579Y116536D01*
X167242Y120812D02*
X167500Y120544D01*
X165909Y122059D02*
X166181Y121822D01*
X165635Y122289D02*
X165909Y122059D01*
X165359Y122513D02*
X165635Y122289D01*
X166980Y121074D02*
X167242Y120812D01*
X166716Y121330D02*
X166980Y121074D01*
X165080Y122730D02*
X165359Y122513D01*
X164799Y122941D02*
X165080Y122730D01*
X166450Y121579D02*
X166716Y121330D01*
X164516Y123145D02*
X164799Y122941D01*
X166181Y121822D02*
X166450Y121579D01*
X167500Y120544D02*
X167756Y120270D01*
X162180Y124532D02*
X162478Y124382D01*
X160363Y125277D02*
X160669Y125171D01*
X160056Y125377D02*
X160363Y125277D01*
X161881Y124674D02*
X162180Y124532D01*
X159748Y125469D02*
X160056Y125377D01*
X161580Y124809D02*
X161881Y124674D01*
X161277Y124937D02*
X161580Y124809D01*
X159439Y125553D02*
X159748Y125469D01*
X159129Y125631D02*
X159439Y125553D01*
X160974Y125057D02*
X161277Y124937D01*
X160669Y125171D02*
X160974Y125057D01*
X162478Y124382D02*
X162775Y124226D01*
X172542Y112863D02*
X172716Y112471D01*
X171410Y115123D02*
X171609Y114757D01*
X171208Y115483D02*
X171410Y115123D01*
X172363Y113250D02*
X172542Y112863D01*
X172180Y113633D02*
X172363Y113250D01*
X171002Y115839D02*
X171208Y115483D01*
X170793Y116190D02*
X171002Y115839D01*
X171994Y114012D02*
X172180Y113633D01*
X170579Y116536D02*
X170793Y116190D01*
X171803Y114387D02*
X171994Y114012D01*
X172716Y112471D02*
X172887Y112075D01*
X171609Y114757D02*
X171803Y114387D01*
X156000Y126000D02*
X156314Y125996D01*
X156628Y125985D01*
X156942Y125967D01*
X157256Y125941D01*
X158507Y125763D02*
X158818Y125701D01*
X158195Y125819D02*
X158507Y125763D01*
X157882Y125867D02*
X158195Y125819D01*
X157569Y125907D02*
X157882Y125867D01*
X157256Y125941D02*
X157569Y125907D01*
X158818Y125701D02*
X159129Y125631D01*
X162775Y124226D02*
X163069Y124063D01*
X163943Y123533D02*
X164230Y123342D01*
X163654Y123716D02*
X163943Y123533D01*
X163363Y123893D02*
X163654Y123716D01*
X163069Y124063D02*
X163363Y123893D01*
X164230Y123342D02*
X164516Y123145D01*
X175998Y96471D02*
X176000Y96000D01*
X50000Y126000D02*
X59000D01*
X884Y84411D02*
X979Y84635D01*
X628Y83730D02*
X709Y83958D01*
X415Y83042D02*
X482Y83272D01*
X1405Y85522D02*
X1522Y85740D01*
X2785Y87636D02*
X2947Y87837D01*
X4197Y89194D02*
X4391Y89379D01*
X154Y9215D02*
X222Y9059D01*
X616Y8436D02*
X745Y8281D01*
X4792Y89742D02*
X4998Y89920D01*
X5207Y90095D02*
X5421Y90268D01*
X5858Y90607D02*
X6082Y90772D01*
X6309Y90934D02*
X6540Y91095D01*
X7495Y91706D02*
X7742Y91852D01*
X5099Y5601D02*
X5450Y5460D01*
X9550Y92790D02*
X9819Y92911D01*
X10920Y93365D02*
X11201Y93470D01*
X11484Y93572D01*
X6963Y4910D02*
X7368Y4775D01*
X18118Y94933D02*
X18431Y94954D01*
X19058Y94983D02*
X19372Y94993D01*
X30062Y106648D02*
X30089Y106976D01*
X30121Y107304D02*
X30158Y107632D01*
X30354Y108935D02*
X30415Y109258D01*
X31182Y112114D02*
X31291Y112423D01*
X31405Y112731D02*
X31522Y113036D01*
X31772Y113642D02*
X31904Y113941D01*
X32474Y115117D02*
X32627Y115405D01*
X34590Y118386D02*
X34792Y118638D01*
X33063Y591D02*
X33804Y539D01*
X37992Y121793D02*
X38244Y121989D01*
X38758Y122369D02*
X39020Y122552D01*
X39550Y122905D02*
X39819Y123076D01*
X40641Y123559D02*
X40920Y123711D01*
X43522Y124868D02*
X43820Y124972D01*
X44119Y125072D02*
X44420Y125166D01*
X46860Y20D02*
X47645Y11D01*
X48429Y5D01*
X47805Y125873D02*
X48118Y125907D01*
X48431Y125935D02*
X48744Y125959D01*
X49058Y125977D02*
X49372Y125990D01*
X48744Y125959D02*
X49058Y125977D01*
X1522Y85740D02*
X1645Y85957D01*
X1772Y86173D02*
X1903Y86387D01*
X2325Y87019D02*
X2474Y87226D01*
X0Y80000D02*
X3Y80236D01*
X0Y10000D02*
Y80000D01*
X6Y9843D02*
X25Y9686D01*
X55Y9529D02*
X99Y9372D01*
X222Y9059D02*
X302Y8903D01*
X1571Y7513D02*
X1772Y7361D01*
X3228Y6465D02*
X3511Y6319D01*
X3806Y6173D01*
X4430Y5885D02*
X4759Y5742D01*
X5099Y5601D01*
X9819Y92911D02*
X10091Y93029D01*
X5812Y5321D02*
X6185Y5182D01*
X6568Y5045D01*
X9093Y4250D02*
X9549Y4122D01*
X16252Y94734D02*
X16561Y94777D01*
X11474Y3626D02*
X11980Y3505D01*
X17805Y94909D02*
X18118Y94933D01*
X13018Y3270D02*
X13552Y3155D01*
X18744Y94970D02*
X19058Y94983D01*
X30010Y105660D02*
X30022Y105989D01*
X31078Y111802D02*
X31182Y112114D01*
X23875Y1474D02*
X24548Y1393D01*
X25227Y1314D02*
X25912Y1237D01*
X32180Y114534D02*
X32325Y114826D01*
X30143Y822D02*
X30866Y761D01*
X31594Y702D02*
X32326Y646D01*
X36806Y354D02*
X37566Y314D01*
X39020Y122552D02*
X39283Y122731D01*
X40631Y177D02*
X41403Y149D01*
X45295Y44D02*
X46077Y31D01*
X46871Y125742D02*
X47182Y125791D01*
X47493Y125834D01*
X49215Y1D02*
X50000Y0D01*
X482Y83272D02*
X553Y83502D01*
X246Y82346D02*
X298Y82579D01*
X4391Y89379D02*
X4590Y89561D01*
X4792Y89742D01*
X302Y8903D02*
X394Y8747D01*
X745Y8281D02*
X886Y8126D01*
X7992Y91995D02*
X8244Y92135D01*
X3806Y6173D02*
X4112Y6029D01*
X8758Y92406D02*
X9020Y92537D01*
X4112Y6029D02*
X4430Y5885D01*
X6568Y5045D02*
X6963Y4910D01*
X10016Y3996D02*
X10492Y3871D01*
X10978Y3748D01*
X15331Y94586D02*
X15637Y94639D01*
X15944Y94688D02*
X16252Y94734D01*
X17493Y94882D02*
X17805Y94909D01*
X18431Y94954D02*
X18744Y94970D01*
X14094Y3041D02*
X14645Y2929D01*
X30089Y106976D02*
X30121Y107304D01*
X19979Y2003D02*
X20611Y1910D01*
X30628Y110223D02*
X30709Y110541D01*
X22549Y1642D02*
X23209Y1557D01*
X30794Y110859D02*
X30884Y111175D01*
X30979Y111489D02*
X31078Y111802D01*
X31645Y113340D02*
X31772Y113642D01*
X33458Y116804D02*
X33637Y117075D01*
X34998Y118888D02*
X35207Y119133D01*
X33804Y539D02*
X34549Y489D01*
X36540Y120532D02*
X36774Y120752D01*
X37011Y120969D01*
X38500Y122181D02*
X38758Y122369D01*
X39093Y241D02*
X39861Y208D01*
X44513Y60D02*
X45295Y44D01*
X44420Y125166D02*
X44722Y125256D01*
X46077Y31D02*
X46860Y20D01*
X46252Y125628D02*
X46561Y125687D01*
X1182Y85081D02*
X1291Y85302D01*
X1903Y86387D02*
X2039Y86599D01*
X2180Y86810D01*
X22Y80707D02*
X39Y80942D01*
X3113Y88037D02*
X3284Y88235D01*
X3458Y88431D01*
X4006Y89006D02*
X4197Y89194D01*
X394Y8747D02*
X499Y8591D01*
X1985Y7210D02*
X2210Y7060D01*
X2447Y6910D02*
X2696Y6761D01*
X8244Y92135D02*
X8500Y92272D01*
X10091Y93029D02*
X10365Y93145D01*
X8646Y4379D02*
X9093Y4250D01*
X14119Y94337D02*
X14420Y94404D01*
X16561Y94777D02*
X16871Y94815D01*
X17182Y94850D01*
X15204Y2819D02*
X15773Y2710D01*
X30000Y105000D02*
X30003Y105330D01*
X18129Y2295D02*
X18738Y2196D01*
X19355Y2098D02*
X19979Y2003D01*
X20611Y1910D02*
X21250Y1819D01*
X30553Y109902D02*
X30628Y110223D01*
X31522Y113036D02*
X31645Y113340D01*
X25912Y1237D02*
X26604Y1162D01*
X28711Y952D02*
X29424Y886D01*
X34391Y118130D02*
X34590Y118386D01*
X35207Y119133D02*
X35421Y119375D01*
X35638Y119614D01*
X36082Y120081D02*
X36309Y120308D01*
X35298Y442D02*
X36050Y397D01*
X37011Y120969D02*
X37252Y121181D01*
X39283Y122731D02*
X39550Y122905D01*
X41484Y124001D02*
X41770Y124139D01*
X42057Y124273D01*
X42955Y100D02*
X43733Y79D01*
X44722Y125256D02*
X45026Y125340D01*
X45331Y125420D01*
X48429Y5D02*
X49215Y1D01*
X709Y83958D02*
X794Y84185D01*
X553Y83502D02*
X628Y83730D01*
X89Y81412D02*
X121Y81646D01*
X3Y80236D02*
X10Y80471D01*
X62Y81177D02*
X89Y81412D01*
X3637Y88625D02*
X3820Y88817D01*
X0Y10000D02*
X6Y9843D01*
X3820Y88817D02*
X4006Y89006D01*
X4998Y89920D02*
X5207Y90095D01*
X886Y8126D02*
X1039Y7972D01*
X1772Y7361D02*
X1985Y7210D01*
X2210Y7060D02*
X2447Y6910D01*
X2696Y6761D02*
X2956Y6613D01*
X8500Y92272D02*
X8758Y92406D01*
X9283Y92665D02*
X9550Y92790D01*
X12057Y93766D02*
X12346Y93858D01*
X7784Y4642D02*
X8210Y4510D01*
X14420Y94404D02*
X14723Y94468D01*
X15637Y94639D02*
X15944Y94688D01*
X30199Y107959D02*
X30246Y108285D01*
X21250Y1819D02*
X21896Y1729D01*
X30482Y109581D02*
X30553Y109902D01*
X30709Y110541D02*
X30794Y110859D01*
X30884Y111175D02*
X30979Y111489D01*
X32325Y114826D02*
X32474Y115117D01*
X33284Y116530D02*
X33458Y116804D01*
X34197Y117871D02*
X34391Y118130D01*
X34792Y118638D02*
X34998Y118888D01*
X34549Y489D02*
X35298Y442D01*
X37495Y121389D02*
X37742Y121593D01*
X36050Y397D02*
X36806Y354D01*
X37566Y314D02*
X38328Y276D01*
X42178Y123D02*
X42955Y100D01*
X42638Y124525D02*
X42930Y124644D01*
X43225Y124759D02*
X43522Y124868D01*
X43820Y124972D02*
X44119Y125072D01*
X45637Y125494D02*
X45944Y125564D01*
X46561Y125687D02*
X46871Y125742D01*
X979Y84635D02*
X1078Y84859D01*
X1182Y85081D01*
X1645Y85957D02*
X1772Y86173D01*
X200Y82114D02*
X246Y82346D01*
X121Y81646D02*
X158Y81880D01*
X39Y80942D02*
X62Y81177D01*
X10Y80471D02*
X22Y80707D01*
X5421Y90268D02*
X5638Y90439D01*
X1382Y7666D02*
X1571Y7513D01*
X6540Y91095D02*
X6774Y91252D01*
X7011Y91406D01*
X7251Y91558D01*
X7495Y91706D01*
X2956Y6613D02*
X3228Y6465D01*
X10641Y93257D02*
X10920Y93365D01*
X7368Y4775D02*
X7784Y4642D01*
X12637Y93947D02*
X12931Y94032D01*
X13225Y94113D01*
X13522Y94191D02*
X13820Y94266D01*
X15026Y94529D02*
X15331Y94586D01*
X9549Y4122D02*
X10016Y3996D01*
X10978Y3748D02*
X11474Y3626D01*
X19372Y94993D02*
X19686Y94998D01*
X30003Y105330D02*
X30010Y105660D01*
X30022Y105989D02*
X30040Y106319D01*
X30062Y106648D01*
X18738Y2196D02*
X19355Y2098D01*
X30246Y108285D02*
X30298Y108610D01*
X32947Y115972D02*
X33113Y116252D01*
X29424Y886D02*
X30143Y822D01*
X34006Y117609D02*
X34197Y117871D01*
X30866Y761D02*
X31594Y702D01*
X32326Y646D02*
X33063Y591D01*
X37252Y121181D02*
X37495Y121389D01*
X39819Y123076D02*
X40091Y123241D01*
X42057Y124273D02*
X42346Y124402D01*
X42638Y124525D01*
X42930Y124644D02*
X43225Y124759D01*
X49372Y125990D02*
X49686Y125997D01*
X50000Y0D02*
X156000D01*
X298Y82579D02*
X354Y82811D01*
X2627Y87432D02*
X2785Y87636D01*
X3458Y88431D02*
X3637Y88625D01*
X25Y9686D02*
X55Y9529D01*
X499Y8591D02*
X616Y8436D01*
X5638Y90439D02*
X5858Y90607D01*
X1204Y7819D02*
X1382Y7666D01*
X6082Y90772D02*
X6309Y90934D01*
X9020Y92537D02*
X9283Y92665D01*
X10365Y93145D02*
X10641Y93257D01*
X11770Y93671D02*
X12057Y93766D01*
X12346Y93858D02*
X12637Y93947D01*
X13225Y94113D02*
X13522Y94191D01*
X14723Y94468D02*
X15026Y94529D01*
X11980Y3505D02*
X12494Y3387D01*
X13552Y3155D02*
X14094Y3041D01*
X14645Y2929D02*
X15204Y2819D01*
X15773Y2710D02*
X16349Y2604D01*
X16934Y2499D01*
X30158Y107632D02*
X30199Y107959D01*
X30298Y108610D02*
X30354Y108935D01*
X30415Y109258D02*
X30482Y109581D01*
X21896Y1729D02*
X22549Y1642D01*
X32039Y114239D02*
X32180Y114534D01*
X32627Y115405D02*
X32785Y115690D01*
X27301Y1090D02*
X28003Y1020D01*
X28711Y952D01*
X32785Y115690D02*
X32947Y115972D01*
X35638Y119614D02*
X35858Y119849D01*
X37742Y121593D02*
X37992Y121793D01*
X39861Y208D02*
X40631Y177D01*
X41403Y149D02*
X42178Y123D01*
X40920Y123711D02*
X41201Y123859D01*
X45944Y125564D02*
X46252Y125628D01*
X794Y84185D02*
X884Y84411D01*
X1291Y85302D02*
X1405Y85522D01*
X354Y82811D02*
X415Y83042D01*
X158Y81880D02*
X200Y82114D01*
X2180Y86810D02*
X2325Y87019D01*
X2474Y87226D02*
X2627Y87432D01*
X2947Y87837D02*
X3113Y88037D01*
X99Y9372D02*
X154Y9215D01*
X1039Y7972D02*
X1204Y7819D01*
X7742Y91852D02*
X7992Y91995D01*
X5450Y5460D02*
X5812Y5321D01*
X11484Y93572D02*
X11770Y93671D01*
X8210Y4510D02*
X8646Y4379D01*
X13820Y94266D02*
X14119Y94337D01*
X17182Y94850D02*
X17493Y94882D01*
X12494Y3387D02*
X13018Y3270D01*
X19686Y94998D02*
X20000Y95000D01*
X16934Y2499D02*
X17528Y2396D01*
X18129Y2295D01*
X23209Y1557D02*
X23875Y1474D01*
X31291Y112423D02*
X31405Y112731D01*
X24548Y1393D02*
X25227Y1314D01*
X31904Y113941D02*
X32039Y114239D01*
X26604Y1162D02*
X27301Y1090D01*
X33113Y116252D02*
X33284Y116530D01*
X33637Y117075D02*
X33820Y117344D01*
X34006Y117609D01*
X35858Y119849D02*
X36082Y120081D01*
X36309Y120308D02*
X36540Y120532D01*
X38244Y121989D02*
X38500Y122181D01*
X38328Y276D02*
X39093Y241D01*
X40091Y123241D02*
X40365Y123402D01*
X40641Y123559D01*
X41201Y123859D02*
X41484Y124001D01*
X43733Y79D02*
X44513Y60D01*
X45331Y125420D02*
X45637Y125494D01*
X47493Y125834D02*
X47805Y125873D01*
X48118Y125907D02*
X48431Y125935D01*
X49686Y125997D02*
X50000Y126000D01*
M02*
