M48
;Layer_Color=9474304
;FILE_FORMAT=4:4
METRIC,LZ
;TYPE=PLATED
T01F00S00C0.1500
%
T01
X00053Y0002075
X000529Y0002837
X00055Y00036139
X00055Y00048062
X00062932Y00056375
X00073015Y00055985
X000755Y00048
X00079285Y0004453
X00082207Y00051723
X00085663Y00057926
X00089799Y00058799
X00096235Y00058792
X00093Y00062285
X00095347Y00068485
X00095174Y00075098
X00092859Y00080258
X00096Y00087221
X00104633Y00091485
X00111002Y00082088
X00126979Y00079056
X00125531Y00074017
X00131224Y00074671
X00135Y00075
X00135001Y00078983
X00134685Y00082737
X00143Y00083
X00146614Y00090573
X00154144Y00095
X00147024Y00074991
X00147403Y00071
X00135093Y00070996
X00137769Y00063868
X00131437Y00059705
X00127235Y00062488
X00124367Y00047578
X00126038Y00044204
X0014525Y00043327
X00146146Y00037797
X00150323Y00038248
X00154141Y00034246
X00152568Y00030825
X00152086Y00021765
X00151235Y0001775
Y00012827
X00150436Y00008318
X001445Y000075
X00144621Y00012484
X0014387Y00017657
X00132144Y00017695
X00126765Y0001473
X00133056Y00009414
X00122743Y00006891
X00102381Y00009912
X00096265Y00019781
X00100035Y00027285
X00096617Y00033945
X00103799Y00037201
X00109742Y00037837
X00107299Y00040701
X00103795Y00047705
X00107265Y00062
X00079299Y00062299
X0007392Y00071208
X00056Y00075
X00052848Y00088677
X00065712Y0009302
X00077Y00106
X00082
X00076985Y00111001
X00090448Y00114448
X00095978Y00107467
X00116893Y00113015
X00123196Y00105485
X00134765Y00103235
X00131Y00090324
X00156Y00066
X00153984Y0005115
X00161Y00042
X00170287Y00054126
X00161558Y00017632
X00157719Y00013017
X00157731Y00007398
X00161483Y00007089
X0014Y00037797
X0008511Y00033618
X000755Y000305
X00052667Y00111001
X00054498Y00117811
M30
