G04*
G04 #@! TF.GenerationSoftware,Altium Limited,Altium Designer,23.10.1 (27)*
G04*
G04 Layer_Physical_Order=2*
G04 Layer_Color=16440176*
%FSLAX44Y44*%
%MOMM*%
G71*
G04*
G04 #@! TF.SameCoordinates,75C69956-F49F-4592-A11B-EFE5AB9CB6E8*
G04*
G04*
G04 #@! TF.FilePolarity,Positive*
G04*
G01*
G75*
%ADD11C,0.2000*%
%ADD13C,0.1000*%
%ADD16C,0.0500*%
%ADD61C,2.0000*%
%ADD63O,2.5000X1.3000*%
%ADD64C,0.7000*%
%ADD65O,3.2000X1.3000*%
%ADD66C,0.9000*%
%ADD69C,0.1800*%
%ADD70C,0.1500*%
%ADD71C,0.3000*%
%ADD74R,0.4757X0.4495*%
%ADD80R,0.4000X1.0500*%
%ADD83R,0.2500X1.0500*%
%ADD85R,2.9750X0.4500*%
%ADD86C,0.3000*%
%ADD87R,0.3000X1.3000*%
G36*
X76777Y189451D02*
X77030Y188181D01*
X76967Y188155D01*
X76330Y187518D01*
X75985Y186686D01*
Y185784D01*
X76330Y184952D01*
X76967Y184315D01*
X77800Y183970D01*
X78196D01*
X111065Y151102D01*
X110414Y149956D01*
X109994Y150039D01*
X77000Y150039D01*
X77000Y150039D01*
X76500D01*
X75946Y150135D01*
X75326Y151144D01*
X74982Y151977D01*
X74345Y152614D01*
X73512Y152959D01*
X72611D01*
X71778Y152614D01*
X71141Y151977D01*
X70796Y151144D01*
Y150243D01*
X71141Y149411D01*
X71400Y149151D01*
X71616Y147571D01*
X71319Y147274D01*
X70877Y146613D01*
X70116Y144775D01*
X69961Y143995D01*
Y141000D01*
X66549D01*
Y143000D01*
X66524Y143124D01*
X66537Y143250D01*
X66441Y144225D01*
X66332Y144584D01*
X66259Y144951D01*
X65512Y146753D01*
X64960Y147580D01*
X63580Y148960D01*
X62753Y149512D01*
X60951Y150259D01*
X60584Y150332D01*
X60225Y150440D01*
X59250Y150536D01*
X59124Y150524D01*
X59000Y150549D01*
X4512Y150549D01*
X3611Y150922D01*
X2922Y151611D01*
X2549Y152512D01*
Y153000D01*
X2549Y187488D01*
X2922Y188389D01*
X3611Y189078D01*
X4512Y189451D01*
X5000D01*
X76777D01*
D02*
G37*
G36*
X110491Y189451D02*
X110744Y188181D01*
X110717Y188170D01*
X110080Y187533D01*
X109735Y186700D01*
Y185800D01*
X110080Y184967D01*
X110717Y184330D01*
X111550Y183985D01*
X112451D01*
X113283Y184330D01*
X113920Y184967D01*
X114265Y185800D01*
Y186700D01*
X113920Y187533D01*
X113283Y188170D01*
X113257Y188181D01*
X113509Y189451D01*
X362000Y189451D01*
X362488D01*
X363388Y189078D01*
X364078Y188388D01*
X364451Y187488D01*
Y187000D01*
X364451Y5000D01*
Y4512D01*
X364078Y3611D01*
X363388Y2922D01*
X362487Y2549D01*
X362000D01*
X203000Y2549D01*
X202512D01*
X201611Y2922D01*
X200922Y3611D01*
X200549Y4512D01*
Y5000D01*
X200549Y33000D01*
X200524Y33124D01*
X200536Y33250D01*
X200441Y34225D01*
X200332Y34584D01*
X200259Y34951D01*
X199512Y36753D01*
X198960Y37580D01*
X197580Y38960D01*
X197580Y38960D01*
X196753Y39512D01*
X194951Y40259D01*
X194583Y40332D01*
X194488Y40361D01*
X194676Y41631D01*
X201391D01*
X201462Y41622D01*
X201657Y41584D01*
X201838Y41537D01*
X202005Y41482D01*
X202158Y41418D01*
X202299Y41346D01*
X202429Y41267D01*
X202576Y41159D01*
X202658Y41139D01*
X202717Y41080D01*
X203549Y40735D01*
X204450D01*
X205283Y41080D01*
X205920Y41717D01*
X206265Y42549D01*
Y43450D01*
X205920Y44283D01*
X205283Y44920D01*
X204450Y45265D01*
X203549D01*
X202717Y44920D01*
X202658Y44861D01*
X202576Y44841D01*
X202429Y44733D01*
X202299Y44654D01*
X202158Y44582D01*
X202005Y44518D01*
X201838Y44463D01*
X201657Y44416D01*
X201473Y44381D01*
X201362Y44369D01*
X198050D01*
X198043Y44378D01*
X197594Y45639D01*
X198681Y46726D01*
X199123Y47387D01*
X199884Y49225D01*
X200039Y50005D01*
Y51254D01*
X201000Y52000D01*
X201309Y52000D01*
X210838D01*
Y74000D01*
X201309D01*
X201000Y74000D01*
X200039Y74746D01*
Y74995D01*
X199884Y75775D01*
X199123Y77613D01*
X198681Y78274D01*
X198681Y78274D01*
X197274Y79681D01*
X196613Y80123D01*
X194775Y80884D01*
X193995Y81039D01*
X191000D01*
Y88961D01*
X193995D01*
X194775Y89116D01*
X196613Y89877D01*
X197274Y90319D01*
X198681Y91726D01*
X199123Y92387D01*
X199884Y94225D01*
X200039Y95005D01*
Y96000D01*
X200039Y143000D01*
Y143995D01*
X199884Y144775D01*
X199123Y146613D01*
X198681Y147274D01*
X198681Y147274D01*
X197274Y148681D01*
X197274Y148681D01*
X196613Y149123D01*
X194775Y149884D01*
X193995Y150039D01*
X193000Y150039D01*
X193000Y150039D01*
X126005D01*
X125225Y149884D01*
X123387Y149123D01*
X122726Y148681D01*
X121319Y147274D01*
X120877Y146613D01*
X120116Y144775D01*
X119961Y143995D01*
Y141000D01*
X116039D01*
Y143000D01*
X116039Y143000D01*
X116039Y143995D01*
X115884Y144775D01*
X115123Y146613D01*
X114681Y147274D01*
X113274Y148681D01*
X112613Y149123D01*
X112944Y150360D01*
X114422D01*
X114702Y150080D01*
X115534Y149735D01*
X116435D01*
X117268Y150080D01*
X117905Y150717D01*
X118250Y151550D01*
Y152451D01*
X117905Y153283D01*
X117268Y153920D01*
X116435Y154265D01*
X115534D01*
X114702Y153920D01*
X114422Y153640D01*
X113164D01*
X84220Y182584D01*
X84386Y183092D01*
X84842Y183758D01*
X85506D01*
X86338Y184103D01*
X86975Y184740D01*
X87320Y185572D01*
Y186473D01*
X86975Y187306D01*
X86338Y187943D01*
X85764Y188181D01*
X86016Y189451D01*
X110491Y189451D01*
D02*
G37*
G36*
X76006Y123961D02*
X80802D01*
X81758Y122950D01*
Y122050D01*
X80775Y121104D01*
X79735D01*
X78767Y120703D01*
X77355Y119291D01*
X77010Y119261D01*
X75735Y119468D01*
X75391Y119813D01*
X74558Y120157D01*
X73657D01*
X72825Y119813D01*
X72187Y119175D01*
X71843Y118343D01*
Y117442D01*
X72187Y116609D01*
X72825Y115972D01*
X73657Y115627D01*
X74558D01*
X75709Y114730D01*
Y113686D01*
X75696Y113598D01*
X75656Y113409D01*
X75606Y113232D01*
X75545Y113067D01*
X75475Y112913D01*
X75395Y112768D01*
X75306Y112632D01*
X75185Y112478D01*
X75158Y112377D01*
X75065Y112284D01*
X74720Y111452D01*
Y110551D01*
X75065Y109718D01*
X75555Y109228D01*
X75642Y108523D01*
X75561Y107765D01*
X75080Y107283D01*
X74735Y106451D01*
Y105549D01*
X75080Y104717D01*
X75522Y104275D01*
X75498Y103606D01*
X75472Y103483D01*
X75235Y102905D01*
X74645Y102660D01*
X74007Y102023D01*
X73663Y101190D01*
Y100289D01*
X72783Y99094D01*
X64153D01*
X63269Y98919D01*
X62520Y98418D01*
X61543Y97441D01*
X60369Y97927D01*
Y101938D01*
X59968Y102907D01*
X57134Y105741D01*
Y113296D01*
X56733Y114264D01*
X55867Y115130D01*
Y115977D01*
X56418Y116528D01*
X56763Y117360D01*
Y118261D01*
X56418Y119094D01*
X55781Y119731D01*
X54949Y120076D01*
X54048D01*
X53215Y119731D01*
X52578Y119094D01*
X52233Y118261D01*
Y117360D01*
X52578Y116528D01*
X53129Y115977D01*
Y114562D01*
X53144Y114525D01*
X52291Y113266D01*
X52217D01*
X51384Y112921D01*
X51270Y112807D01*
X50000Y113334D01*
Y123451D01*
X50012Y123451D01*
X59000D01*
X59124Y123476D01*
X59250Y123463D01*
X60225Y123560D01*
X60584Y123668D01*
X60951Y123741D01*
X61576Y124000D01*
X75808D01*
X76006Y123961D01*
D02*
G37*
G36*
X142338Y117448D02*
X142223Y117526D01*
X142085Y117596D01*
X141925Y117657D01*
X141743Y117711D01*
X141538Y117756D01*
X141311Y117793D01*
X140789Y117842D01*
X140495Y117854D01*
X140178Y117859D01*
X140158Y119359D01*
X140473Y119363D01*
X141286Y119428D01*
X141514Y119467D01*
X141720Y119515D01*
X141904Y119572D01*
X142067Y119637D01*
X142207Y119711D01*
X142326Y119794D01*
X142338Y117448D01*
D02*
G37*
G36*
X77578Y114179D02*
X77585Y113891D01*
X77633Y113356D01*
X77675Y113109D01*
X77730Y112874D01*
X77797Y112654D01*
X77875Y112446D01*
X77966Y112251D01*
X78069Y112070D01*
X78184Y111902D01*
X75839Y111969D01*
X75979Y112149D01*
X76105Y112340D01*
X76216Y112542D01*
X76312Y112754D01*
X76393Y112976D01*
X76460Y113209D01*
X76512Y113452D01*
X76549Y113706D01*
X76571Y113970D01*
X76578Y114245D01*
X77578Y114179D01*
D02*
G37*
G36*
X53832Y110037D02*
X53799Y109940D01*
X53769Y109812D01*
X53744Y109656D01*
X53704Y109252D01*
X53675Y108424D01*
X53673Y108089D01*
X51873Y107929D01*
X51870Y108254D01*
X51817Y109076D01*
X51786Y109299D01*
X51702Y109668D01*
X51650Y109814D01*
X51591Y109935D01*
X51525Y110029D01*
X53870Y110105D01*
X53832Y110037D01*
D02*
G37*
G36*
X121999Y111818D02*
X122313Y111594D01*
X122661Y111396D01*
X123042Y111224D01*
X123457Y111080D01*
X123906Y110961D01*
X124388Y110869D01*
X125454Y110763D01*
X126037Y110750D01*
X122416Y107750D01*
Y109250D01*
X121719Y112068D01*
X121999Y111818D01*
D02*
G37*
G36*
X79626Y107919D02*
X79432Y107716D01*
X79098Y107305D01*
X78958Y107098D01*
X78835Y106890D01*
X78730Y106681D01*
X78644Y106470D01*
X78575Y106258D01*
X78524Y106046D01*
X78491Y105832D01*
X76832Y107491D01*
X77046Y107524D01*
X77259Y107575D01*
X77470Y107644D01*
X77681Y107730D01*
X77890Y107835D01*
X78098Y107958D01*
X78305Y108098D01*
X78511Y108256D01*
X78716Y108432D01*
X78919Y108626D01*
X79626Y107919D01*
D02*
G37*
G36*
X67231Y92854D02*
X67271Y92618D01*
X67328Y92387D01*
X67403Y92161D01*
X67497Y91940D01*
X67608Y91725D01*
X67737Y91515D01*
X67884Y91310D01*
X68050Y91110D01*
X68233Y90915D01*
X67421Y90312D01*
X67209Y90517D01*
X66794Y90873D01*
X66592Y91023D01*
X66393Y91155D01*
X66198Y91269D01*
X66006Y91365D01*
X65817Y91443D01*
X65632Y91502D01*
X65450Y91543D01*
X67210Y93095D01*
X67231Y92854D01*
D02*
G37*
G36*
X53676Y91403D02*
X53755Y90357D01*
X53790Y90160D01*
X53833Y89991D01*
X53882Y89847D01*
X53937Y89729D01*
X53999Y89638D01*
X51654Y89585D01*
X51695Y89657D01*
X51733Y89759D01*
X51765Y89889D01*
X51794Y90049D01*
X51838Y90455D01*
X51864Y90978D01*
X51873Y91617D01*
X53673Y91730D01*
X53676Y91403D01*
D02*
G37*
G36*
X105691Y90389D02*
X105581Y90204D01*
X105483Y90007D01*
X105398Y89797D01*
X105327Y89576D01*
X105268Y89341D01*
X105223Y89095D01*
X105190Y88836D01*
X105171Y88566D01*
X105164Y88282D01*
X104164Y88260D01*
X104157Y88539D01*
X104136Y88807D01*
X104102Y89063D01*
X104053Y89308D01*
X103990Y89541D01*
X103914Y89764D01*
X103823Y89974D01*
X103719Y90174D01*
X103601Y90362D01*
X103469Y90539D01*
X105815Y90561D01*
X105691Y90389D01*
D02*
G37*
G36*
X77845Y87675D02*
X78031Y87561D01*
X78230Y87460D01*
X78440Y87373D01*
X78662Y87298D01*
X78896Y87238D01*
X79141Y87191D01*
X79399Y87157D01*
X79668Y87137D01*
X79949Y87130D01*
Y86130D01*
X79668Y86124D01*
X79141Y86070D01*
X78896Y86023D01*
X78662Y85962D01*
X78440Y85888D01*
X78230Y85801D01*
X78031Y85700D01*
X77845Y85585D01*
X77670Y85457D01*
Y87803D01*
X77845Y87675D01*
D02*
G37*
G36*
X97045Y86111D02*
X96931Y85924D01*
X96830Y85726D01*
X96742Y85516D01*
X96668Y85294D01*
X96608Y85060D01*
X96561Y84814D01*
X96527Y84557D01*
X96507Y84287D01*
X96500Y84006D01*
X95500D01*
X95493Y84287D01*
X95439Y84814D01*
X95392Y85060D01*
X95332Y85294D01*
X95258Y85516D01*
X95170Y85726D01*
X95069Y85924D01*
X94955Y86111D01*
X94827Y86286D01*
X97173D01*
X97045Y86111D01*
D02*
G37*
G36*
X125263Y81488D02*
X125674Y81154D01*
X125881Y81013D01*
X126089Y80891D01*
X126298Y80786D01*
X126509Y80699D01*
X126720Y80631D01*
X126933Y80579D01*
X127147Y80546D01*
X125488Y78887D01*
X125455Y79101D01*
X125404Y79314D01*
X125335Y79526D01*
X125248Y79736D01*
X125144Y79946D01*
X125021Y80154D01*
X124881Y80361D01*
X124723Y80567D01*
X124546Y80772D01*
X124353Y80975D01*
X125060Y81682D01*
X125263Y81488D01*
D02*
G37*
G36*
X133523Y78732D02*
X133511Y78757D01*
X133483Y78780D01*
X133441Y78800D01*
X133384Y78817D01*
X133312Y78832D01*
X133224Y78844D01*
X133004Y78860D01*
X132724Y78866D01*
Y79866D01*
X132926Y79866D01*
X133818Y79919D01*
X133839Y79931D01*
X133523Y78732D01*
D02*
G37*
G36*
X93028Y78768D02*
X92814Y78734D01*
X92601Y78683D01*
X92389Y78615D01*
X92179Y78528D01*
X91969Y78423D01*
X91761Y78301D01*
X91554Y78160D01*
X91348Y78002D01*
X91144Y77826D01*
X90940Y77632D01*
X90233Y78339D01*
X90427Y78542D01*
X90761Y78953D01*
X90902Y79160D01*
X91024Y79368D01*
X91129Y79577D01*
X91216Y79788D01*
X91285Y80000D01*
X91336Y80212D01*
X91369Y80427D01*
X93028Y78768D01*
D02*
G37*
G36*
X96500Y77599D02*
X96556Y75682D01*
X94407Y76387D01*
X94615Y76524D01*
X94801Y76674D01*
X94965Y76838D01*
X95107Y77015D01*
X95227Y77206D01*
X95325Y77410D01*
X95402Y77628D01*
X95456Y77859D01*
X95489Y78104D01*
X95500Y78362D01*
X96500Y77599D01*
D02*
G37*
G36*
X124253Y73231D02*
X124209Y73285D01*
X124146Y73334D01*
X124065Y73377D01*
X123966Y73414D01*
X123848Y73445D01*
X123712Y73471D01*
X123557Y73491D01*
X123193Y73514D01*
X122983Y73517D01*
Y74517D01*
X123193Y74520D01*
X123712Y74563D01*
X123848Y74588D01*
X123966Y74620D01*
X124065Y74657D01*
X124146Y74700D01*
X124209Y74748D01*
X124253Y74803D01*
Y73231D01*
D02*
G37*
G36*
X136552Y71386D02*
X136609Y71279D01*
X136686Y71159D01*
X136781Y71027D01*
X137026Y70723D01*
X137346Y70369D01*
X137739Y69963D01*
X137032Y69256D01*
X136890Y69392D01*
X136754Y69507D01*
X136624Y69603D01*
X136500Y69679D01*
X136382Y69736D01*
X136270Y69772D01*
X136164Y69789D01*
X136064Y69786D01*
X135971Y69763D01*
X135883Y69721D01*
X136512Y71480D01*
X136552Y71386D01*
D02*
G37*
G36*
X96367Y71385D02*
X96370Y71067D01*
X96440Y70019D01*
X96471Y69813D01*
X96553Y69469D01*
X96602Y69331D01*
X96657Y69216D01*
X94335Y69592D01*
X94531Y69784D01*
X94707Y69981D01*
X94861Y70185D01*
X94996Y70395D01*
X95109Y70612D01*
X95202Y70834D01*
X95274Y71063D01*
X95326Y71297D01*
X95357Y71538D01*
X95367Y71785D01*
X96367Y71385D01*
D02*
G37*
G36*
X75444Y71148D02*
X75494Y70932D01*
X75561Y70718D01*
X75647Y70505D01*
X75750Y70294D01*
X75872Y70085D01*
X76011Y69878D01*
X76168Y69672D01*
X76343Y69468D01*
X76535Y69265D01*
X75816Y68570D01*
X75612Y68766D01*
X75201Y69103D01*
X74994Y69244D01*
X74787Y69368D01*
X74579Y69474D01*
X74370Y69562D01*
X74161Y69632D01*
X73951Y69684D01*
X73741Y69718D01*
X75412Y71365D01*
X75444Y71148D01*
D02*
G37*
G36*
X90695Y68800D02*
X90745Y68764D01*
X90813Y68731D01*
X90900Y68704D01*
X91004Y68680D01*
X91126Y68661D01*
X91425Y68635D01*
X91796Y68626D01*
Y67627D01*
X91601Y67624D01*
X91126Y67592D01*
X91004Y67573D01*
X90900Y67549D01*
X90813Y67522D01*
X90745Y67490D01*
X90695Y67453D01*
X90663Y67412D01*
Y68841D01*
X90695Y68800D01*
D02*
G37*
G36*
X137895Y66908D02*
X137923Y66660D01*
X137971Y66418D01*
X138036Y66184D01*
X138121Y65957D01*
X138224Y65738D01*
X138347Y65526D01*
X138488Y65321D01*
X138647Y65123D01*
X138826Y64932D01*
X136493Y64658D01*
X136567Y64794D01*
X136634Y64950D01*
X136693Y65125D01*
X136744Y65318D01*
X136788Y65531D01*
X136851Y66014D01*
X136870Y66284D01*
X136886Y66881D01*
X137886Y67164D01*
X137895Y66908D01*
D02*
G37*
G36*
X79426Y65339D02*
X79454Y65090D01*
X79501Y64849D01*
X79567Y64615D01*
X79651Y64388D01*
X79755Y64168D01*
X79877Y63956D01*
X80018Y63751D01*
X80178Y63553D01*
X80357Y63363D01*
X78023Y63088D01*
X78098Y63225D01*
X78165Y63380D01*
X78224Y63555D01*
X78275Y63749D01*
X78318Y63962D01*
X78381Y64444D01*
X78401Y64714D01*
X78416Y65312D01*
X79416Y65594D01*
X79426Y65339D01*
D02*
G37*
G36*
X126300Y61315D02*
X126125Y61443D01*
X125939Y61558D01*
X125740Y61659D01*
X125530Y61746D01*
X125308Y61820D01*
X125074Y61881D01*
X124829Y61928D01*
X124571Y61961D01*
X124302Y61982D01*
X124021Y61988D01*
Y62988D01*
X124302Y62995D01*
X124829Y63049D01*
X125074Y63096D01*
X125308Y63157D01*
X125530Y63231D01*
X125740Y63318D01*
X125939Y63419D01*
X126125Y63534D01*
X126300Y63661D01*
Y61315D01*
D02*
G37*
G36*
X83948Y60359D02*
X84358Y60024D01*
X84565Y59884D01*
X84773Y59761D01*
X84983Y59657D01*
X85193Y59570D01*
X85405Y59501D01*
X85618Y59450D01*
X85832Y59417D01*
X84173Y57758D01*
X84140Y57972D01*
X84089Y58185D01*
X84020Y58397D01*
X83933Y58607D01*
X83828Y58816D01*
X83706Y59025D01*
X83565Y59232D01*
X83407Y59437D01*
X83231Y59642D01*
X83037Y59845D01*
X83744Y60553D01*
X83948Y60359D01*
D02*
G37*
G36*
X51565Y86757D02*
X52397Y86412D01*
X53298D01*
X54131Y86757D01*
X54277Y86728D01*
X54497Y86197D01*
X55134Y85560D01*
X55745Y85307D01*
X55912Y84509D01*
X55872Y83984D01*
X55717Y83920D01*
X55080Y83283D01*
X54735Y82451D01*
Y81549D01*
X55080Y80717D01*
X55717Y80080D01*
X56549Y79735D01*
X57450D01*
X58283Y80080D01*
X59608Y79608D01*
X66212Y73004D01*
X67180Y72604D01*
X70672D01*
X71655Y71658D01*
Y70757D01*
X72000Y69925D01*
X72637Y69288D01*
X73470Y68943D01*
X74216Y67952D01*
X74212Y67754D01*
X74179Y67587D01*
X74105Y67392D01*
X74086Y67359D01*
X73594Y66866D01*
X73249Y66034D01*
Y65133D01*
X73594Y64300D01*
X74184Y63710D01*
X73576Y63101D01*
X73231Y62269D01*
Y61368D01*
X73576Y60535D01*
X74213Y59898D01*
X75045Y59553D01*
X75947D01*
X76000Y59518D01*
Y57952D01*
X74894Y57468D01*
X74730Y57495D01*
X74648Y57618D01*
X58309Y73957D01*
Y75000D01*
X58265Y75223D01*
Y75451D01*
X58178Y75661D01*
X58134Y75884D01*
X58007Y76073D01*
X57920Y76283D01*
X57759Y76444D01*
X57633Y76633D01*
X57444Y76759D01*
X57283Y76920D01*
X57073Y77007D01*
X56884Y77134D01*
X56661Y77178D01*
X56451Y77265D01*
X56223D01*
X56000Y77309D01*
X55777Y77265D01*
X55550D01*
X55339Y77178D01*
X55116Y77134D01*
X54927Y77007D01*
X54717Y76920D01*
X54556Y76759D01*
X54367Y76633D01*
X54241Y76444D01*
X54080Y76283D01*
X53993Y76073D01*
X53866Y75884D01*
X53822Y75661D01*
X53735Y75451D01*
Y75223D01*
X53691Y75000D01*
Y73000D01*
X53866Y72116D01*
X54367Y71367D01*
X65779Y59955D01*
X65253Y58685D01*
X62932D01*
X62709Y58640D01*
X62482D01*
X62272Y58553D01*
X62049Y58509D01*
X61859Y58383D01*
X61649Y58295D01*
X61488Y58135D01*
X61299Y58008D01*
X61173Y57819D01*
X61012Y57658D01*
X60925Y57448D01*
X60799Y57259D01*
X60754Y57036D01*
X60667Y56826D01*
Y56598D01*
X60623Y56375D01*
X60667Y56152D01*
Y55925D01*
X60754Y55715D01*
X60799Y55491D01*
X60925Y55302D01*
X61012Y55092D01*
X61173Y54932D01*
X61299Y54742D01*
X61488Y54616D01*
X61649Y54455D01*
X61859Y54368D01*
X62049Y54242D01*
X62272Y54197D01*
X62482Y54110D01*
X62709D01*
X62932Y54066D01*
X64844D01*
X71310Y47600D01*
X70784Y46330D01*
X68277D01*
X65272Y49335D01*
X64689Y49725D01*
X64000Y49862D01*
X57990D01*
X57922Y49890D01*
X57595Y49892D01*
X56802Y49917D01*
X56453Y49947D01*
X56352Y49962D01*
X56300Y49973D01*
X56288Y49977D01*
X56283Y49982D01*
X55451Y50327D01*
X54549D01*
X53717Y49982D01*
X53080Y49345D01*
X52735Y48513D01*
Y47612D01*
X53080Y46779D01*
X53717Y46142D01*
X54549Y45797D01*
X55451D01*
X56283Y46142D01*
X56288Y46147D01*
X56300Y46151D01*
X56317Y46155D01*
X57607Y46233D01*
X57922Y46234D01*
X57990Y46263D01*
X63255D01*
X66259Y43258D01*
X66484Y43108D01*
X66442Y42512D01*
X66113Y41828D01*
X66078Y41828D01*
X66010Y41800D01*
X58861D01*
X58173Y41663D01*
X57589Y41273D01*
X55842Y39525D01*
X55774Y39497D01*
X55541Y39267D01*
X54963Y38724D01*
X54694Y38499D01*
X54613Y38438D01*
X54568Y38409D01*
X54557Y38403D01*
X54549D01*
X53717Y38059D01*
X53080Y37422D01*
X52735Y36589D01*
Y35688D01*
X53080Y34855D01*
X53717Y34218D01*
X54549Y33874D01*
X55451D01*
X56283Y34218D01*
X56920Y34855D01*
X57265Y35688D01*
Y35695D01*
X57271Y35706D01*
X57280Y35721D01*
X58137Y36688D01*
X58359Y36912D01*
X58387Y36980D01*
X59607Y38200D01*
X66010D01*
X66078Y38172D01*
X66405Y38170D01*
X67198Y38145D01*
X67547Y38115D01*
X67648Y38100D01*
X67700Y38089D01*
X67712Y38085D01*
X67717Y38080D01*
X68549Y37735D01*
X69451D01*
X70283Y38080D01*
X70920Y38717D01*
X71265Y39550D01*
Y40451D01*
X70920Y41283D01*
X70743Y41460D01*
X71269Y42730D01*
X76000D01*
Y34987D01*
X72618D01*
X71650Y34586D01*
X69329Y32265D01*
X68549D01*
X67717Y31920D01*
X67080Y31283D01*
X66735Y30450D01*
Y29550D01*
X65752Y28604D01*
X64242D01*
X62284Y30562D01*
X62308Y30667D01*
X62907Y31735D01*
X63450D01*
X64283Y32080D01*
X64920Y32717D01*
X65265Y33549D01*
Y34451D01*
X64920Y35283D01*
X64283Y35920D01*
X63450Y36265D01*
X62550D01*
X61717Y35920D01*
X61080Y35283D01*
X60735Y34451D01*
Y33549D01*
X60769Y33467D01*
X59797Y32495D01*
X59774Y32505D01*
X51755D01*
X51270Y32304D01*
X50000Y32977D01*
Y86567D01*
X51270Y87051D01*
X51565Y86757D01*
D02*
G37*
G36*
X170794Y57059D02*
X170848Y56532D01*
X170895Y56287D01*
X170956Y56053D01*
X171030Y55831D01*
X171117Y55620D01*
X171218Y55422D01*
X171332Y55236D01*
X171460Y55061D01*
X169114D01*
X169242Y55236D01*
X169356Y55422D01*
X169457Y55620D01*
X169545Y55831D01*
X169619Y56053D01*
X169680Y56287D01*
X169727Y56532D01*
X169760Y56790D01*
X169781Y57059D01*
X169787Y57340D01*
X170787D01*
X170794Y57059D01*
D02*
G37*
G36*
X137315Y52827D02*
X137140Y52955D01*
X136954Y53069D01*
X136755Y53170D01*
X136545Y53258D01*
X136323Y53332D01*
X136089Y53392D01*
X135844Y53439D01*
X135586Y53473D01*
X135317Y53493D01*
X135036Y53500D01*
Y54500D01*
X135317Y54507D01*
X135844Y54561D01*
X136089Y54608D01*
X136323Y54668D01*
X136545Y54742D01*
X136755Y54830D01*
X136954Y54931D01*
X137140Y55045D01*
X137315Y55173D01*
Y52827D01*
D02*
G37*
G36*
X152268Y53582D02*
X152678Y53247D01*
X152885Y53107D01*
X153094Y52985D01*
X153303Y52880D01*
X153513Y52793D01*
X153725Y52724D01*
X153938Y52673D01*
X154152Y52640D01*
X152493Y50981D01*
X152460Y51195D01*
X152409Y51408D01*
X152340Y51620D01*
X152253Y51830D01*
X152149Y52040D01*
X152026Y52248D01*
X151886Y52455D01*
X151727Y52661D01*
X151551Y52865D01*
X151357Y53069D01*
X152064Y53776D01*
X152268Y53582D01*
D02*
G37*
G36*
X83317Y52768D02*
X83504Y52654D01*
X83702Y52553D01*
X83912Y52465D01*
X84134Y52391D01*
X84368Y52331D01*
X84614Y52284D01*
X84871Y52250D01*
X85140Y52230D01*
X85421Y52223D01*
Y51223D01*
X85140Y51216D01*
X84614Y51162D01*
X84368Y51115D01*
X84134Y51055D01*
X83912Y50981D01*
X83702Y50893D01*
X83504Y50792D01*
X83317Y50678D01*
X83142Y50550D01*
Y52896D01*
X83317Y52768D01*
D02*
G37*
G36*
X55994Y49202D02*
X56084Y49173D01*
X56205Y49147D01*
X56356Y49124D01*
X56753Y49090D01*
X57580Y49064D01*
X57918Y49062D01*
Y47062D01*
X57580Y47060D01*
X56205Y46977D01*
X56084Y46951D01*
X55994Y46922D01*
X55935Y46889D01*
Y49235D01*
X55994Y49202D01*
D02*
G37*
G36*
X104904Y48750D02*
X105091Y48636D01*
X105289Y48535D01*
X105500Y48447D01*
X105722Y48373D01*
X105955Y48313D01*
X106201Y48266D01*
X106459Y48232D01*
X106728Y48212D01*
X107009Y48205D01*
Y47205D01*
X106728Y47198D01*
X106201Y47144D01*
X105955Y47097D01*
X105722Y47037D01*
X105500Y46963D01*
X105289Y46875D01*
X105091Y46774D01*
X104904Y46660D01*
X104730Y46532D01*
Y48878D01*
X104904Y48750D01*
D02*
G37*
G36*
X125477Y48623D02*
X125663Y48509D01*
X125862Y48408D01*
X126072Y48321D01*
X126294Y48246D01*
X126528Y48186D01*
X126774Y48139D01*
X127031Y48105D01*
X127300Y48085D01*
X127581Y48078D01*
Y47078D01*
X127300Y47071D01*
X126774Y47018D01*
X126528Y46971D01*
X126294Y46910D01*
X126072Y46836D01*
X125862Y46748D01*
X125663Y46648D01*
X125477Y46533D01*
X125302Y46405D01*
Y48751D01*
X125477Y48623D01*
D02*
G37*
G36*
X128542Y45460D02*
X128359Y45273D01*
X127920Y44771D01*
X127810Y44623D01*
X127643Y44354D01*
X127586Y44235D01*
X127548Y44124D01*
X127527Y44024D01*
X126615Y45589D01*
X126709Y45561D01*
X126809Y45552D01*
X126915Y45562D01*
X127028Y45591D01*
X127147Y45639D01*
X127272Y45706D01*
X127403Y45793D01*
X127541Y45898D01*
X127684Y46023D01*
X127835Y46167D01*
X128542Y45460D01*
D02*
G37*
G36*
X78350Y43357D02*
X78291Y43390D01*
X78201Y43419D01*
X78081Y43445D01*
X77929Y43468D01*
X77532Y43502D01*
X76705Y43528D01*
X76367Y43530D01*
Y45530D01*
X76705Y45532D01*
X78081Y45615D01*
X78201Y45641D01*
X78291Y45670D01*
X78350Y45703D01*
Y43357D01*
D02*
G37*
G36*
X143404Y45700D02*
X143606Y45531D01*
X143811Y45380D01*
X144021Y45247D01*
X144234Y45131D01*
X144451Y45034D01*
X144672Y44954D01*
X144897Y44893D01*
X145125Y44849D01*
X145358Y44823D01*
X143768Y43098D01*
X143729Y43291D01*
X143672Y43486D01*
X143597Y43683D01*
X143504Y43882D01*
X143393Y44083D01*
X143264Y44285D01*
X143117Y44489D01*
X142768Y44903D01*
X142567Y45112D01*
X143207Y45887D01*
X143404Y45700D01*
D02*
G37*
G36*
X174297Y45581D02*
X174348Y45368D01*
X174417Y45156D01*
X174504Y44945D01*
X174608Y44736D01*
X174731Y44528D01*
X174871Y44321D01*
X175030Y44115D01*
X175206Y43910D01*
X175400Y43707D01*
X174693Y43000D01*
X174489Y43194D01*
X174079Y43528D01*
X173872Y43668D01*
X173663Y43791D01*
X173454Y43896D01*
X173244Y43983D01*
X173032Y44051D01*
X172819Y44102D01*
X172605Y44136D01*
X174264Y45795D01*
X174297Y45581D01*
D02*
G37*
G36*
X113756Y45220D02*
X113941Y45062D01*
X114128Y44920D01*
X114316Y44796D01*
X114505Y44688D01*
X114695Y44597D01*
X114887Y44523D01*
X115080Y44466D01*
X115274Y44426D01*
X115469Y44402D01*
X113858Y42791D01*
X113834Y42986D01*
X113794Y43180D01*
X113737Y43373D01*
X113663Y43565D01*
X113572Y43755D01*
X113464Y43944D01*
X113339Y44132D01*
X113198Y44318D01*
X113040Y44504D01*
X112865Y44688D01*
X113572Y45395D01*
X113756Y45220D01*
D02*
G37*
G36*
X146504Y44206D02*
X146702Y44046D01*
X146907Y43905D01*
X147120Y43783D01*
X147339Y43679D01*
X147566Y43595D01*
X147800Y43529D01*
X148041Y43482D01*
X148290Y43454D01*
X148545Y43444D01*
X148263Y42445D01*
X147955Y42441D01*
X147145Y42382D01*
X146913Y42346D01*
X146506Y42252D01*
X146331Y42193D01*
X146176Y42126D01*
X146039Y42052D01*
X146314Y44385D01*
X146504Y44206D01*
D02*
G37*
G36*
X203065Y41827D02*
X202890Y41955D01*
X202704Y42069D01*
X202505Y42170D01*
X202295Y42258D01*
X202073Y42332D01*
X201839Y42392D01*
X201594Y42439D01*
X201336Y42473D01*
X201067Y42493D01*
X200786Y42500D01*
Y43500D01*
X201067Y43507D01*
X201594Y43561D01*
X201839Y43608D01*
X202073Y43668D01*
X202295Y43742D01*
X202505Y43830D01*
X202704Y43931D01*
X202890Y44045D01*
X203065Y44173D01*
Y41827D01*
D02*
G37*
G36*
X161344Y40540D02*
X161195Y40496D01*
X161037Y40433D01*
X160872Y40352D01*
X160699Y40251D01*
X160518Y40131D01*
X160132Y39834D01*
X159927Y39657D01*
X159494Y39246D01*
X158587Y39753D01*
X158761Y39940D01*
X158917Y40136D01*
X159054Y40340D01*
X159173Y40552D01*
X159274Y40772D01*
X159356Y41000D01*
X159419Y41237D01*
X159465Y41482D01*
X159492Y41734D01*
X159500Y41996D01*
X161344Y40540D01*
D02*
G37*
G36*
X68065Y38827D02*
X68006Y38860D01*
X67916Y38889D01*
X67796Y38915D01*
X67644Y38938D01*
X67247Y38972D01*
X66420Y38998D01*
X66082Y39000D01*
Y41000D01*
X66420Y41002D01*
X67796Y41085D01*
X67916Y41111D01*
X68006Y41140D01*
X68065Y41173D01*
Y38827D01*
D02*
G37*
G36*
X148263Y40487D02*
X148459Y40331D01*
X148663Y40194D01*
X148875Y40075D01*
X149095Y39974D01*
X149323Y39892D01*
X149560Y39829D01*
X149804Y39783D01*
X150057Y39757D01*
X150318Y39748D01*
X148863Y37904D01*
X148819Y38053D01*
X148756Y38211D01*
X148674Y38376D01*
X148574Y38549D01*
X148454Y38730D01*
X148157Y39116D01*
X147980Y39321D01*
X147568Y39754D01*
X148076Y40661D01*
X148263Y40487D01*
D02*
G37*
G36*
X110852Y38882D02*
X111039Y38767D01*
X111237Y38666D01*
X111447Y38579D01*
X111669Y38505D01*
X111903Y38444D01*
X112149Y38397D01*
X112406Y38363D01*
X112675Y38343D01*
X112956Y38337D01*
Y37337D01*
X112675Y37330D01*
X112149Y37276D01*
X111903Y37229D01*
X111669Y37168D01*
X111447Y37094D01*
X111237Y37007D01*
X111039Y36906D01*
X110852Y36791D01*
X110677Y36664D01*
Y39010D01*
X110852Y38882D01*
D02*
G37*
G36*
X57771Y37495D02*
X57533Y37255D01*
X56619Y36223D01*
X56552Y36119D01*
X56509Y36035D01*
X56491Y35970D01*
X54832Y37629D01*
X54896Y37647D01*
X54981Y37690D01*
X55085Y37757D01*
X55208Y37849D01*
X55513Y38105D01*
X56116Y38671D01*
X56356Y38909D01*
X57771Y37495D01*
D02*
G37*
G36*
X147655Y37532D02*
X147682Y37279D01*
X147727Y37034D01*
X147791Y36797D01*
X147873Y36569D01*
X147973Y36349D01*
X148092Y36137D01*
X148230Y35933D01*
X148385Y35737D01*
X148560Y35550D01*
X147653Y35043D01*
X147432Y35258D01*
X146818Y35789D01*
X146629Y35928D01*
X146274Y36149D01*
X146109Y36230D01*
X145952Y36293D01*
X145802Y36337D01*
X147646Y37793D01*
X147655Y37532D01*
D02*
G37*
G36*
X154268Y37285D02*
X154296Y37037D01*
X154343Y36795D01*
X154409Y36561D01*
X154493Y36335D01*
X154597Y36115D01*
X154719Y35903D01*
X154860Y35698D01*
X155020Y35500D01*
X155198Y35309D01*
X152865Y35035D01*
X152940Y35171D01*
X153007Y35327D01*
X153066Y35501D01*
X153117Y35695D01*
X153160Y35908D01*
X153223Y36391D01*
X153243Y36661D01*
X153258Y37258D01*
X154258Y37541D01*
X154268Y37285D01*
D02*
G37*
G36*
X105323Y37155D02*
X105374Y36943D01*
X105443Y36731D01*
X105529Y36520D01*
X105634Y36311D01*
X105757Y36103D01*
X105897Y35896D01*
X106055Y35690D01*
X106231Y35485D01*
X106425Y35282D01*
X105718Y34575D01*
X105515Y34769D01*
X105104Y35103D01*
X104897Y35243D01*
X104689Y35366D01*
X104480Y35471D01*
X104269Y35557D01*
X104057Y35626D01*
X103844Y35677D01*
X103631Y35710D01*
X105289Y37369D01*
X105323Y37155D01*
D02*
G37*
G36*
X90572Y36116D02*
X90458Y35929D01*
X90357Y35731D01*
X90269Y35521D01*
X90196Y35299D01*
X90135Y35065D01*
X90088Y34819D01*
X90054Y34562D01*
X90034Y34292D01*
X90027Y34011D01*
X89027D01*
X89021Y34292D01*
X88967Y34819D01*
X88920Y35065D01*
X88859Y35299D01*
X88785Y35521D01*
X88698Y35731D01*
X88596Y35929D01*
X88482Y36116D01*
X88354Y36291D01*
X90700D01*
X90572Y36116D01*
D02*
G37*
G36*
X84175Y32445D02*
X84000Y32573D01*
X83814Y32687D01*
X83615Y32788D01*
X83405Y32875D01*
X83183Y32950D01*
X82949Y33010D01*
X82704Y33057D01*
X82446Y33091D01*
X82177Y33111D01*
X81896Y33118D01*
Y34118D01*
X82177Y34125D01*
X82704Y34178D01*
X82949Y34225D01*
X83183Y34286D01*
X83405Y34360D01*
X83615Y34448D01*
X83814Y34548D01*
X84000Y34663D01*
X84175Y34791D01*
Y32445D01*
D02*
G37*
G36*
X153913Y31507D02*
X153949Y31491D01*
X154003Y31477D01*
X154074Y31465D01*
X154163Y31455D01*
X154534Y31435D01*
X154869Y31431D01*
Y30431D01*
X154707Y30430D01*
X154141Y30391D01*
X154077Y30376D01*
X154028Y30360D01*
X153996Y30341D01*
X153980Y30319D01*
X153894Y31525D01*
X153913Y31507D01*
D02*
G37*
G36*
X75668Y29009D02*
X75454Y28976D01*
X75241Y28925D01*
X75030Y28856D01*
X74819Y28770D01*
X74610Y28665D01*
X74402Y28542D01*
X74195Y28402D01*
X73989Y28244D01*
X73784Y28068D01*
X73581Y27874D01*
X72874Y28581D01*
X73068Y28784D01*
X73402Y29195D01*
X73542Y29402D01*
X73665Y29610D01*
X73770Y29819D01*
X73856Y30030D01*
X73925Y30241D01*
X73976Y30454D01*
X74009Y30668D01*
X75668Y29009D01*
D02*
G37*
G36*
X101250Y28190D02*
X101364Y28105D01*
X101495Y28030D01*
X101642Y27965D01*
X101805Y27910D01*
X101984Y27865D01*
X102181Y27830D01*
X102393Y27805D01*
X102867Y27785D01*
Y26785D01*
X102622Y26780D01*
X102181Y26740D01*
X101984Y26705D01*
X101805Y26660D01*
X101642Y26605D01*
X101495Y26540D01*
X101364Y26465D01*
X101250Y26381D01*
X101153Y26286D01*
Y28285D01*
X101250Y28190D01*
D02*
G37*
G36*
X54412Y28444D02*
X54457Y28333D01*
X54525Y28207D01*
X54617Y28066D01*
X54732Y27908D01*
X55032Y27546D01*
X55426Y27121D01*
X55658Y26886D01*
X54385Y25613D01*
X54149Y25845D01*
X53363Y26539D01*
X53205Y26654D01*
X53063Y26745D01*
X52937Y26814D01*
X52826Y26858D01*
X52732Y26880D01*
X54391Y28539D01*
X54412Y28444D01*
D02*
G37*
G36*
X53507Y23684D02*
X53561Y23158D01*
X53608Y22913D01*
X53669Y22679D01*
X53743Y22456D01*
X53831Y22245D01*
X53933Y22046D01*
X54047Y21858D01*
X54176Y21681D01*
X51824D01*
X51952Y21858D01*
X52067Y22046D01*
X52169Y22245D01*
X52257Y22456D01*
X52331Y22679D01*
X52392Y22913D01*
X52439Y23158D01*
X52473Y23416D01*
X52493Y23684D01*
X52500Y23964D01*
X53500D01*
X53507Y23684D01*
D02*
G37*
G36*
X112360Y19496D02*
X112347Y19509D01*
X112317Y19519D01*
X112272Y19529D01*
X112210Y19537D01*
X112037Y19550D01*
X111499Y19560D01*
Y20560D01*
X111658Y20561D01*
X112317Y20601D01*
X112347Y20612D01*
X112360Y20624D01*
Y19496D01*
D02*
G37*
G36*
X67023Y19035D02*
X66941Y19087D01*
X66831Y19133D01*
X66693Y19174D01*
X66528Y19210D01*
X66336Y19240D01*
X65867Y19283D01*
X65289Y19305D01*
X64958Y19308D01*
Y21108D01*
X65289Y21111D01*
X66336Y21176D01*
X66528Y21206D01*
X66693Y21242D01*
X66831Y21283D01*
X66941Y21329D01*
X67023Y21381D01*
Y19035D01*
D02*
G37*
G36*
X143635Y20684D02*
X143668Y20441D01*
X143723Y20210D01*
X143799Y19989D01*
X143897Y19779D01*
X144017Y19581D01*
X144159Y19393D01*
X144323Y19216D01*
X144509Y19050D01*
X144716Y18895D01*
X142506Y18283D01*
X142529Y18349D01*
X142549Y18446D01*
X142567Y18572D01*
X142595Y18914D01*
X142623Y19958D01*
X142624Y20294D01*
X143624Y20937D01*
X143635Y20684D01*
D02*
G37*
G36*
X118154Y18045D02*
X117941Y18007D01*
X117731Y17953D01*
X117523Y17883D01*
X117317Y17796D01*
X117114Y17694D01*
X116912Y17576D01*
X116713Y17441D01*
X116517Y17291D01*
X116323Y17124D01*
X116131Y16941D01*
X115424Y17649D01*
X115597Y17832D01*
X115755Y18021D01*
X115898Y18214D01*
X116024Y18411D01*
X116136Y18614D01*
X116231Y18820D01*
X116311Y19032D01*
X116374Y19247D01*
X116423Y19468D01*
X116455Y19693D01*
X118154Y18045D01*
D02*
G37*
G36*
X160253Y16892D02*
X160217Y16938D01*
X160163Y16979D01*
X160090Y17015D01*
X159999Y17046D01*
X159890Y17072D01*
X159763Y17094D01*
X159617Y17111D01*
X159272Y17130D01*
X159072Y17132D01*
Y18132D01*
X159272Y18134D01*
X159763Y18170D01*
X159890Y18192D01*
X159999Y18218D01*
X160090Y18250D01*
X160163Y18286D01*
X160217Y18326D01*
X160253Y18372D01*
Y16892D01*
D02*
G37*
G36*
X142905Y14916D02*
X143316Y14582D01*
X143523Y14442D01*
X143731Y14319D01*
X143940Y14215D01*
X144151Y14128D01*
X144362Y14059D01*
X144575Y14008D01*
X144789Y13975D01*
X143130Y12316D01*
X143097Y12530D01*
X143046Y12743D01*
X142977Y12954D01*
X142890Y13165D01*
X142786Y13374D01*
X142663Y13582D01*
X142523Y13789D01*
X142365Y13995D01*
X142189Y14200D01*
X141994Y14403D01*
X142702Y15110D01*
X142905Y14916D01*
D02*
G37*
G36*
X158706Y14172D02*
X158873Y14090D01*
X159058Y14018D01*
X159258Y13956D01*
X159475Y13903D01*
X159709Y13860D01*
X160226Y13803D01*
X160509Y13788D01*
X160808Y13784D01*
X161001Y12783D01*
X160737Y12775D01*
X160482Y12749D01*
X160236Y12706D01*
X159998Y12646D01*
X159768Y12568D01*
X159546Y12474D01*
X159333Y12362D01*
X159129Y12233D01*
X158933Y12086D01*
X158745Y11923D01*
X158555Y14263D01*
X158706Y14172D01*
D02*
G37*
G36*
X127905Y13736D02*
X127876Y13647D01*
X127850Y13526D01*
X127827Y13374D01*
X127793Y12977D01*
X127767Y12150D01*
X127765Y11812D01*
X125765D01*
X125763Y12150D01*
X125680Y13526D01*
X125654Y13647D01*
X125625Y13736D01*
X125592Y13795D01*
X127938D01*
X127905Y13736D01*
D02*
G37*
G36*
X152531Y10633D02*
X151531D01*
X151529Y10769D01*
X151502Y11087D01*
X151487Y11164D01*
X151467Y11227D01*
X151444Y11275D01*
X151418Y11309D01*
X151388Y11328D01*
X151354Y11332D01*
X152528Y12066D01*
X152531Y10633D01*
D02*
G37*
G36*
X148997Y10470D02*
X149326Y10193D01*
X149482Y10083D01*
X149632Y9991D01*
X149777Y9918D01*
X149916Y9863D01*
X150049Y9827D01*
X150177Y9810D01*
X150299Y9812D01*
X148942Y8454D01*
X148943Y8576D01*
X148926Y8704D01*
X148890Y8837D01*
X148836Y8976D01*
X148763Y9121D01*
X148671Y9272D01*
X148560Y9427D01*
X148431Y9589D01*
X148117Y9930D01*
X148824Y10637D01*
X148997Y10470D01*
D02*
G37*
G36*
X123389Y10045D02*
X123394Y9754D01*
X123440Y9214D01*
X123479Y8966D01*
X123531Y8732D01*
X123593Y8511D01*
X123667Y8306D01*
X123752Y8114D01*
X123848Y7936D01*
X123956Y7773D01*
X121612Y7877D01*
X121760Y8060D01*
X121892Y8253D01*
X122008Y8456D01*
X122109Y8668D01*
X122194Y8890D01*
X122264Y9122D01*
X122319Y9364D01*
X122358Y9616D01*
X122381Y9877D01*
X122389Y10149D01*
X123389Y10045D01*
D02*
G37*
G36*
X142784Y9932D02*
X143195Y9598D01*
X143402Y9458D01*
X143610Y9335D01*
X143819Y9230D01*
X144030Y9144D01*
X144242Y9075D01*
X144454Y9024D01*
X144668Y8990D01*
X143010Y7332D01*
X142976Y7546D01*
X142925Y7758D01*
X142856Y7970D01*
X142769Y8181D01*
X142665Y8390D01*
X142542Y8598D01*
X142402Y8805D01*
X142244Y9011D01*
X142068Y9216D01*
X141874Y9419D01*
X142581Y10126D01*
X142784Y9932D01*
D02*
G37*
G36*
X131697Y7571D02*
X132807Y6586D01*
X132883Y6544D01*
X132939Y6526D01*
X131257Y4890D01*
X131239Y4964D01*
X131196Y5056D01*
X131129Y5166D01*
X131038Y5295D01*
X130784Y5608D01*
X130432Y5994D01*
X129984Y6454D01*
X131456Y7810D01*
X131697Y7571D01*
D02*
G37*
G36*
X127168Y4744D02*
X126954Y4711D01*
X126742Y4660D01*
X126530Y4591D01*
X126319Y4505D01*
X126110Y4400D01*
X125902Y4277D01*
X125695Y4137D01*
X125489Y3979D01*
X125284Y3803D01*
X125081Y3609D01*
X124374Y4316D01*
X124568Y4519D01*
X124902Y4930D01*
X125042Y5137D01*
X125165Y5345D01*
X125269Y5554D01*
X125356Y5765D01*
X125425Y5976D01*
X125476Y6189D01*
X125510Y6403D01*
X127168Y4744D01*
D02*
G37*
G36*
X151662Y5340D02*
X151485Y5154D01*
X151324Y4965D01*
X151179Y4771D01*
X151050Y4574D01*
X150936Y4373D01*
X150838Y4169D01*
X150756Y3961D01*
X150689Y3749D01*
X150638Y3533D01*
X150602Y3314D01*
X148928Y4988D01*
X149147Y5024D01*
X149363Y5075D01*
X149574Y5142D01*
X149783Y5224D01*
X149987Y5322D01*
X150188Y5436D01*
X150385Y5565D01*
X150578Y5710D01*
X150768Y5871D01*
X150954Y6048D01*
X151662Y5340D01*
D02*
G37*
G36*
X209753Y55571D02*
X209742D01*
X209697D01*
X209631D01*
X209542Y55582D01*
X209442Y55593D01*
X209331Y55615D01*
X209220Y55637D01*
X209098Y55682D01*
X209087D01*
X209076Y55693D01*
X209009Y55715D01*
X208909Y55759D01*
X208776Y55826D01*
X208621Y55915D01*
X208443Y56026D01*
X208265Y56148D01*
X208077Y56303D01*
X208066D01*
X208055Y56325D01*
X207988Y56381D01*
X207888Y56481D01*
X207744Y56625D01*
X207577Y56792D01*
X207377Y57003D01*
X207155Y57258D01*
X206922Y57535D01*
X206911Y57546D01*
X206878Y57591D01*
X206822Y57657D01*
X206756Y57735D01*
X206667Y57835D01*
X206567Y57957D01*
X206456Y58079D01*
X206334Y58224D01*
X206068Y58501D01*
X205801Y58779D01*
X205668Y58912D01*
X205535Y59034D01*
X205413Y59145D01*
X205291Y59234D01*
X205280D01*
X205269Y59256D01*
X205235Y59278D01*
X205191Y59300D01*
X205069Y59378D01*
X204925Y59467D01*
X204747Y59544D01*
X204558Y59622D01*
X204347Y59667D01*
X204147Y59689D01*
X204136D01*
X204125D01*
X204059Y59678D01*
X203948Y59667D01*
X203826Y59633D01*
X203670Y59589D01*
X203515Y59511D01*
X203359Y59411D01*
X203204Y59278D01*
X203182Y59256D01*
X203137Y59200D01*
X203082Y59123D01*
X203004Y59001D01*
X202938Y58845D01*
X202871Y58667D01*
X202827Y58457D01*
X202815Y58224D01*
Y58157D01*
X202827Y58113D01*
X202838Y57979D01*
X202871Y57824D01*
X202915Y57657D01*
X202993Y57469D01*
X203093Y57291D01*
X203226Y57125D01*
X203248Y57102D01*
X203304Y57058D01*
X203393Y56991D01*
X203526Y56925D01*
X203681Y56847D01*
X203881Y56781D01*
X204103Y56736D01*
X204358Y56714D01*
X204258Y55748D01*
X204247D01*
X204214Y55759D01*
X204159D01*
X204081Y55770D01*
X203992Y55793D01*
X203892Y55815D01*
X203770Y55848D01*
X203648Y55881D01*
X203382Y55970D01*
X203115Y56103D01*
X202982Y56181D01*
X202849Y56281D01*
X202727Y56381D01*
X202616Y56492D01*
X202605Y56503D01*
X202593Y56525D01*
X202560Y56558D01*
X202527Y56614D01*
X202482Y56681D01*
X202438Y56758D01*
X202383Y56847D01*
X202327Y56958D01*
X202272Y57080D01*
X202216Y57213D01*
X202172Y57358D01*
X202127Y57513D01*
X202094Y57680D01*
X202061Y57857D01*
X202050Y58046D01*
X202038Y58246D01*
Y58357D01*
X202050Y58434D01*
X202061Y58523D01*
X202072Y58634D01*
X202094Y58756D01*
X202116Y58878D01*
X202194Y59167D01*
X202305Y59456D01*
X202372Y59600D01*
X202449Y59744D01*
X202549Y59877D01*
X202660Y59999D01*
X202671Y60011D01*
X202682Y60033D01*
X202727Y60055D01*
X202771Y60099D01*
X202827Y60155D01*
X202904Y60210D01*
X202982Y60266D01*
X203082Y60332D01*
X203293Y60444D01*
X203559Y60554D01*
X203692Y60599D01*
X203848Y60621D01*
X204003Y60643D01*
X204170Y60654D01*
X204192D01*
X204247D01*
X204336Y60643D01*
X204458Y60632D01*
X204592Y60610D01*
X204747Y60566D01*
X204913Y60521D01*
X205080Y60455D01*
X205102Y60444D01*
X205158Y60421D01*
X205246Y60377D01*
X205368Y60310D01*
X205502Y60222D01*
X205668Y60111D01*
X205835Y59977D01*
X206023Y59822D01*
X206045Y59800D01*
X206112Y59744D01*
X206168Y59689D01*
X206223Y59633D01*
X206290Y59567D01*
X206378Y59478D01*
X206467Y59389D01*
X206567Y59278D01*
X206678Y59167D01*
X206800Y59034D01*
X206922Y58889D01*
X207067Y58734D01*
X207211Y58556D01*
X207366Y58379D01*
X207377Y58368D01*
X207400Y58346D01*
X207433Y58301D01*
X207477Y58246D01*
X207544Y58179D01*
X207611Y58101D01*
X207755Y57924D01*
X207921Y57735D01*
X208088Y57558D01*
X208232Y57402D01*
X208288Y57336D01*
X208343Y57280D01*
X208354Y57269D01*
X208388Y57236D01*
X208432Y57191D01*
X208499Y57136D01*
X208576Y57080D01*
X208654Y57014D01*
X208843Y56880D01*
Y60665D01*
X209753D01*
Y55571D01*
D02*
G37*
%LPC*%
G36*
X43429Y171265D02*
X42528D01*
X41696Y170920D01*
X41059Y170283D01*
X40714Y169450D01*
Y168549D01*
X41059Y167717D01*
X41696Y167080D01*
X42528Y166735D01*
X43429D01*
X44262Y167080D01*
X44899Y167717D01*
X45244Y168549D01*
Y169450D01*
X44899Y170283D01*
X44262Y170920D01*
X43429Y171265D01*
D02*
G37*
G36*
X130450Y181515D02*
X129549D01*
X128717Y181170D01*
X128080Y180533D01*
X127735Y179701D01*
Y178799D01*
X128080Y177967D01*
X128717Y177330D01*
X129549Y176985D01*
X130450D01*
X131283Y177330D01*
X131920Y177967D01*
X132265Y178799D01*
Y179701D01*
X131920Y180533D01*
X131283Y181170D01*
X130450Y181515D01*
D02*
G37*
G36*
X321700Y185265D02*
X318866D01*
X316128Y184531D01*
X313673Y183114D01*
X311669Y181110D01*
X310252Y178655D01*
X309518Y175917D01*
Y173083D01*
X310252Y170345D01*
X311669Y167890D01*
X313673Y165886D01*
X316128Y164469D01*
X318866Y163735D01*
X321700D01*
X324438Y164469D01*
X326893Y165886D01*
X328897Y167890D01*
X330314Y170345D01*
X331048Y173083D01*
Y175917D01*
X330314Y178655D01*
X328897Y181110D01*
X326893Y183114D01*
X324438Y184531D01*
X321700Y185265D01*
D02*
G37*
G36*
X270900D02*
X268066D01*
X265328Y184531D01*
X262873Y183114D01*
X260869Y181110D01*
X259452Y178655D01*
X258718Y175917D01*
Y173083D01*
X259452Y170345D01*
X260869Y167890D01*
X262873Y165886D01*
X265328Y164469D01*
X268066Y163735D01*
X270900D01*
X273638Y164469D01*
X276093Y165886D01*
X278097Y167890D01*
X279514Y170345D01*
X280248Y173083D01*
Y175917D01*
X279514Y178655D01*
X278097Y181110D01*
X276093Y183114D01*
X273638Y184531D01*
X270900Y185265D01*
D02*
G37*
G36*
X245500D02*
X242666D01*
X239928Y184531D01*
X237473Y183114D01*
X235469Y181110D01*
X234052Y178655D01*
X233318Y175917D01*
Y173083D01*
X234052Y170345D01*
X235469Y167890D01*
X237473Y165886D01*
X239928Y164469D01*
X242666Y163735D01*
X245500D01*
X248238Y164469D01*
X250693Y165886D01*
X252697Y167890D01*
X254114Y170345D01*
X254848Y173083D01*
Y175917D01*
X254114Y178655D01*
X252697Y181110D01*
X250693Y183114D01*
X248238Y184531D01*
X245500Y185265D01*
D02*
G37*
G36*
X223683Y185378D02*
X213683D01*
X211434Y184930D01*
X209527Y183656D01*
X208253Y181749D01*
X207805Y179500D01*
Y169500D01*
X208253Y167251D01*
X209527Y165344D01*
X211434Y164069D01*
X213683Y163622D01*
X223683D01*
X225932Y164069D01*
X227839Y165344D01*
X229114Y167251D01*
X229561Y169500D01*
Y179500D01*
X229114Y181749D01*
X227839Y183656D01*
X225932Y184930D01*
X223683Y185378D01*
D02*
G37*
G36*
X113201Y167515D02*
X112299D01*
X111467Y167170D01*
X110830Y166533D01*
X110485Y165701D01*
Y164799D01*
X110830Y163967D01*
X111467Y163330D01*
X112299Y162985D01*
X113201D01*
X114033Y163330D01*
X114670Y163967D01*
X115015Y164799D01*
Y165701D01*
X114670Y166533D01*
X114033Y167170D01*
X113201Y167515D01*
D02*
G37*
G36*
X195488Y162058D02*
X194587D01*
X193754Y161713D01*
X193117Y161076D01*
X192772Y160243D01*
Y159342D01*
X193117Y158510D01*
X193754Y157872D01*
X194587Y157528D01*
X195488D01*
X196320Y157872D01*
X196957Y158510D01*
X197302Y159342D01*
Y160243D01*
X196957Y161076D01*
X196320Y161713D01*
X195488Y162058D01*
D02*
G37*
G36*
X209478Y158293D02*
X208577D01*
X207745Y157948D01*
X207108Y157311D01*
X206763Y156478D01*
Y155577D01*
X207108Y154745D01*
X207745Y154108D01*
X208577Y153763D01*
X209478D01*
X210311Y154108D01*
X210948Y154745D01*
X211293Y155577D01*
Y156478D01*
X210948Y157311D01*
X210311Y157948D01*
X209478Y158293D01*
D02*
G37*
G36*
X206542Y90545D02*
X205641D01*
X204808Y90200D01*
X204171Y89563D01*
X203826Y88730D01*
Y87829D01*
X204171Y86997D01*
X204808Y86360D01*
X205641Y86015D01*
X206542D01*
X207374Y86360D01*
X208011Y86997D01*
X208356Y87829D01*
Y88730D01*
X208011Y89563D01*
X207374Y90200D01*
X206542Y90545D01*
D02*
G37*
G36*
X226099Y92815D02*
X224501D01*
X223026Y92204D01*
X221896Y91074D01*
X221285Y89599D01*
Y88001D01*
X221896Y86526D01*
X223026Y85396D01*
X224501Y84785D01*
X226099D01*
X227574Y85396D01*
X228704Y86526D01*
X229315Y88001D01*
Y89599D01*
X228704Y91074D01*
X227574Y92204D01*
X226099Y92815D01*
D02*
G37*
G36*
X303050Y86765D02*
X301950D01*
X300934Y86344D01*
X300156Y85566D01*
X299735Y84550D01*
Y83450D01*
X300156Y82434D01*
X300934Y81656D01*
X301950Y81235D01*
X303050D01*
X304066Y81656D01*
X304844Y82434D01*
X305265Y83450D01*
Y84550D01*
X304844Y85566D01*
X304066Y86344D01*
X303050Y86765D01*
D02*
G37*
G36*
X289550D02*
X288450D01*
X287434Y86344D01*
X286656Y85566D01*
X286235Y84550D01*
Y83450D01*
X286656Y82434D01*
X287434Y81656D01*
X288450Y81235D01*
X289550D01*
X290566Y81656D01*
X291344Y82434D01*
X291765Y83450D01*
Y84550D01*
X291344Y85566D01*
X290566Y86344D01*
X289550Y86765D01*
D02*
G37*
G36*
X303050Y78265D02*
X301950D01*
X300934Y77844D01*
X300156Y77066D01*
X299735Y76050D01*
Y74950D01*
X300156Y73934D01*
X300934Y73156D01*
X301950Y72735D01*
X303050D01*
X304066Y73156D01*
X304844Y73934D01*
X305265Y74950D01*
Y76050D01*
X304844Y77066D01*
X304066Y77844D01*
X303050Y78265D01*
D02*
G37*
G36*
X289550D02*
X288450D01*
X287434Y77844D01*
X286656Y77066D01*
X286235Y76050D01*
Y74950D01*
X286656Y73934D01*
X287434Y73156D01*
X288450Y72735D01*
X289550D01*
X290566Y73156D01*
X291344Y73934D01*
X291765Y74950D01*
Y76050D01*
X291344Y77066D01*
X290566Y77844D01*
X289550Y78265D01*
D02*
G37*
G36*
X238799Y80115D02*
X237201D01*
X235726Y79504D01*
X234596Y78374D01*
X233985Y76899D01*
Y75301D01*
X234596Y73826D01*
X235726Y72696D01*
X237201Y72085D01*
X238799D01*
X240274Y72696D01*
X241404Y73826D01*
X242015Y75301D01*
Y76899D01*
X241404Y78374D01*
X240274Y79504D01*
X238799Y80115D01*
D02*
G37*
G36*
X226099D02*
X224501D01*
X223026Y79504D01*
X221896Y78374D01*
X221285Y76899D01*
Y75301D01*
X221896Y73826D01*
X223026Y72696D01*
X224501Y72085D01*
X226099D01*
X227574Y72696D01*
X228704Y73826D01*
X229315Y75301D01*
Y76899D01*
X228704Y78374D01*
X227574Y79504D01*
X226099Y80115D01*
D02*
G37*
G36*
X303050Y69765D02*
X301950D01*
X300934Y69344D01*
X300156Y68566D01*
X299735Y67550D01*
Y66450D01*
X300156Y65434D01*
X300934Y64656D01*
X301950Y64235D01*
X303050D01*
X304066Y64656D01*
X304844Y65434D01*
X305265Y66450D01*
Y67550D01*
X304844Y68566D01*
X304066Y69344D01*
X303050Y69765D01*
D02*
G37*
G36*
X289550D02*
X288450D01*
X287434Y69344D01*
X286656Y68566D01*
X286235Y67550D01*
Y66450D01*
X286656Y65434D01*
X287434Y64656D01*
X288450Y64235D01*
X289550D01*
X290566Y64656D01*
X291344Y65434D01*
X291765Y66450D01*
Y67550D01*
X291344Y68566D01*
X290566Y69344D01*
X289550Y69765D01*
D02*
G37*
G36*
X226099Y67415D02*
X224501D01*
X223026Y66804D01*
X221896Y65674D01*
X221285Y64199D01*
Y62601D01*
X221896Y61126D01*
X223026Y59996D01*
X224501Y59385D01*
X226099D01*
X227574Y59996D01*
X228704Y61126D01*
X229315Y62601D01*
Y64199D01*
X228704Y65674D01*
X227574Y66804D01*
X226099Y67415D01*
D02*
G37*
G36*
X303050Y61265D02*
X301950D01*
X300934Y60844D01*
X300156Y60066D01*
X299735Y59050D01*
Y57950D01*
X300156Y56934D01*
X300934Y56156D01*
X301950Y55735D01*
X303050D01*
X304066Y56156D01*
X304844Y56934D01*
X305265Y57950D01*
Y59050D01*
X304844Y60066D01*
X304066Y60844D01*
X303050Y61265D01*
D02*
G37*
G36*
X289550D02*
X288450D01*
X287434Y60844D01*
X286656Y60066D01*
X286235Y59050D01*
Y57950D01*
X286656Y56934D01*
X287434Y56156D01*
X288450Y55735D01*
X289550D01*
X290566Y56156D01*
X291344Y56934D01*
X291765Y57950D01*
Y59050D01*
X291344Y60066D01*
X290566Y60844D01*
X289550Y61265D01*
D02*
G37*
G36*
X303050Y52765D02*
X301950D01*
X300934Y52344D01*
X300156Y51566D01*
X299735Y50550D01*
Y49450D01*
X300156Y48434D01*
X300934Y47656D01*
X301950Y47235D01*
X303050D01*
X304066Y47656D01*
X304844Y48434D01*
X305265Y49450D01*
Y50550D01*
X304844Y51566D01*
X304066Y52344D01*
X303050Y52765D01*
D02*
G37*
G36*
X289550D02*
X288450D01*
X287434Y52344D01*
X286656Y51566D01*
X286235Y50550D01*
Y49450D01*
X286656Y48434D01*
X287434Y47656D01*
X288450Y47235D01*
X289550D01*
X290566Y47656D01*
X291344Y48434D01*
X291765Y49450D01*
Y50550D01*
X291344Y51566D01*
X290566Y52344D01*
X289550Y52765D01*
D02*
G37*
G36*
X226099Y54715D02*
X224501D01*
X223026Y54104D01*
X221896Y52974D01*
X221285Y51499D01*
Y49901D01*
X221896Y48426D01*
X223026Y47296D01*
X224501Y46685D01*
X226099D01*
X227574Y47296D01*
X228704Y48426D01*
X229315Y49901D01*
Y51499D01*
X228704Y52974D01*
X227574Y54104D01*
X226099Y54715D01*
D02*
G37*
G36*
X303050Y44265D02*
X301950D01*
X300934Y43844D01*
X300156Y43066D01*
X299735Y42050D01*
Y40950D01*
X300156Y39934D01*
X300934Y39156D01*
X301950Y38735D01*
X303050D01*
X304066Y39156D01*
X304844Y39934D01*
X305265Y40950D01*
Y42050D01*
X304844Y43066D01*
X304066Y43844D01*
X303050Y44265D01*
D02*
G37*
G36*
X289550D02*
X288450D01*
X287434Y43844D01*
X286656Y43066D01*
X286235Y42050D01*
Y40950D01*
X286656Y39934D01*
X287434Y39156D01*
X288450Y38735D01*
X289550D01*
X290566Y39156D01*
X291344Y39934D01*
X291765Y40950D01*
Y42050D01*
X291344Y43066D01*
X290566Y43844D01*
X289550Y44265D01*
D02*
G37*
G36*
X238799Y42015D02*
X237201D01*
X235726Y41404D01*
X234596Y40274D01*
X233985Y38799D01*
Y37201D01*
X234596Y35726D01*
X235726Y34596D01*
X237201Y33985D01*
X238799D01*
X240274Y34596D01*
X241404Y35726D01*
X242015Y37201D01*
Y38799D01*
X241404Y40274D01*
X240274Y41404D01*
X238799Y42015D01*
D02*
G37*
G36*
X226099D02*
X224501D01*
X223026Y41404D01*
X221896Y40274D01*
X221285Y38799D01*
Y37201D01*
X221896Y35726D01*
X223026Y34596D01*
X224501Y33985D01*
X226099D01*
X227574Y34596D01*
X228704Y35726D01*
X229315Y37201D01*
Y38799D01*
X228704Y40274D01*
X227574Y41404D01*
X226099Y42015D01*
D02*
G37*
G36*
X63687Y115144D02*
X62786D01*
X61953Y114799D01*
X61316Y114162D01*
X60971Y113329D01*
Y112429D01*
X61316Y111596D01*
X61953Y110959D01*
X62786Y110614D01*
X63687D01*
X64519Y110959D01*
X65156Y111596D01*
X65501Y112429D01*
Y113329D01*
X65156Y114162D01*
X64519Y114799D01*
X63687Y115144D01*
D02*
G37*
G36*
X63951Y106265D02*
X63050D01*
X62217Y105920D01*
X61580Y105283D01*
X61235Y104451D01*
Y103549D01*
X61580Y102717D01*
X62217Y102080D01*
X63050Y101735D01*
X63951D01*
X64783Y102080D01*
X65420Y102717D01*
X65765Y103549D01*
Y104451D01*
X65420Y105283D01*
X64783Y105920D01*
X63951Y106265D01*
D02*
G37*
%LPD*%
D11*
X129323Y42365D02*
X130353Y43395D01*
X140000Y37797D02*
Y38068D01*
X138957Y39111D02*
Y39905D01*
Y39111D02*
X140000Y38068D01*
X130353Y43395D02*
X135467D01*
X138957Y39905D01*
X132750Y5038D02*
Y5102D01*
X126765Y11087D02*
X132750Y5102D01*
X126765Y11087D02*
Y14730D01*
X55000Y48062D02*
X64000D01*
X67532Y44530D02*
X79285D01*
X64000Y48062D02*
X67532Y44530D01*
X55000Y36139D02*
X58861Y40000D01*
X69000D01*
D13*
X117947Y19464D02*
Y19530D01*
X102867Y27285D02*
X104327Y25825D01*
X106530Y21126D02*
X110361Y17295D01*
X100124Y24060D02*
X103876D01*
X105874Y24558D02*
X107001D01*
X99286Y24051D02*
X100114D01*
X103145Y22295D02*
X104765Y20675D01*
X100575Y22015D02*
X100855Y22295D01*
X104607Y25825D02*
X105874Y24558D01*
X100114Y24051D02*
X100124Y24060D01*
X104765Y20380D02*
X105045Y20100D01*
X100855Y22295D02*
X103145D01*
X104327Y25825D02*
X104607D01*
X97197Y26140D02*
X99286Y24051D01*
X103876Y24060D02*
X106530Y21406D01*
Y21126D02*
Y21406D01*
X98826Y22015D02*
X100575D01*
X104765Y20380D02*
Y20675D01*
X105045Y10955D02*
Y20100D01*
X59182Y86334D02*
X59765Y85752D01*
Y81387D02*
Y85752D01*
Y81387D02*
X67180Y73973D01*
X59182Y86334D02*
Y88559D01*
X67180Y73973D02*
X76572D01*
X50135Y26865D02*
Y29516D01*
X53000Y20750D02*
Y24000D01*
X50135Y26865D02*
X53000Y24000D01*
X50135Y29516D02*
X51755Y31135D01*
X69000Y30000D02*
X72618Y33618D01*
X85110D01*
X82235Y61355D02*
Y73175D01*
Y61355D02*
X85663Y57926D01*
X78916Y62682D02*
Y66177D01*
X77374Y67720D02*
X77374D01*
X78916Y66177D01*
X73920Y71173D02*
X77374Y67720D01*
X76572Y73973D02*
X77615Y75015D01*
X73920Y71173D02*
Y71208D01*
X80395Y75015D02*
X82235Y73175D01*
X77615Y75015D02*
X80395D01*
X107956Y82970D02*
X108838Y82088D01*
X110346Y85826D02*
X111174D01*
X122983Y74017D02*
X125531D01*
X112280Y78541D02*
Y78547D01*
X111174Y85826D02*
X122983Y74017D01*
X108838Y82088D02*
X111002D01*
X106956Y82970D02*
X107956D01*
X109255Y84735D02*
X110346Y85826D01*
X109106Y88096D02*
X118733D01*
X122786Y84043D01*
Y83249D02*
Y84043D01*
Y83249D02*
X126979Y79056D01*
X106265Y84735D02*
X109255D01*
X95867Y71881D02*
X106956Y82970D01*
X91745Y88745D02*
X98000Y95000D01*
X121247D01*
X123937Y92310D01*
X104633Y91485D02*
X104664Y91454D01*
Y86336D02*
Y91454D01*
X107520Y87500D02*
X107903Y87883D01*
X108893D01*
X109106Y88096D01*
X123937Y88153D02*
X132724Y79366D01*
X134619D01*
X123937Y88153D02*
Y92310D01*
X114563Y65938D02*
X118012Y62488D01*
X127235D01*
X115652Y59723D02*
X130005D01*
X116383Y57958D02*
X129274D01*
X130005Y59723D02*
X130023Y59705D01*
X129274Y57958D02*
X130467Y56765D01*
X130023Y59705D02*
X131437D01*
X160940Y28060D02*
X165235Y23765D01*
X160209Y26295D02*
X163470Y23034D01*
X151204Y28060D02*
X160940D01*
X150446Y26295D02*
X160209D01*
X161120Y13283D02*
X164867Y17031D01*
X157985Y13283D02*
X161120D01*
X157731Y7398D02*
X166632Y16300D01*
X165235Y20362D02*
X166632Y18965D01*
Y16300D02*
Y18965D01*
X163470Y19631D02*
X164867Y18234D01*
Y17031D02*
Y18234D01*
X151235Y17750D02*
Y18291D01*
X150235Y19291D02*
X151235Y18291D01*
X154955Y6431D02*
X154966Y6442D01*
X154955Y5603D02*
X156255Y4303D01*
X151235Y12827D02*
X151520D01*
X152031Y12316D01*
Y10633D02*
X153201Y9463D01*
X147250Y20195D02*
X148470Y18975D01*
X151722Y5694D02*
X153201Y7172D01*
X154966Y6442D02*
Y11860D01*
X153201Y7172D02*
Y9463D01*
X152209Y21765D02*
X154954Y19020D01*
Y11872D02*
Y19020D01*
X150235Y19291D02*
Y19706D01*
X148470Y10283D02*
Y18975D01*
X151308Y5694D02*
X151722D01*
X154955Y5603D02*
Y6431D01*
X152031Y10633D02*
Y12316D01*
X149117Y20825D02*
X150235Y19706D01*
X148470Y10283D02*
X150436Y8318D01*
X154954Y11872D02*
X154966Y11860D01*
X112147Y39765D02*
X121575D01*
X119213Y37837D02*
X125049Y32000D01*
X131115D01*
X119837Y43999D02*
X128236Y35600D01*
X127575Y33765D02*
X131846D01*
X121575Y39765D02*
X127575Y33765D01*
X131115Y32000D02*
X140704Y22411D01*
X133034Y35600D02*
X147250Y21384D01*
X119837Y43999D02*
Y49455D01*
X131846Y33765D02*
X143124Y22486D01*
X128236Y35600D02*
X133034D01*
X130469Y39600D02*
X131999Y41130D01*
X134195Y36934D02*
Y37012D01*
X136692Y36934D02*
Y38967D01*
X134529Y41130D02*
X136692Y38967D01*
Y36934D02*
X149096Y24530D01*
X131999Y41130D02*
X134529D01*
X133384Y37824D02*
X134195Y37012D01*
X121602Y44730D02*
X126732Y39600D01*
X133384Y37824D02*
Y38365D01*
X149096Y24530D02*
X153895D01*
X140704Y16401D02*
Y22411D01*
X143124Y18219D02*
Y22486D01*
X149117Y20825D02*
Y22013D01*
X134195Y36934D02*
X149117Y22013D01*
X147250Y20195D02*
Y21384D01*
X106045Y10955D02*
X110306Y15216D01*
X105045Y10955D02*
X106045D01*
X102858Y9488D02*
X103858Y10488D01*
X102317Y9488D02*
X102858D01*
X96617Y33945D02*
X96999Y33563D01*
Y32557D02*
X97197Y32360D01*
X96999Y32557D02*
Y33563D01*
X97197Y26140D02*
Y32360D01*
X89527Y33560D02*
X95000Y28088D01*
Y25841D02*
Y28088D01*
Y25841D02*
X98826Y22015D01*
X89527Y33560D02*
Y37225D01*
X140710Y11290D02*
Y13040D01*
Y11290D02*
X144500Y7500D01*
X129530Y13346D02*
X131712Y11165D01*
Y11104D02*
Y11165D01*
X123778Y3013D02*
X127000Y6235D01*
X100973Y3013D02*
X123778D01*
X93213Y106321D02*
Y115593D01*
X117416Y121576D02*
X146791D01*
X156855Y102380D02*
Y111512D01*
X146791Y121576D02*
X156855Y111512D01*
X83288Y117213D02*
X91593D01*
X79772Y111406D02*
Y113697D01*
Y111406D02*
X79864Y111315D01*
X100541Y104702D02*
X117416Y121576D01*
X79772Y113697D02*
X83288Y117213D01*
X93213Y106321D02*
X94833Y104702D01*
X91593Y117213D02*
X93213Y115593D01*
X77000Y106000D02*
X79864Y108864D01*
X94833Y104702D02*
X100541D01*
X79864Y108864D02*
Y111315D01*
X76735Y86630D02*
X81370D01*
X100606Y54269D02*
X110198D01*
X115652Y59723D01*
X93090Y52504D02*
X110929D01*
X116383Y57958D01*
X143686Y17657D02*
X143870D01*
X143124Y18219D02*
X143686Y17657D01*
X100035Y27285D02*
X102867D01*
X115777Y17295D02*
X117947Y19464D01*
X110361Y17295D02*
X115777D01*
X89329Y119735D02*
X93094Y123500D01*
X148475D01*
X152975Y119000D01*
X159203Y109694D02*
Y118203D01*
Y109694D02*
X163705Y105191D01*
X159203Y118203D02*
X160000Y119000D01*
X91937Y65361D02*
X93000Y64298D01*
Y62285D02*
Y64298D01*
X89344Y68127D02*
X91796D01*
X94202Y65720D02*
X96713D01*
X97962Y64471D01*
X102107D01*
X95347Y68485D02*
Y68876D01*
X95867Y69395D01*
X91796Y68127D02*
X94202Y65720D01*
X95867Y69395D02*
Y71881D01*
X102355Y64719D02*
X104645D01*
X106265Y63099D01*
X102107Y64471D02*
X102355Y64719D01*
X106265Y61615D02*
Y63099D01*
X105347Y69140D02*
X108613D01*
X96340Y69395D02*
X97960Y71015D01*
X103472D02*
X105347Y69140D01*
X97960Y71015D02*
X103472D01*
X112280Y78541D02*
X113714Y77107D01*
X113218Y45041D02*
Y45721D01*
X107299Y40701D02*
X111211D01*
X113218Y45041D02*
X115353Y42906D01*
X111235Y47705D02*
X113218Y45721D01*
X111211Y40701D02*
X112147Y39765D01*
X167522Y52981D02*
X168117Y52386D01*
Y50883D02*
Y52386D01*
X167522Y52981D02*
Y57513D01*
X168117Y50883D02*
X168500Y50500D01*
X111499Y20060D02*
X113750D01*
X163705Y99235D02*
Y105191D01*
X163235Y98765D02*
X163705Y99235D01*
X156855Y102380D02*
X161470Y97765D01*
X152975Y119000D02*
X160000D01*
X127295Y66985D02*
X129530Y69220D01*
X113867Y76353D02*
X115859Y74361D01*
X118855Y66985D02*
X127295D01*
X115859Y69981D02*
X118855Y66985D01*
X115859Y69981D02*
Y74361D01*
X108613Y69140D02*
X111815Y65938D01*
X114563D01*
X96235Y58640D02*
X100606Y54269D01*
X96235Y58640D02*
Y58792D01*
X128676Y19260D02*
X128718Y19218D01*
X130621D01*
X110880Y30120D02*
X123630D01*
X140710Y13040D01*
X130621Y19218D02*
X132144Y17695D01*
X109742Y37837D02*
X119213D01*
X103799Y37201D02*
X110880Y30120D01*
X82207Y51723D02*
X88695D01*
X93084Y52509D02*
X93090Y52504D01*
X89481Y52509D02*
X93084D01*
X89416Y59182D02*
X89799Y58799D01*
X84000Y63500D02*
Y73906D01*
X88695Y51723D02*
X89481Y52509D01*
X88318Y59182D02*
X89416D01*
X84000Y63500D02*
X88318Y59182D01*
X86579Y66981D02*
X88198Y65361D01*
X86579Y66981D02*
Y73977D01*
X88198Y65361D02*
X91937D01*
X59000Y88741D02*
X59182Y88559D01*
X87694Y79123D02*
X91745Y83173D01*
Y88745D01*
X81370Y86630D02*
X84000Y84000D01*
X86858Y79123D02*
X87694D01*
X84000Y81981D02*
Y84000D01*
Y81981D02*
X86858Y79123D01*
X75365Y79506D02*
X78401D01*
X84000Y73906D01*
X69766Y85105D02*
Y88675D01*
Y85105D02*
X75365Y79506D01*
X79735Y119735D02*
X89329D01*
X77078Y117078D02*
X79735Y119735D01*
X77078Y111095D02*
Y117078D01*
X76985Y111001D02*
X77078Y111095D01*
X126732Y39600D02*
X130469D01*
X157427Y19277D02*
X159072Y17632D01*
X161558D01*
X158546Y4303D02*
X161332Y7089D01*
X161483D01*
X163470Y19631D02*
Y23034D01*
X165235Y20362D02*
Y23765D01*
X147682Y29059D02*
Y32352D01*
Y29059D02*
X150446Y26295D01*
X121602Y44730D02*
Y48724D01*
X55765Y105174D02*
X59000Y101938D01*
Y88741D02*
Y101938D01*
X65712Y92728D02*
Y93020D01*
Y92728D02*
X69766Y88675D01*
X95414Y75098D02*
X96000Y75684D01*
X95174Y75098D02*
X95414D01*
X86579Y73977D02*
X92859Y80258D01*
X96000Y75684D02*
Y87221D01*
X78916Y62682D02*
X79299Y62299D01*
X104664Y86336D02*
X106265Y84735D01*
X113714Y77107D02*
X113867D01*
X134805Y75000D02*
X135000D01*
X132369Y77435D02*
X134805Y75000D01*
X130079Y77435D02*
X132369D01*
X128459Y75816D02*
X130079Y77435D01*
X128459Y73271D02*
Y75816D01*
Y73271D02*
X129530Y72200D01*
Y69220D02*
Y72200D01*
X113867Y76353D02*
Y77107D01*
X124367Y47578D02*
X133760D01*
X133056Y9414D02*
Y9759D01*
X131712Y11104D02*
X133056Y9759D01*
X124010Y19260D02*
X128676D01*
X129530Y13346D02*
Y15910D01*
X149114Y3500D02*
X151308Y5694D01*
X141683Y46703D02*
X145059Y43327D01*
X135381Y46703D02*
X141683D01*
X141572Y49197D02*
X141839Y49464D01*
X141015Y52855D02*
Y55145D01*
X139292Y51132D02*
X141015Y52855D01*
X139277Y51132D02*
X139292D01*
X138489Y50343D02*
X139277Y51132D01*
X123222Y50343D02*
X138489D01*
X126425Y54000D02*
X138250D01*
X156255Y4303D02*
X158546D01*
X133760Y47578D02*
X134760Y48578D01*
X139220D02*
X139838Y49197D01*
X134760Y48578D02*
X139220D01*
X139838Y49197D02*
X141572D01*
X127945Y17495D02*
X129530Y15910D01*
X119965Y15216D02*
X124010Y19260D01*
X122889Y14799D02*
X125585Y17495D01*
X127945D01*
X157719Y13017D02*
X157985Y13283D01*
X140704Y16401D02*
X144621Y12484D01*
X153895Y24530D02*
X154850Y23575D01*
X152086Y21765D02*
X152209D01*
X154850Y21854D02*
X157427Y19277D01*
X154850Y21854D02*
Y23575D01*
X157427Y19277D02*
X157427D01*
X146146Y37256D02*
Y37797D01*
X143381Y36652D02*
X147682Y32352D01*
X143381Y36652D02*
Y38942D01*
X145001Y40562D01*
X149537Y42944D02*
X153758Y38723D01*
X146146Y37256D02*
X149447Y33956D01*
X145001Y40562D02*
X147468D01*
X149782Y38248D02*
X150323D01*
X147468Y40562D02*
X149782Y38248D01*
X145250Y43155D02*
X145461Y42944D01*
X149537D01*
X153758Y34628D02*
Y38723D01*
Y34628D02*
X154141Y34246D01*
X145059Y43327D02*
X145250D01*
X161000Y41459D02*
Y42000D01*
X170287Y54126D02*
Y65019D01*
X157082Y33143D02*
Y37541D01*
X167522Y57513D02*
X168235Y58226D01*
X157082Y37541D02*
X161000Y41459D01*
X168709Y66597D02*
X170287Y65019D01*
X168235Y58226D02*
Y64575D01*
X152568Y30825D02*
X152674Y30931D01*
X149447Y29817D02*
X151204Y28060D01*
X149447Y29817D02*
Y33956D01*
X126038Y44204D02*
X126579D01*
X152674Y30931D02*
X154869D01*
X157082Y33143D01*
X124534Y52108D02*
X126425Y54000D01*
X122491Y52108D02*
X124534D01*
X119837Y49455D02*
X122491Y52108D01*
X139395Y56765D02*
X141015Y55145D01*
X130467Y56765D02*
X139395D01*
X131295Y66432D02*
X136712Y61015D01*
X144118D01*
X153984Y51150D01*
X134491Y45813D02*
X135381Y46703D01*
X121602Y48724D02*
X123222Y50343D01*
X137386Y64251D02*
Y69610D01*
Y64251D02*
X137769Y63868D01*
X131295Y66432D02*
Y74600D01*
X135046Y71950D02*
X137386Y69610D01*
X122889Y7037D02*
Y14799D01*
X128188Y45813D02*
X134491D01*
X126579Y44204D02*
X128188Y45813D01*
X103795Y47705D02*
X111235D01*
X131224Y74671D02*
X131295Y74600D01*
X134619Y79366D02*
X135001Y78983D01*
X99235Y4751D02*
X100973Y3013D01*
X99235Y4751D02*
Y16554D01*
X122743Y6891D02*
X122889Y7037D01*
X154000Y50789D02*
X154939D01*
X172773Y45626D02*
X175399Y43000D01*
X204000D01*
X110306Y15216D02*
X119965D01*
X166720Y66090D02*
Y77396D01*
X162955Y81161D02*
X166720Y77396D01*
Y66090D02*
X168235Y64575D01*
X164720Y81892D02*
X168709Y77903D01*
Y66597D02*
Y77903D01*
X96265Y19524D02*
X99235Y16554D01*
X164720Y81892D02*
Y89893D01*
X162955Y81161D02*
Y86451D01*
X161470Y90647D02*
X162955Y89162D01*
X162955Y86451D02*
X162955Y86451D01*
Y89162D01*
X161470Y90647D02*
Y97765D01*
X163235Y91378D02*
X164720Y89893D01*
X163235Y91378D02*
Y98765D01*
X96265Y19524D02*
Y19781D01*
X104578Y10488D02*
X105045Y10955D01*
X103858Y10488D02*
X104578D01*
X107001Y24558D02*
X111499Y20060D01*
X55765Y105174D02*
Y113296D01*
X54498Y114562D02*
X55765Y113296D01*
X54498Y114562D02*
Y117811D01*
X51755Y31135D02*
X59774D01*
X63675Y27235D01*
X72235D01*
X75500Y30500D01*
D16*
X198000Y143000D02*
G03*
X193000Y148000I-5000J0D01*
G01*
X198000Y33000D02*
G03*
X193000Y38000I-5000J0D01*
G01*
Y46000D02*
G03*
X198000Y51000I0J5000D01*
G01*
X198000Y74000D02*
G03*
X193000Y79000I-5000J0D01*
G01*
X193000Y91000D02*
G03*
X198000Y96000I0J5000D01*
G01*
X198000Y5000D02*
G03*
X203000Y0I5000J0D01*
G01*
X64000Y143000D02*
G03*
X59000Y148000I-5000J0D01*
G01*
X77000D02*
G03*
X72000Y143000I0J-5000D01*
G01*
X0Y153000D02*
G03*
X5000Y148000I5000J0D01*
G01*
X127000Y148000D02*
G03*
X122000Y143000I0J-5000D01*
G01*
X114000D02*
G03*
X109000Y148000I-5000J0D01*
G01*
X5000Y192000D02*
G03*
X0Y187000I0J-5000D01*
G01*
X367000D02*
G03*
X362000Y192000I-5000J0D01*
G01*
Y0D02*
G03*
X367000Y5000I0J5000D01*
G01*
X122000Y131000D02*
G03*
X127000Y126000I5000J0D01*
G01*
X59000D02*
G03*
X64000Y131000I0J5000D01*
G01*
X109000Y126000D02*
G03*
X114000Y131000I0J5000D01*
G01*
X72000Y131000D02*
G03*
X77000Y126000I5000J0D01*
G01*
X181000Y79000D02*
G03*
X176000Y74000I0J-5000D01*
G01*
X176000Y96000D02*
G03*
X181000Y91000I5000J0D01*
G01*
X181000Y38000D02*
G03*
X176000Y33000I0J-5000D01*
G01*
X176000Y51000D02*
G03*
X181000Y46000I5000J0D01*
G01*
X20000Y95000D02*
G03*
X30000Y105000I0J10000D01*
G01*
X0Y153000D02*
X0Y187000D01*
X203000Y0D02*
X362000D01*
X64000Y143045D02*
X64000Y131000D01*
X72000Y143000D02*
X72000Y131000D01*
X114000Y143000D02*
X114000Y131000D01*
X122000Y143000D02*
X122000Y131000D01*
X127000Y148000D02*
X193000D01*
X198000Y143000D02*
X198000Y96000D01*
X181000Y91000D02*
X193000D01*
X192000Y79000D02*
X193000D01*
X181000D02*
X192000D01*
X181000Y46000D02*
X193011D01*
X181000Y38000D02*
X193000D01*
X198000Y5000D02*
Y30000D01*
Y33000D01*
Y51000D02*
Y74000D01*
X77000Y148000D02*
X109000D01*
X5000Y148000D02*
X59000D01*
X5000Y192000D02*
X362000Y192000D01*
X367000Y5000D02*
Y187000D01*
X77000Y126000D02*
X109000D01*
X176000Y51000D02*
Y74000D01*
Y30000D02*
Y33000D01*
X127000Y126000D02*
X156000D01*
X175990Y29058D02*
X175998Y29529D01*
X175879Y26708D02*
X175911Y27177D01*
X175800Y25773D02*
X175842Y26240D01*
X175754Y25307D02*
X175800Y25773D01*
X175842Y26240D02*
X175879Y26708D01*
X175978Y28587D02*
X175990Y29058D01*
X175702Y24842D02*
X175754Y25307D01*
X175646Y24379D02*
X175702Y24842D01*
X175961Y28116D02*
X175978Y28587D01*
X175584Y23916D02*
X175646Y24379D01*
X175938Y27646D02*
X175961Y28116D01*
X175911Y27177D02*
X175938Y27646D01*
X175518Y23456D02*
X175584Y23916D01*
X173215Y14729D02*
X173373Y15136D01*
X173526Y15547D01*
X174228Y17655D02*
X174355Y18086D01*
X174097Y17227D02*
X174228Y17655D01*
X173960Y16802D02*
X174097Y17227D01*
X173053Y14325D02*
X173215Y14729D01*
X172887Y13925D02*
X173053Y14325D01*
X173820Y16380D02*
X173960Y16802D01*
X173675Y15962D02*
X173820Y16380D01*
X173526Y15547D02*
X173675Y15962D01*
X174596Y18956D02*
X174709Y19396D01*
X174922Y20282D02*
X175021Y20729D01*
X175447Y22997D02*
X175518Y23456D01*
X175372Y22539D02*
X175447Y22997D01*
X174818Y19838D02*
X174922Y20282D01*
X174709Y19396D02*
X174818Y19838D01*
X175291Y22084D02*
X175372Y22539D01*
X175206Y21630D02*
X175291Y22084D01*
X174478Y18520D02*
X174596Y18956D01*
X175116Y21179D02*
X175206Y21630D01*
X174355Y18086D02*
X174478Y18520D01*
X175021Y20729D02*
X175116Y21179D01*
X168008Y6010D02*
X168258Y6295D01*
X168748Y6885D02*
X168989Y7188D01*
X170142Y8787D02*
X170362Y9123D01*
X168505Y6587D02*
X168748Y6885D01*
X169918Y8456D02*
X170142Y8787D01*
X168258Y6295D02*
X168505Y6587D01*
X169691Y8131D02*
X169918Y8456D01*
X169460Y7811D02*
X169691Y8131D01*
X167756Y5730D02*
X168008Y6010D01*
X169226Y7497D02*
X169460Y7811D01*
X168989Y7188D02*
X169226Y7497D01*
X170362Y9123D02*
X170579Y9464D01*
X167242Y5188D02*
X167500Y5455D01*
X165909Y3941D02*
X166181Y4178D01*
X165635Y3711D02*
X165909Y3941D01*
X165359Y3487D02*
X165635Y3711D01*
X166980Y4926D02*
X167242Y5188D01*
X166716Y4670D02*
X166980Y4926D01*
X165080Y3270D02*
X165359Y3487D01*
X164799Y3059D02*
X165080Y3270D01*
X166450Y4421D02*
X166716Y4670D01*
X164516Y2855D02*
X164799Y3059D01*
X166181Y4178D02*
X166450Y4421D01*
X167500Y5455D02*
X167756Y5730D01*
X162180Y1468D02*
X162478Y1618D01*
X160363Y723D02*
X160669Y829D01*
X160056Y623D02*
X160363Y723D01*
X161881Y1326D02*
X162180Y1468D01*
X159748Y531D02*
X160056Y623D01*
X161580Y1191D02*
X161881Y1326D01*
X161277Y1063D02*
X161580Y1191D01*
X159439Y447D02*
X159748Y531D01*
X159129Y369D02*
X159439Y447D01*
X160974Y943D02*
X161277Y1063D01*
X160669Y829D02*
X160974Y943D01*
X162478Y1618D02*
X162775Y1774D01*
X172542Y13138D02*
X172716Y13529D01*
X171410Y10877D02*
X171609Y11243D01*
X171208Y10517D02*
X171410Y10877D01*
X172363Y12750D02*
X172542Y13138D01*
X172180Y12366D02*
X172363Y12750D01*
X171002Y10161D02*
X171208Y10517D01*
X170793Y9810D02*
X171002Y10161D01*
X171994Y11987D02*
X172180Y12366D01*
X170579Y9464D02*
X170793Y9810D01*
X171803Y11613D02*
X171994Y11987D01*
X172716Y13529D02*
X172887Y13925D01*
X171609Y11243D02*
X171803Y11613D01*
X156000Y0D02*
X156314Y4D01*
X156628Y15D01*
X156942Y33D01*
X157256Y59D01*
X158507Y237D02*
X158818Y299D01*
X158195Y181D02*
X158507Y237D01*
X157882Y133D02*
X158195Y181D01*
X157569Y93D02*
X157882Y133D01*
X157256Y59D02*
X157569Y93D01*
X158818Y299D02*
X159129Y369D01*
X162775Y1774D02*
X163069Y1937D01*
X163943Y2467D02*
X164230Y2658D01*
X163654Y2284D02*
X163943Y2467D01*
X163363Y2107D02*
X163654Y2284D01*
X163069Y1937D02*
X163363Y2107D01*
X164230Y2658D02*
X164516Y2855D01*
X175998Y29529D02*
X176000Y30000D01*
X175990Y96942D02*
X175998Y96471D01*
X175879Y99292D02*
X175911Y98823D01*
X175800Y100227D02*
X175842Y99760D01*
X175754Y100693D02*
X175800Y100227D01*
X175842Y99760D02*
X175879Y99292D01*
X175978Y97413D02*
X175990Y96942D01*
X175702Y101158D02*
X175754Y100693D01*
X175646Y101621D02*
X175702Y101158D01*
X175961Y97884D02*
X175978Y97413D01*
X175584Y102084D02*
X175646Y101621D01*
X175938Y98354D02*
X175961Y97884D01*
X175911Y98823D02*
X175938Y98354D01*
X175518Y102544D02*
X175584Y102084D01*
X173215Y111271D02*
X173373Y110864D01*
X173526Y110453D01*
X174228Y108345D02*
X174355Y107914D01*
X174097Y108773D02*
X174228Y108345D01*
X173960Y109198D02*
X174097Y108773D01*
X173053Y111675D02*
X173215Y111271D01*
X172887Y112075D02*
X173053Y111675D01*
X173820Y109620D02*
X173960Y109198D01*
X173675Y110038D02*
X173820Y109620D01*
X173526Y110453D02*
X173675Y110038D01*
X174596Y107044D02*
X174709Y106604D01*
X174922Y105717D02*
X175021Y105271D01*
X175447Y103003D02*
X175518Y102544D01*
X175372Y103461D02*
X175447Y103003D01*
X174818Y106162D02*
X174922Y105717D01*
X174709Y106604D02*
X174818Y106162D01*
X175291Y103916D02*
X175372Y103461D01*
X175206Y104370D02*
X175291Y103916D01*
X174478Y107480D02*
X174596Y107044D01*
X175116Y104821D02*
X175206Y104370D01*
X174355Y107914D02*
X174478Y107480D01*
X175021Y105271D02*
X175116Y104821D01*
X168008Y119991D02*
X168258Y119705D01*
X168748Y119115D02*
X168989Y118812D01*
X170142Y117213D02*
X170362Y116877D01*
X168505Y119413D02*
X168748Y119115D01*
X169918Y117544D02*
X170142Y117213D01*
X168258Y119705D02*
X168505Y119413D01*
X169691Y117869D02*
X169918Y117544D01*
X169460Y118189D02*
X169691Y117869D01*
X167756Y120270D02*
X168008Y119991D01*
X169226Y118503D02*
X169460Y118189D01*
X168989Y118812D02*
X169226Y118503D01*
X170362Y116877D02*
X170579Y116536D01*
X167242Y120812D02*
X167500Y120544D01*
X165909Y122059D02*
X166181Y121822D01*
X165635Y122289D02*
X165909Y122059D01*
X165359Y122513D02*
X165635Y122289D01*
X166980Y121074D02*
X167242Y120812D01*
X166716Y121330D02*
X166980Y121074D01*
X165080Y122730D02*
X165359Y122513D01*
X164799Y122941D02*
X165080Y122730D01*
X166450Y121579D02*
X166716Y121330D01*
X164516Y123145D02*
X164799Y122941D01*
X166181Y121822D02*
X166450Y121579D01*
X167500Y120544D02*
X167756Y120270D01*
X162180Y124532D02*
X162478Y124382D01*
X160363Y125277D02*
X160669Y125171D01*
X160056Y125377D02*
X160363Y125277D01*
X161881Y124674D02*
X162180Y124532D01*
X159748Y125469D02*
X160056Y125377D01*
X161580Y124809D02*
X161881Y124674D01*
X161277Y124937D02*
X161580Y124809D01*
X159439Y125553D02*
X159748Y125469D01*
X159129Y125631D02*
X159439Y125553D01*
X160974Y125057D02*
X161277Y124937D01*
X160669Y125171D02*
X160974Y125057D01*
X162478Y124382D02*
X162775Y124226D01*
X172542Y112863D02*
X172716Y112471D01*
X171410Y115123D02*
X171609Y114757D01*
X171208Y115483D02*
X171410Y115123D01*
X172363Y113250D02*
X172542Y112863D01*
X172180Y113633D02*
X172363Y113250D01*
X171002Y115839D02*
X171208Y115483D01*
X170793Y116190D02*
X171002Y115839D01*
X171994Y114012D02*
X172180Y113633D01*
X170579Y116536D02*
X170793Y116190D01*
X171803Y114387D02*
X171994Y114012D01*
X172716Y112471D02*
X172887Y112075D01*
X171609Y114757D02*
X171803Y114387D01*
X156000Y126000D02*
X156314Y125996D01*
X156628Y125985D01*
X156942Y125967D01*
X157256Y125941D01*
X158507Y125763D02*
X158818Y125701D01*
X158195Y125819D02*
X158507Y125763D01*
X157882Y125867D02*
X158195Y125819D01*
X157569Y125907D02*
X157882Y125867D01*
X157256Y125941D02*
X157569Y125907D01*
X158818Y125701D02*
X159129Y125631D01*
X162775Y124226D02*
X163069Y124063D01*
X163943Y123533D02*
X164230Y123342D01*
X163654Y123716D02*
X163943Y123533D01*
X163363Y123893D02*
X163654Y123716D01*
X163069Y124063D02*
X163363Y123893D01*
X164230Y123342D02*
X164516Y123145D01*
X175998Y96471D02*
X176000Y96000D01*
X50000Y126000D02*
X59000D01*
X884Y84411D02*
X979Y84635D01*
X628Y83730D02*
X709Y83958D01*
X415Y83042D02*
X482Y83272D01*
X1405Y85522D02*
X1522Y85740D01*
X2785Y87636D02*
X2947Y87837D01*
X4197Y89194D02*
X4391Y89379D01*
X154Y9215D02*
X222Y9059D01*
X616Y8436D02*
X745Y8281D01*
X4792Y89742D02*
X4998Y89920D01*
X5207Y90095D02*
X5421Y90268D01*
X5858Y90607D02*
X6082Y90772D01*
X6309Y90934D02*
X6540Y91095D01*
X7495Y91706D02*
X7742Y91852D01*
X5099Y5601D02*
X5450Y5460D01*
X9550Y92790D02*
X9819Y92911D01*
X10920Y93365D02*
X11201Y93470D01*
X11484Y93572D01*
X6963Y4910D02*
X7368Y4775D01*
X18118Y94933D02*
X18431Y94954D01*
X19058Y94983D02*
X19372Y94993D01*
X30062Y106648D02*
X30089Y106976D01*
X30121Y107304D02*
X30158Y107632D01*
X30354Y108935D02*
X30415Y109258D01*
X31182Y112114D02*
X31291Y112423D01*
X31405Y112731D02*
X31522Y113036D01*
X31772Y113642D02*
X31904Y113941D01*
X32474Y115117D02*
X32627Y115405D01*
X34590Y118386D02*
X34792Y118638D01*
X33063Y591D02*
X33804Y539D01*
X37992Y121793D02*
X38244Y121989D01*
X38758Y122369D02*
X39020Y122552D01*
X39550Y122905D02*
X39819Y123076D01*
X40641Y123559D02*
X40920Y123711D01*
X43522Y124868D02*
X43820Y124972D01*
X44119Y125072D02*
X44420Y125166D01*
X46860Y20D02*
X47645Y11D01*
X48429Y5D01*
X47805Y125873D02*
X48118Y125907D01*
X48431Y125935D02*
X48744Y125959D01*
X49058Y125977D02*
X49372Y125990D01*
X48744Y125959D02*
X49058Y125977D01*
X1522Y85740D02*
X1645Y85957D01*
X1772Y86173D02*
X1903Y86387D01*
X2325Y87019D02*
X2474Y87226D01*
X0Y80000D02*
X3Y80236D01*
X0Y10000D02*
Y80000D01*
X6Y9843D02*
X25Y9686D01*
X55Y9529D02*
X99Y9372D01*
X222Y9059D02*
X302Y8903D01*
X1571Y7513D02*
X1772Y7361D01*
X3228Y6465D02*
X3511Y6319D01*
X3806Y6173D01*
X4430Y5885D02*
X4759Y5742D01*
X5099Y5601D01*
X9819Y92911D02*
X10091Y93029D01*
X5812Y5321D02*
X6185Y5182D01*
X6568Y5045D01*
X9093Y4250D02*
X9549Y4122D01*
X16252Y94734D02*
X16561Y94777D01*
X11474Y3626D02*
X11980Y3505D01*
X17805Y94909D02*
X18118Y94933D01*
X13018Y3270D02*
X13552Y3155D01*
X18744Y94970D02*
X19058Y94983D01*
X30010Y105660D02*
X30022Y105989D01*
X31078Y111802D02*
X31182Y112114D01*
X23875Y1474D02*
X24548Y1393D01*
X25227Y1314D02*
X25912Y1237D01*
X32180Y114534D02*
X32325Y114826D01*
X30143Y822D02*
X30866Y761D01*
X31594Y702D02*
X32326Y646D01*
X36806Y354D02*
X37566Y314D01*
X39020Y122552D02*
X39283Y122731D01*
X40631Y177D02*
X41403Y149D01*
X45295Y44D02*
X46077Y31D01*
X46871Y125742D02*
X47182Y125791D01*
X47493Y125834D01*
X49215Y1D02*
X50000Y0D01*
X482Y83272D02*
X553Y83502D01*
X246Y82346D02*
X298Y82579D01*
X4391Y89379D02*
X4590Y89561D01*
X4792Y89742D01*
X302Y8903D02*
X394Y8747D01*
X745Y8281D02*
X886Y8126D01*
X7992Y91995D02*
X8244Y92135D01*
X3806Y6173D02*
X4112Y6029D01*
X8758Y92406D02*
X9020Y92537D01*
X4112Y6029D02*
X4430Y5885D01*
X6568Y5045D02*
X6963Y4910D01*
X10016Y3996D02*
X10492Y3871D01*
X10978Y3748D01*
X15331Y94586D02*
X15637Y94639D01*
X15944Y94688D02*
X16252Y94734D01*
X17493Y94882D02*
X17805Y94909D01*
X18431Y94954D02*
X18744Y94970D01*
X14094Y3041D02*
X14645Y2929D01*
X30089Y106976D02*
X30121Y107304D01*
X19979Y2003D02*
X20611Y1910D01*
X30628Y110223D02*
X30709Y110541D01*
X22549Y1642D02*
X23209Y1557D01*
X30794Y110859D02*
X30884Y111175D01*
X30979Y111489D02*
X31078Y111802D01*
X31645Y113340D02*
X31772Y113642D01*
X33458Y116804D02*
X33637Y117075D01*
X34998Y118888D02*
X35207Y119133D01*
X33804Y539D02*
X34549Y489D01*
X36540Y120532D02*
X36774Y120752D01*
X37011Y120969D01*
X38500Y122181D02*
X38758Y122369D01*
X39093Y241D02*
X39861Y208D01*
X44513Y60D02*
X45295Y44D01*
X44420Y125166D02*
X44722Y125256D01*
X46077Y31D02*
X46860Y20D01*
X46252Y125628D02*
X46561Y125687D01*
X1182Y85081D02*
X1291Y85302D01*
X1903Y86387D02*
X2039Y86599D01*
X2180Y86810D01*
X22Y80707D02*
X39Y80942D01*
X3113Y88037D02*
X3284Y88235D01*
X3458Y88431D01*
X4006Y89006D02*
X4197Y89194D01*
X394Y8747D02*
X499Y8591D01*
X1985Y7210D02*
X2210Y7060D01*
X2447Y6910D02*
X2696Y6761D01*
X8244Y92135D02*
X8500Y92272D01*
X10091Y93029D02*
X10365Y93145D01*
X8646Y4379D02*
X9093Y4250D01*
X14119Y94337D02*
X14420Y94404D01*
X16561Y94777D02*
X16871Y94815D01*
X17182Y94850D01*
X15204Y2819D02*
X15773Y2710D01*
X30000Y105000D02*
X30003Y105330D01*
X18129Y2295D02*
X18738Y2196D01*
X19355Y2098D02*
X19979Y2003D01*
X20611Y1910D02*
X21250Y1819D01*
X30553Y109902D02*
X30628Y110223D01*
X31522Y113036D02*
X31645Y113340D01*
X25912Y1237D02*
X26604Y1162D01*
X28711Y952D02*
X29424Y886D01*
X34391Y118130D02*
X34590Y118386D01*
X35207Y119133D02*
X35421Y119375D01*
X35638Y119614D01*
X36082Y120081D02*
X36309Y120308D01*
X35298Y442D02*
X36050Y397D01*
X37011Y120969D02*
X37252Y121181D01*
X39283Y122731D02*
X39550Y122905D01*
X41484Y124001D02*
X41770Y124139D01*
X42057Y124273D01*
X42955Y100D02*
X43733Y79D01*
X44722Y125256D02*
X45026Y125340D01*
X45331Y125420D01*
X48429Y5D02*
X49215Y1D01*
X709Y83958D02*
X794Y84185D01*
X553Y83502D02*
X628Y83730D01*
X89Y81412D02*
X121Y81646D01*
X3Y80236D02*
X10Y80471D01*
X62Y81177D02*
X89Y81412D01*
X3637Y88625D02*
X3820Y88817D01*
X0Y10000D02*
X6Y9843D01*
X3820Y88817D02*
X4006Y89006D01*
X4998Y89920D02*
X5207Y90095D01*
X886Y8126D02*
X1039Y7972D01*
X1772Y7361D02*
X1985Y7210D01*
X2210Y7060D02*
X2447Y6910D01*
X2696Y6761D02*
X2956Y6613D01*
X8500Y92272D02*
X8758Y92406D01*
X9283Y92665D02*
X9550Y92790D01*
X12057Y93766D02*
X12346Y93858D01*
X7784Y4642D02*
X8210Y4510D01*
X14420Y94404D02*
X14723Y94468D01*
X15637Y94639D02*
X15944Y94688D01*
X30199Y107959D02*
X30246Y108285D01*
X21250Y1819D02*
X21896Y1729D01*
X30482Y109581D02*
X30553Y109902D01*
X30709Y110541D02*
X30794Y110859D01*
X30884Y111175D02*
X30979Y111489D01*
X32325Y114826D02*
X32474Y115117D01*
X33284Y116530D02*
X33458Y116804D01*
X34197Y117871D02*
X34391Y118130D01*
X34792Y118638D02*
X34998Y118888D01*
X34549Y489D02*
X35298Y442D01*
X37495Y121389D02*
X37742Y121593D01*
X36050Y397D02*
X36806Y354D01*
X37566Y314D02*
X38328Y276D01*
X42178Y123D02*
X42955Y100D01*
X42638Y124525D02*
X42930Y124644D01*
X43225Y124759D02*
X43522Y124868D01*
X43820Y124972D02*
X44119Y125072D01*
X45637Y125494D02*
X45944Y125564D01*
X46561Y125687D02*
X46871Y125742D01*
X979Y84635D02*
X1078Y84859D01*
X1182Y85081D01*
X1645Y85957D02*
X1772Y86173D01*
X200Y82114D02*
X246Y82346D01*
X121Y81646D02*
X158Y81880D01*
X39Y80942D02*
X62Y81177D01*
X10Y80471D02*
X22Y80707D01*
X5421Y90268D02*
X5638Y90439D01*
X1382Y7666D02*
X1571Y7513D01*
X6540Y91095D02*
X6774Y91252D01*
X7011Y91406D01*
X7251Y91558D01*
X7495Y91706D01*
X2956Y6613D02*
X3228Y6465D01*
X10641Y93257D02*
X10920Y93365D01*
X7368Y4775D02*
X7784Y4642D01*
X12637Y93947D02*
X12931Y94032D01*
X13225Y94113D01*
X13522Y94191D02*
X13820Y94266D01*
X15026Y94529D02*
X15331Y94586D01*
X9549Y4122D02*
X10016Y3996D01*
X10978Y3748D02*
X11474Y3626D01*
X19372Y94993D02*
X19686Y94998D01*
X30003Y105330D02*
X30010Y105660D01*
X30022Y105989D02*
X30040Y106319D01*
X30062Y106648D01*
X18738Y2196D02*
X19355Y2098D01*
X30246Y108285D02*
X30298Y108610D01*
X32947Y115972D02*
X33113Y116252D01*
X29424Y886D02*
X30143Y822D01*
X34006Y117609D02*
X34197Y117871D01*
X30866Y761D02*
X31594Y702D01*
X32326Y646D02*
X33063Y591D01*
X37252Y121181D02*
X37495Y121389D01*
X39819Y123076D02*
X40091Y123241D01*
X42057Y124273D02*
X42346Y124402D01*
X42638Y124525D01*
X42930Y124644D02*
X43225Y124759D01*
X49372Y125990D02*
X49686Y125997D01*
X50000Y0D02*
X156000D01*
X298Y82579D02*
X354Y82811D01*
X2627Y87432D02*
X2785Y87636D01*
X3458Y88431D02*
X3637Y88625D01*
X25Y9686D02*
X55Y9529D01*
X499Y8591D02*
X616Y8436D01*
X5638Y90439D02*
X5858Y90607D01*
X1204Y7819D02*
X1382Y7666D01*
X6082Y90772D02*
X6309Y90934D01*
X9020Y92537D02*
X9283Y92665D01*
X10365Y93145D02*
X10641Y93257D01*
X11770Y93671D02*
X12057Y93766D01*
X12346Y93858D02*
X12637Y93947D01*
X13225Y94113D02*
X13522Y94191D01*
X14723Y94468D02*
X15026Y94529D01*
X11980Y3505D02*
X12494Y3387D01*
X13552Y3155D02*
X14094Y3041D01*
X14645Y2929D02*
X15204Y2819D01*
X15773Y2710D02*
X16349Y2604D01*
X16934Y2499D01*
X30158Y107632D02*
X30199Y107959D01*
X30298Y108610D02*
X30354Y108935D01*
X30415Y109258D02*
X30482Y109581D01*
X21896Y1729D02*
X22549Y1642D01*
X32039Y114239D02*
X32180Y114534D01*
X32627Y115405D02*
X32785Y115690D01*
X27301Y1090D02*
X28003Y1020D01*
X28711Y952D01*
X32785Y115690D02*
X32947Y115972D01*
X35638Y119614D02*
X35858Y119849D01*
X37742Y121593D02*
X37992Y121793D01*
X39861Y208D02*
X40631Y177D01*
X41403Y149D02*
X42178Y123D01*
X40920Y123711D02*
X41201Y123859D01*
X45944Y125564D02*
X46252Y125628D01*
X794Y84185D02*
X884Y84411D01*
X1291Y85302D02*
X1405Y85522D01*
X354Y82811D02*
X415Y83042D01*
X158Y81880D02*
X200Y82114D01*
X2180Y86810D02*
X2325Y87019D01*
X2474Y87226D02*
X2627Y87432D01*
X2947Y87837D02*
X3113Y88037D01*
X99Y9372D02*
X154Y9215D01*
X1039Y7972D02*
X1204Y7819D01*
X7742Y91852D02*
X7992Y91995D01*
X5450Y5460D02*
X5812Y5321D01*
X11484Y93572D02*
X11770Y93671D01*
X8210Y4510D02*
X8646Y4379D01*
X13820Y94266D02*
X14119Y94337D01*
X17182Y94850D02*
X17493Y94882D01*
X12494Y3387D02*
X13018Y3270D01*
X19686Y94998D02*
X20000Y95000D01*
X16934Y2499D02*
X17528Y2396D01*
X18129Y2295D01*
X23209Y1557D02*
X23875Y1474D01*
X31291Y112423D02*
X31405Y112731D01*
X24548Y1393D02*
X25227Y1314D01*
X31904Y113941D02*
X32039Y114239D01*
X26604Y1162D02*
X27301Y1090D01*
X33113Y116252D02*
X33284Y116530D01*
X33637Y117075D02*
X33820Y117344D01*
X34006Y117609D01*
X35858Y119849D02*
X36082Y120081D01*
X36309Y120308D02*
X36540Y120532D01*
X38244Y121989D02*
X38500Y122181D01*
X38328Y276D02*
X39093Y241D01*
X40091Y123241D02*
X40365Y123402D01*
X40641Y123559D01*
X41201Y123859D02*
X41484Y124001D01*
X43733Y79D02*
X44513Y60D01*
X45331Y125420D02*
X45637Y125494D01*
X47493Y125834D02*
X47805Y125873D01*
X48118Y125907D02*
X48431Y125935D01*
X49686Y125997D02*
X50000Y126000D01*
D61*
X294883Y174500D02*
D03*
X345683D02*
D03*
D63*
X336500Y105950D02*
D03*
Y19550D02*
D03*
D64*
X302500Y92500D02*
D03*
Y33000D02*
D03*
X289000D02*
D03*
Y92500D02*
D03*
D65*
X294000Y105950D02*
D03*
Y19550D02*
D03*
D66*
X238000Y88800D02*
D03*
Y63400D02*
D03*
Y50700D02*
D03*
D69*
X52900Y28370D02*
X61063Y20208D01*
X67958D01*
X52773Y88752D02*
Y110895D01*
Y88752D02*
X52848Y88677D01*
X52667Y111001D02*
X52773Y110895D01*
D70*
X112485Y152000D02*
X115985D01*
X78250Y186235D02*
X112485Y152000D01*
X137782Y118609D02*
X143250D01*
X143267Y118626D01*
X119409Y119561D02*
X136830D01*
X137782Y118609D01*
X115204Y114704D02*
X116893Y113015D01*
X115204Y115356D02*
X119409Y119561D01*
X115204Y114704D02*
Y115356D01*
D71*
X61947Y88941D02*
X62530Y88358D01*
Y82720D02*
X64478Y80772D01*
X64153Y96785D02*
X95875D01*
X62530Y82720D02*
Y88358D01*
X61947Y88941D02*
Y94579D01*
X64478Y80772D02*
X70188D01*
X95875Y96785D02*
X101026Y101937D01*
X101687D01*
X109000Y109250D01*
X120658Y111007D02*
Y116546D01*
X95978Y113718D02*
X102995Y120735D01*
X95978Y107467D02*
Y113718D01*
X82000Y106000D02*
X90448Y114448D01*
X72844Y77378D02*
Y78116D01*
X70188Y80772D02*
X72844Y78116D01*
X126765Y89235D02*
X133263Y82737D01*
X136272Y86500D02*
X138980Y83791D01*
X133263Y82737D02*
X134685D01*
X134825Y86500D02*
X136272D01*
X131000Y90324D02*
X134825Y86500D01*
X109000Y109250D02*
X122416D01*
X120658Y111007D02*
X122416Y109250D01*
X134213D01*
X123196Y105485D02*
X127821Y100860D01*
X134213Y109250D02*
X142463Y101000D01*
X127821Y99503D02*
Y100860D01*
Y99503D02*
X131000Y96325D01*
X61947Y94579D02*
X64153Y96785D01*
X147403Y69273D02*
X154440Y62235D01*
X147403Y69273D02*
Y71000D01*
X169765Y22281D02*
Y30220D01*
X167181Y32804D02*
Y45639D01*
X161000Y51821D02*
X167181Y45639D01*
Y32804D02*
X169765Y30220D01*
X161000Y51821D02*
Y57727D01*
X142850Y84150D02*
Y95150D01*
X126765Y89235D02*
Y94795D01*
X138980Y80000D02*
Y83791D01*
X123310Y98250D02*
X123310D01*
X126765Y94795D01*
X121645Y99915D02*
X123310Y98250D01*
X142463Y101000D02*
X154325D01*
X131000Y90324D02*
Y96325D01*
X134765Y103235D02*
X142850Y95150D01*
X156492Y62235D02*
X161000Y57727D01*
X154440Y62235D02*
X156492D01*
X151042Y95000D02*
X154144D01*
X161450Y78756D02*
X163955Y76251D01*
X158705Y91768D02*
Y96620D01*
X159244Y78756D02*
X161450D01*
X156425Y81575D02*
X159244Y78756D01*
X156425Y89488D02*
X158705Y91768D01*
X156425Y81575D02*
Y89488D01*
X147024Y74991D02*
X159891D01*
X160190Y74691D01*
X154325Y101000D02*
X158705Y96620D01*
X146614Y90573D02*
X151042Y95000D01*
X163955Y71955D02*
Y76251D01*
X158000Y66000D02*
X163955Y71955D01*
X142850Y84150D02*
X143000Y84000D01*
X56000Y73000D02*
X73015Y55985D01*
X62932Y56375D02*
X65800D01*
X74176Y48000D02*
X75500D01*
X65800Y56375D02*
X74176Y48000D01*
X56000Y73000D02*
Y75000D01*
X156000Y66000D02*
X158000D01*
D74*
X94402Y14753D02*
D03*
D80*
X78500Y18250D02*
D03*
D83*
X92750Y17750D02*
D03*
D85*
X65625Y14750D02*
D03*
D86*
X117947Y19530D02*
D03*
X52900Y28370D02*
D03*
X73920Y71208D02*
D03*
X111002Y82088D02*
D03*
X112280Y78547D02*
D03*
X104633Y91485D02*
D03*
X127235Y62488D02*
D03*
X151235Y17750D02*
D03*
Y12827D02*
D03*
X150436Y8318D02*
D03*
X133384Y38365D02*
D03*
X96617Y33945D02*
D03*
X115985Y152000D02*
D03*
X120658Y116546D02*
D03*
X95978Y107467D02*
D03*
X143267Y118626D02*
D03*
X90448Y114448D02*
D03*
X102995Y120735D02*
D03*
X76735Y86630D02*
D03*
X143870Y17657D02*
D03*
X100035Y27285D02*
D03*
X59455Y106545D02*
D03*
X95347Y68485D02*
D03*
X115353Y42906D02*
D03*
X168500Y50500D02*
D03*
X113750Y20060D02*
D03*
X120708Y100500D02*
D03*
X134685Y82737D02*
D03*
X132144Y17695D02*
D03*
X85663Y57926D02*
D03*
X89344Y68127D02*
D03*
X93000Y62285D02*
D03*
X52848Y88677D02*
D03*
X72844Y77378D02*
D03*
X78250Y186235D02*
D03*
X129323Y42365D02*
D03*
X140000Y37797D02*
D03*
X161250Y120250D02*
D03*
X116893Y113015D02*
D03*
X123196Y105485D02*
D03*
X71768Y65965D02*
D03*
X161558Y17632D02*
D03*
X161483Y7089D02*
D03*
X65712Y93020D02*
D03*
X95174Y75098D02*
D03*
X79299Y62299D02*
D03*
X96000Y87221D02*
D03*
X107520Y87500D02*
D03*
X92859Y80258D02*
D03*
X107265Y62000D02*
D03*
X124367Y47578D02*
D03*
X133056Y9414D02*
D03*
X157731Y7398D02*
D03*
X149114Y3500D02*
D03*
X141839Y49464D02*
D03*
X138250Y54000D02*
D03*
X144500Y7500D02*
D03*
X126979Y79056D02*
D03*
X126765Y14730D02*
D03*
X157719Y13017D02*
D03*
X152086Y21765D02*
D03*
X146146Y37797D02*
D03*
X150323Y38248D02*
D03*
X145250Y43327D02*
D03*
X169765Y22281D02*
D03*
X161000Y42000D02*
D03*
X170287Y54126D02*
D03*
X152568Y30825D02*
D03*
X154141Y34246D02*
D03*
X127000Y6235D02*
D03*
X126038Y44204D02*
D03*
X144621Y12484D02*
D03*
X132750Y5038D02*
D03*
X131437Y59705D02*
D03*
X137769Y63868D02*
D03*
X131224Y74671D02*
D03*
X135001Y78983D02*
D03*
X125531Y74017D02*
D03*
X135000Y75000D02*
D03*
X135093Y70996D02*
D03*
X134765Y103235D02*
D03*
X85110Y33618D02*
D03*
X122743Y6891D02*
D03*
X96235Y58792D02*
D03*
X103795Y47705D02*
D03*
X82207Y51723D02*
D03*
X89527Y37225D02*
D03*
X109742Y37837D02*
D03*
X103799Y37201D02*
D03*
X107299Y40701D02*
D03*
X153984Y51150D02*
D03*
X172773Y45626D02*
D03*
X96250Y7235D02*
D03*
X154144Y95000D02*
D03*
X249000Y11000D02*
D03*
X232000D02*
D03*
X215000D02*
D03*
X249000Y23000D02*
D03*
X232000D02*
D03*
X215000D02*
D03*
X76985Y111001D02*
D03*
X160190Y74691D02*
D03*
X77000Y106000D02*
D03*
X82000D02*
D03*
X96265Y19781D02*
D03*
X131000Y90324D02*
D03*
X102381Y9912D02*
D03*
X146614Y90573D02*
D03*
X147403Y71000D02*
D03*
X147024Y74991D02*
D03*
X143000Y83000D02*
D03*
X52667Y111001D02*
D03*
X138980Y79000D02*
D03*
X73015Y55985D02*
D03*
X75500Y48000D02*
D03*
X67555Y49296D02*
D03*
X56000Y75000D02*
D03*
X54498Y117811D02*
D03*
X204000Y43000D02*
D03*
X75019Y40975D02*
D03*
X96145Y13259D02*
D03*
X78378Y14570D02*
D03*
X62012D02*
D03*
X66360D02*
D03*
X71608D02*
D03*
X57230D02*
D03*
X75500Y30500D02*
D03*
X69000Y34000D02*
D03*
X89799Y58799D02*
D03*
X69000Y30000D02*
D03*
X62932Y56375D02*
D03*
X79285Y44530D02*
D03*
X55000Y48062D02*
D03*
X67958Y20208D02*
D03*
X53000Y20750D02*
D03*
X69000Y40000D02*
D03*
X55000Y36139D02*
D03*
X156000Y66000D02*
D03*
X78378Y20070D02*
D03*
X52378Y14570D02*
D03*
D87*
X95500Y10500D02*
D03*
M02*
