G04*
G04 #@! TF.GenerationSoftware,Altium Limited,Altium Designer,23.10.1 (27)*
G04*
G04 Layer_Physical_Order=6*
G04 Layer_Color=16711680*
%FSLAX44Y44*%
%MOMM*%
G71*
G04*
G04 #@! TF.SameCoordinates,75C69956-F49F-4592-A11B-EFE5AB9CB6E8*
G04*
G04*
G04 #@! TF.FilePolarity,Positive*
G04*
G01*
G75*
%ADD11C,0.2000*%
%ADD13C,0.1000*%
%ADD16C,0.0500*%
%ADD61C,2.0000*%
G04:AMPARAMS|DCode=62|XSize=2mm|YSize=2mm|CornerRadius=0.5mm|HoleSize=0mm|Usage=FLASHONLY|Rotation=90.000|XOffset=0mm|YOffset=0mm|HoleType=Round|Shape=RoundedRectangle|*
%AMROUNDEDRECTD62*
21,1,2.0000,1.0000,0,0,90.0*
21,1,1.0000,2.0000,0,0,90.0*
1,1,1.0000,0.5000,0.5000*
1,1,1.0000,0.5000,-0.5000*
1,1,1.0000,-0.5000,-0.5000*
1,1,1.0000,-0.5000,0.5000*
%
%ADD62ROUNDEDRECTD62*%
%ADD63O,2.5000X1.3000*%
%ADD64C,0.7000*%
%ADD65O,3.2000X1.3000*%
%ADD66C,0.9000*%
G04:AMPARAMS|DCode=67|XSize=0.9mm|YSize=0.9mm|CornerRadius=0.225mm|HoleSize=0mm|Usage=FLASHONLY|Rotation=180.000|XOffset=0mm|YOffset=0mm|HoleType=Round|Shape=RoundedRectangle|*
%AMROUNDEDRECTD67*
21,1,0.9000,0.4500,0,0,180.0*
21,1,0.4500,0.9000,0,0,180.0*
1,1,0.4500,-0.2250,0.2250*
1,1,0.4500,0.2250,0.2250*
1,1,0.4500,0.2250,-0.2250*
1,1,0.4500,-0.2250,-0.2250*
%
%ADD67ROUNDEDRECTD67*%
%ADD69C,0.1800*%
%ADD70C,0.1500*%
%ADD71C,0.3000*%
%ADD72C,0.1499*%
%ADD73C,0.2200*%
%ADD86C,0.3000*%
G04:AMPARAMS|DCode=88|XSize=0.9mm|YSize=0.9mm|CornerRadius=0.225mm|HoleSize=0mm|Usage=FLASHONLY|Rotation=90.000|XOffset=0mm|YOffset=0mm|HoleType=Round|Shape=RoundedRectangle|*
%AMROUNDEDRECTD88*
21,1,0.9000,0.4500,0,0,90.0*
21,1,0.4500,0.9000,0,0,90.0*
1,1,0.4500,0.2250,0.2250*
1,1,0.4500,0.2250,-0.2250*
1,1,0.4500,-0.2250,-0.2250*
1,1,0.4500,-0.2250,0.2250*
%
%ADD88ROUNDEDRECTD88*%
%ADD89R,0.6500X0.3500*%
%ADD90R,1.0350X0.2200*%
G36*
X77315Y185062D02*
X77198Y185142D01*
X77059Y185214D01*
X76897Y185278D01*
X76714Y185333D01*
X76509Y185379D01*
X76281Y185417D01*
X75760Y185468D01*
X75467Y185481D01*
X75151Y185485D01*
Y186985D01*
X75467Y186989D01*
X76281Y187053D01*
X76509Y187091D01*
X76714Y187137D01*
X76897Y187192D01*
X77059Y187256D01*
X77198Y187328D01*
X77315Y187408D01*
Y185062D01*
D02*
G37*
G36*
X85094Y184523D02*
X84911Y184508D01*
X84724Y184471D01*
X84534Y184414D01*
X84340Y184335D01*
X84142Y184234D01*
X83941Y184113D01*
X83736Y183970D01*
X83528Y183806D01*
X83101Y183414D01*
X82283Y184717D01*
X82516Y184954D01*
X83340Y185883D01*
X83436Y186018D01*
X83509Y186136D01*
X83559Y186238D01*
X83586Y186322D01*
X85094Y184523D01*
D02*
G37*
G36*
X82059Y182371D02*
X80990Y181325D01*
X80086Y182523D01*
X81148Y183582D01*
X82059Y182371D01*
D02*
G37*
G36*
X263250Y176207D02*
X264423Y176063D01*
X265970Y176000D01*
Y173000D01*
X264423Y172937D01*
X263250Y172794D01*
Y166680D01*
X261666Y167881D01*
X258511Y169903D01*
X256939Y170725D01*
X256783Y170794D01*
X256627Y170725D01*
X255055Y169903D01*
X253479Y168955D01*
X251900Y167881D01*
X250316Y166680D01*
Y172794D01*
X249143Y172937D01*
X247596Y173000D01*
Y176000D01*
X249143Y176063D01*
X250316Y176207D01*
Y182320D01*
X251900Y181119D01*
X255055Y179097D01*
X256627Y178275D01*
X256783Y178206D01*
X256939Y178275D01*
X258511Y179097D01*
X260087Y180045D01*
X261666Y181119D01*
X263250Y182320D01*
Y176207D01*
D02*
G37*
G36*
X43733Y171783D02*
X43796Y170969D01*
X43835Y170741D01*
X43881Y170536D01*
X43936Y170353D01*
X43999Y170191D01*
X44071Y170052D01*
X44152Y169935D01*
X41806D01*
X41886Y170052D01*
X41958Y170191D01*
X42021Y170353D01*
X42076Y170536D01*
X42123Y170741D01*
X42161Y170969D01*
X42212Y171490D01*
X42224Y171783D01*
X42229Y172099D01*
X43729D01*
X43733Y171783D01*
D02*
G37*
G36*
X111815Y164077D02*
X111698Y164157D01*
X111559Y164229D01*
X111397Y164293D01*
X111214Y164348D01*
X111009Y164394D01*
X110781Y164432D01*
X110260Y164483D01*
X109967Y164496D01*
X109651Y164500D01*
Y166000D01*
X109967Y166004D01*
X110781Y166068D01*
X111009Y166106D01*
X111214Y166152D01*
X111397Y166207D01*
X111559Y166271D01*
X111698Y166343D01*
X111815Y166423D01*
Y164077D01*
D02*
G37*
G36*
X326549Y166706D02*
X324830Y165259D01*
X321934Y162408D01*
X320758Y161005D01*
X319762Y159616D01*
X318948Y158242D01*
X318314Y156883D01*
X317862Y155539D01*
X317591Y154210D01*
X317500Y152895D01*
X314500Y153464D01*
X314468Y155482D01*
X313997Y161050D01*
X313713Y162745D01*
X312958Y165889D01*
X312486Y167340D01*
X311952Y168709D01*
X311354Y169998D01*
X326549Y166706D01*
D02*
G37*
G36*
X73816Y153477D02*
X73879Y152662D01*
X73917Y152435D01*
X73964Y152229D01*
X74019Y152046D01*
X74082Y151885D01*
X74154Y151746D01*
X74234Y151629D01*
X71888D01*
X71969Y151746D01*
X72041Y151885D01*
X72104Y152046D01*
X72159Y152229D01*
X72206Y152435D01*
X72244Y152662D01*
X72295Y153183D01*
X72307Y153477D01*
X72312Y153793D01*
X73811D01*
X73816Y153477D01*
D02*
G37*
G36*
X317500Y138000D02*
X314500Y134379D01*
X314479Y134970D01*
X314415Y135543D01*
X314309Y136100D01*
X314161Y136638D01*
X313970Y137159D01*
X313736Y137662D01*
X313461Y138148D01*
X313142Y138616D01*
X312782Y139067D01*
X312379Y139500D01*
Y143743D01*
X312782Y143370D01*
X313142Y143099D01*
X313461Y142931D01*
X313736Y142865D01*
X313970Y142902D01*
X314161Y143041D01*
X314309Y143282D01*
X314415Y143626D01*
X314479Y144073D01*
X314500Y144621D01*
X317500Y138000D01*
D02*
G37*
G36*
X75160Y118985D02*
X75299Y118913D01*
X75460Y118850D01*
X75644Y118795D01*
X75849Y118748D01*
X76076Y118710D01*
X76597Y118659D01*
X76891Y118647D01*
X77207Y118642D01*
Y117142D01*
X76891Y117138D01*
X76076Y117075D01*
X75849Y117037D01*
X75644Y116990D01*
X75460Y116935D01*
X75299Y116872D01*
X75160Y116800D01*
X75043Y116719D01*
Y119065D01*
X75160Y118985D01*
D02*
G37*
G36*
X62189Y111805D02*
X62046Y111930D01*
X61886Y112042D01*
X61709Y112140D01*
X61515Y112225D01*
X61304Y112297D01*
X61076Y112357D01*
X60832Y112402D01*
X60570Y112435D01*
X60291Y112455D01*
X59995Y112461D01*
X60398Y113961D01*
X60733Y113963D01*
X62126Y114050D01*
X62256Y114077D01*
X62356Y114108D01*
X62427Y114142D01*
X62189Y111805D01*
D02*
G37*
G36*
X167760Y107866D02*
X168381Y107335D01*
X168569Y107201D01*
X168747Y107089D01*
X168916Y106998D01*
X169075Y106929D01*
X169224Y106881D01*
X169364Y106855D01*
X167705Y105196D01*
X167679Y105336D01*
X167631Y105486D01*
X167562Y105645D01*
X167472Y105813D01*
X167359Y105992D01*
X167225Y106179D01*
X166893Y106584D01*
X166694Y106800D01*
X166474Y107026D01*
X167534Y108086D01*
X167760Y107866D01*
D02*
G37*
G36*
X160994Y104897D02*
X159086Y104221D01*
X159118Y104306D01*
X159129Y104400D01*
X159120Y104503D01*
X159089Y104615D01*
X159036Y104735D01*
X158963Y104864D01*
X158868Y105002D01*
X158753Y105149D01*
X158616Y105304D01*
X158458Y105469D01*
X159518Y106528D01*
X160994Y104897D01*
D02*
G37*
G36*
X64610Y105045D02*
X64796Y104931D01*
X64995Y104830D01*
X65205Y104742D01*
X65427Y104668D01*
X65661Y104608D01*
X65906Y104561D01*
X66164Y104527D01*
X66433Y104507D01*
X66714Y104500D01*
Y103500D01*
X66433Y103493D01*
X65906Y103439D01*
X65661Y103392D01*
X65427Y103332D01*
X65205Y103258D01*
X64995Y103170D01*
X64796Y103069D01*
X64610Y102955D01*
X64435Y102827D01*
Y105173D01*
X64610Y105045D01*
D02*
G37*
G36*
X137697Y99815D02*
X137345Y97490D01*
X137255Y97568D01*
X137140Y97638D01*
X136998Y97699D01*
X136830Y97752D01*
X136636Y97797D01*
X136415Y97834D01*
X135897Y97884D01*
X135598Y97896D01*
X135273Y97900D01*
X135223Y100100D01*
X137697Y99815D01*
D02*
G37*
G36*
X57198Y90561D02*
X57202Y90261D01*
X57240Y89712D01*
X57273Y89461D01*
X57368Y89010D01*
X57429Y88809D01*
X57500Y88624D01*
X57581Y88456D01*
X57671Y88304D01*
X55325Y88508D01*
X55491Y88697D01*
X55639Y88892D01*
X55770Y89094D01*
X55884Y89303D01*
X55980Y89519D01*
X56058Y89741D01*
X56119Y89970D01*
X56163Y90206D01*
X56189Y90448D01*
X56198Y90698D01*
X57198Y90561D01*
D02*
G37*
G36*
X138503Y90269D02*
X138548Y90158D01*
X138616Y90032D01*
X138708Y89890D01*
X138823Y89733D01*
X139123Y89371D01*
X139517Y88946D01*
X139748Y88710D01*
X138476Y87438D01*
X138240Y87669D01*
X137453Y88363D01*
X137296Y88478D01*
X137154Y88570D01*
X137028Y88638D01*
X136917Y88683D01*
X136822Y88705D01*
X138481Y90364D01*
X138503Y90269D01*
D02*
G37*
G36*
X207241Y89274D02*
X207394Y89170D01*
X207560Y89079D01*
X207738Y89000D01*
X207929Y88933D01*
X208132Y88878D01*
X208348Y88835D01*
X208577Y88804D01*
X208818Y88786D01*
X209071Y88780D01*
Y87780D01*
X208818Y87774D01*
X208348Y87725D01*
X208132Y87682D01*
X207929Y87627D01*
X207738Y87560D01*
X207560Y87481D01*
X207394Y87390D01*
X207241Y87286D01*
X207100Y87170D01*
Y89390D01*
X207241Y89274D01*
D02*
G37*
G36*
X71339Y89539D02*
X71954Y89008D01*
X72143Y88869D01*
X72497Y88649D01*
X72662Y88567D01*
X72820Y88504D01*
X72969Y88460D01*
X71125Y87004D01*
X71117Y87266D01*
X71090Y87518D01*
X71045Y87763D01*
X70981Y88000D01*
X70899Y88228D01*
X70798Y88448D01*
X70679Y88660D01*
X70542Y88864D01*
X70386Y89060D01*
X70212Y89247D01*
X71119Y89754D01*
X71339Y89539D01*
D02*
G37*
G36*
X169741Y88038D02*
X169660Y87930D01*
X169587Y87805D01*
X169525Y87663D01*
X169473Y87505D01*
X169429Y87329D01*
X169396Y87137D01*
X169372Y86928D01*
X169353Y86459D01*
X168558D01*
X169083Y85982D01*
X168377Y85275D01*
X167636Y85947D01*
X168342Y86655D01*
X168349Y86649D01*
X168348Y86702D01*
X168309Y87137D01*
X168276Y87329D01*
X168233Y87505D01*
X168180Y87663D01*
X168118Y87805D01*
X168046Y87930D01*
X167964Y88038D01*
X167873Y88129D01*
X169832D01*
X169741Y88038D01*
D02*
G37*
G36*
X300319Y81263D02*
X299987Y81498D01*
X299615Y81708D01*
X299200Y81894D01*
X298745Y82055D01*
X298247Y82191D01*
X297708Y82302D01*
X297128Y82389D01*
X295843Y82488D01*
X295750Y82489D01*
X295657Y82488D01*
X294372Y82389D01*
X293792Y82302D01*
X293253Y82191D01*
X292755Y82055D01*
X292300Y81894D01*
X291885Y81708D01*
X291513Y81498D01*
X291182Y81263D01*
Y86737D01*
X291513Y86502D01*
X291885Y86292D01*
X292300Y86106D01*
X292755Y85945D01*
X293253Y85809D01*
X293792Y85698D01*
X294372Y85611D01*
X295657Y85512D01*
X295750Y85511D01*
X295843Y85512D01*
X297128Y85611D01*
X297708Y85698D01*
X298247Y85809D01*
X298745Y85945D01*
X299200Y86106D01*
X299615Y86292D01*
X299987Y86502D01*
X300319Y86737D01*
Y81263D01*
D02*
G37*
G36*
X222495Y85281D02*
X221743Y85855D01*
X220268Y86821D01*
X219546Y87213D01*
X218834Y87545D01*
X218133Y87817D01*
X217441Y88028D01*
X216760Y88179D01*
X216089Y88270D01*
X215428Y88300D01*
Y89300D01*
X216089Y89330D01*
X216760Y89421D01*
X217441Y89572D01*
X218133Y89783D01*
X218834Y90055D01*
X219546Y90387D01*
X220268Y90779D01*
X221000Y91232D01*
X222495Y92319D01*
Y85281D01*
D02*
G37*
G36*
X317500Y78000D02*
X314500Y74379D01*
X314479Y74970D01*
X314415Y75543D01*
X314309Y76100D01*
X314161Y76638D01*
X313970Y77159D01*
X313736Y77662D01*
X313461Y78148D01*
X313142Y78616D01*
X312782Y79067D01*
X312379Y79500D01*
Y83743D01*
X312782Y83370D01*
X313142Y83099D01*
X313461Y82931D01*
X313736Y82865D01*
X313970Y82902D01*
X314161Y83041D01*
X314309Y83282D01*
X314415Y83626D01*
X314479Y84073D01*
X314500Y84621D01*
X317500Y78000D01*
D02*
G37*
G36*
X163763Y82672D02*
X163821Y82628D01*
X163897Y82589D01*
X163991Y82556D01*
X164104Y82527D01*
X164235Y82504D01*
X164384Y82486D01*
X164737Y82465D01*
X164941Y82463D01*
Y81463D01*
X164737Y81460D01*
X164235Y81421D01*
X164104Y81398D01*
X163991Y81370D01*
X163897Y81336D01*
X163821Y81297D01*
X163763Y81253D01*
X163724Y81204D01*
Y82721D01*
X163763Y82672D01*
D02*
G37*
G36*
X305221Y86288D02*
X305622Y86018D01*
X306057Y85779D01*
X306526Y85573D01*
X307029Y85398D01*
X307566Y85254D01*
X308137Y85143D01*
X308742Y85064D01*
X309381Y85016D01*
X310054Y85000D01*
X309572Y82000D01*
X308834Y81991D01*
X306928Y81860D01*
X306395Y81781D01*
X305482Y81572D01*
X305103Y81440D01*
X304774Y81292D01*
X304497Y81126D01*
X304854Y86590D01*
X305221Y86288D01*
D02*
G37*
G36*
X138045Y77827D02*
X137982Y77860D01*
X137881Y77889D01*
X137741Y77915D01*
X137562Y77938D01*
X136795Y77984D01*
X135680Y78000D01*
Y80000D01*
X136090Y80002D01*
X137881Y80111D01*
X137982Y80140D01*
X138045Y80173D01*
X138045Y77827D01*
D02*
G37*
G36*
X92114Y69483D02*
X91876Y69243D01*
X90962Y68211D01*
X90895Y68107D01*
X90852Y68023D01*
X90834Y67958D01*
X89175Y69617D01*
X89240Y69635D01*
X89324Y69678D01*
X89428Y69745D01*
X89551Y69837D01*
X89856Y70093D01*
X90460Y70659D01*
X90700Y70897D01*
X92114Y69483D01*
D02*
G37*
G36*
X138112Y69275D02*
X138127Y69244D01*
X138155Y69201D01*
X138196Y69147D01*
X138318Y69005D01*
X138719Y68589D01*
X138012Y67881D01*
X137901Y67991D01*
X137444Y68389D01*
X137403Y68412D01*
X137372Y68422D01*
X137351Y68420D01*
X138111Y69296D01*
X138112Y69275D01*
D02*
G37*
G36*
X171760Y70016D02*
X171788Y69769D01*
X171836Y69529D01*
X171904Y69296D01*
X171990Y69070D01*
X172096Y68851D01*
X172220Y68639D01*
X172364Y68434D01*
X172528Y68236D01*
X172710Y68045D01*
X170379Y67749D01*
X170449Y67882D01*
X170512Y68034D01*
X170568Y68206D01*
X170616Y68398D01*
X170657Y68609D01*
X170717Y69092D01*
X170735Y69362D01*
X170750Y69963D01*
X171750Y70269D01*
X171760Y70016D01*
D02*
G37*
G36*
X98170Y67077D02*
X97996Y67205D01*
X97809Y67319D01*
X97611Y67420D01*
X97400Y67508D01*
X97178Y67582D01*
X96944Y67642D01*
X96699Y67689D01*
X96441Y67723D01*
X96172Y67743D01*
X95891Y67750D01*
Y68750D01*
X96172Y68757D01*
X96699Y68811D01*
X96944Y68858D01*
X97178Y68918D01*
X97400Y68992D01*
X97611Y69080D01*
X97809Y69181D01*
X97996Y69295D01*
X98170Y69423D01*
Y67077D01*
D02*
G37*
G36*
X137800Y67045D02*
X137986Y66931D01*
X138185Y66830D01*
X138395Y66742D01*
X138617Y66668D01*
X138851Y66608D01*
X139096Y66561D01*
X139354Y66527D01*
X139623Y66507D01*
X139904Y66500D01*
Y65500D01*
X139623Y65493D01*
X139096Y65439D01*
X138851Y65392D01*
X138617Y65332D01*
X138395Y65258D01*
X138185Y65170D01*
X137986Y65069D01*
X137800Y64955D01*
X137625Y64827D01*
Y67173D01*
X137800Y67045D01*
D02*
G37*
G36*
X256989Y66625D02*
X257104Y66541D01*
X257241Y66466D01*
X257398Y66402D01*
X257575Y66347D01*
X257774Y66302D01*
X257994Y66268D01*
X258234Y66243D01*
X258777Y66223D01*
X258644Y64724D01*
X258315Y64722D01*
X257070Y64638D01*
X256901Y64607D01*
X256759Y64571D01*
X256644Y64530D01*
X256555Y64485D01*
X256894Y66720D01*
X256989Y66625D01*
D02*
G37*
G36*
X292567Y66770D02*
X292690Y66169D01*
X292848Y65589D01*
X293040Y65032D01*
X293267Y64496D01*
X293528Y63982D01*
X293824Y63489D01*
X294154Y63019D01*
X294518Y62570D01*
X294917Y62143D01*
X293857Y61083D01*
X293430Y61482D01*
X292981Y61846D01*
X292511Y62176D01*
X292018Y62472D01*
X291504Y62733D01*
X290968Y62960D01*
X290411Y63152D01*
X289831Y63310D01*
X289230Y63433D01*
X288607Y63522D01*
X292478Y67393D01*
X292567Y66770D01*
D02*
G37*
G36*
X286159Y62323D02*
X286707Y61856D01*
X286861Y61752D01*
X286999Y61674D01*
X287123Y61621D01*
X287232Y61593D01*
X287326Y61592D01*
X287406Y61616D01*
X285832Y59989D01*
X285854Y60069D01*
X285849Y60165D01*
X285819Y60275D01*
X285763Y60401D01*
X285682Y60541D01*
X285574Y60697D01*
X285441Y60868D01*
X285097Y61254D01*
X284887Y61470D01*
X285947Y62530D01*
X286159Y62323D01*
D02*
G37*
G36*
X257070Y62068D02*
X257211Y61995D01*
X257375Y61930D01*
X257559Y61874D01*
X257766Y61827D01*
X257994Y61789D01*
X258515Y61737D01*
X258807Y61724D01*
X259122Y61720D01*
Y60221D01*
X258807Y60217D01*
X257994Y60152D01*
X257766Y60114D01*
X257559Y60066D01*
X257375Y60010D01*
X257211Y59946D01*
X257070Y59873D01*
X256950Y59791D01*
Y62149D01*
X257070Y62068D01*
D02*
G37*
G36*
X225197Y58901D02*
X224139Y58905D01*
X222233Y58787D01*
X221384Y58665D01*
X220606Y58501D01*
X219897Y58295D01*
X219258Y58048D01*
X218689Y57758D01*
X218189Y57426D01*
X217760Y57052D01*
X217275Y57983D01*
X217792Y58528D01*
X218276Y59098D01*
X218726Y59692D01*
X219142Y60310D01*
X219526Y60952D01*
X219876Y61618D01*
X220193Y62308D01*
X220476Y63023D01*
X220943Y64525D01*
X225197Y58901D01*
D02*
G37*
G36*
X299164Y57442D02*
X299079Y57643D01*
X298960Y57822D01*
X298806Y57981D01*
X298617Y58118D01*
X298393Y58235D01*
X298134Y58330D01*
X297841Y58404D01*
X297513Y58457D01*
X297150Y58488D01*
X296752Y58499D01*
Y59998D01*
X297212Y60006D01*
X298035Y60075D01*
X298399Y60135D01*
X298731Y60212D01*
X299031Y60306D01*
X299299Y60418D01*
X299535Y60546D01*
X299739Y60692D01*
X299911Y60855D01*
X299164Y57442D01*
D02*
G37*
G36*
X145961Y57354D02*
X144397Y55806D01*
X144166Y56031D01*
X143543Y56560D01*
X143359Y56688D01*
X143187Y56791D01*
X143026Y56870D01*
X142877Y56925D01*
X142740Y56956D01*
X142615Y56962D01*
X143981Y58878D01*
X145961Y57354D01*
D02*
G37*
G36*
X141284Y56432D02*
X141695Y56098D01*
X141902Y55958D01*
X142110Y55835D01*
X142319Y55730D01*
X142530Y55644D01*
X142741Y55575D01*
X142954Y55524D01*
X143168Y55490D01*
X141510Y53832D01*
X141476Y54046D01*
X141425Y54258D01*
X141356Y54470D01*
X141270Y54681D01*
X141165Y54890D01*
X141042Y55098D01*
X140902Y55305D01*
X140744Y55511D01*
X140568Y55716D01*
X140374Y55919D01*
X141081Y56626D01*
X141284Y56432D01*
D02*
G37*
G36*
X122358Y55747D02*
X122499Y55695D01*
X122662Y55649D01*
X122846Y55610D01*
X123282Y55549D01*
X123533Y55528D01*
X124418Y55500D01*
X124800Y54500D01*
X124552Y54490D01*
X124310Y54459D01*
X124074Y54408D01*
X123845Y54337D01*
X123622Y54245D01*
X123405Y54133D01*
X123195Y54001D01*
X122991Y53848D01*
X122793Y53675D01*
X122601Y53481D01*
X122240Y55805D01*
X122358Y55747D01*
D02*
G37*
G36*
X137104Y53032D02*
X137079Y53049D01*
X137034Y53063D01*
X136969Y53076D01*
X136883Y53087D01*
X136651Y53104D01*
X135942Y53117D01*
Y54117D01*
X136095Y54119D01*
X136461Y54143D01*
X136552Y54157D01*
X136628Y54174D01*
X136688Y54195D01*
X136733Y54219D01*
X136762Y54246D01*
X136776Y54276D01*
X137104Y53032D01*
D02*
G37*
G36*
X135102Y52070D02*
X134395Y51363D01*
X133687Y52070D01*
X134395Y52777D01*
X135102Y52070D01*
D02*
G37*
G36*
X146894Y51957D02*
X147077Y51850D01*
X147274Y51755D01*
X147482Y51672D01*
X147704Y51603D01*
X147938Y51546D01*
X148185Y51501D01*
X148444Y51470D01*
X149002Y51445D01*
X149041Y50444D01*
X148764Y50437D01*
X148497Y50416D01*
X148242Y50380D01*
X147998Y50331D01*
X147764Y50266D01*
X147542Y50188D01*
X147331Y50095D01*
X147130Y49988D01*
X146941Y49867D01*
X146763Y49732D01*
X146723Y52077D01*
X146894Y51957D01*
D02*
G37*
G36*
X222508Y47171D02*
X221756Y47739D01*
X220282Y48697D01*
X219560Y49086D01*
X218847Y49415D01*
X218145Y49685D01*
X217452Y49894D01*
X216769Y50044D01*
X216096Y50134D01*
X215432Y50163D01*
X215424Y51163D01*
X216082Y51194D01*
X216751Y51285D01*
X217431Y51438D01*
X218121Y51651D01*
X218822Y51925D01*
X219533Y52260D01*
X220254Y52656D01*
X220987Y53112D01*
X222482Y54209D01*
X222508Y47171D01*
D02*
G37*
G36*
X173500Y48738D02*
X173505Y48442D01*
X173546Y47895D01*
X173581Y47645D01*
X173683Y47193D01*
X173749Y46991D01*
X173825Y46804D01*
X173912Y46633D01*
X174009Y46477D01*
X171667Y46639D01*
X171825Y46825D01*
X171967Y47021D01*
X172092Y47225D01*
X172200Y47438D01*
X172292Y47660D01*
X172367Y47890D01*
X172425Y48130D01*
X172467Y48378D01*
X172492Y48635D01*
X172500Y48901D01*
X173500Y48738D01*
D02*
G37*
G36*
X300319Y38763D02*
X299987Y38998D01*
X299615Y39208D01*
X299200Y39394D01*
X298745Y39555D01*
X298247Y39691D01*
X297708Y39802D01*
X297128Y39889D01*
X295843Y39988D01*
X295750Y39989D01*
X295657Y39988D01*
X294372Y39889D01*
X293792Y39802D01*
X293253Y39691D01*
X292755Y39555D01*
X292300Y39394D01*
X291885Y39208D01*
X291513Y38998D01*
X291182Y38763D01*
Y44237D01*
X291513Y44002D01*
X291885Y43792D01*
X292300Y43606D01*
X292755Y43445D01*
X293253Y43309D01*
X293792Y43198D01*
X294372Y43111D01*
X295657Y43012D01*
X295750Y43011D01*
X295843Y43012D01*
X297128Y43111D01*
X297708Y43198D01*
X298247Y43309D01*
X298745Y43445D01*
X299200Y43606D01*
X299615Y43792D01*
X299987Y44002D01*
X300319Y44237D01*
Y38763D01*
D02*
G37*
G36*
X104086Y44219D02*
X104140Y43692D01*
X104187Y43447D01*
X104248Y43213D01*
X104322Y42991D01*
X104409Y42781D01*
X104510Y42582D01*
X104625Y42396D01*
X104753Y42221D01*
X102407D01*
X102535Y42396D01*
X102649Y42582D01*
X102750Y42781D01*
X102837Y42991D01*
X102911Y43213D01*
X102972Y43447D01*
X103019Y43692D01*
X103053Y43950D01*
X103073Y44219D01*
X103080Y44500D01*
X104080D01*
X104086Y44219D01*
D02*
G37*
G36*
X308767Y45645D02*
X308277Y45138D01*
X307438Y44159D01*
X307089Y43688D01*
X306786Y43228D01*
X306531Y42780D01*
X306322Y42344D01*
X306161Y41920D01*
X306046Y41508D01*
X305978Y41107D01*
X302107Y44978D01*
X302507Y45046D01*
X302920Y45161D01*
X303344Y45322D01*
X303780Y45531D01*
X304228Y45786D01*
X304688Y46089D01*
X305159Y46438D01*
X306138Y47277D01*
X306645Y47767D01*
X308767Y45645D01*
D02*
G37*
G36*
X100433Y41760D02*
X100219Y41726D01*
X100007Y41675D01*
X99795Y41606D01*
X99584Y41520D01*
X99375Y41415D01*
X99167Y41292D01*
X98960Y41152D01*
X98754Y40994D01*
X98549Y40818D01*
X98346Y40624D01*
X97639Y41331D01*
X97833Y41534D01*
X98167Y41945D01*
X98307Y42152D01*
X98430Y42360D01*
X98535Y42569D01*
X98621Y42780D01*
X98690Y42991D01*
X98741Y43204D01*
X98774Y43418D01*
X100433Y41760D01*
D02*
G37*
G36*
X170387Y39097D02*
X170364Y39135D01*
X170325Y39170D01*
X170268Y39200D01*
X170195Y39227D01*
X170105Y39249D01*
X169997Y39268D01*
X169873Y39282D01*
X169574Y39298D01*
X169400Y39300D01*
Y40300D01*
X169603Y40302D01*
X170226Y40340D01*
X170334Y40357D01*
X170423Y40378D01*
X170493Y40402D01*
X170544Y40428D01*
X170575Y40458D01*
X170387Y39097D01*
D02*
G37*
G36*
X88604Y40400D02*
X88410Y40196D01*
X88076Y39786D01*
X87935Y39579D01*
X87813Y39371D01*
X87708Y39161D01*
X87621Y38951D01*
X87552Y38739D01*
X87501Y38526D01*
X87468Y38312D01*
X85809Y39971D01*
X86023Y40004D01*
X86236Y40055D01*
X86448Y40124D01*
X86658Y40211D01*
X86868Y40315D01*
X87076Y40438D01*
X87283Y40578D01*
X87489Y40737D01*
X87693Y40913D01*
X87897Y41107D01*
X88604Y40400D01*
D02*
G37*
G36*
X210927Y39249D02*
X211120Y39119D01*
X211322Y39004D01*
X211534Y38905D01*
X211757Y38821D01*
X211989Y38752D01*
X212231Y38698D01*
X212484Y38660D01*
X212746Y38637D01*
X213018Y38629D01*
X212927Y37629D01*
X212637Y37624D01*
X212099Y37577D01*
X211850Y37537D01*
X211616Y37484D01*
X211395Y37421D01*
X211189Y37345D01*
X210996Y37258D01*
X210818Y37160D01*
X210653Y37050D01*
X210745Y39394D01*
X210927Y39249D01*
D02*
G37*
G36*
X207354Y37465D02*
X207179Y37282D01*
X206883Y36919D01*
X206762Y36740D01*
X206659Y36562D01*
X206574Y36385D01*
X206507Y36210D01*
X206457Y36035D01*
X206426Y35862D01*
X206412Y35691D01*
X204872Y37231D01*
X205044Y37244D01*
X205217Y37276D01*
X205392Y37325D01*
X205567Y37392D01*
X205744Y37477D01*
X205922Y37580D01*
X206101Y37701D01*
X206282Y37840D01*
X206463Y37997D01*
X206646Y38172D01*
X207354Y37465D01*
D02*
G37*
G36*
X222450Y34518D02*
X221695Y35109D01*
X220220Y36105D01*
X219500Y36509D01*
X218790Y36851D01*
X218093Y37132D01*
X217406Y37349D01*
X216731Y37505D01*
X216068Y37598D01*
X215415Y37629D01*
X215444Y38629D01*
X216114Y38659D01*
X216792Y38746D01*
X217480Y38893D01*
X218176Y39097D01*
X218881Y39361D01*
X219596Y39683D01*
X220319Y40063D01*
X221051Y40502D01*
X222542Y41555D01*
X222450Y34518D01*
D02*
G37*
G36*
X84024Y36454D02*
X84075Y36242D01*
X84144Y36030D01*
X84230Y35819D01*
X84335Y35610D01*
X84458Y35402D01*
X84598Y35195D01*
X84756Y34989D01*
X84932Y34784D01*
X85126Y34581D01*
X84419Y33874D01*
X84216Y34068D01*
X83805Y34402D01*
X83598Y34542D01*
X83390Y34665D01*
X83181Y34770D01*
X82970Y34856D01*
X82759Y34925D01*
X82546Y34976D01*
X82332Y35010D01*
X83990Y36668D01*
X84024Y36454D01*
D02*
G37*
G36*
X94427Y34525D02*
X94479Y34312D01*
X94548Y34100D01*
X94634Y33890D01*
X94739Y33680D01*
X94861Y33472D01*
X95002Y33265D01*
X95160Y33059D01*
X95336Y32855D01*
X95530Y32651D01*
X94823Y31944D01*
X94620Y32138D01*
X94209Y32472D01*
X94002Y32613D01*
X93794Y32735D01*
X93584Y32840D01*
X93374Y32927D01*
X93162Y32996D01*
X92949Y33047D01*
X92736Y33080D01*
X94394Y34739D01*
X94427Y34525D01*
D02*
G37*
G36*
X154036Y30310D02*
X153996Y30346D01*
X153936Y30379D01*
X153856Y30407D01*
X153757Y30432D01*
X153638Y30453D01*
X153342Y30483D01*
X152967Y30498D01*
X152750Y30500D01*
Y31500D01*
X152932Y31503D01*
X153374Y31541D01*
X153486Y31563D01*
X153582Y31591D01*
X153660Y31624D01*
X153722Y31662D01*
X153765Y31706D01*
X153792Y31754D01*
X154036Y30310D01*
D02*
G37*
G36*
X104674Y31591D02*
X104865Y31467D01*
X105065Y31359D01*
X105277Y31264D01*
X105499Y31184D01*
X105732Y31119D01*
X105976Y31068D01*
X106231Y31032D01*
X106496Y31010D01*
X106772Y31003D01*
X106720Y30003D01*
X106434Y29997D01*
X105900Y29947D01*
X105653Y29904D01*
X105419Y29848D01*
X105198Y29780D01*
X104990Y29699D01*
X104794Y29606D01*
X104612Y29501D01*
X104442Y29383D01*
X104495Y31729D01*
X104674Y31591D01*
D02*
G37*
G36*
X146701Y28079D02*
X146634Y27921D01*
X146574Y27744D01*
X146522Y27549D01*
X146479Y27335D01*
X146415Y26852D01*
X146395Y26582D01*
X146379Y25987D01*
X145379Y25807D01*
X145370Y26043D01*
X145342Y26274D01*
X145294Y26499D01*
X145229Y26720D01*
X145144Y26936D01*
X145040Y27146D01*
X144918Y27352D01*
X144776Y27552D01*
X144616Y27748D01*
X144437Y27938D01*
X146777Y28218D01*
X146701Y28079D01*
D02*
G37*
G36*
X148324Y24070D02*
X147605Y23374D01*
X146898Y24081D01*
X147617Y24777D01*
X148324Y24070D01*
D02*
G37*
G36*
X114251Y22171D02*
X114290Y21537D01*
X114302Y21490D01*
X114315Y21458D01*
X114331Y21443D01*
X113169D01*
X113185Y21458D01*
X113198Y21490D01*
X113210Y21537D01*
X113221Y21602D01*
X113237Y21780D01*
X113249Y22171D01*
X113250Y22334D01*
X114250D01*
X114251Y22171D01*
D02*
G37*
G36*
X254550Y8146D02*
X209550D01*
Y27146D01*
X254550D01*
Y8146D01*
D02*
G37*
G36*
X139909Y7323D02*
X140389Y6898D01*
X140432Y6873D01*
X140464Y6860D01*
X140486Y6860D01*
X139653Y6046D01*
X139654Y6068D01*
X139642Y6100D01*
X139617Y6143D01*
X139579Y6196D01*
X139529Y6259D01*
X139301Y6512D01*
X139085Y6732D01*
X139792Y7439D01*
X139909Y7323D01*
D02*
G37*
G36*
X147398Y5932D02*
X147809Y5598D01*
X148015Y5458D01*
X148224Y5335D01*
X148433Y5230D01*
X148644Y5143D01*
X148855Y5075D01*
X149068Y5024D01*
X149282Y4990D01*
X147623Y3331D01*
X147590Y3546D01*
X147539Y3758D01*
X147470Y3970D01*
X147383Y4181D01*
X147279Y4390D01*
X147156Y4598D01*
X147016Y4805D01*
X146858Y5011D01*
X146681Y5216D01*
X146487Y5419D01*
X147194Y6126D01*
X147398Y5932D01*
D02*
G37*
G36*
X207306Y72615D02*
X207373D01*
X207551Y72582D01*
X207761Y72549D01*
X207983Y72493D01*
X208228Y72416D01*
X208461Y72305D01*
X208472D01*
X208483Y72294D01*
X208516Y72271D01*
X208561Y72249D01*
X208672Y72183D01*
X208816Y72083D01*
X208971Y71961D01*
X209127Y71816D01*
X209282Y71639D01*
X209415Y71450D01*
Y71439D01*
X209426Y71428D01*
X209449Y71395D01*
X209460Y71350D01*
X209515Y71239D01*
X209571Y71095D01*
X209637Y70906D01*
X209682Y70695D01*
X209726Y70462D01*
X209737Y70207D01*
Y70151D01*
X209726Y70096D01*
Y70007D01*
X209715Y69907D01*
X209693Y69796D01*
X209660Y69663D01*
X209626Y69530D01*
X209582Y69374D01*
X209526Y69219D01*
X209460Y69064D01*
X209371Y68897D01*
X209271Y68742D01*
X209160Y68586D01*
X209027Y68431D01*
X208871Y68287D01*
X208860Y68275D01*
X208827Y68253D01*
X208783Y68220D01*
X208705Y68176D01*
X208605Y68109D01*
X208494Y68053D01*
X208350Y67987D01*
X208194Y67920D01*
X208006Y67843D01*
X207795Y67776D01*
X207562Y67720D01*
X207306Y67665D01*
X207018Y67610D01*
X206707Y67576D01*
X206374Y67554D01*
X206019Y67543D01*
X206008D01*
X205997D01*
X205963D01*
X205919D01*
X205808Y67554D01*
X205653D01*
X205475Y67565D01*
X205264Y67587D01*
X205031Y67610D01*
X204776Y67643D01*
X204520Y67687D01*
X204243Y67743D01*
X203976Y67809D01*
X203710Y67887D01*
X203455Y67987D01*
X203211Y68098D01*
X202977Y68220D01*
X202778Y68364D01*
X202766Y68375D01*
X202744Y68398D01*
X202700Y68442D01*
X202633Y68497D01*
X202567Y68564D01*
X202500Y68653D01*
X202411Y68764D01*
X202334Y68875D01*
X202256Y69008D01*
X202167Y69152D01*
X202101Y69319D01*
X202023Y69485D01*
X201967Y69674D01*
X201923Y69874D01*
X201901Y70085D01*
X201890Y70307D01*
Y70395D01*
X201901Y70462D01*
Y70540D01*
X201912Y70629D01*
X201956Y70840D01*
X202012Y71073D01*
X202101Y71317D01*
X202234Y71561D01*
X202311Y71683D01*
X202400Y71794D01*
X202411Y71805D01*
X202422Y71816D01*
X202456Y71850D01*
X202489Y71883D01*
X202544Y71938D01*
X202611Y71983D01*
X202766Y72105D01*
X202966Y72227D01*
X203211Y72338D01*
X203488Y72438D01*
X203799Y72505D01*
X203876Y71561D01*
X203865D01*
X203854Y71550D01*
X203788Y71539D01*
X203688Y71505D01*
X203566Y71461D01*
X203433Y71417D01*
X203299Y71350D01*
X203177Y71272D01*
X203077Y71195D01*
X203055Y71172D01*
X203011Y71128D01*
X202944Y71050D01*
X202866Y70939D01*
X202800Y70795D01*
X202733Y70640D01*
X202689Y70451D01*
X202667Y70251D01*
Y70174D01*
X202678Y70085D01*
X202700Y69985D01*
X202733Y69852D01*
X202778Y69718D01*
X202833Y69585D01*
X202922Y69452D01*
X202933Y69430D01*
X202977Y69374D01*
X203055Y69297D01*
X203166Y69197D01*
X203299Y69086D01*
X203455Y68964D01*
X203654Y68853D01*
X203876Y68742D01*
X203888D01*
X203910Y68731D01*
X203943Y68719D01*
X203988Y68697D01*
X204054Y68686D01*
X204132Y68664D01*
X204221Y68642D01*
X204332Y68619D01*
X204454Y68586D01*
X204587Y68564D01*
X204731Y68542D01*
X204887Y68531D01*
X205064Y68509D01*
X205242Y68497D01*
X205442Y68486D01*
X205641D01*
X205630Y68497D01*
X205564Y68542D01*
X205475Y68619D01*
X205364Y68719D01*
X205231Y68830D01*
X205109Y68975D01*
X204986Y69130D01*
X204876Y69308D01*
Y69319D01*
X204864Y69330D01*
X204831Y69397D01*
X204798Y69496D01*
X204742Y69630D01*
X204698Y69785D01*
X204665Y69963D01*
X204631Y70151D01*
X204620Y70351D01*
Y70440D01*
X204631Y70507D01*
X204642Y70595D01*
X204653Y70684D01*
X204676Y70795D01*
X204709Y70906D01*
X204787Y71161D01*
X204842Y71295D01*
X204920Y71428D01*
X204998Y71561D01*
X205086Y71705D01*
X205197Y71838D01*
X205319Y71961D01*
X205331Y71972D01*
X205353Y71994D01*
X205386Y72027D01*
X205442Y72060D01*
X205519Y72116D01*
X205597Y72172D01*
X205697Y72227D01*
X205808Y72294D01*
X205930Y72360D01*
X206063Y72416D01*
X206219Y72471D01*
X206374Y72527D01*
X206541Y72560D01*
X206729Y72593D01*
X206918Y72615D01*
X207118Y72627D01*
X207129D01*
X207151D01*
X207184D01*
X207240D01*
X207306Y72615D01*
D02*
G37*
%LPC*%
G36*
X207173Y71661D02*
X207162D01*
X207140D01*
X207095D01*
X207040Y71650D01*
X206973D01*
X206896Y71639D01*
X206718Y71605D01*
X206518Y71561D01*
X206307Y71483D01*
X206108Y71372D01*
X205919Y71228D01*
X205897Y71206D01*
X205841Y71150D01*
X205775Y71062D01*
X205686Y70939D01*
X205597Y70784D01*
X205530Y70606D01*
X205475Y70395D01*
X205453Y70162D01*
Y70096D01*
X205464Y70051D01*
X205475Y69940D01*
X205508Y69785D01*
X205564Y69619D01*
X205653Y69430D01*
X205763Y69252D01*
X205919Y69075D01*
X205941Y69052D01*
X205997Y69008D01*
X206096Y68930D01*
X206241Y68853D01*
X206407Y68775D01*
X206618Y68697D01*
X206851Y68653D01*
X207118Y68631D01*
X207140D01*
X207195D01*
X207295Y68642D01*
X207417Y68653D01*
X207562Y68675D01*
X207717Y68719D01*
X207883Y68764D01*
X208050Y68830D01*
X208072Y68842D01*
X208128Y68875D01*
X208205Y68919D01*
X208305Y68986D01*
X208405Y69064D01*
X208527Y69163D01*
X208627Y69274D01*
X208727Y69408D01*
X208738Y69430D01*
X208760Y69474D01*
X208805Y69552D01*
X208838Y69652D01*
X208883Y69763D01*
X208927Y69896D01*
X208949Y70040D01*
X208960Y70196D01*
Y70251D01*
X208949Y70296D01*
X208938Y70407D01*
X208905Y70551D01*
X208838Y70706D01*
X208760Y70884D01*
X208638Y71062D01*
X208572Y71150D01*
X208483Y71228D01*
X208472D01*
X208461Y71250D01*
X208394Y71295D01*
X208283Y71361D01*
X208139Y71450D01*
X207950Y71528D01*
X207728Y71594D01*
X207473Y71639D01*
X207173Y71661D01*
D02*
G37*
%LPD*%
D11*
X89344Y68127D02*
X96492Y75275D01*
X109979D01*
X122854Y83000D02*
X129250D01*
X114354Y74500D02*
X122854Y83000D01*
X109979Y75275D02*
X110754Y74500D01*
X114354D01*
X138709Y80000D02*
X138980D01*
X129250Y79000D02*
X137710D01*
X138709Y80000D01*
D13*
X142000Y10614D02*
Y38325D01*
X133325Y47000D02*
X142000Y38325D01*
X103580Y41286D02*
Y45155D01*
X99355Y46250D02*
X102179D01*
X103580Y45155D02*
X117425Y59000D01*
X102179Y46250D02*
X118929Y63000D01*
X142000Y10614D02*
X149114Y3500D01*
X139439Y7086D02*
Y22263D01*
X137530Y24172D02*
X139439Y22263D01*
X90150Y42653D02*
Y53178D01*
X85977Y38480D02*
X90150Y42653D01*
X92141Y55170D02*
Y56414D01*
X90150Y53178D02*
X92141Y55170D01*
X99235Y17351D02*
Y20901D01*
X99821Y16765D02*
X110235D01*
X93563Y26573D02*
X99235Y20901D01*
Y17351D02*
X99821Y16765D01*
X91016Y32548D02*
X93563Y30001D01*
Y26573D02*
Y30001D01*
X100337Y22295D02*
X107455D01*
X112985Y16765D01*
X102531Y27590D02*
X113855D01*
X101068Y24060D02*
X112024D01*
X112755Y25825D02*
X115755Y22825D01*
X112024Y24060D02*
X113750Y22334D01*
X113855Y27590D02*
X116855Y24590D01*
X101800Y25825D02*
X112755D01*
X112000Y15000D02*
X129250D01*
X110235Y16765D02*
X112000Y15000D01*
X121515Y16765D02*
X123575Y18826D01*
X112985Y16765D02*
X121515D01*
X129075Y18826D02*
X129250Y19000D01*
X123575Y18826D02*
X129075D01*
X95474Y27158D02*
Y32000D01*
Y27158D02*
X100337Y22295D01*
X97239Y27889D02*
X101068Y24060D01*
X100995Y29126D02*
X102531Y27590D01*
X99004Y28620D02*
X101800Y25825D01*
X96011Y42906D02*
X99355Y46250D01*
X92904Y34570D02*
X95474Y32000D01*
X207000Y37818D02*
Y44504D01*
X209894Y38129D02*
X225071D01*
X209765Y38259D02*
X209894Y38129D01*
X204913Y35731D02*
X207000Y37818D01*
X225071Y38129D02*
X225300Y37900D01*
X206091Y88280D02*
X209071D01*
X209591Y88800D01*
X223930D01*
X171597Y39800D02*
X171802Y39595D01*
X169400Y39800D02*
X171597D01*
X118929Y63000D02*
X129250D01*
X117425Y59000D02*
X127000D01*
X104678Y68951D02*
X109573D01*
X118855Y66985D02*
X121616D01*
X114380Y71467D02*
X116617Y69230D01*
X109573Y68951D02*
X112090Y71467D01*
X114380D01*
X137530Y24172D02*
Y30795D01*
X141036Y5464D02*
Y5489D01*
X139439Y7086D02*
X141036Y5489D01*
X113750Y20060D02*
Y22334D01*
X115755Y22825D02*
X129075D01*
X165000Y82606D02*
X168853Y86459D01*
X165000Y82022D02*
Y82606D01*
X168853Y86459D02*
Y89265D01*
X92141Y56414D02*
X104678Y68951D01*
X118616Y81965D02*
X123575Y86924D01*
X95715Y81965D02*
X118616D01*
X86579Y72828D02*
X95715Y81965D01*
X116617Y69222D02*
Y69230D01*
Y69222D02*
X118855Y66985D01*
X91937Y65361D02*
X94825Y68250D01*
X86579Y66981D02*
X88198Y65361D01*
X86579Y66981D02*
Y72828D01*
X88198Y65361D02*
X91937D01*
X56698Y87760D02*
Y90698D01*
X56417Y87480D02*
X56698Y87760D01*
X63500Y104000D02*
X70000D01*
X129174Y86924D02*
X129250Y87000D01*
X123575Y86924D02*
X129174D01*
X116855Y24590D02*
X119145D01*
X100530Y39069D02*
X100769Y38830D01*
Y29432D02*
Y38830D01*
X225237Y50663D02*
X225300Y50600D01*
X162430Y81963D02*
X164941D01*
X168404Y75446D02*
X168750Y75100D01*
Y74003D02*
Y75100D01*
X164941Y81963D02*
X165000Y82022D01*
X94825Y68250D02*
X99105D01*
X56698Y90698D02*
X70000Y104000D01*
X72625Y87000D02*
Y87541D01*
X70000Y90166D02*
X72625Y87541D01*
X70000Y90166D02*
Y92000D01*
X137867Y53617D02*
X138250Y54000D01*
X121616Y66985D02*
X121631Y67000D01*
X129250D01*
X121500Y54500D02*
X122000Y55000D01*
X129250D01*
X165000Y44200D02*
X169400Y39800D01*
X156564Y15608D02*
X156694D01*
X103608Y30503D02*
X128753D01*
X119145Y24590D02*
X121556Y27000D01*
X133925Y34400D02*
X137530Y30795D01*
X129850Y34400D02*
X133925D01*
X129250Y35000D02*
X129850Y34400D01*
X135942Y53617D02*
X137867D01*
X133925Y51600D02*
X135942Y53617D01*
X129250Y51000D02*
X129850Y51600D01*
X133925D01*
X145879Y25807D02*
X148075Y23611D01*
X145497Y29000D02*
X145879Y28617D01*
Y25807D02*
Y28617D01*
X129250Y47000D02*
X133325D01*
X139775Y57225D02*
X143000Y54000D01*
X139775Y57225D02*
Y59605D01*
X136690Y66000D02*
X145075D01*
X144927Y95398D02*
X145310Y95780D01*
X86452Y32548D02*
X91016D01*
X82500Y36500D02*
X86452Y32548D01*
X100995Y29126D02*
Y29206D01*
X100769Y29432D02*
X100995Y29206D01*
X129075Y22825D02*
X129250Y23000D01*
X121556Y27000D02*
X129250D01*
X97776Y40761D02*
X100265Y43250D01*
X97776Y40225D02*
Y40761D01*
X155000Y31000D02*
X155205Y31205D01*
Y31250D01*
X97765Y37924D02*
X99004Y36685D01*
X97765Y40215D02*
X97776Y40225D01*
X97765Y37924D02*
Y40215D01*
X96011Y40956D02*
Y42906D01*
X96000Y37193D02*
Y40946D01*
Y37193D02*
X97239Y35954D01*
Y27889D02*
Y35954D01*
X96000Y40946D02*
X96011Y40956D01*
X99004Y28620D02*
Y36685D01*
X173000Y45853D02*
Y61600D01*
X172773Y45626D02*
X173000Y45853D01*
X152694Y50944D02*
X152750Y51000D01*
X145808Y50889D02*
X145864Y50944D01*
X152694D01*
X148675Y23000D02*
X152750D01*
X148075Y23600D02*
X148675Y23000D01*
X148075Y23600D02*
Y23611D01*
X143745Y95398D02*
X144927D01*
X129250Y95000D02*
X143347D01*
X143745Y95398D01*
X143170Y63000D02*
X152750D01*
X139775Y59605D02*
X143170Y63000D01*
X204383Y44383D02*
X223300Y63300D01*
X204000Y43000D02*
X204383Y43383D01*
X223300Y63300D02*
X225300D01*
X213160Y50663D02*
X225237D01*
X204383Y43383D02*
Y44383D01*
X207000Y44504D02*
X213160Y50663D01*
X155000Y95000D02*
X156825D01*
X136835Y69765D02*
X138365Y68235D01*
X146181Y69855D02*
Y70106D01*
X136686Y69765D02*
X136835D01*
X138365Y68235D02*
X144561D01*
X146181Y69855D01*
X103534Y30577D02*
X103608Y30503D01*
X165000Y69600D02*
X173000Y61600D01*
X156694Y15608D02*
X156825Y15738D01*
X146181Y70106D02*
X147075Y71000D01*
X145075Y66000D02*
X146075Y67000D01*
X152750D01*
X147075Y71000D02*
X152750D01*
X128753Y30503D02*
X129250Y31000D01*
X152750D02*
X155000D01*
X152750Y87000D02*
X156825D01*
X159235Y84590D01*
Y79912D02*
X164547Y74600D01*
Y70053D02*
X165000Y69600D01*
X159235Y79912D02*
Y84590D01*
X164547Y70053D02*
Y74600D01*
X171662Y66972D02*
Y67088D01*
X171250Y67500D02*
X171662Y67088D01*
X171250Y67500D02*
Y71503D01*
X168750Y74003D02*
X171250Y71503D01*
D16*
X198000Y143000D02*
G03*
X193000Y148000I-5000J0D01*
G01*
X198000Y33000D02*
G03*
X193000Y38000I-5000J0D01*
G01*
Y46000D02*
G03*
X198000Y51000I0J5000D01*
G01*
X198000Y74000D02*
G03*
X193000Y79000I-5000J0D01*
G01*
X193000Y91000D02*
G03*
X198000Y96000I0J5000D01*
G01*
X198000Y5000D02*
G03*
X203000Y0I5000J0D01*
G01*
X64000Y143000D02*
G03*
X59000Y148000I-5000J0D01*
G01*
X77000D02*
G03*
X72000Y143000I0J-5000D01*
G01*
X0Y153000D02*
G03*
X5000Y148000I5000J0D01*
G01*
X127000Y148000D02*
G03*
X122000Y143000I0J-5000D01*
G01*
X114000D02*
G03*
X109000Y148000I-5000J0D01*
G01*
X5000Y192000D02*
G03*
X0Y187000I0J-5000D01*
G01*
X367000D02*
G03*
X362000Y192000I-5000J0D01*
G01*
Y0D02*
G03*
X367000Y5000I0J5000D01*
G01*
X122000Y131000D02*
G03*
X127000Y126000I5000J0D01*
G01*
X59000D02*
G03*
X64000Y131000I0J5000D01*
G01*
X109000Y126000D02*
G03*
X114000Y131000I0J5000D01*
G01*
X72000Y131000D02*
G03*
X77000Y126000I5000J0D01*
G01*
X181000Y79000D02*
G03*
X176000Y74000I0J-5000D01*
G01*
X176000Y96000D02*
G03*
X181000Y91000I5000J0D01*
G01*
X181000Y38000D02*
G03*
X176000Y33000I0J-5000D01*
G01*
X176000Y51000D02*
G03*
X181000Y46000I5000J0D01*
G01*
X20000Y95000D02*
G03*
X30000Y105000I0J10000D01*
G01*
X0Y153000D02*
X0Y187000D01*
X203000Y0D02*
X362000D01*
X64000Y143045D02*
X64000Y131000D01*
X72000Y143000D02*
X72000Y131000D01*
X114000Y143000D02*
X114000Y131000D01*
X122000Y143000D02*
X122000Y131000D01*
X127000Y148000D02*
X193000D01*
X198000Y143000D02*
X198000Y96000D01*
X181000Y91000D02*
X193000D01*
X192000Y79000D02*
X193000D01*
X181000D02*
X192000D01*
X181000Y46000D02*
X193011D01*
X181000Y38000D02*
X193000D01*
X198000Y5000D02*
Y30000D01*
Y33000D01*
Y51000D02*
Y74000D01*
X77000Y148000D02*
X109000D01*
X5000Y148000D02*
X59000D01*
X5000Y192000D02*
X362000Y192000D01*
X367000Y5000D02*
Y187000D01*
X77000Y126000D02*
X109000D01*
X176000Y51000D02*
Y74000D01*
Y30000D02*
Y33000D01*
X127000Y126000D02*
X156000D01*
X175990Y29058D02*
X175998Y29529D01*
X175879Y26708D02*
X175911Y27177D01*
X175800Y25773D02*
X175842Y26240D01*
X175754Y25307D02*
X175800Y25773D01*
X175842Y26240D02*
X175879Y26708D01*
X175978Y28587D02*
X175990Y29058D01*
X175702Y24842D02*
X175754Y25307D01*
X175646Y24379D02*
X175702Y24842D01*
X175961Y28116D02*
X175978Y28587D01*
X175584Y23916D02*
X175646Y24379D01*
X175938Y27646D02*
X175961Y28116D01*
X175911Y27177D02*
X175938Y27646D01*
X175518Y23456D02*
X175584Y23916D01*
X173215Y14729D02*
X173373Y15136D01*
X173526Y15547D01*
X174228Y17655D02*
X174355Y18086D01*
X174097Y17227D02*
X174228Y17655D01*
X173960Y16802D02*
X174097Y17227D01*
X173053Y14325D02*
X173215Y14729D01*
X172887Y13925D02*
X173053Y14325D01*
X173820Y16380D02*
X173960Y16802D01*
X173675Y15962D02*
X173820Y16380D01*
X173526Y15547D02*
X173675Y15962D01*
X174596Y18956D02*
X174709Y19396D01*
X174922Y20282D02*
X175021Y20729D01*
X175447Y22997D02*
X175518Y23456D01*
X175372Y22539D02*
X175447Y22997D01*
X174818Y19838D02*
X174922Y20282D01*
X174709Y19396D02*
X174818Y19838D01*
X175291Y22084D02*
X175372Y22539D01*
X175206Y21630D02*
X175291Y22084D01*
X174478Y18520D02*
X174596Y18956D01*
X175116Y21179D02*
X175206Y21630D01*
X174355Y18086D02*
X174478Y18520D01*
X175021Y20729D02*
X175116Y21179D01*
X168008Y6010D02*
X168258Y6295D01*
X168748Y6885D02*
X168989Y7188D01*
X170142Y8787D02*
X170362Y9123D01*
X168505Y6587D02*
X168748Y6885D01*
X169918Y8456D02*
X170142Y8787D01*
X168258Y6295D02*
X168505Y6587D01*
X169691Y8131D02*
X169918Y8456D01*
X169460Y7811D02*
X169691Y8131D01*
X167756Y5730D02*
X168008Y6010D01*
X169226Y7497D02*
X169460Y7811D01*
X168989Y7188D02*
X169226Y7497D01*
X170362Y9123D02*
X170579Y9464D01*
X167242Y5188D02*
X167500Y5455D01*
X165909Y3941D02*
X166181Y4178D01*
X165635Y3711D02*
X165909Y3941D01*
X165359Y3487D02*
X165635Y3711D01*
X166980Y4926D02*
X167242Y5188D01*
X166716Y4670D02*
X166980Y4926D01*
X165080Y3270D02*
X165359Y3487D01*
X164799Y3059D02*
X165080Y3270D01*
X166450Y4421D02*
X166716Y4670D01*
X164516Y2855D02*
X164799Y3059D01*
X166181Y4178D02*
X166450Y4421D01*
X167500Y5455D02*
X167756Y5730D01*
X162180Y1468D02*
X162478Y1618D01*
X160363Y723D02*
X160669Y829D01*
X160056Y623D02*
X160363Y723D01*
X161881Y1326D02*
X162180Y1468D01*
X159748Y531D02*
X160056Y623D01*
X161580Y1191D02*
X161881Y1326D01*
X161277Y1063D02*
X161580Y1191D01*
X159439Y447D02*
X159748Y531D01*
X159129Y369D02*
X159439Y447D01*
X160974Y943D02*
X161277Y1063D01*
X160669Y829D02*
X160974Y943D01*
X162478Y1618D02*
X162775Y1774D01*
X172542Y13138D02*
X172716Y13529D01*
X171410Y10877D02*
X171609Y11243D01*
X171208Y10517D02*
X171410Y10877D01*
X172363Y12750D02*
X172542Y13138D01*
X172180Y12366D02*
X172363Y12750D01*
X171002Y10161D02*
X171208Y10517D01*
X170793Y9810D02*
X171002Y10161D01*
X171994Y11987D02*
X172180Y12366D01*
X170579Y9464D02*
X170793Y9810D01*
X171803Y11613D02*
X171994Y11987D01*
X172716Y13529D02*
X172887Y13925D01*
X171609Y11243D02*
X171803Y11613D01*
X156000Y0D02*
X156314Y4D01*
X156628Y15D01*
X156942Y33D01*
X157256Y59D01*
X158507Y237D02*
X158818Y299D01*
X158195Y181D02*
X158507Y237D01*
X157882Y133D02*
X158195Y181D01*
X157569Y93D02*
X157882Y133D01*
X157256Y59D02*
X157569Y93D01*
X158818Y299D02*
X159129Y369D01*
X162775Y1774D02*
X163069Y1937D01*
X163943Y2467D02*
X164230Y2658D01*
X163654Y2284D02*
X163943Y2467D01*
X163363Y2107D02*
X163654Y2284D01*
X163069Y1937D02*
X163363Y2107D01*
X164230Y2658D02*
X164516Y2855D01*
X175998Y29529D02*
X176000Y30000D01*
X175990Y96942D02*
X175998Y96471D01*
X175879Y99292D02*
X175911Y98823D01*
X175800Y100227D02*
X175842Y99760D01*
X175754Y100693D02*
X175800Y100227D01*
X175842Y99760D02*
X175879Y99292D01*
X175978Y97413D02*
X175990Y96942D01*
X175702Y101158D02*
X175754Y100693D01*
X175646Y101621D02*
X175702Y101158D01*
X175961Y97884D02*
X175978Y97413D01*
X175584Y102084D02*
X175646Y101621D01*
X175938Y98354D02*
X175961Y97884D01*
X175911Y98823D02*
X175938Y98354D01*
X175518Y102544D02*
X175584Y102084D01*
X173215Y111271D02*
X173373Y110864D01*
X173526Y110453D01*
X174228Y108345D02*
X174355Y107914D01*
X174097Y108773D02*
X174228Y108345D01*
X173960Y109198D02*
X174097Y108773D01*
X173053Y111675D02*
X173215Y111271D01*
X172887Y112075D02*
X173053Y111675D01*
X173820Y109620D02*
X173960Y109198D01*
X173675Y110038D02*
X173820Y109620D01*
X173526Y110453D02*
X173675Y110038D01*
X174596Y107044D02*
X174709Y106604D01*
X174922Y105717D02*
X175021Y105271D01*
X175447Y103003D02*
X175518Y102544D01*
X175372Y103461D02*
X175447Y103003D01*
X174818Y106162D02*
X174922Y105717D01*
X174709Y106604D02*
X174818Y106162D01*
X175291Y103916D02*
X175372Y103461D01*
X175206Y104370D02*
X175291Y103916D01*
X174478Y107480D02*
X174596Y107044D01*
X175116Y104821D02*
X175206Y104370D01*
X174355Y107914D02*
X174478Y107480D01*
X175021Y105271D02*
X175116Y104821D01*
X168008Y119991D02*
X168258Y119705D01*
X168748Y119115D02*
X168989Y118812D01*
X170142Y117213D02*
X170362Y116877D01*
X168505Y119413D02*
X168748Y119115D01*
X169918Y117544D02*
X170142Y117213D01*
X168258Y119705D02*
X168505Y119413D01*
X169691Y117869D02*
X169918Y117544D01*
X169460Y118189D02*
X169691Y117869D01*
X167756Y120270D02*
X168008Y119991D01*
X169226Y118503D02*
X169460Y118189D01*
X168989Y118812D02*
X169226Y118503D01*
X170362Y116877D02*
X170579Y116536D01*
X167242Y120812D02*
X167500Y120544D01*
X165909Y122059D02*
X166181Y121822D01*
X165635Y122289D02*
X165909Y122059D01*
X165359Y122513D02*
X165635Y122289D01*
X166980Y121074D02*
X167242Y120812D01*
X166716Y121330D02*
X166980Y121074D01*
X165080Y122730D02*
X165359Y122513D01*
X164799Y122941D02*
X165080Y122730D01*
X166450Y121579D02*
X166716Y121330D01*
X164516Y123145D02*
X164799Y122941D01*
X166181Y121822D02*
X166450Y121579D01*
X167500Y120544D02*
X167756Y120270D01*
X162180Y124532D02*
X162478Y124382D01*
X160363Y125277D02*
X160669Y125171D01*
X160056Y125377D02*
X160363Y125277D01*
X161881Y124674D02*
X162180Y124532D01*
X159748Y125469D02*
X160056Y125377D01*
X161580Y124809D02*
X161881Y124674D01*
X161277Y124937D02*
X161580Y124809D01*
X159439Y125553D02*
X159748Y125469D01*
X159129Y125631D02*
X159439Y125553D01*
X160974Y125057D02*
X161277Y124937D01*
X160669Y125171D02*
X160974Y125057D01*
X162478Y124382D02*
X162775Y124226D01*
X172542Y112863D02*
X172716Y112471D01*
X171410Y115123D02*
X171609Y114757D01*
X171208Y115483D02*
X171410Y115123D01*
X172363Y113250D02*
X172542Y112863D01*
X172180Y113633D02*
X172363Y113250D01*
X171002Y115839D02*
X171208Y115483D01*
X170793Y116190D02*
X171002Y115839D01*
X171994Y114012D02*
X172180Y113633D01*
X170579Y116536D02*
X170793Y116190D01*
X171803Y114387D02*
X171994Y114012D01*
X172716Y112471D02*
X172887Y112075D01*
X171609Y114757D02*
X171803Y114387D01*
X156000Y126000D02*
X156314Y125996D01*
X156628Y125985D01*
X156942Y125967D01*
X157256Y125941D01*
X158507Y125763D02*
X158818Y125701D01*
X158195Y125819D02*
X158507Y125763D01*
X157882Y125867D02*
X158195Y125819D01*
X157569Y125907D02*
X157882Y125867D01*
X157256Y125941D02*
X157569Y125907D01*
X158818Y125701D02*
X159129Y125631D01*
X162775Y124226D02*
X163069Y124063D01*
X163943Y123533D02*
X164230Y123342D01*
X163654Y123716D02*
X163943Y123533D01*
X163363Y123893D02*
X163654Y123716D01*
X163069Y124063D02*
X163363Y123893D01*
X164230Y123342D02*
X164516Y123145D01*
X175998Y96471D02*
X176000Y96000D01*
X50000Y126000D02*
X59000D01*
X884Y84411D02*
X979Y84635D01*
X628Y83730D02*
X709Y83958D01*
X415Y83042D02*
X482Y83272D01*
X1405Y85522D02*
X1522Y85740D01*
X2785Y87636D02*
X2947Y87837D01*
X4197Y89194D02*
X4391Y89379D01*
X154Y9215D02*
X222Y9059D01*
X616Y8436D02*
X745Y8281D01*
X4792Y89742D02*
X4998Y89920D01*
X5207Y90095D02*
X5421Y90268D01*
X5858Y90607D02*
X6082Y90772D01*
X6309Y90934D02*
X6540Y91095D01*
X7495Y91706D02*
X7742Y91852D01*
X5099Y5601D02*
X5450Y5460D01*
X9550Y92790D02*
X9819Y92911D01*
X10920Y93365D02*
X11201Y93470D01*
X11484Y93572D01*
X6963Y4910D02*
X7368Y4775D01*
X18118Y94933D02*
X18431Y94954D01*
X19058Y94983D02*
X19372Y94993D01*
X30062Y106648D02*
X30089Y106976D01*
X30121Y107304D02*
X30158Y107632D01*
X30354Y108935D02*
X30415Y109258D01*
X31182Y112114D02*
X31291Y112423D01*
X31405Y112731D02*
X31522Y113036D01*
X31772Y113642D02*
X31904Y113941D01*
X32474Y115117D02*
X32627Y115405D01*
X34590Y118386D02*
X34792Y118638D01*
X33063Y591D02*
X33804Y539D01*
X37992Y121793D02*
X38244Y121989D01*
X38758Y122369D02*
X39020Y122552D01*
X39550Y122905D02*
X39819Y123076D01*
X40641Y123559D02*
X40920Y123711D01*
X43522Y124868D02*
X43820Y124972D01*
X44119Y125072D02*
X44420Y125166D01*
X46860Y20D02*
X47645Y11D01*
X48429Y5D01*
X47805Y125873D02*
X48118Y125907D01*
X48431Y125935D02*
X48744Y125959D01*
X49058Y125977D02*
X49372Y125990D01*
X48744Y125959D02*
X49058Y125977D01*
X1522Y85740D02*
X1645Y85957D01*
X1772Y86173D02*
X1903Y86387D01*
X2325Y87019D02*
X2474Y87226D01*
X0Y80000D02*
X3Y80236D01*
X0Y10000D02*
Y80000D01*
X6Y9843D02*
X25Y9686D01*
X55Y9529D02*
X99Y9372D01*
X222Y9059D02*
X302Y8903D01*
X1571Y7513D02*
X1772Y7361D01*
X3228Y6465D02*
X3511Y6319D01*
X3806Y6173D01*
X4430Y5885D02*
X4759Y5742D01*
X5099Y5601D01*
X9819Y92911D02*
X10091Y93029D01*
X5812Y5321D02*
X6185Y5182D01*
X6568Y5045D01*
X9093Y4250D02*
X9549Y4122D01*
X16252Y94734D02*
X16561Y94777D01*
X11474Y3626D02*
X11980Y3505D01*
X17805Y94909D02*
X18118Y94933D01*
X13018Y3270D02*
X13552Y3155D01*
X18744Y94970D02*
X19058Y94983D01*
X30010Y105660D02*
X30022Y105989D01*
X31078Y111802D02*
X31182Y112114D01*
X23875Y1474D02*
X24548Y1393D01*
X25227Y1314D02*
X25912Y1237D01*
X32180Y114534D02*
X32325Y114826D01*
X30143Y822D02*
X30866Y761D01*
X31594Y702D02*
X32326Y646D01*
X36806Y354D02*
X37566Y314D01*
X39020Y122552D02*
X39283Y122731D01*
X40631Y177D02*
X41403Y149D01*
X45295Y44D02*
X46077Y31D01*
X46871Y125742D02*
X47182Y125791D01*
X47493Y125834D01*
X49215Y1D02*
X50000Y0D01*
X482Y83272D02*
X553Y83502D01*
X246Y82346D02*
X298Y82579D01*
X4391Y89379D02*
X4590Y89561D01*
X4792Y89742D01*
X302Y8903D02*
X394Y8747D01*
X745Y8281D02*
X886Y8126D01*
X7992Y91995D02*
X8244Y92135D01*
X3806Y6173D02*
X4112Y6029D01*
X8758Y92406D02*
X9020Y92537D01*
X4112Y6029D02*
X4430Y5885D01*
X6568Y5045D02*
X6963Y4910D01*
X10016Y3996D02*
X10492Y3871D01*
X10978Y3748D01*
X15331Y94586D02*
X15637Y94639D01*
X15944Y94688D02*
X16252Y94734D01*
X17493Y94882D02*
X17805Y94909D01*
X18431Y94954D02*
X18744Y94970D01*
X14094Y3041D02*
X14645Y2929D01*
X30089Y106976D02*
X30121Y107304D01*
X19979Y2003D02*
X20611Y1910D01*
X30628Y110223D02*
X30709Y110541D01*
X22549Y1642D02*
X23209Y1557D01*
X30794Y110859D02*
X30884Y111175D01*
X30979Y111489D02*
X31078Y111802D01*
X31645Y113340D02*
X31772Y113642D01*
X33458Y116804D02*
X33637Y117075D01*
X34998Y118888D02*
X35207Y119133D01*
X33804Y539D02*
X34549Y489D01*
X36540Y120532D02*
X36774Y120752D01*
X37011Y120969D01*
X38500Y122181D02*
X38758Y122369D01*
X39093Y241D02*
X39861Y208D01*
X44513Y60D02*
X45295Y44D01*
X44420Y125166D02*
X44722Y125256D01*
X46077Y31D02*
X46860Y20D01*
X46252Y125628D02*
X46561Y125687D01*
X1182Y85081D02*
X1291Y85302D01*
X1903Y86387D02*
X2039Y86599D01*
X2180Y86810D01*
X22Y80707D02*
X39Y80942D01*
X3113Y88037D02*
X3284Y88235D01*
X3458Y88431D01*
X4006Y89006D02*
X4197Y89194D01*
X394Y8747D02*
X499Y8591D01*
X1985Y7210D02*
X2210Y7060D01*
X2447Y6910D02*
X2696Y6761D01*
X8244Y92135D02*
X8500Y92272D01*
X10091Y93029D02*
X10365Y93145D01*
X8646Y4379D02*
X9093Y4250D01*
X14119Y94337D02*
X14420Y94404D01*
X16561Y94777D02*
X16871Y94815D01*
X17182Y94850D01*
X15204Y2819D02*
X15773Y2710D01*
X30000Y105000D02*
X30003Y105330D01*
X18129Y2295D02*
X18738Y2196D01*
X19355Y2098D02*
X19979Y2003D01*
X20611Y1910D02*
X21250Y1819D01*
X30553Y109902D02*
X30628Y110223D01*
X31522Y113036D02*
X31645Y113340D01*
X25912Y1237D02*
X26604Y1162D01*
X28711Y952D02*
X29424Y886D01*
X34391Y118130D02*
X34590Y118386D01*
X35207Y119133D02*
X35421Y119375D01*
X35638Y119614D01*
X36082Y120081D02*
X36309Y120308D01*
X35298Y442D02*
X36050Y397D01*
X37011Y120969D02*
X37252Y121181D01*
X39283Y122731D02*
X39550Y122905D01*
X41484Y124001D02*
X41770Y124139D01*
X42057Y124273D01*
X42955Y100D02*
X43733Y79D01*
X44722Y125256D02*
X45026Y125340D01*
X45331Y125420D01*
X48429Y5D02*
X49215Y1D01*
X709Y83958D02*
X794Y84185D01*
X553Y83502D02*
X628Y83730D01*
X89Y81412D02*
X121Y81646D01*
X3Y80236D02*
X10Y80471D01*
X62Y81177D02*
X89Y81412D01*
X3637Y88625D02*
X3820Y88817D01*
X0Y10000D02*
X6Y9843D01*
X3820Y88817D02*
X4006Y89006D01*
X4998Y89920D02*
X5207Y90095D01*
X886Y8126D02*
X1039Y7972D01*
X1772Y7361D02*
X1985Y7210D01*
X2210Y7060D02*
X2447Y6910D01*
X2696Y6761D02*
X2956Y6613D01*
X8500Y92272D02*
X8758Y92406D01*
X9283Y92665D02*
X9550Y92790D01*
X12057Y93766D02*
X12346Y93858D01*
X7784Y4642D02*
X8210Y4510D01*
X14420Y94404D02*
X14723Y94468D01*
X15637Y94639D02*
X15944Y94688D01*
X30199Y107959D02*
X30246Y108285D01*
X21250Y1819D02*
X21896Y1729D01*
X30482Y109581D02*
X30553Y109902D01*
X30709Y110541D02*
X30794Y110859D01*
X30884Y111175D02*
X30979Y111489D01*
X32325Y114826D02*
X32474Y115117D01*
X33284Y116530D02*
X33458Y116804D01*
X34197Y117871D02*
X34391Y118130D01*
X34792Y118638D02*
X34998Y118888D01*
X34549Y489D02*
X35298Y442D01*
X37495Y121389D02*
X37742Y121593D01*
X36050Y397D02*
X36806Y354D01*
X37566Y314D02*
X38328Y276D01*
X42178Y123D02*
X42955Y100D01*
X42638Y124525D02*
X42930Y124644D01*
X43225Y124759D02*
X43522Y124868D01*
X43820Y124972D02*
X44119Y125072D01*
X45637Y125494D02*
X45944Y125564D01*
X46561Y125687D02*
X46871Y125742D01*
X979Y84635D02*
X1078Y84859D01*
X1182Y85081D01*
X1645Y85957D02*
X1772Y86173D01*
X200Y82114D02*
X246Y82346D01*
X121Y81646D02*
X158Y81880D01*
X39Y80942D02*
X62Y81177D01*
X10Y80471D02*
X22Y80707D01*
X5421Y90268D02*
X5638Y90439D01*
X1382Y7666D02*
X1571Y7513D01*
X6540Y91095D02*
X6774Y91252D01*
X7011Y91406D01*
X7251Y91558D01*
X7495Y91706D01*
X2956Y6613D02*
X3228Y6465D01*
X10641Y93257D02*
X10920Y93365D01*
X7368Y4775D02*
X7784Y4642D01*
X12637Y93947D02*
X12931Y94032D01*
X13225Y94113D01*
X13522Y94191D02*
X13820Y94266D01*
X15026Y94529D02*
X15331Y94586D01*
X9549Y4122D02*
X10016Y3996D01*
X10978Y3748D02*
X11474Y3626D01*
X19372Y94993D02*
X19686Y94998D01*
X30003Y105330D02*
X30010Y105660D01*
X30022Y105989D02*
X30040Y106319D01*
X30062Y106648D01*
X18738Y2196D02*
X19355Y2098D01*
X30246Y108285D02*
X30298Y108610D01*
X32947Y115972D02*
X33113Y116252D01*
X29424Y886D02*
X30143Y822D01*
X34006Y117609D02*
X34197Y117871D01*
X30866Y761D02*
X31594Y702D01*
X32326Y646D02*
X33063Y591D01*
X37252Y121181D02*
X37495Y121389D01*
X39819Y123076D02*
X40091Y123241D01*
X42057Y124273D02*
X42346Y124402D01*
X42638Y124525D01*
X42930Y124644D02*
X43225Y124759D01*
X49372Y125990D02*
X49686Y125997D01*
X50000Y0D02*
X156000D01*
X298Y82579D02*
X354Y82811D01*
X2627Y87432D02*
X2785Y87636D01*
X3458Y88431D02*
X3637Y88625D01*
X25Y9686D02*
X55Y9529D01*
X499Y8591D02*
X616Y8436D01*
X5638Y90439D02*
X5858Y90607D01*
X1204Y7819D02*
X1382Y7666D01*
X6082Y90772D02*
X6309Y90934D01*
X9020Y92537D02*
X9283Y92665D01*
X10365Y93145D02*
X10641Y93257D01*
X11770Y93671D02*
X12057Y93766D01*
X12346Y93858D02*
X12637Y93947D01*
X13225Y94113D02*
X13522Y94191D01*
X14723Y94468D02*
X15026Y94529D01*
X11980Y3505D02*
X12494Y3387D01*
X13552Y3155D02*
X14094Y3041D01*
X14645Y2929D02*
X15204Y2819D01*
X15773Y2710D02*
X16349Y2604D01*
X16934Y2499D01*
X30158Y107632D02*
X30199Y107959D01*
X30298Y108610D02*
X30354Y108935D01*
X30415Y109258D02*
X30482Y109581D01*
X21896Y1729D02*
X22549Y1642D01*
X32039Y114239D02*
X32180Y114534D01*
X32627Y115405D02*
X32785Y115690D01*
X27301Y1090D02*
X28003Y1020D01*
X28711Y952D01*
X32785Y115690D02*
X32947Y115972D01*
X35638Y119614D02*
X35858Y119849D01*
X37742Y121593D02*
X37992Y121793D01*
X39861Y208D02*
X40631Y177D01*
X41403Y149D02*
X42178Y123D01*
X40920Y123711D02*
X41201Y123859D01*
X45944Y125564D02*
X46252Y125628D01*
X794Y84185D02*
X884Y84411D01*
X1291Y85302D02*
X1405Y85522D01*
X354Y82811D02*
X415Y83042D01*
X158Y81880D02*
X200Y82114D01*
X2180Y86810D02*
X2325Y87019D01*
X2474Y87226D02*
X2627Y87432D01*
X2947Y87837D02*
X3113Y88037D01*
X99Y9372D02*
X154Y9215D01*
X1039Y7972D02*
X1204Y7819D01*
X7742Y91852D02*
X7992Y91995D01*
X5450Y5460D02*
X5812Y5321D01*
X11484Y93572D02*
X11770Y93671D01*
X8210Y4510D02*
X8646Y4379D01*
X13820Y94266D02*
X14119Y94337D01*
X17182Y94850D02*
X17493Y94882D01*
X12494Y3387D02*
X13018Y3270D01*
X19686Y94998D02*
X20000Y95000D01*
X16934Y2499D02*
X17528Y2396D01*
X18129Y2295D01*
X23209Y1557D02*
X23875Y1474D01*
X31291Y112423D02*
X31405Y112731D01*
X24548Y1393D02*
X25227Y1314D01*
X31904Y113941D02*
X32039Y114239D01*
X26604Y1162D02*
X27301Y1090D01*
X33113Y116252D02*
X33284Y116530D01*
X33637Y117075D02*
X33820Y117344D01*
X34006Y117609D01*
X35858Y119849D02*
X36082Y120081D01*
X36309Y120308D02*
X36540Y120532D01*
X38244Y121989D02*
X38500Y122181D01*
X38328Y276D02*
X39093Y241D01*
X40091Y123241D02*
X40365Y123402D01*
X40641Y123559D01*
X41201Y123859D02*
X41484Y124001D01*
X43733Y79D02*
X44513Y60D01*
X45331Y125420D02*
X45637Y125494D01*
X47493Y125834D02*
X47805Y125873D01*
X48118Y125907D02*
X48431Y125935D01*
X49686Y125997D02*
X50000Y126000D01*
D61*
X269483Y174500D02*
D03*
X294883D02*
D03*
X244083D02*
D03*
X320283D02*
D03*
X345683D02*
D03*
D62*
X218683D02*
D03*
D63*
X336500Y105950D02*
D03*
Y19550D02*
D03*
D64*
X302500Y67000D02*
D03*
Y50000D02*
D03*
Y58500D02*
D03*
Y84000D02*
D03*
Y92500D02*
D03*
Y75500D02*
D03*
Y33000D02*
D03*
Y41500D02*
D03*
X289000D02*
D03*
Y33000D02*
D03*
Y67000D02*
D03*
Y84000D02*
D03*
Y92500D02*
D03*
Y75500D02*
D03*
Y58500D02*
D03*
Y50000D02*
D03*
D65*
X294000Y105950D02*
D03*
Y19550D02*
D03*
D66*
X92469Y107500D02*
D03*
X70000Y92000D02*
D03*
X116000Y107500D02*
D03*
X104000D02*
D03*
X70000Y104000D02*
D03*
X50496Y179250D02*
D03*
X76997D02*
D03*
X90248D02*
D03*
X103499D02*
D03*
X116749Y179728D02*
D03*
X130000Y179250D02*
D03*
X63747D02*
D03*
X165000Y95000D02*
D03*
Y82300D02*
D03*
Y69600D02*
D03*
Y56900D02*
D03*
Y44200D02*
D03*
X225300Y88800D02*
D03*
X238000D02*
D03*
X225300Y76100D02*
D03*
X238000D02*
D03*
X225300Y63400D02*
D03*
X238000D02*
D03*
X225300Y50700D02*
D03*
X238000D02*
D03*
X225300Y38000D02*
D03*
D67*
X238000D02*
D03*
D69*
X136991Y90195D02*
X140045Y87142D01*
X143016D01*
X129250Y42438D02*
X129323Y42365D01*
X129250Y42438D02*
Y43000D01*
X152950Y43201D02*
X153103D01*
X152750Y43000D02*
X152950Y43201D01*
X148675Y79000D02*
X152750D01*
X147440Y80235D02*
X148675Y79000D01*
X145910Y81210D02*
Y84248D01*
X143016Y87142D02*
X145910Y84248D01*
X146885Y80235D02*
X147440D01*
X145910Y81210D02*
X146885Y80235D01*
X152750Y103000D02*
X152750Y103000D01*
D70*
X116315Y83980D02*
X117424Y85089D01*
X117830D01*
X94880Y83980D02*
X116315D01*
X53250Y79823D02*
X54759Y78314D01*
X53250Y79823D02*
Y108000D01*
X62314Y78314D02*
X64393Y80393D01*
X54759Y78314D02*
X62314D01*
X64393Y80393D02*
X74124D01*
X75032Y79485D01*
X90385D01*
X73061Y150694D02*
Y156685D01*
X42979Y169000D02*
Y180479D01*
X50496Y179250D02*
X73061Y156685D01*
X109288Y165250D02*
X112750D01*
X108296Y164258D02*
X109288Y165250D01*
X105240Y164258D02*
X108296D01*
X90248Y179250D02*
X105240Y164258D01*
X78500Y179874D02*
X84649Y186023D01*
X78500Y179250D02*
Y179874D01*
X84649Y186023D02*
X85055D01*
X76997Y179250D02*
X78500D01*
X87371Y115567D02*
X88688Y116884D01*
X89056D01*
X72858Y117892D02*
X77844D01*
X80169Y115567D02*
X87371D01*
X77844Y117892D02*
X80169Y115567D01*
X90385Y79485D02*
X94880Y83980D01*
X63747Y179250D02*
X70732Y186235D01*
X78250D01*
X91469Y189250D02*
X101469Y179250D01*
X42979Y180479D02*
X51750Y189250D01*
X91469D01*
X58461Y113211D02*
X63236D01*
X53250Y108000D02*
X58461Y113211D01*
X63236Y112879D02*
Y113211D01*
X101469Y179250D02*
X103499D01*
D71*
X72005Y162005D02*
X77983Y156028D01*
X202972D01*
X105624Y107500D02*
X107825Y105298D01*
X104000Y107500D02*
X105624D01*
X107825Y105298D02*
X108526D01*
X112000Y101825D01*
X202972Y156028D02*
X248000Y111000D01*
X195037Y159793D02*
X203976D01*
X218683Y174500D01*
X209028Y156028D02*
X213055Y152000D01*
X302000D01*
X136122Y116005D02*
X137180Y114947D01*
X136074Y116005D02*
X136122D01*
X137180Y106570D02*
Y114947D01*
X112000Y101000D02*
Y101825D01*
X119941Y109817D02*
X120075D01*
X117624Y107500D02*
X119941Y109817D01*
X116000Y107500D02*
X117624D01*
X120075Y109817D02*
X120675Y109218D01*
X113000Y112000D02*
X116000Y109000D01*
Y107500D02*
Y109000D01*
X153259Y122374D02*
X153385Y122500D01*
X144844Y122374D02*
X153259D01*
X144827Y122391D02*
X144844Y122374D01*
X141708Y122391D02*
X144827D01*
X141691Y122374D02*
X141708Y122391D01*
X117374Y122374D02*
X141691D01*
X113000Y118000D02*
X117374Y122374D01*
X113000Y112000D02*
Y118000D01*
X101230Y122500D02*
X102995Y120735D01*
X89347Y122500D02*
X101230D01*
X69367Y116389D02*
Y118874D01*
X72150Y121657D01*
X69367Y116389D02*
X80500Y105255D01*
Y84451D02*
Y105255D01*
X79909Y83860D02*
X80500Y84451D01*
X85583Y118735D02*
X89347Y122500D01*
X81265Y118735D02*
X85583D01*
X78343Y121657D02*
X81265Y118735D01*
X72150Y121657D02*
X78343D01*
X165000Y95000D02*
Y96000D01*
X166250Y97250D01*
X162515Y33985D02*
X165000Y31500D01*
X162515Y33985D02*
Y35269D01*
X244083Y174500D02*
X269483D01*
X316000Y138000D02*
Y165617D01*
X320283Y169900D01*
Y174500D01*
X289000Y84000D02*
X302500D01*
X289000Y41500D02*
X302500D01*
X310500Y83500D02*
X316000Y78000D01*
X303000Y83500D02*
X310500D01*
X302500Y84000D02*
X303000Y83500D01*
X316000Y55000D02*
Y78000D01*
X302500Y41500D02*
X316000Y55000D01*
X116749Y179728D02*
Y180874D01*
Y179250D02*
Y179728D01*
X112383Y185240D02*
X116749Y180874D01*
X112383Y185240D02*
Y185867D01*
X112000Y186250D02*
X112383Y185867D01*
X137180Y106570D02*
X142738Y101012D01*
X136690Y82566D02*
Y82598D01*
X140332Y83265D02*
X142745Y80852D01*
X136690Y82598D02*
X137357Y83265D01*
X140332D01*
X215000Y23000D02*
X217000Y21000D01*
X302000Y152000D02*
X316000Y138000D01*
X248000Y40000D02*
Y111000D01*
X246000Y38000D02*
X248000Y40000D01*
X238000Y38000D02*
X246000D01*
X316000Y78000D02*
Y138000D01*
X142738Y101012D02*
X143984D01*
D72*
X158988Y105998D02*
X160122Y104864D01*
Y103803D02*
Y104864D01*
X165747Y108814D02*
X169196Y105365D01*
X160375Y108814D02*
X165747D01*
X160122Y103803D02*
X160410Y103516D01*
X289000Y67000D02*
X296752Y59248D01*
X301752D01*
X302500Y58500D01*
X288463Y67000D02*
X289000D01*
X285727Y64264D02*
X288463Y67000D01*
X259986Y64264D02*
X285727D01*
X258777Y65473D02*
X259986Y64264D01*
X256027Y65473D02*
X258777D01*
X255750Y65750D02*
X256027Y65473D01*
X288917Y58500D02*
X289000D01*
X285417Y62000D02*
X288917Y58500D01*
X260250Y62000D02*
X285417D01*
X259220Y60970D02*
X260250Y62000D01*
X256022Y60970D02*
X259220D01*
X158988Y105998D02*
Y107000D01*
X152750D02*
X158988D01*
X158189Y111000D02*
X160375Y108814D01*
X152750Y111000D02*
X158189D01*
D73*
X146027Y36465D02*
X147492Y35000D01*
X145823Y36465D02*
X146027D01*
X147492Y35000D02*
X152750D01*
X142540Y58460D02*
X142693Y58307D01*
X135525Y103000D02*
X138289Y100236D01*
X138216Y98216D02*
X138289Y98289D01*
X129250Y103000D02*
X135525D01*
X138289Y98289D02*
Y100236D01*
X129250Y99000D02*
X137739D01*
X138225Y98513D02*
X138442D01*
X137739Y99000D02*
X138225Y98513D01*
X150518Y83000D02*
X152750D01*
X150518Y82365D02*
Y83000D01*
X142693Y58307D02*
X143452D01*
X146759Y55000D01*
X152750D01*
X122500Y111000D02*
X129250D01*
X121500Y110000D02*
X122500Y111000D01*
X122789Y107000D02*
X129250D01*
X121500Y108289D02*
X122789Y107000D01*
X145000Y100289D02*
X146289Y99000D01*
X152750D01*
X145000Y102000D02*
X146000Y103000D01*
X152750D01*
D86*
X140618Y43618D02*
D03*
X106775Y44440D02*
D03*
X117947Y19530D02*
D03*
X102000Y19530D02*
D03*
Y14000D02*
D03*
X57000Y82000D02*
D03*
X66753Y85254D02*
D03*
X118024Y10200D02*
D03*
X136991Y90195D02*
D03*
X118825Y74265D02*
D03*
X112280Y78547D02*
D03*
X117830Y85089D02*
D03*
X105250Y97765D02*
D03*
X133384Y38365D02*
D03*
X92904Y34570D02*
D03*
X117529Y55015D02*
D03*
X73061Y150694D02*
D03*
X115985Y152000D02*
D03*
X209765Y38259D02*
D03*
X204913Y35731D02*
D03*
X195037Y159793D02*
D03*
X206091Y88280D02*
D03*
X209028Y156028D02*
D03*
X171802Y39595D02*
D03*
X120658Y116546D02*
D03*
X136074Y116005D02*
D03*
X42979Y169000D02*
D03*
X72005Y162005D02*
D03*
X112750Y165250D02*
D03*
X85055Y186023D02*
D03*
X107735Y100765D02*
D03*
X112000Y101000D02*
D03*
X93309Y109000D02*
D03*
X143267Y118626D02*
D03*
X148397Y116059D02*
D03*
X102995Y120735D02*
D03*
X76735Y86630D02*
D03*
X89056Y116884D02*
D03*
X84023Y122500D02*
D03*
X82537Y112552D02*
D03*
X113461Y61442D02*
D03*
X59455Y106545D02*
D03*
X113235Y68703D02*
D03*
X115353Y42906D02*
D03*
X166250Y97250D02*
D03*
X168500Y50500D02*
D03*
X162515Y35269D02*
D03*
X136575Y21086D02*
D03*
X113750Y20060D02*
D03*
X168853Y89265D02*
D03*
X169196Y105365D02*
D03*
X160410Y103516D02*
D03*
X161968Y112619D02*
D03*
X162083Y116528D02*
D03*
X120708Y100500D02*
D03*
X108835Y9796D02*
D03*
X103500Y5896D02*
D03*
X68325Y76738D02*
D03*
X76149Y82632D02*
D03*
X153385Y122500D02*
D03*
X116735Y90861D02*
D03*
X107326Y66010D02*
D03*
X107000Y71905D02*
D03*
X108308Y79200D02*
D03*
X88327Y55265D02*
D03*
X89344Y68127D02*
D03*
X89159Y62597D02*
D03*
X79253Y48295D02*
D03*
X78704Y54733D02*
D03*
X56417Y87480D02*
D03*
X87704Y83043D02*
D03*
X79909Y83860D02*
D03*
X72844Y77378D02*
D03*
X78250Y186235D02*
D03*
X112000Y186250D02*
D03*
X129323Y42365D02*
D03*
X161250Y120250D02*
D03*
X74108Y117892D02*
D03*
X63236Y112879D02*
D03*
X63500Y104000D02*
D03*
X118000Y27355D02*
D03*
X145823Y36465D02*
D03*
X75514Y65583D02*
D03*
X71768Y65965D02*
D03*
X162430Y81963D02*
D03*
X160665Y57914D02*
D03*
X168404Y75446D02*
D03*
X153103Y43201D02*
D03*
X155668Y46782D02*
D03*
X142901Y78735D02*
D03*
X142978Y74971D02*
D03*
X139000Y75000D02*
D03*
X99105Y68250D02*
D03*
X107520Y87500D02*
D03*
X75928Y100740D02*
D03*
X87764Y92129D02*
D03*
X72625Y87000D02*
D03*
X140945Y112000D02*
D03*
X145310Y110894D02*
D03*
X136668Y8351D02*
D03*
X149114Y3500D02*
D03*
X141839Y49464D02*
D03*
X138250Y54000D02*
D03*
X120000Y69750D02*
D03*
X130530Y74937D02*
D03*
X121500Y54500D02*
D03*
X100265Y49015D02*
D03*
X85550Y46983D02*
D03*
X166137Y9227D02*
D03*
X141036Y5464D02*
D03*
X160177Y21662D02*
D03*
X169765Y22281D02*
D03*
X130000Y179250D02*
D03*
X156564Y15608D02*
D03*
X136473Y4477D02*
D03*
X127000Y6235D02*
D03*
X118600Y33268D02*
D03*
X132750Y5038D02*
D03*
X145497Y29000D02*
D03*
X156121Y39000D02*
D03*
X152106Y27552D02*
D03*
X156368Y19368D02*
D03*
X142540Y58460D02*
D03*
X149835Y58365D02*
D03*
X136690Y66000D02*
D03*
X143416Y71000D02*
D03*
X145310Y95780D02*
D03*
X138442Y98513D02*
D03*
X89062Y29520D02*
D03*
X82500Y36500D02*
D03*
X85977Y38480D02*
D03*
X114000Y8000D02*
D03*
X92915Y49745D02*
D03*
X93000Y42849D02*
D03*
X94906Y55269D02*
D03*
X100000Y58785D02*
D03*
X89527Y37225D02*
D03*
X100265Y43250D02*
D03*
X155205Y31250D02*
D03*
X172500Y32810D02*
D03*
X100530Y39069D02*
D03*
X103580Y41286D02*
D03*
X172773Y45626D02*
D03*
X145808Y50889D02*
D03*
X172066Y76321D02*
D03*
X96250Y7235D02*
D03*
X170105Y109180D02*
D03*
X160190Y87929D02*
D03*
X136690Y82566D02*
D03*
X150518Y82365D02*
D03*
X249000Y11000D02*
D03*
X232000D02*
D03*
X215000D02*
D03*
X249000Y23000D02*
D03*
X232000D02*
D03*
X215000D02*
D03*
X78459Y58500D02*
D03*
X160190Y74691D02*
D03*
X171909Y80091D02*
D03*
X155000Y95000D02*
D03*
X103534Y30577D02*
D03*
X75496Y61818D02*
D03*
X170235Y56000D02*
D03*
X90872Y25274D02*
D03*
X146765Y75000D02*
D03*
X126765Y70365D02*
D03*
X143000Y54000D02*
D03*
X138980Y79000D02*
D03*
X136686Y69765D02*
D03*
X67555Y49296D02*
D03*
X121172Y91165D02*
D03*
X79250Y72250D02*
D03*
X158987Y91900D02*
D03*
X125750Y91165D02*
D03*
X255750Y65750D02*
D03*
X256022Y60970D02*
D03*
X204000Y43000D02*
D03*
X103799Y58201D02*
D03*
X75019Y40975D02*
D03*
X96145Y13259D02*
D03*
X171662Y66972D02*
D03*
X78378Y14570D02*
D03*
X62012D02*
D03*
X66360D02*
D03*
X71608D02*
D03*
X57230D02*
D03*
X63000Y34000D02*
D03*
X74295Y24019D02*
D03*
X103500Y61954D02*
D03*
X82500Y30201D02*
D03*
X69000Y34000D02*
D03*
Y30000D02*
D03*
X67958Y20208D02*
D03*
X69000Y40000D02*
D03*
X86000Y102000D02*
D03*
X78378Y20070D02*
D03*
X52378Y14570D02*
D03*
D88*
X165000Y31500D02*
D03*
D89*
X127750Y115750D02*
D03*
X154750D02*
D03*
Y10250D02*
D03*
X127750D02*
D03*
D90*
X152750Y103000D02*
D03*
Y87000D02*
D03*
Y83000D02*
D03*
Y79000D02*
D03*
Y71000D02*
D03*
Y67000D02*
D03*
Y75000D02*
D03*
Y99000D02*
D03*
Y91000D02*
D03*
Y95000D02*
D03*
Y107000D02*
D03*
Y111000D02*
D03*
Y15000D02*
D03*
Y19000D02*
D03*
Y23000D02*
D03*
Y27000D02*
D03*
Y31000D02*
D03*
Y59000D02*
D03*
Y55000D02*
D03*
Y51000D02*
D03*
Y47000D02*
D03*
Y43000D02*
D03*
Y39000D02*
D03*
Y35000D02*
D03*
Y63000D02*
D03*
X129250Y111000D02*
D03*
Y15000D02*
D03*
Y19000D02*
D03*
Y23000D02*
D03*
Y27000D02*
D03*
Y31000D02*
D03*
Y35000D02*
D03*
Y39000D02*
D03*
Y43000D02*
D03*
Y47000D02*
D03*
Y51000D02*
D03*
Y55000D02*
D03*
Y59000D02*
D03*
Y63000D02*
D03*
Y67000D02*
D03*
Y71000D02*
D03*
Y75000D02*
D03*
Y79000D02*
D03*
Y83000D02*
D03*
Y87000D02*
D03*
Y91000D02*
D03*
Y95000D02*
D03*
Y99000D02*
D03*
Y103000D02*
D03*
Y107000D02*
D03*
M02*
