G04*
G04 #@! TF.GenerationSoftware,Altium Limited,Altium Designer,23.10.1 (27)*
G04*
G04 Layer_Color=32896*
%FSLAX44Y44*%
%MOMM*%
G71*
G04*
G04 #@! TF.SameCoordinates,75C69956-F49F-4592-A11B-EFE5AB9CB6E8*
G04*
G04*
G04 #@! TF.FilePolarity,Positive*
G04*
G01*
G75*
%ADD11C,0.2000*%
%ADD14C,0.2540*%
%ADD16C,0.0500*%
%ADD94C,0.0390*%
G36*
X57386Y120776D02*
X57737D01*
Y120726D01*
X57988D01*
Y120676D01*
X58189D01*
Y120625D01*
X58389D01*
Y120575D01*
X58540D01*
Y120525D01*
X58640D01*
Y120475D01*
X58791D01*
Y120425D01*
X58891D01*
Y120375D01*
X58991D01*
Y120324D01*
X59092D01*
Y120274D01*
X59192D01*
Y120224D01*
X59292D01*
Y120174D01*
X59343D01*
X59343Y120124D01*
X59443D01*
Y120073D01*
X59493D01*
Y120023D01*
X59594D01*
Y119973D01*
X59644D01*
Y119923D01*
X59694D01*
Y119873D01*
X59744D01*
Y119823D01*
X59844D01*
Y119773D01*
X59894D01*
Y119722D01*
X59945D01*
Y119672D01*
X59995D01*
Y119622D01*
X60045D01*
Y119572D01*
X60095D01*
Y119522D01*
X60145D01*
Y119472D01*
X60195D01*
Y119371D01*
X60246D01*
Y119321D01*
X60296D01*
Y119271D01*
X60346D01*
Y119221D01*
X60396D01*
Y119120D01*
X60446D01*
Y119070D01*
X60497D01*
Y118970D01*
X60547D01*
Y118920D01*
X60597D01*
Y118819D01*
X60647D01*
Y118719D01*
X60697D01*
Y118619D01*
X60747D01*
Y118518D01*
X60798Y118518D01*
Y118418D01*
X60848D01*
Y118317D01*
X60898Y118318D01*
Y118217D01*
X60948D01*
X60948Y118067D01*
X60998D01*
Y117966D01*
X61048D01*
Y117816D01*
X61099Y117816D01*
Y117615D01*
X61149D01*
Y117465D01*
X61199D01*
Y117264D01*
X61249D01*
Y117063D01*
X61299D01*
Y116812D01*
X61350D01*
Y116461D01*
X61400D01*
Y116060D01*
X61450D01*
Y115358D01*
X61500D01*
Y109337D01*
X62855D01*
X62855Y106166D01*
X62855Y98500D01*
X61450Y98500D01*
Y104981D01*
Y109287D01*
X60095D01*
Y115358D01*
X60045D01*
Y115909D01*
X59995D01*
Y116260D01*
X59945D01*
Y116511D01*
X59894D01*
Y116712D01*
X59844Y116712D01*
Y116913D01*
X59794Y116913D01*
Y117063D01*
X59744D01*
Y117214D01*
X59694D01*
Y117314D01*
X59644D01*
Y117415D01*
X59594D01*
Y117565D01*
X59543D01*
Y117615D01*
X59493D01*
Y117716D01*
X59443D01*
Y117816D01*
X59393D01*
Y117916D01*
X59343D01*
Y117966D01*
X59292D01*
Y118017D01*
X59242D01*
Y118117D01*
X59192D01*
Y118167D01*
X59142D01*
Y118217D01*
X59092D01*
Y118267D01*
X59042D01*
Y118317D01*
X58991D01*
Y118368D01*
X58941D01*
Y118418D01*
X58891D01*
Y118468D01*
X58841D01*
Y118518D01*
X58791D01*
Y118568D01*
X58741D01*
Y118619D01*
X58640D01*
Y118669D01*
X58590D01*
Y118719D01*
X58490D01*
Y118769D01*
X58389D01*
Y118819D01*
X58289D01*
Y118869D01*
X58189D01*
Y118920D01*
X58088D01*
Y118970D01*
X57938D01*
Y119020D01*
X57838D01*
Y119070D01*
X57587D01*
Y119120D01*
X57386D01*
Y119170D01*
X56834D01*
Y119221D01*
X56433D01*
Y119170D01*
X55931D01*
Y119120D01*
X55680Y119120D01*
Y119070D01*
X55479D01*
Y119020D01*
X55379D01*
Y118970D01*
X55229D01*
Y118920D01*
X55128D01*
Y118869D01*
X55028D01*
Y118819D01*
X54928D01*
Y118769D01*
X54877D01*
Y118719D01*
X54777D01*
Y118669D01*
X54727D01*
Y118619D01*
X54626D01*
X54627Y118568D01*
X54576D01*
Y118518D01*
X54526D01*
Y118468D01*
X54476D01*
Y118418D01*
X54426D01*
Y118368D01*
X54376D01*
Y118317D01*
X54325D01*
Y118267D01*
X54275D01*
Y118167D01*
X54225D01*
Y118117D01*
X54175D01*
Y118067D01*
X54125D01*
Y117966D01*
X54075D01*
Y117916D01*
X54025D01*
Y117816D01*
X53974D01*
Y117716D01*
X53924D01*
Y117615D01*
X53874D01*
Y117515D01*
X53824D01*
Y117415D01*
X53774D01*
Y117264D01*
X53724D01*
Y117164D01*
X53673D01*
Y116963D01*
X53623D01*
Y116812D01*
X53573D01*
Y116612D01*
X53523D01*
Y116361D01*
X53473D01*
Y116010D01*
X53422D01*
Y115558D01*
X53372D01*
Y109717D01*
X53197Y109600D01*
X52987Y109287D01*
X51968D01*
Y115358D01*
X51917D01*
Y115809D01*
X51867D01*
Y116060D01*
X51817D01*
Y116260D01*
X51767D01*
Y116461D01*
X51717D01*
Y116612D01*
X51666D01*
Y116762D01*
X51616D01*
Y116863D01*
X51566D01*
Y117013D01*
X51516Y117013D01*
Y117114D01*
X51466D01*
Y117164D01*
X51416D01*
Y117264D01*
X51365D01*
Y117364D01*
X51315D01*
Y117415D01*
X51265D01*
Y117515D01*
X51215D01*
Y117565D01*
X51165D01*
Y117615D01*
X51115D01*
Y117665D01*
X51064D01*
Y117766D01*
X51014D01*
Y117816D01*
X50964Y117816D01*
Y117866D01*
X50914D01*
Y117916D01*
X50814D01*
Y117966D01*
X50763D01*
Y118017D01*
X50713Y118017D01*
Y118067D01*
X50663D01*
Y118117D01*
X50563D01*
Y118167D01*
X50512D01*
Y118217D01*
X50412D01*
Y118267D01*
X50312D01*
Y118317D01*
X50212D01*
Y118368D01*
X50111D01*
Y118418D01*
X49961D01*
Y118468D01*
X49760D01*
Y118518D01*
X49509D01*
Y118568D01*
X48656D01*
Y118518D01*
X48305Y118518D01*
Y118468D01*
X48054D01*
Y118418D01*
X47904D01*
Y118368D01*
X47753D01*
Y118317D01*
X47653D01*
Y118267D01*
X47552D01*
Y118217D01*
X47452D01*
Y118167D01*
X47352D01*
Y118117D01*
X47251D01*
Y118067D01*
X47201D01*
Y118017D01*
X47151Y118017D01*
Y117966D01*
X47051D01*
Y117916D01*
X47001D01*
Y117866D01*
X46950D01*
Y117816D01*
X46900Y117816D01*
Y117766D01*
X46850D01*
Y117716D01*
X46800Y117716D01*
Y117665D01*
X46750D01*
Y117615D01*
X46700D01*
Y117515D01*
X46649Y117515D01*
Y117465D01*
X46599D01*
Y117415D01*
X46549D01*
Y117314D01*
X46499D01*
Y117214D01*
X46449D01*
X46449Y117114D01*
X46399D01*
Y117013D01*
X46348Y117013D01*
Y116913D01*
X46298Y116913D01*
Y116812D01*
X46248D01*
Y116662D01*
X46198D01*
Y116511D01*
X46148D01*
Y116311D01*
X46097D01*
Y116110D01*
X46047Y116110D01*
X46047Y115759D01*
X45997D01*
Y115307D01*
X45947D01*
Y102765D01*
X45897D01*
Y102363D01*
X45847D01*
Y102112D01*
X45796D01*
Y101861D01*
X45746D01*
Y101711D01*
X45696D01*
Y101560D01*
X45646D01*
Y101410D01*
X45596D01*
Y101259D01*
X45546D01*
Y101159D01*
X45495D01*
Y101009D01*
X45445D01*
Y100908D01*
X45395D01*
Y100808D01*
X45345D01*
Y100708D01*
X45295D01*
Y100657D01*
X45245D01*
Y100557D01*
X45194D01*
Y100457D01*
X45144D01*
Y100407D01*
X45094D01*
Y100306D01*
X45044Y100306D01*
Y100256D01*
X44994D01*
Y100206D01*
X44944D01*
Y100105D01*
X44893D01*
Y100055D01*
X44843D01*
Y100005D01*
X44793Y100005D01*
Y99955D01*
X44743D01*
Y99905D01*
X44693D01*
Y99804D01*
X44643D01*
X44643Y99754D01*
X44542D01*
Y99704D01*
X44492D01*
Y99654D01*
X44442D01*
Y99604D01*
X44392D01*
Y99554D01*
X44342D01*
Y99503D01*
X44291D01*
Y99453D01*
X44241D01*
Y99403D01*
X44141D01*
Y99353D01*
X44091D01*
Y99303D01*
X44040D01*
Y99253D01*
X43940D01*
Y99202D01*
X43890D01*
Y99152D01*
X43790D01*
Y99102D01*
X43689D01*
Y99052D01*
X43639D01*
Y99002D01*
X43539D01*
Y98952D01*
X43388D01*
Y98901D01*
X43288D01*
Y98851D01*
X43188D01*
Y98801D01*
X43037D01*
Y98751D01*
X42887D01*
Y98701D01*
X42736D01*
Y98651D01*
X42535D01*
Y98600D01*
X42284D01*
Y98550D01*
X41983D01*
Y98500D01*
X41432D01*
Y98450D01*
X40779D01*
Y98500D01*
X40227D01*
Y98550D01*
X39927D01*
Y98600D01*
X39676D01*
Y98651D01*
X39475D01*
Y98701D01*
X39324D01*
Y98751D01*
X39174D01*
Y98801D01*
X39023D01*
Y98851D01*
X38923D01*
Y98901D01*
X38823D01*
Y98952D01*
X38722D01*
X38722Y99002D01*
X38622D01*
Y99052D01*
X38522D01*
Y99102D01*
X38421D01*
Y99152D01*
X38371D01*
Y99202D01*
X38271D01*
Y99253D01*
X38221D01*
X38221Y99303D01*
X38120D01*
Y99353D01*
X38070D01*
Y99403D01*
X38020D01*
Y99453D01*
X37920D01*
Y99503D01*
X37870D01*
Y99554D01*
X37819D01*
Y99604D01*
X37769D01*
Y99654D01*
X37719D01*
Y99704D01*
X37669D01*
Y99754D01*
X37619D01*
Y99804D01*
X37568D01*
Y99855D01*
X37518D01*
Y99905D01*
X37468D01*
Y99955D01*
X37418D01*
Y100005D01*
X37368D01*
Y100055D01*
X37318D01*
Y100156D01*
X37267D01*
Y100206D01*
X37217D01*
Y100256D01*
X37167D01*
Y100356D01*
X37117D01*
Y100407D01*
X37067D01*
Y100507D01*
X37017D01*
Y100557D01*
X36966D01*
Y100657D01*
X36916D01*
Y100758D01*
X36866D01*
Y100858D01*
X36816D01*
Y100958D01*
X36766D01*
Y101059D01*
X36716D01*
Y101159D01*
X36665D01*
Y101310D01*
X36615Y101310D01*
Y101410D01*
X36565D01*
Y101560D01*
X36515D01*
Y101761D01*
X36465D01*
Y101912D01*
X36414D01*
Y102163D01*
X36364D01*
Y102464D01*
X36314D01*
Y102865D01*
X36264D01*
Y109287D01*
X37669D01*
Y103266D01*
X37719D01*
Y102865D01*
X37769D01*
Y102614D01*
X37819D01*
Y102464D01*
X37870D01*
Y102263D01*
X37920D01*
Y102112D01*
X37970D01*
Y102012D01*
X38020D01*
Y101861D01*
X38070D01*
Y101761D01*
X38120D01*
Y101661D01*
X38170D01*
Y101611D01*
X38221Y101611D01*
Y101510D01*
X38271D01*
Y101410D01*
X38321D01*
Y101360D01*
X38371D01*
Y101310D01*
X38421Y101310D01*
Y101209D01*
X38472D01*
Y101159D01*
X38522D01*
Y101109D01*
X38572Y101109D01*
Y101059D01*
X38622D01*
Y101009D01*
X38672D01*
Y100958D01*
X38722D01*
X38722Y100908D01*
X38772D01*
Y100858D01*
X38823D01*
Y100808D01*
X38923D01*
Y100758D01*
X38973D01*
Y100708D01*
X39023D01*
Y100657D01*
X39124D01*
Y100607D01*
X39174D01*
Y100557D01*
X39274D01*
Y100507D01*
X39375D01*
Y100457D01*
X39475D01*
Y100407D01*
X39575D01*
Y100356D01*
X39726D01*
Y100306D01*
X39876D01*
Y100256D01*
X40027D01*
Y100206D01*
X40278D01*
Y100156D01*
X40629D01*
Y100105D01*
X41582D01*
Y100156D01*
X41983D01*
Y100206D01*
X42184D01*
Y100256D01*
X42335D01*
Y100306D01*
X42485D01*
Y100356D01*
X42636D01*
Y100407D01*
X42736D01*
Y100457D01*
X42836D01*
Y100507D01*
X42937Y100507D01*
Y100557D01*
X43037D01*
Y100607D01*
X43087Y100607D01*
Y100657D01*
X43188D01*
Y100708D01*
X43238D01*
Y100758D01*
X43338D01*
Y100808D01*
X43388D01*
Y100858D01*
X43438D01*
Y100908D01*
X43489D01*
Y100958D01*
X43539D01*
Y101009D01*
X43589D01*
Y101059D01*
X43639D01*
Y101109D01*
X43689D01*
Y101159D01*
X43740D01*
Y101259D01*
X43790D01*
Y101310D01*
X43840Y101310D01*
Y101360D01*
X43890D01*
Y101460D01*
X43940D01*
Y101510D01*
X43990D01*
Y101611D01*
X44040Y101611D01*
Y101711D01*
X44091D01*
Y101811D01*
X44141D01*
Y101912D01*
X44191D01*
Y102012D01*
X44241D01*
Y102112D01*
X44291D01*
Y102263D01*
X44342D01*
Y102464D01*
X44392D01*
Y102614D01*
X44442D01*
Y102865D01*
X44492D01*
Y103216D01*
X44542D01*
Y115408D01*
X44592D01*
Y115960D01*
X44643D01*
X44643Y116361D01*
X44693D01*
Y116612D01*
X44743D01*
Y116863D01*
X44793D01*
Y117063D01*
X44843D01*
X44843Y117264D01*
X44893D01*
Y117415D01*
X44944D01*
X44944Y117565D01*
X44994D01*
Y117665D01*
X45044D01*
Y117816D01*
X45094D01*
Y117916D01*
X45144D01*
Y118017D01*
X45194D01*
Y118167D01*
X45245D01*
Y118267D01*
X45295D01*
Y118317D01*
X45345D01*
Y118418D01*
X45395D01*
Y118518D01*
X45445D01*
X45445Y118568D01*
X45495D01*
Y118669D01*
X45546D01*
Y118719D01*
X45596D01*
Y118769D01*
X45646D01*
X45646Y118869D01*
X45696D01*
Y118920D01*
X45746D01*
Y118970D01*
X45796D01*
Y119020D01*
X45847D01*
Y119070D01*
X45897D01*
Y119120D01*
X45947Y119120D01*
Y119221D01*
X45997D01*
Y119271D01*
X46047D01*
Y119321D01*
X46148D01*
Y119371D01*
X46198D01*
Y119421D01*
X46248D01*
Y119472D01*
X46348D01*
Y119522D01*
X46399D01*
Y119572D01*
X46449D01*
X46449Y119622D01*
X46549D01*
X46549Y119672D01*
X46649D01*
Y119722D01*
X46700D01*
Y119773D01*
X46800D01*
Y119823D01*
X46900D01*
Y119873D01*
X47051D01*
Y119923D01*
X47151D01*
Y119973D01*
X47302D01*
Y120023D01*
X47502D01*
Y120073D01*
X47653D01*
X47653Y120124D01*
X48004D01*
Y120174D01*
X48606D01*
Y120224D01*
X48857D01*
Y120174D01*
X49409D01*
Y120124D01*
X49609D01*
Y120073D01*
X49810D01*
Y120023D01*
X50011D01*
Y119973D01*
X50111D01*
Y119923D01*
X50262D01*
Y119873D01*
X50362D01*
Y119823D01*
X50462D01*
Y119773D01*
X50563D01*
Y119722D01*
X50663D01*
Y119672D01*
X50763D01*
X50763Y119622D01*
X50864D01*
Y119572D01*
X50914D01*
Y119522D01*
X50964D01*
Y119472D01*
X51064D01*
Y119421D01*
X51115D01*
Y119371D01*
X51215D01*
Y119321D01*
X51265D01*
Y119271D01*
X51315D01*
Y119221D01*
X51365D01*
Y119170D01*
X51416D01*
Y119120D01*
X51466D01*
Y119070D01*
X51516D01*
Y119020D01*
X51566D01*
Y118970D01*
X51616D01*
Y118920D01*
X51666D01*
Y118869D01*
X51717D01*
Y118819D01*
X51767D01*
Y118769D01*
X51817D01*
Y118719D01*
X51867D01*
Y118619D01*
X51917D01*
Y118568D01*
X51968D01*
Y118518D01*
X52018Y118518D01*
Y118418D01*
X52068D01*
Y118317D01*
X52118Y118318D01*
Y118267D01*
X52168D01*
Y118167D01*
X52218D01*
Y118067D01*
X52269D01*
Y117966D01*
X52319D01*
Y117816D01*
X52369Y117816D01*
Y117665D01*
X52419D01*
Y117515D01*
X52469D01*
Y117364D01*
X52519D01*
Y117314D01*
X52569D01*
Y117615D01*
X52620D01*
Y117816D01*
X52670Y117816D01*
X52670Y118017D01*
X52720D01*
Y118167D01*
X52770D01*
Y118317D01*
X52820Y118318D01*
Y118418D01*
X52871D01*
Y118568D01*
X52921D01*
Y118669D01*
X52971D01*
Y118769D01*
X53021D01*
Y118869D01*
X53071D01*
Y118920D01*
X53121D01*
Y119020D01*
X53172D01*
Y119120D01*
X53222D01*
Y119170D01*
X53272D01*
Y119221D01*
X53322D01*
Y119321D01*
X53372D01*
Y119371D01*
X53422D01*
Y119421D01*
X53473D01*
Y119472D01*
X53523D01*
Y119522D01*
X53573D01*
Y119622D01*
X53623D01*
Y119672D01*
X53724D01*
Y119722D01*
X53774D01*
Y119773D01*
X53824D01*
Y119823D01*
X53874D01*
Y119873D01*
X53924D01*
Y119923D01*
X53974D01*
Y119973D01*
X54025D01*
Y120023D01*
X54125D01*
Y120073D01*
X54175D01*
Y120124D01*
X54275D01*
Y120174D01*
X54325D01*
Y120224D01*
X54426D01*
Y120274D01*
X54476D01*
Y120324D01*
X54576D01*
Y120375D01*
X54677D01*
Y120425D01*
X54777D01*
Y120475D01*
X54877D01*
Y120525D01*
X55028D01*
Y120575D01*
X55128D01*
X55128Y120625D01*
X55329D01*
Y120676D01*
X55479D01*
Y120726D01*
X55730D01*
Y120776D01*
X56031D01*
Y120826D01*
X57386D01*
Y120776D01*
D02*
G37*
G36*
X64460Y95540D02*
X34608D01*
Y96393D01*
X34659D01*
Y97206D01*
X64460D01*
Y95540D01*
D02*
G37*
G36*
X44191Y92028D02*
X41231D01*
Y89971D01*
X41181D01*
Y89519D01*
X41131D01*
Y89218D01*
X41080D01*
Y89068D01*
X41030D01*
Y88968D01*
X40980D01*
Y88867D01*
X40930Y88867D01*
Y88767D01*
X40880D01*
Y88666D01*
X40830D01*
Y88566D01*
X40779Y88566D01*
Y88516D01*
X40729D01*
Y88416D01*
X40679D01*
Y88365D01*
X40629Y88365D01*
Y88315D01*
X40579D01*
Y88265D01*
X40528D01*
Y88215D01*
X40478D01*
Y88165D01*
X40428D01*
Y88115D01*
X40378D01*
Y88064D01*
X40328D01*
Y88014D01*
X40227D01*
Y87964D01*
X40177Y87964D01*
Y87914D01*
X40077D01*
Y87864D01*
X39977D01*
Y87814D01*
X39876D01*
Y87763D01*
X39776D01*
Y87713D01*
X39625D01*
X39625Y87663D01*
X39475D01*
Y87613D01*
X39174D01*
Y87563D01*
X38271D01*
Y87613D01*
X38070D01*
Y87663D01*
X37870D01*
Y87713D01*
X37719D01*
Y87763D01*
X37568D01*
Y87814D01*
X37468D01*
Y87864D01*
X37418D01*
Y87914D01*
X37318D01*
Y87964D01*
X37217D01*
Y88014D01*
X37167D01*
Y88064D01*
X37117Y88064D01*
Y88115D01*
X37067D01*
Y88165D01*
X37017D01*
Y88215D01*
X36966D01*
Y88265D01*
X36916D01*
Y88315D01*
X36866D01*
Y88365D01*
X36816Y88365D01*
Y88416D01*
X36766D01*
Y88466D01*
X36716D01*
Y88566D01*
X36665Y88566D01*
Y88666D01*
X36615D01*
Y88717D01*
X36565D01*
Y88817D01*
X36515D01*
Y88968D01*
X36465D01*
Y89118D01*
X36414D01*
Y89319D01*
X36364D01*
Y89770D01*
X36314D01*
Y93633D01*
X44191D01*
Y92028D01*
D02*
G37*
G36*
X62905Y88064D02*
X61550Y88064D01*
X61550Y92028D01*
X55078D01*
Y93633D01*
X62905D01*
Y88064D01*
D02*
G37*
G36*
X53623Y93583D02*
X53673D01*
Y89921D01*
X53623D01*
Y88968D01*
X53573D01*
Y88666D01*
X53523D01*
Y88516D01*
Y88466D01*
X53473D01*
Y88315D01*
X53422D01*
Y88215D01*
X53372D01*
Y88115D01*
X53322D01*
Y88014D01*
X53272D01*
Y87964D01*
X53222D01*
Y87864D01*
X53172D01*
Y87814D01*
X53121D01*
Y87763D01*
X53071D01*
Y87713D01*
X53021D01*
Y87663D01*
X52971D01*
Y87613D01*
X52921D01*
Y87563D01*
X52871D01*
Y87513D01*
X52820D01*
Y87462D01*
X52720D01*
Y87412D01*
X52670D01*
Y87362D01*
X52620D01*
Y87312D01*
X52519D01*
Y87262D01*
X52419D01*
Y87212D01*
X52319D01*
Y87161D01*
X52168D01*
Y87111D01*
X52018D01*
Y87061D01*
X51867D01*
X51867Y87011D01*
X51516D01*
Y86961D01*
X51265D01*
Y87011D01*
X50864D01*
Y87061D01*
X50713D01*
Y87111D01*
X50563D01*
Y87161D01*
X50462D01*
Y87212D01*
X50362D01*
Y87262D01*
X50262D01*
Y87312D01*
X50212D01*
Y87362D01*
X50161D01*
Y87412D01*
X50061D01*
Y87462D01*
X50011D01*
Y87513D01*
X49961D01*
Y87563D01*
X49910D01*
Y87663D01*
X49860D01*
Y87713D01*
X49810D01*
Y87763D01*
X49760D01*
Y87814D01*
X49710D01*
Y87914D01*
X49660D01*
Y88014D01*
X49609D01*
Y88115D01*
X49559D01*
Y88215D01*
X49509D01*
Y88365D01*
X49459Y88365D01*
Y88416D01*
X49409D01*
Y88315D01*
X49359D01*
Y88215D01*
X49308D01*
Y88165D01*
X49258D01*
Y88115D01*
X49208D01*
Y88014D01*
X49158D01*
Y87964D01*
X49108D01*
Y87914D01*
X49058D01*
Y87864D01*
X49007D01*
Y87814D01*
X48957D01*
Y87763D01*
X48857D01*
Y87713D01*
X48807D01*
Y87663D01*
X48706D01*
X48706Y87613D01*
X48656D01*
Y87563D01*
X48556D01*
Y87513D01*
X48405D01*
Y87462D01*
X48305D01*
Y87412D01*
X48054D01*
Y87362D01*
X47452D01*
Y87412D01*
X47251D01*
Y87462D01*
X47101D01*
Y87513D01*
X46950D01*
Y87563D01*
X46850D01*
X46850Y87613D01*
X46800D01*
Y87663D01*
X46700D01*
Y87713D01*
X46649D01*
Y87763D01*
X46549D01*
Y87814D01*
X46499D01*
Y87864D01*
X46449D01*
Y87914D01*
X46399D01*
Y87964D01*
X46348Y87964D01*
Y88014D01*
X46298D01*
Y88064D01*
X46248D01*
Y88165D01*
X46198D01*
Y88215D01*
X46148D01*
Y88265D01*
X46097D01*
Y88365D01*
X46047Y88365D01*
Y88466D01*
X45997D01*
Y88566D01*
X45947D01*
Y88717D01*
X45897D01*
Y88867D01*
X45847Y88867D01*
Y89118D01*
X45796D01*
Y89570D01*
X45746D01*
Y93633D01*
X53623D01*
Y93583D01*
D02*
G37*
G36*
X29164Y85167D02*
X29130Y85118D01*
X29163Y82244D01*
X14601Y77456D01*
X14552Y80626D01*
X24342Y83599D01*
X14586Y86603D01*
X14602Y89895D01*
X29164Y85167D01*
D02*
G37*
G36*
X55607Y83462D02*
X55618Y83441D01*
X55612Y74115D01*
X55586Y74089D01*
X55533Y74078D01*
X55460Y74067D01*
X55402Y74052D01*
X55360Y74041D01*
X55270Y74025D01*
X55197Y74015D01*
X55139Y73999D01*
X55097Y73988D01*
X54986Y73973D01*
X54944Y73962D01*
X54886Y73946D01*
X54723Y73920D01*
X54681Y73910D01*
X54623Y73894D01*
X54460Y73868D01*
X54418Y73857D01*
X54360Y73841D01*
X54271Y73825D01*
X54197Y73815D01*
X54139Y73799D01*
X54097Y73789D01*
X54008Y73773D01*
X53934Y73762D01*
X53861Y73741D01*
X53818Y73731D01*
X53671Y73710D01*
X53613Y73694D01*
X53461Y73668D01*
X53419Y73657D01*
X53361Y73641D01*
X53198Y73615D01*
X53156Y73604D01*
X53098Y73589D01*
X53008Y73573D01*
X52935Y73562D01*
X52877Y73547D01*
X52835Y73536D01*
X52745Y73520D01*
X52672Y73510D01*
X52640Y73499D01*
X52566Y73489D01*
X52545Y73510D01*
X52535Y79002D01*
X52498Y79018D01*
X52409Y78991D01*
X52367Y78981D01*
X52261Y78970D01*
X52219Y78960D01*
X52161Y78944D01*
X51998Y78917D01*
X51956Y78907D01*
X51898Y78891D01*
X51809Y78875D01*
X51735Y78865D01*
X51693Y78854D01*
X51620Y78833D01*
X51472Y78812D01*
X51414Y78797D01*
X51372Y78786D01*
X51273Y78770D01*
X51199Y78760D01*
X51146Y78739D01*
X51052Y78728D01*
X51009Y78718D01*
X50936Y78707D01*
X50867Y78681D01*
X50857Y73200D01*
X50846Y73157D01*
X50815Y73136D01*
X50652Y73110D01*
X50610Y73099D01*
X50552Y73084D01*
X50462Y73068D01*
X50389Y73057D01*
X50299Y73031D01*
X50178Y73015D01*
X50136Y73005D01*
X50078Y72989D01*
X50036Y72979D01*
X49915Y72963D01*
X49873Y72952D01*
X49815Y72937D01*
X49700Y72915D01*
X49637Y72905D01*
X49552Y72884D01*
X49400Y72858D01*
X49358Y72847D01*
X49300Y72831D01*
X49210Y72815D01*
X49137Y72805D01*
X49079Y72789D01*
X49037Y72779D01*
X48947Y72763D01*
X48874Y72752D01*
X48826Y72737D01*
X48784Y72726D01*
X48663Y72710D01*
X48621Y72700D01*
X48563Y72684D01*
X48521Y72673D01*
X48400Y72658D01*
X48342Y72642D01*
X48258Y72621D01*
X48174Y72610D01*
X48106Y72594D01*
X48085Y72626D01*
X48074Y78108D01*
X48053Y78118D01*
X47948Y78108D01*
X47859Y78081D01*
X47737Y78065D01*
X47653Y78044D01*
X47622Y78034D01*
X47448Y78007D01*
X47364Y77986D01*
X47211Y77960D01*
X47169Y77950D01*
X47112Y77934D01*
X47059Y77923D01*
X46975Y77913D01*
X46922Y77902D01*
X46880Y77892D01*
X46822Y77876D01*
X46780Y77866D01*
X46675Y77855D01*
X46601Y77834D01*
X46570Y77823D01*
X46465Y77813D01*
X46422Y77802D01*
X46401Y77781D01*
X46391Y77729D01*
X46396Y69191D01*
X46386Y69054D01*
X46401Y69039D01*
X46465Y69028D01*
X46538Y69039D01*
X46596Y69054D01*
X46638Y69065D01*
X46775Y69086D01*
X46901Y69117D01*
X47012Y69133D01*
X47054Y69144D01*
X47127Y69165D01*
X47169Y69175D01*
X47275Y69186D01*
X47317Y69196D01*
X47390Y69217D01*
X47432Y69228D01*
X47538Y69238D01*
X47580Y69249D01*
X47632Y69270D01*
X47748Y69281D01*
X47832Y69302D01*
X47890Y69317D01*
X48011Y69333D01*
X48053Y69344D01*
X48111Y69359D01*
X48153Y69370D01*
X48274Y69386D01*
X48332Y69401D01*
X48374Y69412D01*
X48527Y69438D01*
X48569Y69449D01*
X48626Y69465D01*
X48716Y69480D01*
X48790Y69491D01*
X48832Y69501D01*
X48889Y69517D01*
X48979Y69533D01*
X49053Y69543D01*
X49126Y69564D01*
X49158Y69575D01*
X49263Y69586D01*
X49347Y69607D01*
X49405Y69622D01*
X49526Y69638D01*
X49568Y69649D01*
X49642Y69670D01*
X49684Y69680D01*
X49789Y69691D01*
X49863Y69712D01*
X49947Y69733D01*
X50052Y69743D01*
X50142Y69770D01*
X50231Y69785D01*
X50305Y69796D01*
X50378Y69817D01*
X50420Y69827D01*
X50568Y69849D01*
X50626Y69864D01*
X50668Y69875D01*
X50804Y69896D01*
X50889Y69917D01*
X51041Y69943D01*
X51083Y69954D01*
X51141Y69970D01*
X51304Y69996D01*
X51362Y70012D01*
X51404Y70022D01*
X51493Y70038D01*
X51567Y70048D01*
X51641Y70069D01*
X51672Y70080D01*
X51778Y70091D01*
X51820Y70101D01*
X51877Y70117D01*
X51919Y70127D01*
X52041Y70143D01*
X52083Y70154D01*
X52156Y70175D01*
X52198Y70185D01*
X52304Y70196D01*
X52361Y70212D01*
X52403Y70222D01*
X52482Y70238D01*
X52556Y70248D01*
X52598Y70259D01*
X52656Y70275D01*
X52745Y70290D01*
X52819Y70301D01*
X52893Y70322D01*
X52935Y70332D01*
X53082Y70354D01*
X53140Y70369D01*
X53182Y70380D01*
X53292Y70396D01*
X53335Y70406D01*
X53408Y70427D01*
X53450Y70438D01*
X53555Y70448D01*
X53598Y70459D01*
X53671Y70480D01*
X53713Y70490D01*
X53818Y70501D01*
X53892Y70522D01*
X53924Y70532D01*
X54029Y70543D01*
X54113Y70564D01*
X54171Y70580D01*
X54292Y70596D01*
X54334Y70606D01*
X54392Y70622D01*
X54434Y70632D01*
X54555Y70648D01*
X54597Y70659D01*
X54655Y70675D01*
X54697Y70685D01*
X54818Y70701D01*
X54907Y70727D01*
X54997Y70743D01*
X55071Y70753D01*
X55113Y70764D01*
X55170Y70780D01*
X55260Y70795D01*
X55333Y70806D01*
X55391Y70822D01*
X55434Y70832D01*
X55533Y70848D01*
X55565Y70859D01*
X55602Y70843D01*
X55618Y70806D01*
X55612Y67034D01*
X55597Y67018D01*
X55565Y67008D01*
X55491Y66997D01*
X55418Y66976D01*
X55386Y66966D01*
X55281Y66955D01*
X55239Y66945D01*
X55181Y66929D01*
X55139Y66919D01*
X55018Y66903D01*
X54976Y66892D01*
X54918Y66877D01*
X54876Y66866D01*
X54755Y66850D01*
X54697Y66834D01*
X54655Y66824D01*
X54576Y66808D01*
X54502Y66798D01*
X54460Y66787D01*
X54402Y66771D01*
X54313Y66755D01*
X54239Y66745D01*
X54181Y66729D01*
X54139Y66719D01*
X54050Y66703D01*
X53976Y66692D01*
X53918Y66677D01*
X53876Y66666D01*
X53766Y66650D01*
X53724Y66640D01*
X53650Y66619D01*
X53608Y66608D01*
X53503Y66598D01*
X53461Y66587D01*
X53403Y66571D01*
X53240Y66545D01*
X53166Y66524D01*
X53082Y66503D01*
X52977Y66493D01*
X52887Y66466D01*
X52766Y66450D01*
X52724Y66440D01*
X52667Y66424D01*
X52624Y66414D01*
X52503Y66398D01*
X52461Y66387D01*
X52403Y66371D01*
X52361Y66361D01*
X52240Y66345D01*
X52151Y66319D01*
X52062Y66303D01*
X51988Y66293D01*
X51946Y66282D01*
X51888Y66266D01*
X51799Y66251D01*
X51725Y66240D01*
X51667Y66224D01*
X51625Y66214D01*
X51536Y66198D01*
X51462Y66187D01*
X51404Y66172D01*
X51362Y66161D01*
X51252Y66145D01*
X51209Y66135D01*
X51136Y66114D01*
X51094Y66103D01*
X50988Y66093D01*
X50946Y66082D01*
X50873Y66061D01*
X50831Y66051D01*
X50725Y66040D01*
X50668Y66024D01*
X50626Y66014D01*
X50547Y65998D01*
X50473Y65987D01*
X50431Y65977D01*
X50357Y65956D01*
X50210Y65935D01*
X50152Y65919D01*
X50110Y65909D01*
X49989Y65893D01*
X49931Y65877D01*
X49889Y65866D01*
X49736Y65840D01*
X49694Y65830D01*
X49637Y65814D01*
X49473Y65788D01*
X49431Y65777D01*
X49373Y65761D01*
X49284Y65746D01*
X49210Y65735D01*
X49137Y65714D01*
X49105Y65703D01*
X49000Y65693D01*
X48916Y65672D01*
X48858Y65656D01*
X48737Y65640D01*
X48695Y65630D01*
X48637Y65614D01*
X48595Y65603D01*
X48474Y65588D01*
X48416Y65572D01*
X48374Y65561D01*
X48295Y65546D01*
X48221Y65535D01*
X48179Y65525D01*
X48122Y65509D01*
X48032Y65493D01*
X47958Y65482D01*
X47948D01*
X47916Y65472D01*
X47843Y65451D01*
X47695Y65430D01*
X47638Y65414D01*
X47596Y65404D01*
X47459Y65382D01*
X47375Y65361D01*
X47222Y65335D01*
X47180Y65325D01*
X47122Y65309D01*
X46959Y65283D01*
X46885Y65262D01*
X46854Y65251D01*
X46770Y65241D01*
X46696Y65230D01*
X46606Y65204D01*
X46507Y65188D01*
X46433Y65177D01*
X46407Y65151D01*
X46391Y65114D01*
X46396Y62058D01*
X46386Y62026D01*
X46396Y61963D01*
X46422Y61947D01*
X46570Y61968D01*
X46643Y61989D01*
X46685Y62000D01*
X46833Y62021D01*
X46891Y62037D01*
X46933Y62047D01*
X47043Y62063D01*
X47127Y62084D01*
X47201Y62105D01*
X47306Y62116D01*
X47348Y62126D01*
X47406Y62142D01*
X47569Y62168D01*
X47627Y62184D01*
X47669Y62195D01*
X47758Y62210D01*
X47832Y62221D01*
X47906Y62242D01*
X47937Y62253D01*
X48043Y62263D01*
X48085Y62274D01*
X48143Y62289D01*
X48185Y62300D01*
X48306Y62316D01*
X48348Y62326D01*
X48421Y62347D01*
X48463Y62358D01*
X48569Y62368D01*
X48658Y62395D01*
X48748Y62410D01*
X48821Y62421D01*
X48863Y62431D01*
X48921Y62447D01*
X49011Y62463D01*
X49084Y62474D01*
X49142Y62489D01*
X49184Y62500D01*
X49274Y62516D01*
X49347Y62526D01*
X49405Y62542D01*
X49447Y62552D01*
X49558Y62568D01*
X49600Y62579D01*
X49673Y62600D01*
X49715Y62610D01*
X49821Y62621D01*
X49863Y62631D01*
X49936Y62652D01*
X49978Y62663D01*
X50084Y62673D01*
X50173Y62700D01*
X50294Y62716D01*
X50378Y62737D01*
X50452Y62758D01*
X50599Y62779D01*
X50657Y62794D01*
X50699Y62805D01*
X50820Y62821D01*
X50862Y62831D01*
X50920Y62847D01*
X51073Y62873D01*
X51115Y62884D01*
X51172Y62900D01*
X51262Y62915D01*
X51336Y62926D01*
X51378Y62936D01*
X51436Y62952D01*
X51525Y62968D01*
X51599Y62979D01*
X51672Y63000D01*
X51704Y63010D01*
X51809Y63021D01*
X51893Y63042D01*
X51951Y63057D01*
X52072Y63073D01*
X52114Y63084D01*
X52188Y63105D01*
X52230Y63115D01*
X52335Y63126D01*
X52377Y63136D01*
X52451Y63157D01*
X52493Y63168D01*
X52598Y63178D01*
X52640Y63189D01*
X52693Y63210D01*
X52808Y63221D01*
X52893Y63242D01*
X52966Y63263D01*
X53114Y63284D01*
X53172Y63299D01*
X53214Y63310D01*
X53350Y63331D01*
X53435Y63352D01*
X53587Y63378D01*
X53629Y63389D01*
X53687Y63405D01*
X53776Y63420D01*
X53850Y63431D01*
X53908Y63447D01*
X53950Y63457D01*
X54040Y63473D01*
X54113Y63484D01*
X54202Y63510D01*
X54324Y63526D01*
X54366Y63536D01*
X54423Y63552D01*
X54466Y63562D01*
X54587Y63578D01*
X54629Y63589D01*
X54686Y63604D01*
X54729Y63615D01*
X54850Y63631D01*
X54907Y63647D01*
X54949Y63657D01*
X55028Y63673D01*
X55102Y63683D01*
X55144Y63694D01*
X55202Y63710D01*
X55292Y63726D01*
X55365Y63736D01*
X55439Y63757D01*
X55470Y63768D01*
X55597Y63778D01*
X55618Y63747D01*
X55612Y60027D01*
X55623Y59996D01*
X55602Y59943D01*
X55533Y59928D01*
X55491Y59917D01*
X55434Y59901D01*
X55312Y59885D01*
X55270Y59875D01*
X55212Y59859D01*
X55170Y59848D01*
X55050Y59833D01*
X55007Y59822D01*
X54949Y59806D01*
X54907Y59796D01*
X54787Y59780D01*
X54744Y59770D01*
X54671Y59749D01*
X54629Y59738D01*
X54523Y59728D01*
X54481Y59717D01*
X54423Y59701D01*
X54334Y59686D01*
X54260Y59675D01*
X54202Y59659D01*
X54160Y59649D01*
X54071Y59633D01*
X53997Y59622D01*
X53939Y59607D01*
X53897Y59596D01*
X53761Y59575D01*
X53634Y59543D01*
X53513Y59528D01*
X53424Y59501D01*
X53335Y59486D01*
X53261Y59475D01*
X53219Y59465D01*
X53161Y59449D01*
X53071Y59433D01*
X52998Y59422D01*
X52956Y59412D01*
X52898Y59396D01*
X52777Y59380D01*
X52735Y59370D01*
X52677Y59354D01*
X52635Y59344D01*
X52514Y59328D01*
X52472Y59317D01*
X52398Y59296D01*
X52356Y59286D01*
X52251Y59275D01*
X52209Y59265D01*
X52135Y59244D01*
X52093Y59233D01*
X51988Y59223D01*
X51946Y59212D01*
X51888Y59196D01*
X51799Y59180D01*
X51725Y59170D01*
X51667Y59154D01*
X51625Y59144D01*
X51536Y59128D01*
X51462Y59117D01*
X51404Y59102D01*
X51362Y59091D01*
X51188Y59065D01*
X51136Y59044D01*
X51052Y59033D01*
X51009Y59023D01*
X50883Y59002D01*
X50867Y58986D01*
X50857Y56250D01*
X50873Y56235D01*
X50920Y56240D01*
X51031Y56256D01*
X51073Y56266D01*
X51146Y56287D01*
X51188Y56298D01*
X51294Y56308D01*
X51336Y56319D01*
X51393Y56335D01*
X51557Y56361D01*
X51614Y56377D01*
X51656Y56387D01*
X51746Y56403D01*
X51820Y56413D01*
X51893Y56434D01*
X51935Y56445D01*
X52083Y56466D01*
X52140Y56482D01*
X52182Y56492D01*
X52304Y56508D01*
X52346Y56519D01*
X52403Y56535D01*
X52446Y56545D01*
X52566Y56561D01*
X52640Y56582D01*
X52724Y56603D01*
X52830Y56613D01*
X52872Y56624D01*
X52924Y56645D01*
X53040Y56656D01*
X53124Y56677D01*
X53182Y56692D01*
X53303Y56708D01*
X53345Y56719D01*
X53403Y56734D01*
X53445Y56745D01*
X53566Y56761D01*
X53608Y56771D01*
X53682Y56792D01*
X53724Y56803D01*
X53829Y56813D01*
X53871Y56824D01*
X53945Y56845D01*
X53987Y56855D01*
X54092Y56866D01*
X54150Y56882D01*
X54192Y56892D01*
X54282Y56908D01*
X54355Y56919D01*
X54429Y56940D01*
X54460Y56950D01*
X54566Y56961D01*
X54650Y56982D01*
X54681Y56992D01*
X54855Y57018D01*
X54939Y57039D01*
X55092Y57066D01*
X55134Y57076D01*
X55191Y57092D01*
X55281Y57108D01*
X55407Y57129D01*
X55460Y57150D01*
X55597Y57161D01*
X55618Y57129D01*
X55612Y53410D01*
X55623Y53378D01*
X55612Y53336D01*
X55591Y53326D01*
X55523Y53310D01*
X55465Y53294D01*
X55423Y53284D01*
X55302Y53268D01*
X55260Y53257D01*
X55202Y53242D01*
X55050Y53215D01*
X55007Y53205D01*
X54949Y53189D01*
X54787Y53163D01*
X54744Y53152D01*
X54686Y53136D01*
X54597Y53120D01*
X54523Y53110D01*
X54466Y53094D01*
X54423Y53084D01*
X54334Y53068D01*
X54260Y53057D01*
X54171Y53031D01*
X54050Y53015D01*
X54008Y53005D01*
X53950Y52989D01*
X53908Y52978D01*
X53787Y52963D01*
X53745Y52952D01*
X53671Y52931D01*
X53629Y52921D01*
X53524Y52910D01*
X53435Y52884D01*
X53345Y52868D01*
X53271Y52857D01*
X53229Y52847D01*
X53172Y52831D01*
X53082Y52815D01*
X53008Y52805D01*
X52951Y52789D01*
X52909Y52779D01*
X52772Y52758D01*
X52688Y52737D01*
X52535Y52710D01*
X52493Y52700D01*
X52435Y52684D01*
X52272Y52658D01*
X52214Y52642D01*
X52172Y52631D01*
X52083Y52615D01*
X52009Y52605D01*
X51919Y52579D01*
X51799Y52563D01*
X51757Y52552D01*
X51699Y52537D01*
X51656Y52526D01*
X51536Y52510D01*
X51493Y52500D01*
X51436Y52484D01*
X51393Y52474D01*
X51273Y52458D01*
X51215Y52442D01*
X51172Y52431D01*
X51094Y52416D01*
X51020Y52405D01*
X50978Y52394D01*
X50920Y52379D01*
X50831Y52363D01*
X50757Y52352D01*
X50699Y52337D01*
X50657Y52326D01*
X50568Y52310D01*
X50494Y52300D01*
X50420Y52279D01*
X50389Y52268D01*
X50283Y52258D01*
X50241Y52247D01*
X50168Y52226D01*
X50126Y52216D01*
X50020Y52205D01*
X49978Y52195D01*
X49905Y52174D01*
X49863Y52163D01*
X49757Y52153D01*
X49700Y52137D01*
X49658Y52126D01*
X49579Y52111D01*
X49505Y52100D01*
X49463Y52089D01*
X49405Y52074D01*
X49284Y52058D01*
X49242Y52047D01*
X49184Y52032D01*
X49142Y52021D01*
X49021Y52005D01*
X48979Y51995D01*
X48921Y51979D01*
X48769Y51953D01*
X48726Y51942D01*
X48669Y51926D01*
X48506Y51900D01*
X48463Y51890D01*
X48406Y51874D01*
X48316Y51858D01*
X48243Y51847D01*
X48169Y51826D01*
X48137Y51816D01*
X48032Y51805D01*
X47948Y51784D01*
X47890Y51769D01*
X47769Y51753D01*
X47727Y51742D01*
X47669Y51726D01*
X47627Y51716D01*
X47506Y51700D01*
X47464Y51690D01*
X47406Y51674D01*
X47327Y51658D01*
X47253Y51648D01*
X47211Y51637D01*
X47154Y51621D01*
X47064Y51606D01*
X46990Y51595D01*
X46948Y51584D01*
X46875Y51563D01*
X46727Y51542D01*
X46670Y51527D01*
X46627Y51516D01*
X46517Y51500D01*
X46433Y51479D01*
X46359Y51458D01*
X46254Y51448D01*
X46212Y51437D01*
X46154Y51421D01*
X45991Y51395D01*
X45917Y51374D01*
X45886Y51364D01*
X45781Y51353D01*
X45697Y51332D01*
X45639Y51316D01*
X45518Y51300D01*
X45476Y51290D01*
X45418Y51274D01*
X45376Y51263D01*
X45255Y51248D01*
X45212Y51237D01*
X45155Y51221D01*
X45113Y51211D01*
X44992Y51195D01*
X44934Y51179D01*
X44892Y51169D01*
X44739Y51143D01*
X44697Y51132D01*
X44639Y51116D01*
X44550Y51101D01*
X44476Y51090D01*
X44418Y51074D01*
X44376Y51064D01*
X44287Y51048D01*
X44213Y51037D01*
X44124Y51011D01*
X44003Y50995D01*
X43960Y50985D01*
X43887Y50964D01*
X43845Y50953D01*
X43740Y50943D01*
X43698Y50932D01*
X43624Y50911D01*
X43582Y50901D01*
X43477Y50890D01*
X43371Y50858D01*
X43329Y50869D01*
X43319Y54636D01*
X43334Y54693D01*
X43377Y54714D01*
X43419Y54725D01*
X43529Y54741D01*
X43571Y54751D01*
X43629Y54767D01*
X43671Y54777D01*
X43792Y54793D01*
X43850Y54809D01*
X43892Y54820D01*
X44045Y54846D01*
X44118Y54867D01*
X44150Y54878D01*
X44255Y54888D01*
X44339Y54909D01*
X44413Y54930D01*
X44560Y54951D01*
X44650Y54977D01*
X44771Y54993D01*
X44813Y55004D01*
X44871Y55019D01*
X45023Y55046D01*
X45065Y55056D01*
X45139Y55077D01*
X45181Y55088D01*
X45286Y55098D01*
X45376Y55125D01*
X45465Y55141D01*
X45539Y55151D01*
X45612Y55172D01*
X45644Y55183D01*
X45749Y55193D01*
X45791Y55204D01*
X45849Y55219D01*
X45891Y55230D01*
X46002Y55246D01*
X46044Y55256D01*
X46101Y55272D01*
X46265Y55298D01*
X46322Y55314D01*
X46364Y55325D01*
X46443Y55340D01*
X46517Y55351D01*
X46559Y55361D01*
X46617Y55377D01*
X46707Y55393D01*
X46780Y55403D01*
X46885Y55435D01*
X47033Y55456D01*
X47091Y55472D01*
X47133Y55482D01*
X47243Y55498D01*
X47285Y55509D01*
X47343Y55525D01*
X47422Y55540D01*
X47495Y55551D01*
X47538Y55561D01*
X47596Y55577D01*
X47685Y55593D01*
X47758Y55603D01*
X47816Y55619D01*
X47859Y55630D01*
X47911Y55640D01*
X48043Y55656D01*
X48069Y55682D01*
X48079Y58418D01*
X48064Y58433D01*
X47969Y58423D01*
X47885Y58402D01*
X47827Y58386D01*
X47737Y58370D01*
X47664Y58360D01*
X47574Y58334D01*
X47453Y58318D01*
X47411Y58307D01*
X47354Y58292D01*
X47201Y58265D01*
X47159Y58255D01*
X47101Y58239D01*
X46938Y58213D01*
X46849Y58186D01*
X46759Y58170D01*
X46685Y58160D01*
X46612Y58139D01*
X46580Y58128D01*
X46475Y58118D01*
X46433Y58107D01*
X46375Y58092D01*
X46333Y58081D01*
X46196Y58060D01*
X46112Y58039D01*
X45960Y58013D01*
X45917Y58002D01*
X45859Y57986D01*
X45781Y57971D01*
X45707Y57960D01*
X45665Y57950D01*
X45607Y57934D01*
X45518Y57918D01*
X45444Y57908D01*
X45354Y57881D01*
X45233Y57865D01*
X45191Y57855D01*
X45134Y57839D01*
X45092Y57828D01*
X44981Y57813D01*
X44939Y57802D01*
X44865Y57781D01*
X44823Y57771D01*
X44718Y57760D01*
X44660Y57744D01*
X44618Y57734D01*
X44465Y57708D01*
X44423Y57697D01*
X44366Y57681D01*
X44287Y57666D01*
X44213Y57655D01*
X44171Y57644D01*
X44097Y57623D01*
X43950Y57602D01*
X43861Y57576D01*
X43740Y57560D01*
X43698Y57550D01*
X43640Y57534D01*
X43487Y57508D01*
X43445Y57497D01*
X43413Y57487D01*
X43361Y57476D01*
X43329Y57487D01*
X43319Y80938D01*
X43324Y80985D01*
X43350Y81011D01*
X43387Y81027D01*
X43550Y81053D01*
X43592Y81064D01*
X43650Y81080D01*
X43740Y81095D01*
X43813Y81106D01*
X43855Y81116D01*
X43913Y81132D01*
X44003Y81148D01*
X44076Y81159D01*
X44150Y81180D01*
X44181Y81190D01*
X44287Y81201D01*
X44371Y81222D01*
X44429Y81237D01*
X44550Y81253D01*
X44592Y81264D01*
X44665Y81285D01*
X44707Y81295D01*
X44813Y81306D01*
X44871Y81322D01*
X44913Y81332D01*
X44992Y81348D01*
X45065Y81358D01*
X45107Y81369D01*
X45165Y81385D01*
X45255Y81400D01*
X45328Y81411D01*
X45370Y81421D01*
X45444Y81443D01*
X45591Y81464D01*
X45649Y81479D01*
X45691Y81490D01*
X45828Y81511D01*
X45912Y81532D01*
X46065Y81558D01*
X46107Y81569D01*
X46165Y81585D01*
X46328Y81611D01*
X46370Y81621D01*
X46428Y81637D01*
X46517Y81653D01*
X46591Y81664D01*
X46680Y81690D01*
X46801Y81706D01*
X46843Y81716D01*
X46901Y81732D01*
X46943Y81742D01*
X47064Y81758D01*
X47106Y81769D01*
X47164Y81784D01*
X47206Y81795D01*
X47327Y81811D01*
X47385Y81827D01*
X47427Y81837D01*
X47506Y81853D01*
X47580Y81863D01*
X47622Y81874D01*
X47680Y81890D01*
X47769Y81905D01*
X47843Y81916D01*
X47916Y81937D01*
X47958Y81948D01*
X48106Y81969D01*
X48195Y81995D01*
X48316Y82011D01*
X48400Y82032D01*
X48474Y82053D01*
X48579Y82063D01*
X48621Y82074D01*
X48695Y82095D01*
X48737Y82105D01*
X48842Y82116D01*
X48916Y82137D01*
X48947Y82148D01*
X49053Y82158D01*
X49137Y82179D01*
X49195Y82195D01*
X49316Y82211D01*
X49358Y82221D01*
X49416Y82237D01*
X49458Y82247D01*
X49579Y82263D01*
X49621Y82274D01*
X49679Y82289D01*
X49831Y82316D01*
X49873Y82326D01*
X49931Y82342D01*
X50020Y82358D01*
X50094Y82368D01*
X50136Y82379D01*
X50194Y82395D01*
X50283Y82410D01*
X50357Y82421D01*
X50415Y82437D01*
X50457Y82447D01*
X50547Y82463D01*
X50620Y82474D01*
X50710Y82500D01*
X50831Y82516D01*
X50873Y82526D01*
X50946Y82547D01*
X50988Y82558D01*
X51094Y82568D01*
X51136Y82579D01*
X51209Y82600D01*
X51252Y82610D01*
X51357Y82621D01*
X51414Y82637D01*
X51536Y82663D01*
X51609Y82674D01*
X51651Y82684D01*
X51709Y82700D01*
X51830Y82716D01*
X51872Y82726D01*
X51930Y82742D01*
X51972Y82752D01*
X52093Y82768D01*
X52135Y82779D01*
X52193Y82795D01*
X52346Y82821D01*
X52388Y82831D01*
X52446Y82847D01*
X52535Y82863D01*
X52609Y82873D01*
X52651Y82884D01*
X52709Y82900D01*
X52798Y82915D01*
X52872Y82926D01*
X52945Y82947D01*
X52977Y82958D01*
X53082Y82968D01*
X53166Y82989D01*
X53224Y83005D01*
X53345Y83021D01*
X53387Y83031D01*
X53461Y83052D01*
X53503Y83063D01*
X53608Y83073D01*
X53650Y83084D01*
X53708Y83100D01*
X53787Y83115D01*
X53861Y83126D01*
X53903Y83136D01*
X53961Y83152D01*
X54050Y83168D01*
X54124Y83179D01*
X54166Y83189D01*
X54239Y83210D01*
X54387Y83231D01*
X54444Y83247D01*
X54487Y83257D01*
X54597Y83273D01*
X54639Y83284D01*
X54697Y83300D01*
X54797Y83315D01*
X54839Y83326D01*
X54913Y83336D01*
X54965Y83357D01*
X55050Y83368D01*
X55123Y83378D01*
X55165Y83389D01*
X55223Y83405D01*
X55312Y83420D01*
X55386Y83431D01*
X55444Y83447D01*
X55565Y83473D01*
X55607Y83462D01*
D02*
G37*
G36*
X16944Y72919D02*
X14602D01*
Y75846D01*
X16944D01*
Y72919D01*
D02*
G37*
G36*
X29128Y72905D02*
X18789D01*
X18700Y75846D01*
X29067Y75898D01*
X29128Y72905D01*
D02*
G37*
G36*
X20954Y70110D02*
X20960Y70125D01*
X21109Y70187D01*
X24640Y70187D01*
X24625Y70114D01*
X24650Y69992D01*
X26920Y69864D01*
X27910Y69602D01*
X27918Y69611D01*
X28010Y69518D01*
X28792Y68867D01*
X28905Y69036D01*
X29015Y68902D01*
X29023Y68875D01*
X29043Y68856D01*
X29304Y68282D01*
X29310Y68120D01*
X29200Y68002D01*
X29038Y67997D01*
X29028Y68007D01*
X29237Y67065D01*
X29432Y65895D01*
X29237Y65309D01*
X26895D01*
X26700Y65504D01*
Y66675D01*
X26115Y66870D01*
X24749Y67065D01*
X21041Y66870D01*
Y65309D01*
X18700D01*
Y66870D01*
X15773Y67065D01*
Y69797D01*
X15578Y69602D01*
X15773Y69992D01*
X18700Y69797D01*
X18895Y70968D01*
X21041D01*
X20954Y70110D01*
D02*
G37*
G36*
X27481Y63358D02*
X28846Y62382D01*
X29432Y60236D01*
X29237Y58480D01*
X28261Y57114D01*
X29042D01*
Y54382D01*
X22017D01*
X20456Y54577D01*
X19285Y55553D01*
X18700Y57114D01*
X18505Y58480D01*
Y60236D01*
X18895Y61797D01*
X19676Y62968D01*
X21750Y61784D01*
X21074Y60887D01*
X21060Y59026D01*
X21170Y57689D01*
X21680Y57330D01*
X22742Y57165D01*
X22798Y57114D01*
Y59846D01*
X23188Y61602D01*
X24163Y62968D01*
X25920Y63553D01*
X27481Y63358D01*
D02*
G37*
G36*
X28066Y51260D02*
X28846Y50480D01*
X29237Y49504D01*
Y47162D01*
X26895D01*
X26615Y48284D01*
X26160Y48738D01*
X14659D01*
Y51650D01*
X27090D01*
X28066Y51260D01*
D02*
G37*
G36*
X55602Y50075D02*
X55612Y44152D01*
X55597Y44136D01*
X55533Y44125D01*
X55476Y44109D01*
X55391Y44088D01*
X55307Y44078D01*
X55244Y44067D01*
X55202Y44057D01*
X55144Y44041D01*
X55102Y44030D01*
X54997Y44020D01*
X54923Y43999D01*
X54892Y43988D01*
X54776Y43978D01*
X54692Y43957D01*
X54660Y43946D01*
X54566Y43936D01*
X54534Y43946D01*
X54523Y48355D01*
X54460Y48323D01*
X54376Y48239D01*
X54355Y48228D01*
X54313Y48186D01*
X54292Y48176D01*
X54239Y48123D01*
X54218Y48113D01*
X54134Y48028D01*
X54113Y48018D01*
X54029Y47934D01*
X54008Y47923D01*
X53913Y47828D01*
X53892Y47818D01*
X53850Y47776D01*
X53829Y47765D01*
X53776Y47713D01*
X53755Y47702D01*
X53671Y47618D01*
X53650Y47608D01*
X53566Y47523D01*
X53545Y47513D01*
X53461Y47429D01*
X53440Y47418D01*
X53387Y47366D01*
X53366Y47355D01*
X53282Y47271D01*
X53261Y47260D01*
X53219Y47218D01*
X53198Y47208D01*
X53177Y47176D01*
X53156Y47166D01*
X53103Y47113D01*
X53082Y47102D01*
X53071Y47081D01*
X53050Y47071D01*
X52998Y47018D01*
X52977Y47008D01*
X52924Y46955D01*
X52903Y46945D01*
X52830Y46871D01*
X52808Y46861D01*
X52714Y46766D01*
X52693Y46755D01*
X52609Y46671D01*
X52588Y46661D01*
X52535Y46608D01*
X52514Y46597D01*
X52440Y46524D01*
X52419Y46513D01*
X52367Y46461D01*
X52346Y46450D01*
X52261Y46366D01*
X52240Y46356D01*
X52146Y46261D01*
X52125Y46250D01*
X52083Y46208D01*
X52062Y46198D01*
X51977Y46114D01*
X51956Y46103D01*
X51914Y46061D01*
X51877Y46035D01*
X51867Y46014D01*
X51851Y46008D01*
X51809Y45966D01*
X51772Y45940D01*
X51762Y45919D01*
X51746Y45914D01*
X51693Y45861D01*
X51672Y45851D01*
X51620Y45798D01*
X51599Y45788D01*
X51515Y45703D01*
X51493Y45693D01*
X51409Y45609D01*
X51388Y45598D01*
X51304Y45514D01*
X51283Y45503D01*
X51230Y45451D01*
X51209Y45440D01*
X51136Y45367D01*
X51115Y45356D01*
X51062Y45304D01*
X51041Y45293D01*
X50946Y45198D01*
X50925Y45188D01*
X50841Y45104D01*
X50820Y45093D01*
X50736Y45009D01*
X50715Y44998D01*
X50662Y44946D01*
X50641Y44935D01*
X50599Y44893D01*
X50578Y44883D01*
X50494Y44798D01*
X50473Y44788D01*
X50457Y44772D01*
X50447Y44751D01*
X50431Y44746D01*
X50389Y44704D01*
X50352Y44678D01*
X50341Y44657D01*
X50326Y44651D01*
X50273Y44599D01*
X50252Y44588D01*
X50210Y44546D01*
X50189Y44535D01*
X50136Y44483D01*
X50115Y44472D01*
X50105Y44451D01*
X50084Y44441D01*
X50031Y44388D01*
X50010Y44378D01*
X50005Y44362D01*
X49989Y44346D01*
X49968Y44336D01*
X49915Y44283D01*
X49894Y44272D01*
X49889Y44257D01*
X49873Y44251D01*
X49810Y44188D01*
X49789Y44178D01*
X49747Y44136D01*
X49726Y44125D01*
X49642Y44041D01*
X49621Y44030D01*
X49537Y43946D01*
X49516Y43936D01*
X49431Y43852D01*
X49410Y43841D01*
X49358Y43788D01*
X49337Y43778D01*
X49284Y43725D01*
X49263Y43715D01*
X49189Y43641D01*
X49153Y43615D01*
X49142Y43594D01*
X49126Y43589D01*
X49074Y43536D01*
X49053Y43526D01*
X48968Y43441D01*
X48947Y43431D01*
X48895Y43378D01*
X48874Y43368D01*
X48821Y43315D01*
X48800Y43305D01*
X48790Y43284D01*
X48769Y43273D01*
X48726Y43231D01*
X48705Y43220D01*
X48684Y43189D01*
X48663Y43178D01*
X48611Y43126D01*
X48590Y43115D01*
X48579Y43094D01*
X48558Y43084D01*
X48506Y43031D01*
X48485Y43021D01*
X48432Y42968D01*
X48411Y42957D01*
X48337Y42884D01*
X48316Y42873D01*
X48264Y42821D01*
X48243Y42810D01*
X48237Y42794D01*
X48206Y42773D01*
X48137Y42757D01*
X48079Y42742D01*
X48037Y42731D01*
X47948Y42715D01*
X47874Y42705D01*
X47785Y42679D01*
X47685Y42663D01*
X47611Y42652D01*
X47559Y42631D01*
X47474Y42621D01*
X47432Y42610D01*
X47359Y42600D01*
X47306Y42579D01*
X47180Y42568D01*
X47169Y42600D01*
X47175Y48191D01*
X47164Y48223D01*
X47185Y48276D01*
X47311Y48307D01*
X47401Y48323D01*
X47474Y48334D01*
X47532Y48349D01*
X47574Y48360D01*
X47695Y48376D01*
X47737Y48386D01*
X47795Y48402D01*
X47985Y48433D01*
X48111Y48465D01*
X48243Y48481D01*
X48258Y48465D01*
X48269Y44341D01*
X48306Y44325D01*
X48390Y44409D01*
X48411Y44420D01*
X48463Y44472D01*
X48485Y44483D01*
X48527Y44525D01*
X48548Y44535D01*
X48600Y44588D01*
X48621Y44599D01*
X48632Y44620D01*
X48653Y44630D01*
X48705Y44683D01*
X48726Y44693D01*
X48732Y44709D01*
X48748Y44725D01*
X48769Y44735D01*
X48811Y44777D01*
X48832Y44788D01*
X48916Y44872D01*
X48937Y44883D01*
X48979Y44925D01*
X49000Y44935D01*
X49053Y44988D01*
X49074Y44998D01*
X49079Y45014D01*
X49095Y45030D01*
X49116Y45040D01*
X49200Y45125D01*
X49221Y45135D01*
X49274Y45188D01*
X49295Y45198D01*
X49368Y45272D01*
X49389Y45283D01*
X49442Y45335D01*
X49463Y45346D01*
X49547Y45430D01*
X49568Y45440D01*
X49663Y45535D01*
X49684Y45546D01*
X49726Y45588D01*
X49747Y45598D01*
X49831Y45682D01*
X49852Y45693D01*
X49894Y45735D01*
X49915Y45745D01*
X50010Y45840D01*
X50031Y45851D01*
X50115Y45935D01*
X50136Y45945D01*
X50189Y45998D01*
X50210Y46008D01*
X50252Y46051D01*
X50273Y46061D01*
X50357Y46145D01*
X50378Y46156D01*
X50462Y46240D01*
X50483Y46250D01*
X50568Y46335D01*
X50589Y46345D01*
X50641Y46398D01*
X50662Y46408D01*
X50715Y46461D01*
X50736Y46471D01*
X50741Y46487D01*
X50757Y46492D01*
X50810Y46545D01*
X50831Y46556D01*
X50925Y46650D01*
X50946Y46661D01*
X51031Y46745D01*
X51052Y46755D01*
X51094Y46797D01*
X51115Y46808D01*
X51167Y46861D01*
X51188Y46871D01*
X51273Y46955D01*
X51294Y46966D01*
X51378Y47050D01*
X51399Y47060D01*
X51483Y47145D01*
X51504Y47155D01*
X51546Y47197D01*
X51567Y47208D01*
X51620Y47260D01*
X51641Y47271D01*
X51725Y47355D01*
X51746Y47366D01*
X51830Y47450D01*
X51851Y47460D01*
X51935Y47544D01*
X51956Y47555D01*
X52009Y47608D01*
X52030Y47618D01*
X52083Y47671D01*
X52104Y47681D01*
X52114Y47702D01*
X52135Y47713D01*
X52177Y47755D01*
X52214Y47781D01*
X52225Y47802D01*
X52240Y47807D01*
X52293Y47860D01*
X52314Y47871D01*
X52398Y47955D01*
X52419Y47965D01*
X52461Y48007D01*
X52482Y48018D01*
X52498Y48034D01*
X52561Y48086D01*
X52572Y48107D01*
X52588Y48113D01*
X52603Y48128D01*
X52667Y48181D01*
X52677Y48202D01*
X52693Y48207D01*
X52745Y48260D01*
X52766Y48270D01*
X52851Y48355D01*
X52872Y48365D01*
X52924Y48418D01*
X52945Y48428D01*
X52987Y48470D01*
X53008Y48481D01*
X53029Y48512D01*
X53050Y48523D01*
X53103Y48576D01*
X53114D01*
X53135Y48607D01*
X53156Y48618D01*
X53208Y48670D01*
X53229Y48681D01*
X53303Y48754D01*
X53324Y48765D01*
X53377Y48818D01*
X53398Y48828D01*
X53450Y48881D01*
X53471Y48891D01*
X53482Y48912D01*
X53503Y48923D01*
X53555Y48975D01*
X53577Y48986D01*
X53582Y49002D01*
X53598Y49017D01*
X53619Y49028D01*
X53661Y49070D01*
X53682Y49081D01*
X53766Y49165D01*
X53787Y49175D01*
X53829Y49217D01*
X53850Y49228D01*
X53903Y49280D01*
X53924Y49291D01*
X53929Y49307D01*
X53945Y49323D01*
X53966Y49333D01*
X54050Y49417D01*
X54071Y49428D01*
X54124Y49480D01*
X54145Y49491D01*
X54187Y49533D01*
X54208Y49543D01*
X54292Y49628D01*
X54313Y49638D01*
X54397Y49722D01*
X54418Y49733D01*
X54502Y49817D01*
X54523Y49827D01*
X54576Y49880D01*
X54629Y49891D01*
X54713Y49912D01*
X54771Y49927D01*
X54892Y49943D01*
X54934Y49954D01*
X54992Y49970D01*
X55144Y49996D01*
X55186Y50006D01*
X55260Y50027D01*
X55302Y50038D01*
X55407Y50048D01*
X55481Y50069D01*
X55512Y50080D01*
X55586Y50090D01*
X55602Y50075D01*
D02*
G37*
G36*
X27218Y45357D02*
X28694Y44442D01*
X29297Y43569D01*
X29422Y41593D01*
X28965Y39806D01*
X27780Y38496D01*
X27342Y38204D01*
X26490Y39161D01*
X27259Y40221D01*
X27884Y41614D01*
X27550Y43049D01*
X26511Y43694D01*
X23870Y43632D01*
X21853Y43132D01*
X20336Y41677D01*
X20231Y40304D01*
X20273Y39369D01*
X20938Y38745D01*
X21432Y38382D01*
X21521Y38433D01*
X20564Y37123D01*
X19025Y38391D01*
X18485Y40408D01*
X18859Y42010D01*
X19795Y43527D01*
X22165Y44900D01*
X24785Y45544D01*
X27218Y45357D01*
D02*
G37*
G36*
X44839Y39217D02*
X44850Y38039D01*
X44839Y37997D01*
X44818Y37986D01*
X44728Y37970D01*
X44655Y37960D01*
X44597Y37944D01*
X44555Y37934D01*
X44465Y37918D01*
X44392Y37907D01*
X44334Y37892D01*
X44292Y37881D01*
X44171Y37865D01*
X44129Y37855D01*
X44071Y37839D01*
X44029Y37828D01*
X43908Y37813D01*
X43850Y37797D01*
X43808Y37786D01*
X43729Y37771D01*
X43655Y37760D01*
X43571Y37739D01*
X43540Y37729D01*
X43435Y37718D01*
X43392Y37707D01*
X43361Y37697D01*
X43334Y37713D01*
X43324Y38902D01*
X43345Y38923D01*
X43435Y38938D01*
X43508Y38959D01*
X43540Y38970D01*
X43645Y38981D01*
X43729Y39002D01*
X43803Y39023D01*
X43950Y39044D01*
X44008Y39059D01*
X44050Y39070D01*
X44160Y39086D01*
X44202Y39096D01*
X44276Y39117D01*
X44318Y39128D01*
X44423Y39138D01*
X44465Y39149D01*
X44523Y39165D01*
X44602Y39180D01*
X44676Y39191D01*
X44718Y39201D01*
X44792Y39223D01*
X44802D01*
X44813Y39233D01*
X44839Y39217D01*
D02*
G37*
G36*
Y35935D02*
X44850Y34756D01*
X44839Y34714D01*
X44818Y34704D01*
X44728Y34688D01*
X44655Y34678D01*
X44581Y34656D01*
X44550Y34646D01*
X44434Y34635D01*
X44392Y34625D01*
X44334Y34609D01*
X44292Y34599D01*
X44171Y34583D01*
X44129Y34572D01*
X44071Y34557D01*
X44066Y34551D01*
X43971Y34541D01*
X43929Y34530D01*
X43855Y34520D01*
X43803Y34499D01*
X43708Y34488D01*
X43666Y34478D01*
X43592Y34467D01*
X43540Y34446D01*
X43435Y34436D01*
X43403Y34425D01*
X43334Y34430D01*
X43324Y35619D01*
X43340Y35635D01*
X43466Y35666D01*
X43524Y35682D01*
X43613Y35698D01*
X43687Y35708D01*
X43761Y35729D01*
X43792Y35740D01*
X43897Y35751D01*
X43939Y35761D01*
X43997Y35777D01*
X44039Y35787D01*
X44160Y35803D01*
X44202Y35814D01*
X44260Y35830D01*
X44339Y35845D01*
X44413Y35856D01*
X44455Y35866D01*
X44513Y35882D01*
X44602Y35898D01*
X44676Y35908D01*
X44760Y35929D01*
X44813Y35951D01*
X44839Y35935D01*
D02*
G37*
G36*
X53598Y41758D02*
X53776Y41737D01*
X53861Y41716D01*
X54008Y41695D01*
X54061Y41674D01*
X54155Y41653D01*
X54229Y41621D01*
X54282Y41611D01*
X54397Y41558D01*
X54471Y41526D01*
X54492Y41516D01*
X54566Y41484D01*
X54660Y41432D01*
X54713Y41400D01*
X54818Y41327D01*
X54871Y41295D01*
X54902Y41263D01*
X54939Y41237D01*
X54949Y41216D01*
X54965Y41211D01*
X55007Y41169D01*
X55044Y41143D01*
X55055Y41122D01*
X55086Y41100D01*
X55097Y41079D01*
X55191Y40985D01*
X55202Y40964D01*
X55223Y40943D01*
X55255Y40890D01*
X55286Y40858D01*
X55297Y40837D01*
X55328Y40806D01*
X55370Y40732D01*
X55423Y40637D01*
X55497Y40501D01*
X55549Y40385D01*
X55560Y40343D01*
X55597Y40254D01*
X55607Y40201D01*
X55618Y40159D01*
X55639Y40106D01*
X55660Y39980D01*
X55670Y39938D01*
X55686Y39869D01*
X55697Y39838D01*
X55707Y39522D01*
X55718Y39491D01*
X55712Y39286D01*
X55702Y39033D01*
X55691Y38917D01*
X55681Y38854D01*
X55670Y38812D01*
X55644Y38628D01*
X55612Y38512D01*
X55602Y38470D01*
X55591Y38397D01*
X55565Y38339D01*
X55549Y38260D01*
X55507Y38165D01*
X55497Y38123D01*
X55455Y38018D01*
X55402Y37902D01*
X55381Y37850D01*
X55276Y37660D01*
X55234Y37587D01*
X55181Y37513D01*
X55149Y37460D01*
X55128Y37439D01*
X55097Y37387D01*
X55055Y37345D01*
X55044Y37323D01*
X55002Y37281D01*
X54992Y37260D01*
X54949Y37218D01*
X54939Y37197D01*
X54818Y37076D01*
X54797Y37066D01*
X54771Y37018D01*
X54776Y37013D01*
X54808Y37003D01*
X54955Y37024D01*
X55013Y37039D01*
X55065Y37050D01*
X55197Y37066D01*
X55281Y37087D01*
X55312Y37097D01*
X55491Y37118D01*
X55523Y37129D01*
X55586Y37139D01*
X55602Y37123D01*
X55612Y35987D01*
X55591Y35935D01*
X55539Y35914D01*
X55418Y35898D01*
X55333Y35877D01*
X55276Y35861D01*
X55155Y35845D01*
X55113Y35835D01*
X55055Y35819D01*
X54892Y35793D01*
X54850Y35782D01*
X54792Y35766D01*
X54702Y35751D01*
X54629Y35740D01*
X54587Y35729D01*
X54529Y35714D01*
X54439Y35698D01*
X54366Y35687D01*
X54324Y35677D01*
X54266Y35661D01*
X54145Y35645D01*
X54103Y35635D01*
X54045Y35619D01*
X54003Y35608D01*
X53882Y35593D01*
X53840Y35582D01*
X53782Y35566D01*
X53740Y35556D01*
X53619Y35540D01*
X53577Y35530D01*
X53503Y35509D01*
X53461Y35498D01*
X53356Y35488D01*
X53298Y35472D01*
X53256Y35461D01*
X53166Y35445D01*
X53093Y35435D01*
X53035Y35419D01*
X52993Y35409D01*
X52903Y35393D01*
X52830Y35382D01*
X52772Y35367D01*
X52730Y35356D01*
X52556Y35330D01*
X52503Y35309D01*
X52419Y35298D01*
X52377Y35288D01*
X52304Y35277D01*
X52246Y35261D01*
X52204Y35251D01*
X52119Y35240D01*
X52067Y35230D01*
X52025Y35219D01*
X51967Y35203D01*
X51925Y35193D01*
X51820Y35182D01*
X51730Y35156D01*
X51630Y35140D01*
X51557Y35130D01*
X51509Y35114D01*
X51467Y35103D01*
X51346Y35088D01*
X51304Y35077D01*
X51230Y35056D01*
X51188Y35046D01*
X51083Y35035D01*
X51041Y35025D01*
X50983Y35009D01*
X50820Y34983D01*
X50778Y34972D01*
X50720Y34956D01*
X50631Y34941D01*
X50557Y34930D01*
X50483Y34909D01*
X50452Y34898D01*
X50336Y34888D01*
X50294Y34877D01*
X50236Y34862D01*
X50194Y34851D01*
X50073Y34835D01*
X50031Y34825D01*
X49957Y34804D01*
X49915Y34793D01*
X49810Y34783D01*
X49768Y34772D01*
X49694Y34751D01*
X49652Y34741D01*
X49547Y34730D01*
X49473Y34709D01*
X49442Y34699D01*
X49358Y34688D01*
X49284Y34678D01*
X49226Y34662D01*
X49184Y34651D01*
X49095Y34635D01*
X49021Y34625D01*
X48947Y34604D01*
X48905Y34593D01*
X48758Y34572D01*
X48700Y34557D01*
X48658Y34546D01*
X48537Y34530D01*
X48479Y34514D01*
X48395Y34493D01*
X48311Y34483D01*
X48258Y34472D01*
X48216Y34462D01*
X48158Y34446D01*
X48116Y34436D01*
X48011Y34425D01*
X47922Y34399D01*
X47801Y34383D01*
X47716Y34362D01*
X47659Y34346D01*
X47538Y34330D01*
X47495Y34320D01*
X47422Y34299D01*
X47380Y34288D01*
X47275Y34278D01*
X47243Y34267D01*
X47190Y34257D01*
X47180Y34278D01*
X47169Y35445D01*
X47175Y35482D01*
X47190Y35498D01*
X47211Y35509D01*
X47253Y35519D01*
X47311Y35535D01*
X47432Y35551D01*
X47474Y35561D01*
X47532Y35577D01*
X47695Y35603D01*
X47737Y35614D01*
X47795Y35630D01*
X47885Y35645D01*
X47958Y35656D01*
X48000Y35666D01*
X48058Y35682D01*
X48148Y35698D01*
X48221Y35708D01*
X48264Y35719D01*
X48321Y35735D01*
X48442Y35751D01*
X48485Y35761D01*
X48542Y35777D01*
X48584Y35787D01*
X48705Y35803D01*
X48748Y35814D01*
X48821Y35835D01*
X48863Y35845D01*
X48968Y35856D01*
X49011Y35866D01*
X49068Y35882D01*
X49158Y35898D01*
X49231Y35908D01*
X49274Y35919D01*
X49331Y35935D01*
X49421Y35951D01*
X49495Y35961D01*
X49537Y35972D01*
X49594Y35987D01*
X49715Y36003D01*
X49757Y36014D01*
X49815Y36029D01*
X49857Y36040D01*
X49978Y36056D01*
X50020Y36066D01*
X50094Y36087D01*
X50136Y36098D01*
X50241Y36108D01*
X50283Y36119D01*
X50341Y36135D01*
X50431Y36150D01*
X50504Y36161D01*
X50547Y36171D01*
X50604Y36187D01*
X50694Y36203D01*
X50767Y36214D01*
X50825Y36229D01*
X50867Y36240D01*
X50931Y36250D01*
X50936Y36256D01*
X50957D01*
X51031Y36266D01*
X51088Y36282D01*
X51130Y36292D01*
X51230Y36308D01*
X51304Y36319D01*
X51357Y36340D01*
X51451Y36350D01*
X51493Y36361D01*
X51567Y36371D01*
X51620Y36392D01*
X51704Y36403D01*
X51778Y36413D01*
X51835Y36429D01*
X51877Y36440D01*
X51967Y36456D01*
X52041Y36466D01*
X52098Y36482D01*
X52140Y36492D01*
X52230Y36508D01*
X52304Y36519D01*
X52393Y36545D01*
X52493Y36561D01*
X52582Y36587D01*
X52693Y36613D01*
X52766Y36645D01*
X52851Y36666D01*
X52903Y36687D01*
X52940Y36703D01*
X53008Y36718D01*
X53024Y36734D01*
X53093Y36761D01*
X53145Y36782D01*
X53161Y36797D01*
X53219Y36813D01*
X53282Y36855D01*
X53324Y36866D01*
X53350Y36892D01*
X53419Y36918D01*
X53440Y36939D01*
X53513Y36981D01*
X53566Y37013D01*
X53587Y37034D01*
X53640Y37066D01*
X53661Y37087D01*
X53713Y37118D01*
X53755Y37160D01*
X53776Y37171D01*
X53787Y37192D01*
X53808Y37202D01*
X54034Y37429D01*
X54045Y37450D01*
X54087Y37492D01*
X54097Y37513D01*
X54129Y37544D01*
X54139Y37565D01*
X54160Y37587D01*
X54192Y37639D01*
X54213Y37660D01*
X54224Y37681D01*
X54266Y37744D01*
X54308Y37818D01*
X54392Y37976D01*
X54434Y38070D01*
X54481Y38181D01*
X54497Y38260D01*
X54539Y38354D01*
X54550Y38428D01*
X54576Y38518D01*
X54587Y38570D01*
X54602Y38723D01*
X54613Y38754D01*
X54623Y38912D01*
X54634Y38944D01*
X54629Y39033D01*
X54618Y39180D01*
X54608Y39244D01*
X54592Y39375D01*
X54581Y39449D01*
X54555Y39517D01*
X54539Y39585D01*
X54529Y39627D01*
X54502Y39675D01*
X54487Y39733D01*
X54455Y39785D01*
X54444Y39806D01*
X54423Y39859D01*
X54402Y39880D01*
X54392Y39912D01*
X54371Y39933D01*
X54339Y39985D01*
X54297Y40027D01*
X54287Y40048D01*
X54155Y40180D01*
X54134Y40190D01*
X54113Y40211D01*
X54061Y40243D01*
X54029Y40275D01*
X53808Y40390D01*
X53766Y40401D01*
X53661Y40443D01*
X53587Y40453D01*
X53513Y40474D01*
X53482Y40485D01*
X52966Y40496D01*
X52798Y40485D01*
X52724Y40474D01*
X52682Y40464D01*
X52535Y40443D01*
X52430Y40432D01*
X52372Y40417D01*
X52330Y40406D01*
X52209Y40390D01*
X52167Y40380D01*
X52109Y40364D01*
X52067Y40353D01*
X51946Y40338D01*
X51904Y40327D01*
X51846Y40311D01*
X51767Y40296D01*
X51693Y40285D01*
X51651Y40275D01*
X51593Y40259D01*
X51504Y40243D01*
X51430Y40233D01*
X51388Y40222D01*
X51330Y40206D01*
X51241Y40190D01*
X51167Y40180D01*
X51109Y40164D01*
X51067Y40153D01*
X50957Y40138D01*
X50915Y40127D01*
X50857Y40111D01*
X50694Y40085D01*
X50652Y40075D01*
X50594Y40059D01*
X50431Y40033D01*
X50389Y40022D01*
X50331Y40006D01*
X50241Y39990D01*
X50168Y39980D01*
X50078Y39954D01*
X49957Y39938D01*
X49873Y39917D01*
X49815Y39901D01*
X49694Y39885D01*
X49652Y39875D01*
X49594Y39859D01*
X49552Y39848D01*
X49431Y39833D01*
X49373Y39817D01*
X49331Y39806D01*
X49253Y39791D01*
X49179Y39780D01*
X49137Y39769D01*
X49079Y39754D01*
X48990Y39738D01*
X48916Y39727D01*
X48874Y39717D01*
X48816Y39701D01*
X48726Y39685D01*
X48653Y39675D01*
X48595Y39659D01*
X48553Y39648D01*
X48416Y39627D01*
X48332Y39606D01*
X48179Y39580D01*
X48137Y39570D01*
X48079Y39554D01*
X47916Y39528D01*
X47843Y39506D01*
X47811Y39496D01*
X47727Y39485D01*
X47653Y39475D01*
X47564Y39449D01*
X47443Y39433D01*
X47359Y39412D01*
X47301Y39396D01*
X47190Y39380D01*
X47164Y39428D01*
X47175Y39449D01*
X47169Y40548D01*
X47175Y40585D01*
X47190Y40601D01*
X47211Y40611D01*
X47269Y40627D01*
X47369Y40643D01*
X47411Y40653D01*
X47485Y40664D01*
X47538Y40685D01*
X47622Y40695D01*
X47695Y40706D01*
X47737Y40716D01*
X47795Y40732D01*
X47885Y40748D01*
X47958Y40759D01*
X48016Y40774D01*
X48058Y40785D01*
X48148Y40801D01*
X48221Y40811D01*
X48279Y40827D01*
X48321Y40837D01*
X48458Y40858D01*
X48542Y40880D01*
X48695Y40906D01*
X48737Y40916D01*
X48795Y40932D01*
X48884Y40948D01*
X48958Y40958D01*
X49000Y40969D01*
X49058Y40985D01*
X49147Y41000D01*
X49221Y41011D01*
X49263Y41021D01*
X49337Y41043D01*
X49484Y41064D01*
X49542Y41079D01*
X49584Y41090D01*
X49705Y41106D01*
X49747Y41116D01*
X49805Y41132D01*
X49847Y41143D01*
X49968Y41158D01*
X50057Y41185D01*
X50147Y41200D01*
X50273Y41221D01*
X50326Y41242D01*
X50441Y41253D01*
X50525Y41274D01*
X50583Y41290D01*
X50704Y41306D01*
X50746Y41316D01*
X50804Y41332D01*
X50846Y41342D01*
X50967Y41358D01*
X51009Y41369D01*
X51083Y41390D01*
X51125Y41400D01*
X51230Y41411D01*
X51273Y41421D01*
X51346Y41442D01*
X51388Y41453D01*
X51493Y41463D01*
X51583Y41490D01*
X51646Y41500D01*
X51730Y41511D01*
X51856Y41542D01*
X51909Y41553D01*
X51993Y41563D01*
X52077Y41584D01*
X52135Y41600D01*
X52283Y41621D01*
X52335Y41642D01*
X52430Y41653D01*
X52472Y41663D01*
X52545Y41674D01*
X52603Y41690D01*
X52656Y41700D01*
X52761Y41711D01*
X52824Y41721D01*
X52909Y41742D01*
X53003Y41753D01*
X53256Y41763D01*
X53598Y41758D01*
D02*
G37*
G36*
X27285Y35650D02*
X28651Y34869D01*
X29237Y33503D01*
X29432Y32138D01*
X29237Y30577D01*
X27676Y28430D01*
X24163Y27064D01*
X21237D01*
X19676Y27650D01*
X18700Y29211D01*
Y31162D01*
X19285Y33308D01*
X21432Y35064D01*
X24749Y35845D01*
X27285Y35650D01*
D02*
G37*
G36*
X55602Y33147D02*
X55612Y31979D01*
X55602Y31937D01*
X55586Y31921D01*
X55523Y31911D01*
X55449Y31900D01*
X55376Y31879D01*
X55344Y31868D01*
X55228Y31858D01*
X55186Y31847D01*
X55128Y31832D01*
X55086Y31821D01*
X54965Y31805D01*
X54923Y31795D01*
X54850Y31774D01*
X54808Y31763D01*
X54702Y31753D01*
X54660Y31742D01*
X54587Y31721D01*
X54545Y31711D01*
X54439Y31700D01*
X54381Y31684D01*
X54339Y31674D01*
X54250Y31658D01*
X54176Y31648D01*
X54118Y31632D01*
X54076Y31621D01*
X53987Y31605D01*
X53913Y31595D01*
X53855Y31579D01*
X53813Y31569D01*
X53692Y31553D01*
X53650Y31542D01*
X53592Y31527D01*
X53550Y31516D01*
X53429Y31500D01*
X53356Y31479D01*
X53271Y31458D01*
X53166Y31448D01*
X53093Y31426D01*
X53061Y31416D01*
X52977Y31405D01*
X52903Y31395D01*
X52845Y31379D01*
X52803Y31369D01*
X52714Y31353D01*
X52640Y31342D01*
X52582Y31327D01*
X52540Y31316D01*
X52403Y31295D01*
X52277Y31263D01*
X52156Y31248D01*
X52083Y31227D01*
X51998Y31206D01*
X51893Y31195D01*
X51778Y31163D01*
X51735Y31153D01*
X51630Y31142D01*
X51557Y31121D01*
X51525Y31111D01*
X51420Y31100D01*
X51336Y31079D01*
X51278Y31063D01*
X51157Y31048D01*
X51115Y31037D01*
X51057Y31021D01*
X50894Y30995D01*
X50852Y30985D01*
X50794Y30969D01*
X50704Y30953D01*
X50631Y30943D01*
X50589Y30932D01*
X50531Y30916D01*
X50368Y30890D01*
X50299Y30864D01*
X50210Y30848D01*
X50168Y30837D01*
X50110Y30811D01*
X49989Y30785D01*
X49968Y30764D01*
X49926Y30753D01*
X49831Y30711D01*
X49778Y30701D01*
X49700Y30653D01*
X49642Y30638D01*
X49621Y30616D01*
X49568Y30595D01*
X49516Y30564D01*
X49368Y30480D01*
X49316Y30448D01*
X49295Y30427D01*
X49221Y30385D01*
X49200Y30364D01*
X49147Y30332D01*
X49137Y30311D01*
X49116Y30301D01*
X49100Y30285D01*
X49042Y30238D01*
X49021Y30227D01*
X48979Y30185D01*
X48958Y30175D01*
X48953Y30159D01*
X48937Y30143D01*
X48916Y30133D01*
X48805Y30022D01*
X48795Y30001D01*
X48742Y29948D01*
X48732Y29927D01*
X48690Y29885D01*
X48679Y29864D01*
X48648Y29833D01*
X48637Y29812D01*
X48616Y29790D01*
X48584Y29738D01*
X48553Y29706D01*
X48469Y29559D01*
X48390Y29428D01*
X48374Y29370D01*
X48342Y29338D01*
X48332Y29296D01*
X48300Y29222D01*
X48290Y29201D01*
X48279Y29159D01*
X48264Y29112D01*
X48243Y29059D01*
X48227Y28959D01*
X48206Y28907D01*
X48195Y28844D01*
X48185Y28812D01*
X48174Y28549D01*
X48164Y28517D01*
X48174Y28349D01*
X48185Y28212D01*
X48195Y28139D01*
X48216Y28086D01*
X48237Y27991D01*
X48248Y27949D01*
X48269Y27928D01*
X48279Y27886D01*
X48300Y27834D01*
X48353Y27739D01*
X48395Y27665D01*
X48416Y27644D01*
X48448Y27592D01*
X48479Y27560D01*
X48490Y27539D01*
X48506Y27523D01*
X48527Y27513D01*
X48532Y27497D01*
X48642Y27387D01*
X48663Y27376D01*
X48705Y27334D01*
X48726Y27323D01*
X48753Y27297D01*
X48742Y27255D01*
X48700Y27213D01*
X48674Y27176D01*
X48653Y27166D01*
X48648Y27150D01*
X48584Y27087D01*
X48574Y27066D01*
X48553Y27055D01*
X48542Y27034D01*
X48490Y26981D01*
X48479Y26960D01*
X48395Y26876D01*
X48384Y26855D01*
X48332Y26803D01*
X48321Y26782D01*
X48237Y26697D01*
X48227Y26676D01*
X48143Y26592D01*
X48132Y26571D01*
X48116Y26555D01*
X48095Y26545D01*
X48090Y26529D01*
X48037Y26477D01*
X48027Y26455D01*
X47985Y26413D01*
X47974Y26392D01*
X47895Y26313D01*
X47853Y26303D01*
X47638Y26518D01*
X47627Y26540D01*
X47585Y26582D01*
X47574Y26603D01*
X47559Y26618D01*
X47511Y26676D01*
X47406Y26834D01*
X47354Y26929D01*
X47322Y26981D01*
X47311Y27023D01*
X47290Y27045D01*
X47269Y27097D01*
X47227Y27192D01*
X47217Y27234D01*
X47185Y27308D01*
Y27318D01*
X47175Y27339D01*
X47164Y27413D01*
X47122Y27550D01*
X47112Y27655D01*
X47101Y27728D01*
X47091Y27760D01*
X47080Y27918D01*
X47069Y27949D01*
X47075Y28365D01*
X47085Y28502D01*
X47106Y28607D01*
X47122Y28728D01*
X47133Y28802D01*
X47159Y28891D01*
X47175Y28991D01*
X47206Y29065D01*
X47227Y29149D01*
X47264Y29238D01*
X47280Y29307D01*
X47311Y29359D01*
X47322Y29401D01*
X47343Y29454D01*
X47364Y29475D01*
X47375Y29517D01*
X47406Y29570D01*
X47417Y29601D01*
X47459Y29664D01*
X47480Y29717D01*
X47501Y29738D01*
X47543Y29812D01*
X47574Y29864D01*
X47596Y29885D01*
X47627Y29938D01*
X47648Y29959D01*
X47680Y30011D01*
X47711Y30043D01*
X47737Y30080D01*
X47758Y30090D01*
X47764Y30106D01*
X47816Y30159D01*
X47827Y30180D01*
X47859Y30201D01*
X47869Y30222D01*
X47885Y30238D01*
X47906Y30248D01*
X47927Y30280D01*
X47948Y30290D01*
X48021Y30364D01*
X48079Y30401D01*
X48090Y30432D01*
X48074Y30448D01*
X48016Y30443D01*
X47901Y30411D01*
X47811Y30396D01*
X47737Y30385D01*
X47680Y30369D01*
X47638Y30359D01*
X47548Y30343D01*
X47474Y30332D01*
X47432Y30322D01*
X47380Y30301D01*
X47253Y30290D01*
X47201Y30269D01*
X47185Y30285D01*
X47175Y31442D01*
X47185Y31484D01*
X47243Y31500D01*
X47390Y31521D01*
X47443Y31542D01*
X47538Y31553D01*
X47580Y31563D01*
X47653Y31574D01*
X47706Y31595D01*
X47790Y31605D01*
X47864Y31616D01*
X47906Y31626D01*
X47964Y31642D01*
X48053Y31658D01*
X48127Y31669D01*
X48200Y31690D01*
X48243Y31700D01*
X48390Y31721D01*
X48448Y31737D01*
X48490Y31747D01*
X48611Y31763D01*
X48653Y31774D01*
X48726Y31795D01*
X48769Y31805D01*
X48874Y31816D01*
X48916Y31826D01*
X48990Y31847D01*
X49032Y31858D01*
X49137Y31868D01*
X49195Y31884D01*
X49237Y31895D01*
X49326Y31911D01*
X49400Y31921D01*
X49473Y31942D01*
X49505Y31953D01*
X49610Y31963D01*
X49652Y31974D01*
X49710Y31989D01*
X49900Y32021D01*
X49984Y32042D01*
X50136Y32068D01*
X50178Y32079D01*
X50236Y32095D01*
X50326Y32110D01*
X50399Y32121D01*
X50441Y32131D01*
X50499Y32147D01*
X50589Y32163D01*
X50662Y32174D01*
X50720Y32189D01*
X50762Y32200D01*
X50883Y32216D01*
X50925Y32226D01*
X50983Y32242D01*
X51025Y32252D01*
X51146Y32268D01*
X51188Y32279D01*
X51262Y32300D01*
X51304Y32310D01*
X51409Y32321D01*
X51451Y32331D01*
X51525Y32352D01*
X51567Y32363D01*
X51672Y32373D01*
X51730Y32389D01*
X51772Y32400D01*
X51862Y32415D01*
X51935Y32426D01*
X51993Y32442D01*
X52035Y32452D01*
X52088Y32463D01*
X52172Y32473D01*
X52298Y32505D01*
X52435Y32526D01*
X52561Y32557D01*
X52682Y32573D01*
X52772Y32600D01*
X52861Y32615D01*
X52987Y32636D01*
X53040Y32657D01*
X53156Y32668D01*
X53240Y32689D01*
X53298Y32705D01*
X53419Y32721D01*
X53461Y32731D01*
X53519Y32747D01*
X53587Y32763D01*
X53734Y32784D01*
X53787Y32805D01*
X53882Y32815D01*
X53924Y32826D01*
X53997Y32836D01*
X54050Y32857D01*
X54134Y32868D01*
X54208Y32878D01*
X54250Y32889D01*
X54308Y32905D01*
X54397Y32920D01*
X54471Y32931D01*
X54545Y32952D01*
X54587Y32963D01*
X54734Y32984D01*
X54792Y32999D01*
X54834Y33010D01*
X54955Y33026D01*
X54997Y33036D01*
X55055Y33052D01*
X55097Y33063D01*
X55218Y33078D01*
X55307Y33105D01*
X55360Y33115D01*
X55491Y33131D01*
X55565Y33162D01*
X55602Y33147D01*
D02*
G37*
G36*
Y26119D02*
X55612Y24951D01*
X55597Y24904D01*
X55481Y24883D01*
X55423Y24867D01*
X55381Y24856D01*
X55292Y24841D01*
X55218Y24830D01*
X55160Y24814D01*
X55118Y24804D01*
X55028Y24788D01*
X54955Y24777D01*
X54897Y24762D01*
X54855Y24751D01*
X54734Y24735D01*
X54692Y24725D01*
X54634Y24709D01*
X54592Y24699D01*
X54471Y24683D01*
X54413Y24667D01*
X54371Y24656D01*
X54292Y24641D01*
X54218Y24630D01*
X54176Y24620D01*
X54118Y24604D01*
X54029Y24588D01*
X53955Y24577D01*
X53913Y24567D01*
X53855Y24551D01*
X53734Y24535D01*
X53650Y24514D01*
X53592Y24499D01*
X53471Y24483D01*
X53429Y24472D01*
X53356Y24451D01*
X53313Y24441D01*
X53208Y24430D01*
X53166Y24420D01*
X53108Y24404D01*
X52945Y24378D01*
X52903Y24367D01*
X52845Y24351D01*
X52756Y24335D01*
X52682Y24325D01*
X52640Y24314D01*
X52582Y24299D01*
X52461Y24283D01*
X52419Y24272D01*
X52361Y24257D01*
X52319Y24246D01*
X52198Y24230D01*
X52156Y24220D01*
X52083Y24199D01*
X52041Y24188D01*
X51935Y24178D01*
X51893Y24167D01*
X51835Y24151D01*
X51672Y24125D01*
X51614Y24109D01*
X51572Y24099D01*
X51483Y24083D01*
X51409Y24072D01*
X51351Y24057D01*
X51309Y24046D01*
X51220Y24030D01*
X51146Y24020D01*
X51088Y24004D01*
X51046Y23994D01*
X50925Y23978D01*
X50883Y23967D01*
X50825Y23951D01*
X50783Y23941D01*
X50662Y23925D01*
X50589Y23904D01*
X50504Y23883D01*
X50399Y23872D01*
X50326Y23851D01*
X50294Y23841D01*
X50210Y23830D01*
X50136Y23820D01*
X50078Y23804D01*
X50036Y23794D01*
X49947Y23778D01*
X49873Y23767D01*
X49815Y23752D01*
X49773Y23741D01*
X49637Y23720D01*
X49552Y23699D01*
X49437Y23678D01*
X49373Y23667D01*
X49247Y23636D01*
X49163Y23625D01*
X49110Y23615D01*
X49068Y23604D01*
X49011Y23589D01*
X48968Y23578D01*
X48863Y23567D01*
X48774Y23541D01*
X48653Y23525D01*
X48569Y23504D01*
X48511Y23489D01*
X48390Y23473D01*
X48348Y23462D01*
X48274Y23441D01*
X48232Y23431D01*
X48127Y23420D01*
X48085Y23410D01*
X48027Y23394D01*
X47864Y23368D01*
X47822Y23357D01*
X47764Y23341D01*
X47674Y23326D01*
X47601Y23315D01*
X47559Y23304D01*
X47485Y23283D01*
X47411Y23273D01*
X47285Y23252D01*
X47232Y23231D01*
X47185Y23236D01*
X47175Y24351D01*
X47164Y24383D01*
X47185Y24435D01*
X47253Y24451D01*
X47311Y24467D01*
X47354Y24478D01*
X47474Y24493D01*
X47532Y24509D01*
X47574Y24520D01*
X47653Y24535D01*
X47727Y24546D01*
X47769Y24556D01*
X47827Y24572D01*
X47916Y24588D01*
X47990Y24599D01*
X48064Y24620D01*
X48095Y24630D01*
X48200Y24641D01*
X48285Y24662D01*
X48342Y24677D01*
X48463Y24693D01*
X48506Y24704D01*
X48537Y24714D01*
X48548D01*
X48579Y24725D01*
X48621Y24735D01*
X48726Y24746D01*
X48769Y24756D01*
X48842Y24777D01*
X48884Y24788D01*
X48990Y24798D01*
X49079Y24825D01*
X49168Y24841D01*
X49242Y24851D01*
X49316Y24872D01*
X49358Y24883D01*
X49505Y24904D01*
X49563Y24919D01*
X49605Y24930D01*
X49715Y24946D01*
X49757Y24956D01*
X49815Y24972D01*
X49978Y24998D01*
X50020Y25009D01*
X50094Y25030D01*
X50136Y25040D01*
X50241Y25051D01*
X50315Y25072D01*
X50347Y25082D01*
X50452Y25093D01*
X50578Y25124D01*
X50610Y25135D01*
X50715Y25146D01*
X50757Y25156D01*
X50815Y25172D01*
X50857Y25182D01*
X50978Y25198D01*
X51020Y25209D01*
X51078Y25224D01*
X51230Y25251D01*
X51273Y25261D01*
X51330Y25277D01*
X51420Y25293D01*
X51493Y25303D01*
X51536Y25314D01*
X51593Y25330D01*
X51683Y25345D01*
X51757Y25356D01*
X51830Y25377D01*
X51862Y25388D01*
X51967Y25398D01*
X52051Y25419D01*
X52109Y25435D01*
X52230Y25451D01*
X52272Y25461D01*
X52346Y25482D01*
X52388Y25493D01*
X52493Y25503D01*
X52551Y25519D01*
X52593Y25530D01*
X52672Y25545D01*
X52745Y25556D01*
X52787Y25566D01*
X52845Y25582D01*
X52935Y25598D01*
X53008Y25608D01*
X53066Y25624D01*
X53108Y25635D01*
X53245Y25656D01*
X53371Y25687D01*
X53482Y25703D01*
X53524Y25714D01*
X53598Y25735D01*
X53640Y25745D01*
X53745Y25756D01*
X53787Y25766D01*
X53861Y25787D01*
X53903Y25798D01*
X54008Y25808D01*
X54050Y25819D01*
X54103Y25840D01*
X54218Y25851D01*
X54303Y25872D01*
X54360Y25887D01*
X54481Y25903D01*
X54523Y25914D01*
X54581Y25929D01*
X54623Y25940D01*
X54760Y25961D01*
X54844Y25982D01*
X54997Y26008D01*
X55039Y26019D01*
X55097Y26035D01*
X55186Y26050D01*
X55260Y26061D01*
X55333Y26082D01*
X55365Y26093D01*
X55470Y26103D01*
X55512Y26114D01*
X55544Y26124D01*
X55602Y26119D01*
D02*
G37*
G36*
X44839Y23972D02*
X44850Y22763D01*
X44834Y22747D01*
X44797Y22731D01*
X44676Y22715D01*
X44634Y22705D01*
X44560Y22684D01*
X44518Y22673D01*
X44413Y22663D01*
X44371Y22652D01*
X44313Y22636D01*
X44150Y22610D01*
X44092Y22594D01*
X44050Y22584D01*
X43960Y22568D01*
X43887Y22557D01*
X43829Y22542D01*
X43787Y22531D01*
X43698Y22515D01*
X43624Y22505D01*
X43566Y22489D01*
X43524Y22478D01*
X43461Y22468D01*
X43350Y22452D01*
X43334Y22468D01*
X43324Y23657D01*
X43340Y23673D01*
X43403Y23683D01*
X43445Y23694D01*
X43519Y23715D01*
X43561Y23725D01*
X43666Y23736D01*
X43755Y23762D01*
X43845Y23778D01*
X43918Y23788D01*
X43960Y23799D01*
X44018Y23815D01*
X44108Y23830D01*
X44181Y23841D01*
X44255Y23862D01*
X44287Y23872D01*
X44402Y23883D01*
X44413D01*
X44434Y23894D01*
X44492Y23909D01*
X44534Y23920D01*
X44655Y23936D01*
X44739Y23957D01*
X44792Y23978D01*
X44839Y23972D01*
D02*
G37*
G36*
X29248Y23700D02*
X21945Y22167D01*
X20533Y21193D01*
X20144Y20219D01*
X20266Y19148D01*
X20801Y18296D01*
X19462Y17152D01*
X18805Y18150D01*
X18586Y19562D01*
X19024Y20512D01*
X19730Y21777D01*
X20071Y21948D01*
X18895Y21796D01*
X18878Y21826D01*
Y23481D01*
X29053Y25282D01*
X29248Y23700D01*
D02*
G37*
G36*
X52930Y22016D02*
X53129Y22005D01*
X53214Y21995D01*
X53266Y21984D01*
X53329Y21974D01*
X53450Y21958D01*
X53492Y21947D01*
X53550Y21932D01*
X53619Y21916D01*
X53692Y21905D01*
X53750Y21879D01*
X53808Y21863D01*
X53850Y21853D01*
X53897Y21837D01*
X53966Y21811D01*
X54040Y21779D01*
X54092Y21758D01*
X54166Y21726D01*
X54187Y21716D01*
X54260Y21684D01*
X54450Y21579D01*
X54523Y21537D01*
X54581Y21500D01*
X54639Y21453D01*
X54660Y21442D01*
X54681Y21421D01*
X54702Y21411D01*
X54744Y21369D01*
X54765Y21358D01*
X54818Y21305D01*
X54839Y21295D01*
X54850Y21274D01*
X54886Y21248D01*
X54897Y21227D01*
X54928Y21205D01*
X54939Y21184D01*
X55034Y21090D01*
X55060Y21053D01*
X55081Y21042D01*
X55113Y20990D01*
X55160Y20932D01*
X55212Y20858D01*
X55255Y20785D01*
X55286Y20753D01*
X55307Y20701D01*
X55333Y20674D01*
X55360Y20606D01*
X55381Y20585D01*
X55423Y20480D01*
X55439Y20464D01*
X55455Y20406D01*
X55481Y20359D01*
X55507Y20290D01*
X55523Y20243D01*
X55549Y20175D01*
X55560Y20132D01*
X55591Y20059D01*
X55602Y19985D01*
X55612Y19943D01*
X55633Y19869D01*
X55654Y19785D01*
X55665Y19680D01*
X55676Y19638D01*
X55686Y19564D01*
X55697Y19533D01*
X55707Y19154D01*
X55718Y19122D01*
X55712Y18938D01*
X55702Y18675D01*
X55691Y18559D01*
X55681Y18496D01*
X55670Y18454D01*
X55644Y18270D01*
X55618Y18181D01*
X55607Y18128D01*
X55597Y18065D01*
X55586Y18023D01*
X55565Y17970D01*
X55549Y17902D01*
X55533Y17855D01*
X55507Y17786D01*
X55486Y17702D01*
X55465Y17681D01*
X55455Y17628D01*
X55402Y17513D01*
X55370Y17439D01*
X55349Y17386D01*
X55312Y17318D01*
X55286Y17250D01*
X55260Y17223D01*
X55244Y17165D01*
X55223Y17145D01*
X55181Y17071D01*
X55128Y16976D01*
X55076Y16903D01*
X55034Y16829D01*
X55002Y16797D01*
X54992Y16776D01*
X54971Y16755D01*
X54939Y16703D01*
X54918Y16682D01*
X54881Y16624D01*
X54860Y16613D01*
X54844Y16587D01*
X54834Y16566D01*
X54760Y16492D01*
X54750Y16471D01*
X54707Y16429D01*
X54697Y16408D01*
X54581Y16292D01*
X54523Y16245D01*
X54492Y16256D01*
X54450Y16298D01*
X54429Y16308D01*
X54387Y16350D01*
X54366Y16361D01*
X54334Y16392D01*
X54313Y16403D01*
X54271Y16445D01*
X54250Y16455D01*
X54208Y16497D01*
X54187Y16508D01*
X54155Y16539D01*
X54134Y16550D01*
X54092Y16592D01*
X54071Y16603D01*
X54029Y16645D01*
X54008Y16655D01*
X53976Y16687D01*
X53939Y16713D01*
X53882Y16760D01*
X53861Y16771D01*
X53818Y16813D01*
X53797Y16824D01*
X53787Y16845D01*
X53766Y16855D01*
X53734Y16887D01*
X53682Y16918D01*
X53666Y16945D01*
X53677Y16987D01*
X53918Y17229D01*
X53929Y17250D01*
X53971Y17292D01*
X53982Y17313D01*
X54024Y17355D01*
X54034Y17376D01*
X54076Y17418D01*
X54087Y17439D01*
X54108Y17460D01*
X54139Y17513D01*
X54171Y17544D01*
X54181Y17565D01*
X54234Y17639D01*
X54245Y17660D01*
X54266Y17681D01*
X54318Y17776D01*
X54392Y17912D01*
X54413Y17965D01*
X54429Y17981D01*
X54444Y18039D01*
X54481Y18107D01*
X54497Y18175D01*
X54534Y18265D01*
X54550Y18365D01*
X54576Y18433D01*
X54587Y18486D01*
X54602Y18649D01*
X54613Y18680D01*
X54623Y18912D01*
X54634Y18944D01*
X54629Y19065D01*
X54618Y19180D01*
X54602Y19301D01*
X54592Y19343D01*
X54581Y19449D01*
X54550Y19522D01*
X54539Y19606D01*
X54513Y19664D01*
X54487Y19733D01*
X54371Y19975D01*
X54339Y20027D01*
X54318Y20048D01*
X54287Y20101D01*
X54255Y20132D01*
X54245Y20154D01*
X54202Y20196D01*
X54192Y20217D01*
X54124Y20285D01*
X54103Y20296D01*
X54082Y20327D01*
X54061Y20338D01*
X54029Y20369D01*
X53971Y20406D01*
X53913Y20453D01*
X53892Y20464D01*
X53871Y20485D01*
X53818Y20506D01*
X53792Y20532D01*
X53724Y20559D01*
X53703Y20580D01*
X53598Y20622D01*
X53582Y20637D01*
X53513Y20653D01*
X53461Y20674D01*
X53424Y20690D01*
X53356Y20706D01*
X53313Y20716D01*
X53261Y20737D01*
X53166Y20748D01*
X53124Y20758D01*
X53019Y20769D01*
X52987Y20779D01*
X52872Y20790D01*
X52777D01*
X52745Y20800D01*
X52293Y20790D01*
X52251Y20779D01*
X52146Y20769D01*
X52072Y20758D01*
X51935Y20748D01*
X51793Y20732D01*
X51725Y20716D01*
X51683Y20706D01*
X51578Y20695D01*
X51504Y20685D01*
X51446Y20669D01*
X51283Y20643D01*
X51241Y20632D01*
X51183Y20616D01*
X51130Y20606D01*
X51067Y20595D01*
X51015Y20585D01*
X50946Y20559D01*
X50904Y20548D01*
X50831Y20537D01*
X50762Y20511D01*
X50694Y20495D01*
X50652Y20485D01*
X50594Y20459D01*
X50515Y20443D01*
X50420Y20401D01*
X50378Y20390D01*
X50273Y20348D01*
X50231Y20338D01*
X50136Y20296D01*
X50020Y20243D01*
X49926Y20201D01*
X49810Y20148D01*
X49757Y20127D01*
X49736Y20106D01*
X49715Y20096D01*
X49663Y20075D01*
X49642Y20054D01*
X49589Y20032D01*
X49558Y20001D01*
X49516Y19990D01*
X49484Y19959D01*
X49410Y19917D01*
X49358Y19885D01*
X49337Y19864D01*
X49284Y19833D01*
X49263Y19812D01*
X49210Y19780D01*
X49168Y19738D01*
X49147Y19727D01*
X49074Y19654D01*
X49053Y19643D01*
X48847Y19438D01*
X48821Y19401D01*
X48800Y19391D01*
X48795Y19375D01*
X48753Y19333D01*
X48742Y19312D01*
X48700Y19270D01*
X48690Y19249D01*
X48632Y19170D01*
X48563Y19070D01*
X48521Y18996D01*
X48490Y18965D01*
X48479Y18922D01*
X48453Y18896D01*
X48416Y18796D01*
X48390Y18770D01*
X48374Y18712D01*
X48358Y18696D01*
X48337Y18644D01*
X48321Y18575D01*
X48306Y18559D01*
X48285Y18507D01*
X48274Y18454D01*
X48264Y18412D01*
X48243Y18360D01*
X48232Y18307D01*
X48221Y18244D01*
X48200Y18160D01*
X48190Y18097D01*
X48179Y18002D01*
X48169Y17760D01*
X48174Y17544D01*
X48185Y17376D01*
X48195Y17302D01*
X48227Y17197D01*
X48237Y17123D01*
X48269Y17050D01*
X48279Y17008D01*
X48332Y16892D01*
X48353Y16839D01*
X48406Y16745D01*
X48437Y16692D01*
X48458Y16671D01*
X48490Y16618D01*
X48532Y16576D01*
X48542Y16555D01*
X48626Y16471D01*
X48653Y16434D01*
X48674Y16424D01*
X48737Y16361D01*
X48758Y16350D01*
X48842Y16266D01*
X48863Y16256D01*
X48884Y16234D01*
X48937Y16203D01*
X48958Y16182D01*
X49011Y16150D01*
X49042Y16119D01*
X49063Y16108D01*
X49079Y16092D01*
X49089Y16040D01*
X49047Y15998D01*
X49037Y15977D01*
X48953Y15892D01*
X48942Y15871D01*
X48900Y15829D01*
X48889Y15808D01*
X48847Y15766D01*
X48837Y15745D01*
X48805Y15714D01*
X48795Y15693D01*
X48742Y15640D01*
X48732Y15619D01*
X48700Y15587D01*
X48674Y15551D01*
X48653Y15540D01*
X48648Y15524D01*
X48605Y15482D01*
X48595Y15461D01*
X48574Y15440D01*
X48563Y15419D01*
X48532Y15388D01*
X48521Y15366D01*
X48448Y15293D01*
X48437Y15272D01*
X48395Y15230D01*
X48384Y15209D01*
X48369Y15193D01*
X48327Y15182D01*
X48274Y15203D01*
X48253Y15214D01*
X48232Y15235D01*
X48211Y15245D01*
X48179Y15277D01*
X48158Y15287D01*
X48116Y15330D01*
X48095Y15340D01*
X48053Y15382D01*
X48032Y15393D01*
X47979Y15445D01*
X47958Y15456D01*
X47753Y15661D01*
X47743Y15682D01*
X47701Y15724D01*
X47690Y15745D01*
X47653Y15793D01*
X47606Y15850D01*
X47532Y15945D01*
X47522Y15977D01*
X47490Y16008D01*
X47406Y16156D01*
X47375Y16208D01*
X47354Y16261D01*
X47322Y16313D01*
X47290Y16387D01*
X47269Y16440D01*
X47232Y16529D01*
X47217Y16597D01*
X47201Y16645D01*
X47175Y16713D01*
X47164Y16787D01*
X47148Y16845D01*
X47122Y16955D01*
X47112Y17060D01*
X47091Y17187D01*
X47080Y17218D01*
X47069Y17713D01*
X47080Y17944D01*
X47101Y18123D01*
X47112Y18165D01*
X47133Y18375D01*
X47148Y18433D01*
X47159Y18475D01*
X47175Y18575D01*
X47211Y18696D01*
X47227Y18786D01*
X47253Y18844D01*
X47269Y18901D01*
X47280Y18944D01*
X47306Y19001D01*
X47322Y19059D01*
X47406Y19249D01*
X47427Y19301D01*
X47543Y19543D01*
X47638Y19701D01*
X47680Y19775D01*
X47701Y19796D01*
X47743Y19869D01*
X47780Y19917D01*
X47827Y19975D01*
X47837Y19996D01*
X47859Y20017D01*
X47890Y20069D01*
X47906Y20075D01*
X47922Y20101D01*
X47932Y20122D01*
X48016Y20206D01*
X48027Y20227D01*
X48348Y20548D01*
X48369Y20559D01*
X48453Y20643D01*
X48474Y20653D01*
X48495Y20674D01*
X48532Y20701D01*
X48590Y20748D01*
X48611Y20758D01*
X48642Y20790D01*
X48663Y20800D01*
X48684Y20821D01*
X48737Y20853D01*
X48758Y20874D01*
X48811Y20906D01*
X48842Y20937D01*
X48916Y20979D01*
X48968Y21011D01*
X48990Y21032D01*
X49137Y21116D01*
X49158Y21127D01*
X49179Y21148D01*
X49221Y21158D01*
X49253Y21190D01*
X49295Y21200D01*
X49358Y21242D01*
X49379Y21253D01*
X49431Y21274D01*
X49484Y21305D01*
X49526Y21316D01*
X49547Y21337D01*
X49568Y21348D01*
X49663Y21390D01*
X49715Y21411D01*
X49810Y21453D01*
X49852Y21463D01*
X49905Y21495D01*
X49947Y21505D01*
X50042Y21548D01*
X50084Y21558D01*
X50173Y21595D01*
X50231Y21611D01*
X50273Y21621D01*
X50331Y21647D01*
X50399Y21663D01*
X50457Y21679D01*
X50510Y21700D01*
X50615Y21721D01*
X50715Y21758D01*
X50788Y21768D01*
X50862Y21800D01*
X50946Y21811D01*
X51031Y21832D01*
X51088Y21847D01*
X51199Y21863D01*
X51241Y21874D01*
X51299Y21889D01*
X51341Y21900D01*
X51404Y21910D01*
X51499Y21921D01*
X51551Y21932D01*
X51620Y21947D01*
X51662Y21958D01*
X51799Y21968D01*
X51977Y21989D01*
X52009Y22000D01*
X52325Y22010D01*
X52356Y22021D01*
X52930Y22016D01*
D02*
G37*
G36*
X28066Y16332D02*
X29042Y15357D01*
X29432Y13991D01*
X29237Y12430D01*
X29042Y11259D01*
X27871Y9112D01*
X27285D01*
X26505Y9893D01*
X27481Y11259D01*
X27871Y12820D01*
X27676Y14186D01*
X26505Y14966D01*
X25139Y15161D01*
X24554Y14966D01*
Y14771D01*
Y8527D01*
X23578Y8137D01*
X21822Y7942D01*
X20261Y8332D01*
X18700Y10283D01*
X18505Y12040D01*
X19676Y14576D01*
X22212Y16332D01*
X25724Y16723D01*
X28066Y16332D01*
D02*
G37*
G36*
X55602Y14588D02*
X55618Y14551D01*
X55612Y13462D01*
X55623Y13431D01*
X55607Y13383D01*
X55554Y13362D01*
X55497Y13347D01*
X55333Y13320D01*
X55292Y13310D01*
X55234Y13294D01*
X55144Y13278D01*
X55071Y13268D01*
X55028Y13257D01*
X54971Y13241D01*
X54881Y13226D01*
X54808Y13215D01*
X54765Y13204D01*
X54707Y13189D01*
X54587Y13173D01*
X54545Y13162D01*
X54487Y13147D01*
X54444Y13136D01*
X54324Y13120D01*
X54282Y13110D01*
X54208Y13089D01*
X54166Y13078D01*
X54061Y13068D01*
X54018Y13057D01*
X53961Y13041D01*
X53797Y13015D01*
X53755Y13004D01*
X53698Y12989D01*
X53608Y12973D01*
X53534Y12962D01*
X53477Y12947D01*
X53435Y12936D01*
X53313Y12920D01*
X53271Y12910D01*
X53214Y12894D01*
X53172Y12883D01*
X53050Y12868D01*
X53008Y12857D01*
X52935Y12836D01*
X52893Y12826D01*
X52787Y12815D01*
X52745Y12805D01*
X52672Y12784D01*
X52630Y12773D01*
X52524Y12763D01*
X52467Y12747D01*
X52425Y12736D01*
X52335Y12721D01*
X52261Y12710D01*
X52204Y12694D01*
X52161Y12684D01*
X52072Y12668D01*
X51998Y12657D01*
X51941Y12642D01*
X51898Y12631D01*
X51778Y12615D01*
X51735Y12605D01*
X51677Y12589D01*
X51635Y12578D01*
X51515Y12563D01*
X51472Y12552D01*
X51399Y12531D01*
X51357Y12521D01*
X51252Y12510D01*
X51178Y12489D01*
X51146Y12478D01*
X51062Y12468D01*
X50988Y12457D01*
X50931Y12442D01*
X50889Y12431D01*
X50799Y12415D01*
X50725Y12405D01*
X50668Y12389D01*
X50626Y12378D01*
X50515Y12363D01*
X50473Y12352D01*
X50415Y12336D01*
X50373Y12326D01*
X50273Y12310D01*
X50215Y12294D01*
X50147Y12268D01*
X50073Y12258D01*
X50015Y12231D01*
X49957Y12215D01*
X49915Y12205D01*
X49868Y12179D01*
X49810Y12163D01*
X49715Y12121D01*
X49600Y12068D01*
X49547Y12047D01*
X49368Y11953D01*
X49347Y11931D01*
X49274Y11889D01*
X49221Y11858D01*
X49205Y11842D01*
X49142Y11800D01*
X49084Y11753D01*
X49063Y11742D01*
X49032Y11710D01*
X49011Y11700D01*
X48763Y11453D01*
X48737Y11416D01*
X48690Y11358D01*
X48679Y11337D01*
X48648Y11305D01*
X48637Y11284D01*
X48605Y11253D01*
X48595Y11232D01*
X48521Y11116D01*
X48469Y11021D01*
X48437Y10969D01*
X48416Y10916D01*
X48395Y10895D01*
X48384Y10853D01*
X48332Y10737D01*
X48295Y10648D01*
X48279Y10580D01*
X48264Y10522D01*
X48243Y10469D01*
X48227Y10369D01*
X48211Y10311D01*
X48195Y10243D01*
X48185Y10211D01*
X48174Y9927D01*
X48164Y9896D01*
X48174Y9801D01*
X48185Y9538D01*
X48195Y9496D01*
X48211Y9438D01*
X48237Y9317D01*
X48269Y9243D01*
X48279Y9201D01*
X48384Y8980D01*
X48437Y8907D01*
X48448Y8886D01*
X48511Y8823D01*
X48521Y8802D01*
X48579Y8744D01*
X48616Y8717D01*
X48626Y8696D01*
X48642Y8691D01*
X48674Y8659D01*
X48726Y8628D01*
X48748Y8607D01*
X48853Y8544D01*
X48905Y8523D01*
X48974Y8486D01*
X49032Y8470D01*
X49089Y8444D01*
X49147Y8428D01*
X49221Y8418D01*
X49274Y8396D01*
X49379Y8386D01*
X49410Y8375D01*
X49889Y8381D01*
X50015Y8391D01*
X50120Y8412D01*
X50205Y8423D01*
X50299Y8433D01*
X50362Y8444D01*
X50447Y8465D01*
X50536Y8481D01*
X50610Y8491D01*
X50699Y8517D01*
X50820Y8533D01*
X50862Y8544D01*
X50936Y8565D01*
X50978Y8575D01*
X51083Y8586D01*
X51125Y8596D01*
X51199Y8617D01*
X51241Y8628D01*
X51346Y8638D01*
X51420Y8659D01*
X51451Y8670D01*
X51557Y8680D01*
X51683Y8712D01*
X51714Y8723D01*
X51820Y8733D01*
X51862Y8744D01*
X51919Y8759D01*
X51962Y8770D01*
X52083Y8786D01*
X52125Y8796D01*
X52198Y8817D01*
X52240Y8828D01*
X52346Y8838D01*
X52388Y8849D01*
X52446Y8865D01*
X52524Y8880D01*
X52598Y8891D01*
X52640Y8901D01*
X52698Y8917D01*
X52787Y8933D01*
X52861Y8943D01*
X52903Y8954D01*
X52977Y8975D01*
X53124Y8996D01*
X53182Y9012D01*
X53224Y9022D01*
X53345Y9038D01*
X53387Y9049D01*
X53445Y9064D01*
X53598Y9091D01*
X53640Y9101D01*
X53698Y9117D01*
X53787Y9133D01*
X53861Y9143D01*
X53903Y9154D01*
X53961Y9170D01*
X54050Y9186D01*
X54124Y9196D01*
X54197Y9217D01*
X54239Y9228D01*
X54387Y9249D01*
X54460Y9270D01*
X54502Y9280D01*
X54650Y9301D01*
X54702Y9322D01*
X54797Y9333D01*
X54839Y9343D01*
X54913Y9354D01*
X54965Y9375D01*
X55050Y9385D01*
X55123Y9396D01*
X55181Y9412D01*
X55223Y9422D01*
X55312Y9438D01*
X55386Y9449D01*
X55444Y9464D01*
X55565Y9491D01*
X55607Y9480D01*
X55623Y9454D01*
X55612Y9422D01*
X55618Y8333D01*
X55612Y8286D01*
X55565Y8260D01*
X55507Y8244D01*
X55428Y8228D01*
X55355Y8218D01*
X55312Y8207D01*
X55255Y8191D01*
X55165Y8176D01*
X55092Y8165D01*
X55034Y8149D01*
X54992Y8139D01*
X54902Y8123D01*
X54829Y8112D01*
X54739Y8086D01*
X54618Y8070D01*
X54576Y8060D01*
X54518Y8044D01*
X54366Y8018D01*
X54324Y8007D01*
X54266Y7991D01*
X54260Y7986D01*
X54103Y7965D01*
X54045Y7949D01*
X53924Y7923D01*
X53850Y7912D01*
X53808Y7902D01*
X53734Y7881D01*
X53587Y7860D01*
X53529Y7844D01*
X53487Y7833D01*
X53377Y7818D01*
X53335Y7807D01*
X53277Y7791D01*
X53235Y7781D01*
X53114Y7765D01*
X53071Y7755D01*
X53014Y7739D01*
X52935Y7723D01*
X52861Y7713D01*
X52819Y7702D01*
X52761Y7686D01*
X52672Y7671D01*
X52598Y7660D01*
X52509Y7634D01*
X52388Y7618D01*
X52346Y7607D01*
X52272Y7586D01*
X52230Y7576D01*
X52083Y7555D01*
X52025Y7539D01*
X51872Y7513D01*
X51830Y7502D01*
X51757Y7481D01*
X51714Y7471D01*
X51609Y7460D01*
X51551Y7444D01*
X51509Y7434D01*
X51430Y7418D01*
X51357Y7408D01*
X51299Y7392D01*
X51257Y7381D01*
X51167Y7365D01*
X51094Y7355D01*
X51004Y7329D01*
X50883Y7313D01*
X50841Y7302D01*
X50783Y7286D01*
X50631Y7260D01*
X50589Y7250D01*
X50531Y7234D01*
X50368Y7208D01*
X50310Y7192D01*
X50268Y7181D01*
X50084Y7155D01*
X49957Y7134D01*
X49926Y7123D01*
X49516Y7113D01*
X49484Y7102D01*
X49447Y7108D01*
X49153Y7118D01*
X49058Y7129D01*
X48953Y7150D01*
X48853Y7165D01*
X48769Y7186D01*
X48653Y7218D01*
X48611Y7229D01*
X48537Y7260D01*
X48495Y7271D01*
X48400Y7313D01*
X48358Y7323D01*
X48311Y7350D01*
X48243Y7376D01*
X48216Y7402D01*
X48148Y7429D01*
X48116Y7460D01*
X48074Y7471D01*
X48053Y7492D01*
X48000Y7523D01*
X47979Y7544D01*
X47927Y7576D01*
X47895Y7607D01*
X47874Y7618D01*
X47832Y7660D01*
X47811Y7671D01*
X47638Y7844D01*
X47627Y7865D01*
X47601Y7891D01*
X47448Y8097D01*
X47406Y8170D01*
X47385Y8191D01*
X47375Y8212D01*
X47338Y8281D01*
X47311Y8349D01*
X47296Y8365D01*
X47269Y8433D01*
X47227Y8528D01*
X47217Y8570D01*
X47185Y8644D01*
X47164Y8738D01*
X47138Y8828D01*
X47122Y8907D01*
X47101Y9054D01*
X47091Y9086D01*
X47080Y9264D01*
X47069Y9296D01*
X47075Y9638D01*
X47085Y9859D01*
X47106Y9985D01*
X47122Y10127D01*
X47133Y10201D01*
X47148Y10259D01*
X47159Y10301D01*
X47175Y10390D01*
X47185Y10432D01*
X47201Y10480D01*
X47227Y10590D01*
X47248Y10643D01*
X47264Y10679D01*
X47280Y10748D01*
X47317Y10816D01*
X47332Y10885D01*
X47348Y10900D01*
X47375Y10969D01*
X47406Y11021D01*
X47438Y11106D01*
X47459Y11127D01*
X47480Y11179D01*
X47501Y11200D01*
X47543Y11274D01*
X47574Y11327D01*
X47648Y11432D01*
X47680Y11484D01*
X47722Y11526D01*
X47732Y11547D01*
X47774Y11589D01*
X47785Y11610D01*
X47859Y11684D01*
X47869Y11705D01*
X47964Y11800D01*
X47974Y11842D01*
X47958Y11847D01*
X47853Y11816D01*
X47748Y11805D01*
X47690Y11789D01*
X47648Y11779D01*
X47532Y11758D01*
X47469Y11747D01*
X47427Y11737D01*
X47317Y11710D01*
X47243Y11700D01*
X47201Y11689D01*
X47127Y11668D01*
X46980Y11647D01*
X46922Y11632D01*
X46880Y11621D01*
X46770Y11605D01*
X46727Y11595D01*
X46654Y11574D01*
X46612Y11563D01*
X46507Y11553D01*
X46465Y11542D01*
X46407Y11526D01*
X46328Y11511D01*
X46254Y11500D01*
X46212Y11489D01*
X46154Y11474D01*
X46065Y11458D01*
X45991Y11447D01*
X45902Y11421D01*
X45781Y11405D01*
X45739Y11395D01*
X45681Y11379D01*
X45639Y11369D01*
X45502Y11348D01*
X45418Y11327D01*
X45265Y11300D01*
X45223Y11290D01*
X45165Y11274D01*
X45123Y11263D01*
X45039Y11253D01*
X44986Y11242D01*
X44902Y11221D01*
X44823Y11206D01*
X44750Y11195D01*
X44676Y11174D01*
X44644Y11163D01*
X44539Y11153D01*
X44497Y11142D01*
X44439Y11127D01*
X44397Y11116D01*
X44276Y11100D01*
X44234Y11090D01*
X44176Y11074D01*
X44024Y11048D01*
X43981Y11037D01*
X43908Y11016D01*
X43866Y11006D01*
X43761Y10995D01*
X43671Y10969D01*
X43582Y10953D01*
X43508Y10942D01*
X43466Y10932D01*
X43435Y10921D01*
X43340Y10911D01*
X43319Y10942D01*
X43324Y12084D01*
X43334Y12126D01*
X43377Y12147D01*
X43540Y12173D01*
X43598Y12189D01*
X43640Y12200D01*
X43729Y12215D01*
X43803Y12226D01*
X43892Y12252D01*
X44013Y12268D01*
X44055Y12279D01*
X44113Y12294D01*
X44155Y12305D01*
X44276Y12321D01*
X44318Y12331D01*
X44376Y12347D01*
X44418Y12357D01*
X44539Y12373D01*
X44597Y12389D01*
X44639Y12400D01*
X44718Y12415D01*
X44792Y12426D01*
X44834Y12436D01*
X44892Y12452D01*
X44981Y12468D01*
X45055Y12478D01*
X45113Y12494D01*
X45155Y12505D01*
X45244Y12521D01*
X45318Y12531D01*
X45407Y12557D01*
X45528Y12573D01*
X45570Y12584D01*
X45644Y12605D01*
X45686Y12615D01*
X45791Y12626D01*
X45833Y12636D01*
X45907Y12657D01*
X45949Y12668D01*
X46054Y12678D01*
X46112Y12694D01*
X46233Y12721D01*
X46307Y12731D01*
X46349Y12742D01*
X46407Y12757D01*
X46528Y12773D01*
X46570Y12784D01*
X46627Y12799D01*
X46670Y12810D01*
X46791Y12826D01*
X46833Y12836D01*
X46891Y12852D01*
X47043Y12878D01*
X47085Y12889D01*
X47143Y12905D01*
X47232Y12920D01*
X47306Y12931D01*
X47348Y12941D01*
X47406Y12957D01*
X47495Y12973D01*
X47569Y12983D01*
X47643Y13004D01*
X47674Y13015D01*
X47780Y13026D01*
X47864Y13047D01*
X47922Y13062D01*
X48043Y13078D01*
X48085Y13089D01*
X48158Y13110D01*
X48200Y13120D01*
X48306Y13131D01*
X48348Y13141D01*
X48421Y13162D01*
X48463Y13173D01*
X48569Y13183D01*
X48658Y13210D01*
X48748Y13226D01*
X48821Y13236D01*
X48863Y13247D01*
X48937Y13268D01*
X49084Y13289D01*
X49142Y13304D01*
X49184Y13315D01*
X49321Y13336D01*
X49405Y13357D01*
X49558Y13383D01*
X49600Y13394D01*
X49658Y13410D01*
X49747Y13425D01*
X49821Y13436D01*
X49863Y13446D01*
X49921Y13462D01*
X50010Y13478D01*
X50084Y13489D01*
X50157Y13510D01*
X50189Y13520D01*
X50294Y13531D01*
X50336Y13541D01*
X50394Y13557D01*
X50436Y13567D01*
X50557Y13583D01*
X50599Y13594D01*
X50657Y13609D01*
X50699Y13620D01*
X50820Y13636D01*
X50910Y13662D01*
X50999Y13678D01*
X51073Y13688D01*
X51115Y13699D01*
X51172Y13715D01*
X51262Y13730D01*
X51336Y13741D01*
X51393Y13757D01*
X51436Y13767D01*
X51572Y13788D01*
X51699Y13820D01*
X51809Y13836D01*
X51851Y13846D01*
X51925Y13867D01*
X51967Y13878D01*
X52072Y13888D01*
X52114Y13899D01*
X52188Y13920D01*
X52230Y13930D01*
X52335Y13941D01*
X52409Y13962D01*
X52440Y13973D01*
X52545Y13983D01*
X52630Y14004D01*
X52688Y14020D01*
X52808Y14036D01*
X52851Y14046D01*
X52909Y14062D01*
X52951Y14072D01*
X53071Y14088D01*
X53114Y14099D01*
X53172Y14115D01*
X53324Y14141D01*
X53366Y14151D01*
X53424Y14167D01*
X53513Y14183D01*
X53587Y14193D01*
X53629Y14204D01*
X53687Y14220D01*
X53776Y14236D01*
X53850Y14246D01*
X53924Y14267D01*
X53955Y14277D01*
X54061Y14288D01*
X54145Y14309D01*
X54202Y14325D01*
X54324Y14341D01*
X54366Y14351D01*
X54439Y14372D01*
X54481Y14383D01*
X54587Y14393D01*
X54660Y14414D01*
X54744Y14435D01*
X54850Y14446D01*
X54939Y14472D01*
X55028Y14488D01*
X55102Y14498D01*
X55176Y14519D01*
X55218Y14530D01*
X55365Y14551D01*
X55423Y14567D01*
X55502Y14583D01*
X55533Y14593D01*
X55602Y14588D01*
D02*
G37*
G36*
X54671Y173339D02*
X54467Y173219D01*
X54275Y173087D01*
X54082Y172931D01*
X53914Y172787D01*
X53770Y172642D01*
X53650Y172534D01*
X53614Y172486D01*
X53578Y172450D01*
X53566Y172438D01*
X53554Y172426D01*
X53350Y172174D01*
X53157Y171922D01*
X52989Y171681D01*
X52857Y171441D01*
X52737Y171237D01*
X52689Y171153D01*
X52653Y171080D01*
X52617Y171021D01*
X52605Y170972D01*
X52581Y170948D01*
Y170936D01*
X51596D01*
X51668Y171117D01*
X51752Y171297D01*
X51836Y171477D01*
X51920Y171645D01*
X51992Y171789D01*
X52052Y171910D01*
X52100Y171982D01*
X52112Y171994D01*
Y172006D01*
X52244Y172222D01*
X52376Y172414D01*
X52497Y172582D01*
X52605Y172715D01*
X52689Y172835D01*
X52761Y172907D01*
X52809Y172967D01*
X52821Y172979D01*
X46321D01*
Y174000D01*
X54671D01*
Y173339D01*
D02*
G37*
G36*
X54635Y166287D02*
Y165085D01*
X46321Y161914D01*
Y163079D01*
X48844Y163980D01*
Y167464D01*
X46321Y168437D01*
Y169687D01*
X54635Y166287D01*
D02*
G37*
G36*
X64185Y173988D02*
X64378D01*
X64570Y173976D01*
X64738Y173952D01*
X64906Y173940D01*
X65050Y173928D01*
X65183Y173904D01*
X65303Y173892D01*
X65411Y173868D01*
X65495Y173856D01*
X65567Y173844D01*
X65627Y173832D01*
X65663Y173820D01*
X65687Y173808D01*
X65699D01*
X65964Y173736D01*
X66204Y173652D01*
X66408Y173556D01*
X66588Y173483D01*
X66744Y173399D01*
X66852Y173351D01*
X66913Y173303D01*
X66937Y173291D01*
X67117Y173159D01*
X67273Y173027D01*
X67405Y172883D01*
X67525Y172750D01*
X67609Y172630D01*
X67670Y172534D01*
X67706Y172474D01*
X67718Y172462D01*
Y172450D01*
X67814Y172258D01*
X67874Y172054D01*
X67922Y171861D01*
X67958Y171681D01*
X67982Y171525D01*
X67994Y171393D01*
Y171285D01*
X67970Y170960D01*
X67922Y170660D01*
X67838Y170408D01*
X67754Y170191D01*
X67657Y170011D01*
X67621Y169939D01*
X67573Y169879D01*
X67549Y169831D01*
X67525Y169795D01*
X67501Y169783D01*
Y169771D01*
X67309Y169555D01*
X67081Y169375D01*
X66852Y169218D01*
X66636Y169098D01*
X66432Y169002D01*
X66348Y168954D01*
X66264Y168930D01*
X66204Y168906D01*
X66156Y168882D01*
X66132Y168870D01*
X66120D01*
X65939Y168822D01*
X65759Y168774D01*
X65363Y168702D01*
X64966Y168642D01*
X64594Y168606D01*
X64414Y168594D01*
X64257Y168582D01*
X64113D01*
X63981Y168570D01*
X63885D01*
X63801D01*
X63753D01*
X63741D01*
X63320Y168582D01*
X62924Y168606D01*
X62564Y168642D01*
X62227Y168702D01*
X61915Y168762D01*
X61638Y168834D01*
X61386Y168906D01*
X61170Y168978D01*
X60978Y169050D01*
X60809Y169134D01*
X60665Y169194D01*
X60557Y169254D01*
X60461Y169314D01*
X60401Y169350D01*
X60365Y169375D01*
X60353Y169387D01*
X60209Y169519D01*
X60076Y169663D01*
X59956Y169819D01*
X59860Y169975D01*
X59776Y170131D01*
X59704Y170288D01*
X59656Y170444D01*
X59608Y170588D01*
X59572Y170732D01*
X59548Y170864D01*
X59524Y170984D01*
X59512Y171080D01*
X59500Y171165D01*
Y171285D01*
X59524Y171609D01*
X59572Y171910D01*
X59656Y172162D01*
X59740Y172378D01*
X59824Y172558D01*
X59872Y172618D01*
X59908Y172678D01*
X59932Y172726D01*
X59956Y172763D01*
X59980Y172775D01*
Y172787D01*
X60185Y173003D01*
X60401Y173183D01*
X60641Y173339D01*
X60858Y173459D01*
X61062Y173556D01*
X61146Y173603D01*
X61230Y173627D01*
X61290Y173652D01*
X61338Y173676D01*
X61362Y173688D01*
X61374D01*
X61554Y173748D01*
X61734Y173796D01*
X62119Y173868D01*
X62515Y173928D01*
X62900Y173964D01*
X63068Y173976D01*
X63224Y173988D01*
X63368D01*
X63501Y174000D01*
X63597D01*
X63681D01*
X63729D01*
X63741D01*
X63969D01*
X64185Y173988D01*
D02*
G37*
G36*
X67958Y164701D02*
Y163500D01*
X59644Y160328D01*
Y161493D01*
X62167Y162394D01*
Y165878D01*
X59644Y166852D01*
Y168101D01*
X67958Y164701D01*
D02*
G37*
G36*
X73808Y169903D02*
X74012Y170047D01*
X74096Y170119D01*
X74180Y170180D01*
X74252Y170240D01*
X74300Y170288D01*
X74336Y170324D01*
X74348Y170336D01*
X74408Y170396D01*
X74468Y170468D01*
X74625Y170636D01*
X74805Y170828D01*
X74985Y171033D01*
X75141Y171225D01*
X75213Y171309D01*
X75286Y171381D01*
X75333Y171441D01*
X75370Y171489D01*
X75394Y171513D01*
X75406Y171525D01*
X75574Y171717D01*
X75730Y171910D01*
X75886Y172078D01*
X76018Y172234D01*
X76150Y172378D01*
X76271Y172498D01*
X76379Y172618D01*
X76475Y172715D01*
X76571Y172811D01*
X76643Y172883D01*
X76703Y172943D01*
X76763Y173003D01*
X76835Y173063D01*
X76859Y173087D01*
X77064Y173255D01*
X77244Y173399D01*
X77424Y173519D01*
X77568Y173615D01*
X77700Y173688D01*
X77796Y173736D01*
X77856Y173760D01*
X77881Y173772D01*
X78061Y173844D01*
X78241Y173892D01*
X78409Y173940D01*
X78553Y173964D01*
X78685Y173976D01*
X78782Y173988D01*
X78842D01*
X78866D01*
X79046Y173976D01*
X79214Y173952D01*
X79382Y173928D01*
X79527Y173880D01*
X79815Y173760D01*
X80043Y173640D01*
X80151Y173568D01*
X80235Y173507D01*
X80319Y173447D01*
X80379Y173387D01*
X80428Y173339D01*
X80476Y173315D01*
X80488Y173291D01*
X80500Y173279D01*
X80620Y173147D01*
X80728Y173003D01*
X80812Y172847D01*
X80884Y172690D01*
X81004Y172378D01*
X81088Y172066D01*
X81112Y171933D01*
X81136Y171801D01*
X81148Y171681D01*
X81160Y171585D01*
X81172Y171501D01*
Y171381D01*
X81160Y171165D01*
X81148Y170960D01*
X81112Y170768D01*
X81076Y170588D01*
X81028Y170420D01*
X80980Y170264D01*
X80920Y170119D01*
X80860Y169987D01*
X80800Y169867D01*
X80740Y169771D01*
X80692Y169687D01*
X80644Y169615D01*
X80608Y169555D01*
X80572Y169519D01*
X80560Y169495D01*
X80548Y169483D01*
X80428Y169363D01*
X80295Y169254D01*
X80151Y169146D01*
X80007Y169062D01*
X79719Y168918D01*
X79430Y168822D01*
X79298Y168786D01*
X79166Y168750D01*
X79058Y168726D01*
X78962Y168702D01*
X78878Y168690D01*
X78818D01*
X78782Y168678D01*
X78770D01*
X78661Y169723D01*
X78938Y169747D01*
X79178Y169795D01*
X79394Y169867D01*
X79563Y169951D01*
X79707Y170023D01*
X79803Y170095D01*
X79863Y170143D01*
X79887Y170168D01*
X80031Y170348D01*
X80139Y170540D01*
X80223Y170744D01*
X80271Y170924D01*
X80307Y171092D01*
X80319Y171237D01*
X80331Y171285D01*
Y171357D01*
X80319Y171609D01*
X80271Y171837D01*
X80199Y172030D01*
X80127Y172198D01*
X80043Y172330D01*
X79983Y172414D01*
X79935Y172474D01*
X79911Y172498D01*
X79743Y172642D01*
X79574Y172750D01*
X79406Y172835D01*
X79238Y172883D01*
X79106Y172919D01*
X78986Y172931D01*
X78914Y172943D01*
X78902D01*
X78890D01*
X78674Y172919D01*
X78445Y172871D01*
X78241Y172787D01*
X78049Y172702D01*
X77893Y172606D01*
X77760Y172522D01*
X77712Y172498D01*
X77676Y172474D01*
X77664Y172450D01*
X77652D01*
X77520Y172354D01*
X77388Y172234D01*
X77244Y172102D01*
X77100Y171958D01*
X76811Y171657D01*
X76523Y171357D01*
X76391Y171201D01*
X76271Y171068D01*
X76163Y170936D01*
X76066Y170828D01*
X75994Y170744D01*
X75934Y170672D01*
X75898Y170624D01*
X75886Y170612D01*
X75634Y170312D01*
X75394Y170035D01*
X75177Y169807D01*
X74997Y169627D01*
X74841Y169471D01*
X74733Y169363D01*
X74661Y169302D01*
X74649Y169278D01*
X74637D01*
X74433Y169110D01*
X74240Y168978D01*
X74048Y168858D01*
X73880Y168762D01*
X73736Y168690D01*
X73628Y168642D01*
X73555Y168618D01*
X73543Y168606D01*
X73531D01*
X73399Y168557D01*
X73279Y168533D01*
X73159Y168510D01*
X73051Y168498D01*
X72955Y168486D01*
X72883D01*
X72835D01*
X72823D01*
Y174000D01*
X73808D01*
Y169903D01*
D02*
G37*
G36*
X77424Y167524D02*
X77796Y167488D01*
X78133Y167428D01*
X78289Y167404D01*
X78421Y167368D01*
X78553Y167332D01*
X78661Y167308D01*
X78758Y167284D01*
X78842Y167248D01*
X78914Y167236D01*
X78962Y167212D01*
X78986Y167200D01*
X78998D01*
X79310Y167068D01*
X79587Y166912D01*
X79827Y166743D01*
X80031Y166587D01*
X80199Y166443D01*
X80319Y166323D01*
X80356Y166275D01*
X80392Y166239D01*
X80403Y166227D01*
X80415Y166215D01*
X80572Y166023D01*
X80692Y165818D01*
X80800Y165614D01*
X80884Y165422D01*
X80944Y165254D01*
X80980Y165121D01*
X81004Y165073D01*
Y165037D01*
X81016Y165013D01*
Y165001D01*
X81052Y164797D01*
X81088Y164557D01*
X81112Y164317D01*
X81124Y164076D01*
X81136Y163860D01*
Y160664D01*
X72823D01*
Y163656D01*
X72835Y163932D01*
X72847Y164184D01*
X72871Y164413D01*
X72895Y164605D01*
X72919Y164773D01*
X72931Y164893D01*
X72943Y164929D01*
X72955Y164965D01*
Y164989D01*
X73015Y165206D01*
X73087Y165398D01*
X73147Y165566D01*
X73219Y165710D01*
X73279Y165830D01*
X73327Y165914D01*
X73363Y165963D01*
X73375Y165986D01*
X73483Y166143D01*
X73615Y166275D01*
X73736Y166407D01*
X73856Y166515D01*
X73964Y166611D01*
X74048Y166683D01*
X74108Y166731D01*
X74132Y166743D01*
X74324Y166863D01*
X74529Y166984D01*
X74721Y167080D01*
X74913Y167152D01*
X75081Y167224D01*
X75213Y167272D01*
X75261Y167284D01*
X75297Y167296D01*
X75321Y167308D01*
X75333D01*
X75622Y167380D01*
X75910Y167440D01*
X76186Y167476D01*
X76451Y167512D01*
X76679Y167524D01*
X76775D01*
X76859Y167536D01*
X76919D01*
X76979D01*
X77003D01*
X77016D01*
X77424Y167524D01*
D02*
G37*
G36*
X94423Y173339D02*
X94219Y173219D01*
X94027Y173087D01*
X93834Y172931D01*
X93666Y172787D01*
X93522Y172642D01*
X93402Y172534D01*
X93366Y172486D01*
X93330Y172450D01*
X93318Y172438D01*
X93306Y172426D01*
X93102Y172174D01*
X92909Y171922D01*
X92741Y171681D01*
X92609Y171441D01*
X92489Y171237D01*
X92441Y171153D01*
X92405Y171081D01*
X92369Y171021D01*
X92357Y170972D01*
X92333Y170948D01*
Y170936D01*
X91347D01*
X91419Y171117D01*
X91504Y171297D01*
X91588Y171477D01*
X91672Y171645D01*
X91744Y171789D01*
X91804Y171910D01*
X91852Y171982D01*
X91864Y171994D01*
Y172006D01*
X91996Y172222D01*
X92128Y172414D01*
X92248Y172582D01*
X92357Y172715D01*
X92441Y172835D01*
X92513Y172907D01*
X92561Y172967D01*
X92573Y172979D01*
X86073D01*
Y174000D01*
X94423D01*
Y173339D01*
D02*
G37*
G36*
X90675Y169050D02*
X91047Y169014D01*
X91383Y168954D01*
X91540Y168930D01*
X91672Y168894D01*
X91804Y168858D01*
X91912Y168834D01*
X92008Y168810D01*
X92092Y168774D01*
X92164Y168762D01*
X92212Y168738D01*
X92236Y168726D01*
X92248D01*
X92561Y168594D01*
X92837Y168437D01*
X93077Y168269D01*
X93282Y168113D01*
X93450Y167969D01*
X93570Y167849D01*
X93606Y167801D01*
X93642Y167765D01*
X93654Y167753D01*
X93666Y167741D01*
X93822Y167548D01*
X93942Y167344D01*
X94051Y167140D01*
X94135Y166948D01*
X94195Y166779D01*
X94231Y166647D01*
X94255Y166599D01*
Y166563D01*
X94267Y166539D01*
Y166527D01*
X94303Y166323D01*
X94339Y166083D01*
X94363Y165842D01*
X94375Y165602D01*
X94387Y165386D01*
Y162190D01*
X86073D01*
Y165182D01*
X86085Y165458D01*
X86097Y165710D01*
X86121Y165938D01*
X86145Y166131D01*
X86169Y166299D01*
X86181Y166419D01*
X86193Y166455D01*
X86205Y166491D01*
Y166515D01*
X86265Y166731D01*
X86337Y166924D01*
X86398Y167092D01*
X86470Y167236D01*
X86530Y167356D01*
X86578Y167440D01*
X86614Y167488D01*
X86626Y167512D01*
X86734Y167668D01*
X86866Y167801D01*
X86986Y167933D01*
X87106Y168041D01*
X87215Y168137D01*
X87299Y168209D01*
X87359Y168257D01*
X87383Y168269D01*
X87575Y168389D01*
X87779Y168510D01*
X87971Y168606D01*
X88164Y168678D01*
X88332Y168750D01*
X88464Y168798D01*
X88512Y168810D01*
X88548Y168822D01*
X88572Y168834D01*
X88584D01*
X88872Y168906D01*
X89161Y168966D01*
X89437Y169002D01*
X89701Y169038D01*
X89930Y169050D01*
X90026D01*
X90110Y169062D01*
X90170D01*
X90230D01*
X90254D01*
X90266D01*
X90675Y169050D01*
D02*
G37*
G36*
X103937Y173988D02*
X104129D01*
X104322Y173976D01*
X104490Y173952D01*
X104658Y173940D01*
X104802Y173928D01*
X104935Y173904D01*
X105055Y173892D01*
X105163Y173868D01*
X105247Y173856D01*
X105319Y173844D01*
X105379Y173832D01*
X105415Y173820D01*
X105439Y173808D01*
X105451D01*
X105715Y173736D01*
X105956Y173652D01*
X106160Y173556D01*
X106340Y173483D01*
X106496Y173399D01*
X106604Y173351D01*
X106664Y173303D01*
X106688Y173291D01*
X106869Y173159D01*
X107025Y173027D01*
X107157Y172883D01*
X107277Y172750D01*
X107361Y172630D01*
X107421Y172534D01*
X107457Y172474D01*
X107470Y172462D01*
Y172450D01*
X107566Y172258D01*
X107626Y172054D01*
X107674Y171861D01*
X107710Y171681D01*
X107734Y171525D01*
X107746Y171393D01*
Y171285D01*
X107722Y170960D01*
X107674Y170660D01*
X107590Y170408D01*
X107506Y170191D01*
X107409Y170011D01*
X107373Y169939D01*
X107325Y169879D01*
X107301Y169831D01*
X107277Y169795D01*
X107253Y169783D01*
Y169771D01*
X107061Y169555D01*
X106833Y169375D01*
X106604Y169218D01*
X106388Y169098D01*
X106184Y169002D01*
X106100Y168954D01*
X106016Y168930D01*
X105956Y168906D01*
X105908Y168882D01*
X105884Y168870D01*
X105872D01*
X105691Y168822D01*
X105511Y168774D01*
X105115Y168702D01*
X104718Y168642D01*
X104346Y168606D01*
X104166Y168594D01*
X104009Y168582D01*
X103865D01*
X103733Y168570D01*
X103637D01*
X103553D01*
X103505D01*
X103493D01*
X103072Y168582D01*
X102676Y168606D01*
X102315Y168642D01*
X101979Y168702D01*
X101667Y168762D01*
X101390Y168834D01*
X101138Y168906D01*
X100922Y168978D01*
X100730Y169050D01*
X100561Y169134D01*
X100417Y169194D01*
X100309Y169254D01*
X100213Y169314D01*
X100153Y169350D01*
X100117Y169375D01*
X100105Y169387D01*
X99961Y169519D01*
X99828Y169663D01*
X99708Y169819D01*
X99612Y169975D01*
X99528Y170131D01*
X99456Y170288D01*
X99408Y170444D01*
X99360Y170588D01*
X99324Y170732D01*
X99300Y170864D01*
X99276Y170984D01*
X99264Y171081D01*
X99252Y171165D01*
Y171285D01*
X99276Y171609D01*
X99324Y171910D01*
X99408Y172162D01*
X99492Y172378D01*
X99576Y172558D01*
X99624Y172618D01*
X99660Y172678D01*
X99684Y172726D01*
X99708Y172763D01*
X99732Y172775D01*
Y172787D01*
X99937Y173003D01*
X100153Y173183D01*
X100393Y173339D01*
X100609Y173459D01*
X100814Y173556D01*
X100898Y173603D01*
X100982Y173628D01*
X101042Y173652D01*
X101090Y173676D01*
X101114Y173688D01*
X101126D01*
X101306Y173748D01*
X101486Y173796D01*
X101871Y173868D01*
X102267Y173928D01*
X102652Y173964D01*
X102820Y173976D01*
X102976Y173988D01*
X103120D01*
X103252Y174000D01*
X103349D01*
X103433D01*
X103481D01*
X103493D01*
X103721D01*
X103937Y173988D01*
D02*
G37*
G36*
X103997Y167464D02*
X104370Y167428D01*
X104706Y167368D01*
X104862Y167344D01*
X104994Y167308D01*
X105127Y167272D01*
X105235Y167248D01*
X105331Y167224D01*
X105415Y167188D01*
X105487Y167176D01*
X105535Y167152D01*
X105559Y167140D01*
X105571D01*
X105884Y167008D01*
X106160Y166852D01*
X106400Y166683D01*
X106604Y166527D01*
X106773Y166383D01*
X106893Y166263D01*
X106929Y166215D01*
X106965Y166179D01*
X106977Y166167D01*
X106989Y166155D01*
X107145Y165963D01*
X107265Y165758D01*
X107373Y165554D01*
X107457Y165362D01*
X107517Y165194D01*
X107554Y165061D01*
X107578Y165013D01*
Y164977D01*
X107590Y164953D01*
Y164941D01*
X107626Y164737D01*
X107662Y164497D01*
X107686Y164256D01*
X107698Y164016D01*
X107710Y163800D01*
Y160604D01*
X99396D01*
Y163596D01*
X99408Y163872D01*
X99420Y164124D01*
X99444Y164353D01*
X99468Y164545D01*
X99492Y164713D01*
X99504Y164833D01*
X99516Y164869D01*
X99528Y164905D01*
Y164929D01*
X99588Y165145D01*
X99660Y165338D01*
X99720Y165506D01*
X99792Y165650D01*
X99853Y165770D01*
X99901Y165854D01*
X99937Y165902D01*
X99949Y165926D01*
X100057Y166083D01*
X100189Y166215D01*
X100309Y166347D01*
X100429Y166455D01*
X100537Y166551D01*
X100621Y166623D01*
X100681Y166671D01*
X100705Y166683D01*
X100898Y166803D01*
X101102Y166924D01*
X101294Y167020D01*
X101486Y167092D01*
X101655Y167164D01*
X101787Y167212D01*
X101835Y167224D01*
X101871Y167236D01*
X101895Y167248D01*
X101907D01*
X102195Y167320D01*
X102484Y167380D01*
X102760Y167416D01*
X103024Y167452D01*
X103252Y167464D01*
X103349D01*
X103433Y167476D01*
X103493D01*
X103553D01*
X103577D01*
X103589D01*
X103997Y167464D01*
D02*
G37*
G36*
X117026Y173988D02*
X117278Y173964D01*
X117518Y173928D01*
X117747Y173880D01*
X117951Y173820D01*
X118143Y173760D01*
X118311Y173688D01*
X118467Y173616D01*
X118612Y173543D01*
X118732Y173471D01*
X118828Y173411D01*
X118912Y173351D01*
X118984Y173303D01*
X119032Y173267D01*
X119056Y173243D01*
X119068Y173231D01*
X119212Y173087D01*
X119344Y172931D01*
X119453Y172763D01*
X119549Y172594D01*
X119633Y172426D01*
X119693Y172270D01*
X119753Y172102D01*
X119789Y171958D01*
X119825Y171801D01*
X119849Y171669D01*
X119873Y171549D01*
X119885Y171453D01*
X119897Y171369D01*
Y171249D01*
X119885Y171021D01*
X119861Y170804D01*
X119825Y170600D01*
X119765Y170408D01*
X119705Y170228D01*
X119633Y170059D01*
X119561Y169903D01*
X119477Y169771D01*
X119404Y169639D01*
X119320Y169531D01*
X119248Y169435D01*
X119188Y169363D01*
X119128Y169303D01*
X119092Y169254D01*
X119068Y169230D01*
X119056Y169218D01*
X118888Y169086D01*
X118708Y168966D01*
X118527Y168858D01*
X118335Y168762D01*
X118131Y168690D01*
X117939Y168630D01*
X117554Y168533D01*
X117386Y168498D01*
X117218Y168473D01*
X117074Y168461D01*
X116942Y168449D01*
X116833Y168437D01*
X116761D01*
X116701D01*
X116689D01*
X116425Y168449D01*
X116173Y168473D01*
X115932Y168510D01*
X115716Y168558D01*
X115512Y168618D01*
X115320Y168678D01*
X115152Y168750D01*
X114995Y168822D01*
X114863Y168894D01*
X114743Y168966D01*
X114647Y169026D01*
X114563Y169086D01*
X114491Y169134D01*
X114443Y169170D01*
X114419Y169194D01*
X114407Y169206D01*
X114262Y169363D01*
X114142Y169519D01*
X114034Y169687D01*
X113938Y169867D01*
X113866Y170035D01*
X113794Y170215D01*
X113698Y170552D01*
X113674Y170708D01*
X113650Y170852D01*
X113626Y170984D01*
X113614Y171093D01*
X113602Y171177D01*
Y171309D01*
X113626Y171681D01*
X113686Y172018D01*
X113758Y172318D01*
X113806Y172438D01*
X113854Y172558D01*
X113902Y172666D01*
X113950Y172763D01*
X113986Y172835D01*
X114022Y172907D01*
X114058Y172955D01*
X114082Y172991D01*
X114106Y173015D01*
Y173027D01*
X114323Y173267D01*
X114551Y173459D01*
X114791Y173628D01*
X115019Y173748D01*
X115224Y173844D01*
X115320Y173880D01*
X115392Y173916D01*
X115464Y173940D01*
X115512Y173952D01*
X115536Y173964D01*
X115548D01*
X115680Y172907D01*
X115452Y172811D01*
X115260Y172703D01*
X115091Y172594D01*
X114959Y172498D01*
X114863Y172414D01*
X114791Y172342D01*
X114743Y172282D01*
X114731Y172270D01*
X114635Y172114D01*
X114563Y171958D01*
X114515Y171789D01*
X114479Y171645D01*
X114455Y171513D01*
X114443Y171405D01*
Y171309D01*
X114455Y171165D01*
X114467Y171033D01*
X114527Y170792D01*
X114611Y170576D01*
X114707Y170384D01*
X114791Y170240D01*
X114875Y170131D01*
X114935Y170059D01*
X114959Y170047D01*
Y170035D01*
X115176Y169867D01*
X115416Y169735D01*
X115680Y169639D01*
X115920Y169567D01*
X116137Y169531D01*
X116233Y169507D01*
X116317Y169495D01*
X116389D01*
X116437Y169483D01*
X116473D01*
X116485D01*
Y173988D01*
X116605Y174000D01*
X116689D01*
X116737D01*
X116749D01*
X117026Y173988D01*
D02*
G37*
G36*
X119669Y167969D02*
X119753Y167777D01*
X119813Y167609D01*
X119861Y167452D01*
X119885Y167320D01*
X119897Y167212D01*
Y167128D01*
X119885Y166996D01*
X119861Y166876D01*
X119825Y166755D01*
X119789Y166659D01*
X119753Y166587D01*
X119717Y166515D01*
X119693Y166479D01*
X119681Y166467D01*
X119585Y166359D01*
X119465Y166251D01*
X119320Y166143D01*
X119188Y166047D01*
X119056Y165951D01*
X118948Y165890D01*
X118864Y165842D01*
X118852Y165830D01*
X119765D01*
Y164905D01*
X113734D01*
Y165926D01*
X116882D01*
X117122Y165938D01*
X117338Y165951D01*
X117542Y165975D01*
X117723Y166011D01*
X117867Y166047D01*
X117975Y166071D01*
X118047Y166083D01*
X118071Y166095D01*
X118203Y166143D01*
X118311Y166203D01*
X118407Y166263D01*
X118491Y166323D01*
X118552Y166383D01*
X118600Y166419D01*
X118624Y166455D01*
X118636Y166467D01*
X118708Y166563D01*
X118756Y166671D01*
X118792Y166779D01*
X118816Y166864D01*
X118828Y166948D01*
X118840Y167008D01*
Y167068D01*
X118828Y167200D01*
X118804Y167332D01*
X118768Y167464D01*
X118732Y167572D01*
X118696Y167668D01*
X118660Y167741D01*
X118636Y167789D01*
X118624Y167801D01*
X119561Y168173D01*
X119669Y167969D01*
D02*
G37*
G36*
X117098Y163704D02*
X117338Y163680D01*
X117566Y163644D01*
X117783Y163596D01*
X117987Y163536D01*
X118167Y163464D01*
X118347Y163391D01*
X118491Y163319D01*
X118624Y163247D01*
X118744Y163175D01*
X118852Y163103D01*
X118936Y163043D01*
X118996Y162995D01*
X119044Y162959D01*
X119068Y162935D01*
X119080Y162923D01*
X119224Y162767D01*
X119344Y162610D01*
X119465Y162442D01*
X119549Y162274D01*
X119633Y162106D01*
X119693Y161938D01*
X119801Y161613D01*
X119825Y161457D01*
X119849Y161325D01*
X119873Y161205D01*
X119885Y161097D01*
X119897Y161013D01*
Y160893D01*
X119885Y160688D01*
X119873Y160496D01*
X119789Y160124D01*
X119681Y159799D01*
X119621Y159655D01*
X119561Y159523D01*
X119501Y159403D01*
X119441Y159307D01*
X119381Y159211D01*
X119332Y159138D01*
X119284Y159078D01*
X119248Y159030D01*
X119236Y159006D01*
X119224Y158994D01*
X119068Y158826D01*
X118888Y158694D01*
X118696Y158562D01*
X118503Y158466D01*
X118299Y158370D01*
X118083Y158297D01*
X117879Y158237D01*
X117687Y158189D01*
X117494Y158141D01*
X117326Y158117D01*
X117158Y158093D01*
X117026Y158081D01*
X116906D01*
X116821Y158069D01*
X116773D01*
X116749D01*
X116473Y158081D01*
X116209Y158105D01*
X115968Y158141D01*
X115740Y158189D01*
X115536Y158249D01*
X115344Y158309D01*
X115163Y158382D01*
X115007Y158454D01*
X114863Y158526D01*
X114743Y158598D01*
X114647Y158658D01*
X114563Y158718D01*
X114491Y158766D01*
X114443Y158802D01*
X114419Y158826D01*
X114407Y158838D01*
X114262Y158994D01*
X114142Y159150D01*
X114034Y159319D01*
X113938Y159487D01*
X113866Y159655D01*
X113794Y159835D01*
X113698Y160160D01*
X113674Y160304D01*
X113650Y160448D01*
X113626Y160568D01*
X113614Y160676D01*
X113602Y160772D01*
Y160893D01*
X113614Y161181D01*
X113662Y161445D01*
X113722Y161698D01*
X113782Y161902D01*
X113854Y162082D01*
X113878Y162154D01*
X113902Y162214D01*
X113926Y162274D01*
X113950Y162310D01*
X113962Y162322D01*
Y162334D01*
X114118Y162575D01*
X114286Y162779D01*
X114455Y162959D01*
X114623Y163103D01*
X114767Y163211D01*
X114887Y163295D01*
X114935Y163319D01*
X114971Y163343D01*
X114983Y163355D01*
X114995D01*
X115272Y163476D01*
X115572Y163560D01*
X115872Y163632D01*
X116173Y163668D01*
X116305Y163692D01*
X116425D01*
X116545Y163704D01*
X116641Y163716D01*
X116725D01*
X116785D01*
X116821D01*
X116833D01*
X117098Y163704D01*
D02*
G37*
G36*
X115944Y156567D02*
X115680Y156519D01*
X115440Y156447D01*
X115248Y156351D01*
X115091Y156267D01*
X114959Y156183D01*
X114875Y156111D01*
X114815Y156075D01*
X114803Y156051D01*
X114683Y155895D01*
X114599Y155726D01*
X114527Y155558D01*
X114491Y155402D01*
X114467Y155270D01*
X114455Y155150D01*
X114443Y155078D01*
Y155054D01*
X114455Y154922D01*
X114467Y154789D01*
X114527Y154549D01*
X114611Y154345D01*
X114719Y154165D01*
X114815Y154032D01*
X114899Y153924D01*
X114959Y153864D01*
X114983Y153840D01*
X115091Y153756D01*
X115224Y153684D01*
X115488Y153576D01*
X115788Y153492D01*
X116077Y153444D01*
X116341Y153408D01*
X116449Y153396D01*
X116557D01*
X116629Y153384D01*
X116701D01*
X116737D01*
X116749D01*
X116966D01*
X117170Y153408D01*
X117362Y153432D01*
X117530Y153456D01*
X117687Y153492D01*
X117831Y153540D01*
X117963Y153576D01*
X118083Y153624D01*
X118179Y153672D01*
X118263Y153708D01*
X118335Y153756D01*
X118395Y153792D01*
X118443Y153816D01*
X118479Y153840D01*
X118491Y153864D01*
X118503D01*
X118600Y153960D01*
X118684Y154056D01*
X118828Y154261D01*
X118924Y154477D01*
X118984Y154669D01*
X119032Y154849D01*
X119044Y154981D01*
X119056Y155042D01*
Y155114D01*
X119044Y155294D01*
X119008Y155462D01*
X118960Y155606D01*
X118900Y155738D01*
X118840Y155835D01*
X118792Y155919D01*
X118756Y155967D01*
X118744Y155979D01*
X118624Y156099D01*
X118479Y156207D01*
X118323Y156303D01*
X118179Y156363D01*
X118047Y156423D01*
X117939Y156459D01*
X117867Y156471D01*
X117855Y156483D01*
X117843D01*
X117999Y157480D01*
X118323Y157396D01*
X118600Y157276D01*
X118840Y157144D01*
X119032Y157012D01*
X119188Y156880D01*
X119296Y156772D01*
X119368Y156700D01*
X119392Y156687D01*
Y156676D01*
X119561Y156423D01*
X119681Y156159D01*
X119777Y155895D01*
X119837Y155642D01*
X119873Y155414D01*
X119885Y155318D01*
Y155246D01*
X119897Y155174D01*
Y155078D01*
X119885Y154789D01*
X119837Y154525D01*
X119777Y154273D01*
X119717Y154068D01*
X119645Y153888D01*
X119609Y153816D01*
X119585Y153756D01*
X119561Y153708D01*
X119537Y153672D01*
X119525Y153648D01*
Y153636D01*
X119381Y153408D01*
X119200Y153203D01*
X119020Y153035D01*
X118840Y152891D01*
X118684Y152783D01*
X118552Y152711D01*
X118503Y152687D01*
X118467Y152663D01*
X118443Y152651D01*
X118431D01*
X118143Y152543D01*
X117855Y152471D01*
X117566Y152410D01*
X117302Y152374D01*
X117182Y152362D01*
X117074Y152350D01*
X116978D01*
X116894Y152338D01*
X116821D01*
X116773D01*
X116737D01*
X116725D01*
X116449Y152350D01*
X116197Y152374D01*
X115944Y152410D01*
X115728Y152458D01*
X115512Y152507D01*
X115332Y152579D01*
X115152Y152639D01*
X114995Y152711D01*
X114863Y152783D01*
X114743Y152843D01*
X114635Y152915D01*
X114551Y152963D01*
X114491Y153011D01*
X114443Y153047D01*
X114419Y153071D01*
X114407Y153083D01*
X114262Y153228D01*
X114142Y153384D01*
X114034Y153540D01*
X113938Y153708D01*
X113866Y153876D01*
X113794Y154032D01*
X113698Y154357D01*
X113674Y154501D01*
X113650Y154633D01*
X113626Y154753D01*
X113614Y154861D01*
X113602Y154945D01*
Y155066D01*
X113614Y155246D01*
X113626Y155426D01*
X113698Y155738D01*
X113782Y156027D01*
X113890Y156267D01*
X113950Y156363D01*
X113998Y156459D01*
X114046Y156543D01*
X114094Y156603D01*
X114130Y156651D01*
X114154Y156687D01*
X114166Y156712D01*
X114178Y156724D01*
X114298Y156844D01*
X114419Y156952D01*
X114683Y157144D01*
X114959Y157300D01*
X115212Y157408D01*
X115452Y157493D01*
X115548Y157516D01*
X115644Y157541D01*
X115716Y157553D01*
X115764Y157565D01*
X115800Y157577D01*
X115812D01*
X115944Y156567D01*
D02*
G37*
G36*
X130096Y173988D02*
X130264Y173964D01*
X130408Y173916D01*
X130541Y173880D01*
X130649Y173832D01*
X130721Y173784D01*
X130769Y173760D01*
X130781Y173748D01*
X130901Y173652D01*
X131009Y173543D01*
X131105Y173435D01*
X131177Y173327D01*
X131237Y173219D01*
X131273Y173147D01*
X131298Y173099D01*
X131309Y173075D01*
X131346Y172991D01*
X131382Y172895D01*
X131466Y172666D01*
X131550Y172414D01*
X131622Y172162D01*
X131694Y171934D01*
X131718Y171825D01*
X131742Y171741D01*
X131766Y171669D01*
X131778Y171609D01*
X131790Y171573D01*
Y171561D01*
X131826Y171429D01*
X131862Y171309D01*
X131886Y171201D01*
X131922Y171105D01*
X131958Y170948D01*
X131994Y170828D01*
X132030Y170744D01*
X132042Y170696D01*
X132054Y170672D01*
Y170660D01*
X132102Y170564D01*
X132139Y170480D01*
X132187Y170408D01*
X132223Y170360D01*
X132259Y170312D01*
X132295Y170288D01*
X132307Y170276D01*
X132319Y170264D01*
X132439Y170191D01*
X132559Y170156D01*
X132607D01*
X132643Y170143D01*
X132667D01*
X132679D01*
X132787Y170156D01*
X132895Y170191D01*
X132992Y170240D01*
X133064Y170300D01*
X133136Y170348D01*
X133184Y170396D01*
X133208Y170432D01*
X133220Y170444D01*
X133304Y170576D01*
X133364Y170732D01*
X133400Y170900D01*
X133436Y171056D01*
X133448Y171213D01*
X133460Y171333D01*
Y171453D01*
X133448Y171657D01*
X133424Y171849D01*
X133376Y172006D01*
X133328Y172126D01*
X133280Y172234D01*
X133232Y172306D01*
X133208Y172354D01*
X133196Y172366D01*
X133088Y172486D01*
X132968Y172570D01*
X132847Y172642D01*
X132739Y172703D01*
X132631Y172738D01*
X132547Y172763D01*
X132499Y172775D01*
X132475D01*
X132607Y173772D01*
X132811Y173724D01*
X132992Y173676D01*
X133148Y173616D01*
X133292Y173556D01*
X133388Y173495D01*
X133472Y173447D01*
X133520Y173423D01*
X133532Y173411D01*
X133652Y173303D01*
X133760Y173183D01*
X133857Y173051D01*
X133941Y172919D01*
X134001Y172799D01*
X134049Y172703D01*
X134073Y172642D01*
X134085Y172630D01*
Y172618D01*
X134157Y172414D01*
X134205Y172198D01*
X134253Y171994D01*
X134277Y171801D01*
X134289Y171621D01*
X134301Y171489D01*
Y171201D01*
X134277Y171033D01*
X134265Y170888D01*
X134241Y170756D01*
X134217Y170648D01*
X134193Y170564D01*
X134181Y170516D01*
X134169Y170492D01*
X134121Y170348D01*
X134073Y170215D01*
X134025Y170107D01*
X133977Y170011D01*
X133941Y169939D01*
X133905Y169891D01*
X133893Y169855D01*
X133881Y169843D01*
X133797Y169723D01*
X133700Y169627D01*
X133592Y169543D01*
X133508Y169471D01*
X133424Y169411D01*
X133364Y169375D01*
X133316Y169350D01*
X133304Y169338D01*
X133172Y169278D01*
X133052Y169230D01*
X132919Y169206D01*
X132811Y169182D01*
X132703Y169170D01*
X132631Y169158D01*
X132583D01*
X132559D01*
X132391Y169170D01*
X132247Y169194D01*
X132102Y169230D01*
X131982Y169266D01*
X131886Y169303D01*
X131802Y169338D01*
X131754Y169363D01*
X131742Y169375D01*
X131610Y169471D01*
X131502Y169579D01*
X131406Y169687D01*
X131322Y169795D01*
X131262Y169891D01*
X131213Y169963D01*
X131189Y170011D01*
X131177Y170035D01*
X131141Y170119D01*
X131093Y170228D01*
X131009Y170468D01*
X130937Y170720D01*
X130853Y170984D01*
X130793Y171213D01*
X130757Y171321D01*
X130733Y171417D01*
X130709Y171489D01*
X130697Y171549D01*
X130685Y171585D01*
Y171597D01*
X130649Y171753D01*
X130613Y171886D01*
X130577Y172006D01*
X130541Y172114D01*
X130517Y172210D01*
X130481Y172294D01*
X130433Y172438D01*
X130396Y172534D01*
X130360Y172594D01*
X130348Y172630D01*
X130336Y172642D01*
X130264Y172750D01*
X130168Y172823D01*
X130084Y172883D01*
X130000Y172919D01*
X129916Y172943D01*
X129856Y172955D01*
X129808D01*
X129796D01*
X129652Y172943D01*
X129531Y172907D01*
X129411Y172847D01*
X129315Y172787D01*
X129231Y172715D01*
X129171Y172666D01*
X129135Y172618D01*
X129123Y172606D01*
X129027Y172462D01*
X128967Y172306D01*
X128919Y172126D01*
X128883Y171958D01*
X128859Y171801D01*
X128847Y171681D01*
Y171561D01*
X128859Y171309D01*
X128895Y171093D01*
X128943Y170912D01*
X129003Y170756D01*
X129063Y170636D01*
X129111Y170540D01*
X129147Y170492D01*
X129159Y170468D01*
X129291Y170336D01*
X129447Y170228D01*
X129604Y170156D01*
X129748Y170095D01*
X129880Y170047D01*
X130000Y170023D01*
X130072Y169999D01*
X130084D01*
X130096D01*
X129940Y168990D01*
X129604Y169074D01*
X129303Y169182D01*
X129063Y169314D01*
X128859Y169447D01*
X128690Y169567D01*
X128582Y169675D01*
X128510Y169747D01*
X128498Y169759D01*
X128486Y169771D01*
X128402Y169891D01*
X128330Y170023D01*
X128210Y170312D01*
X128126Y170612D01*
X128066Y170900D01*
X128042Y171033D01*
X128030Y171153D01*
X128018Y171273D01*
Y171369D01*
X128006Y171453D01*
Y171561D01*
X128018Y171825D01*
X128042Y172054D01*
X128078Y172270D01*
X128126Y172462D01*
X128174Y172618D01*
X128210Y172738D01*
X128234Y172811D01*
X128246Y172823D01*
Y172835D01*
X128354Y173039D01*
X128462Y173207D01*
X128582Y173351D01*
X128690Y173483D01*
X128787Y173580D01*
X128871Y173640D01*
X128919Y173688D01*
X128943Y173700D01*
X129111Y173796D01*
X129291Y173868D01*
X129447Y173928D01*
X129592Y173964D01*
X129724Y173988D01*
X129820Y174000D01*
X129880D01*
X129904D01*
X130096Y173988D01*
D02*
G37*
G36*
X134169Y167500D02*
X130649Y166203D01*
X130396Y166107D01*
X130156Y166035D01*
X129916Y165951D01*
X129712Y165890D01*
X129531Y165842D01*
X129459Y165818D01*
X129399Y165806D01*
X129351Y165794D01*
X129315Y165782D01*
X129291Y165770D01*
X129279D01*
X129556Y165698D01*
X129808Y165626D01*
X130048Y165554D01*
X130252Y165482D01*
X130421Y165422D01*
X130493Y165398D01*
X130553Y165374D01*
X130613Y165362D01*
X130649Y165350D01*
X130661Y165338D01*
X130673D01*
X134169Y164076D01*
Y162995D01*
X128138Y165278D01*
X128030Y165230D01*
X127946Y165206D01*
X127898Y165182D01*
X127886D01*
X127681Y165110D01*
X127513Y165037D01*
X127369Y164989D01*
X127273Y164941D01*
X127201Y164917D01*
X127153Y164893D01*
X127129Y164869D01*
X127117D01*
X126984Y164773D01*
X126888Y164665D01*
X126852Y164617D01*
X126828Y164581D01*
X126804Y164557D01*
Y164545D01*
X126768Y164461D01*
X126732Y164377D01*
X126696Y164196D01*
Y164124D01*
X126684Y164064D01*
Y164004D01*
X126696Y163812D01*
X126732Y163620D01*
X126756Y163548D01*
X126768Y163488D01*
X126780Y163440D01*
Y163428D01*
X125831Y163536D01*
X125783Y163668D01*
X125759Y163788D01*
X125735Y163896D01*
X125711Y163992D01*
Y164076D01*
X125699Y164136D01*
Y164184D01*
X125711Y164365D01*
X125735Y164521D01*
X125771Y164665D01*
X125819Y164785D01*
X125867Y164893D01*
X125903Y164965D01*
X125927Y165013D01*
X125939Y165025D01*
X126035Y165158D01*
X126155Y165266D01*
X126276Y165374D01*
X126396Y165470D01*
X126504Y165542D01*
X126588Y165602D01*
X126648Y165638D01*
X126672Y165650D01*
X126756Y165686D01*
X126840Y165734D01*
X127044Y165830D01*
X127273Y165926D01*
X127501Y166011D01*
X127705Y166095D01*
X127801Y166131D01*
X127886Y166167D01*
X127946Y166191D01*
X127994Y166215D01*
X128030Y166227D01*
X128042D01*
X134169Y168521D01*
Y167500D01*
D02*
G37*
G36*
X130096Y162358D02*
X130264Y162334D01*
X130408Y162286D01*
X130541Y162250D01*
X130649Y162202D01*
X130721Y162154D01*
X130769Y162130D01*
X130781Y162118D01*
X130901Y162022D01*
X131009Y161914D01*
X131105Y161806D01*
X131177Y161698D01*
X131237Y161589D01*
X131273Y161517D01*
X131298Y161469D01*
X131309Y161445D01*
X131346Y161361D01*
X131382Y161265D01*
X131466Y161037D01*
X131550Y160784D01*
X131622Y160532D01*
X131694Y160304D01*
X131718Y160196D01*
X131742Y160112D01*
X131766Y160040D01*
X131778Y159979D01*
X131790Y159943D01*
Y159931D01*
X131826Y159799D01*
X131862Y159679D01*
X131886Y159571D01*
X131922Y159475D01*
X131958Y159319D01*
X131994Y159199D01*
X132030Y159114D01*
X132042Y159066D01*
X132054Y159042D01*
Y159030D01*
X132102Y158934D01*
X132139Y158850D01*
X132187Y158778D01*
X132223Y158730D01*
X132259Y158682D01*
X132295Y158658D01*
X132307Y158646D01*
X132319Y158634D01*
X132439Y158562D01*
X132559Y158526D01*
X132607D01*
X132643Y158514D01*
X132667D01*
X132679D01*
X132787Y158526D01*
X132895Y158562D01*
X132992Y158610D01*
X133064Y158670D01*
X133136Y158718D01*
X133184Y158766D01*
X133208Y158802D01*
X133220Y158814D01*
X133304Y158946D01*
X133364Y159102D01*
X133400Y159271D01*
X133436Y159427D01*
X133448Y159583D01*
X133460Y159703D01*
Y159823D01*
X133448Y160028D01*
X133424Y160220D01*
X133376Y160376D01*
X133328Y160496D01*
X133280Y160604D01*
X133232Y160676D01*
X133208Y160724D01*
X133196Y160736D01*
X133088Y160856D01*
X132968Y160941D01*
X132847Y161013D01*
X132739Y161073D01*
X132631Y161109D01*
X132547Y161133D01*
X132499Y161145D01*
X132475D01*
X132607Y162142D01*
X132811Y162094D01*
X132992Y162046D01*
X133148Y161986D01*
X133292Y161926D01*
X133388Y161866D01*
X133472Y161818D01*
X133520Y161794D01*
X133532Y161782D01*
X133652Y161673D01*
X133760Y161553D01*
X133857Y161421D01*
X133941Y161289D01*
X134001Y161169D01*
X134049Y161073D01*
X134073Y161013D01*
X134085Y161001D01*
Y160989D01*
X134157Y160784D01*
X134205Y160568D01*
X134253Y160364D01*
X134277Y160172D01*
X134289Y159992D01*
X134301Y159859D01*
Y159571D01*
X134277Y159403D01*
X134265Y159259D01*
X134241Y159126D01*
X134217Y159018D01*
X134193Y158934D01*
X134181Y158886D01*
X134169Y158862D01*
X134121Y158718D01*
X134073Y158586D01*
X134025Y158478D01*
X133977Y158382D01*
X133941Y158309D01*
X133905Y158261D01*
X133893Y158225D01*
X133881Y158213D01*
X133797Y158093D01*
X133700Y157997D01*
X133592Y157913D01*
X133508Y157841D01*
X133424Y157781D01*
X133364Y157745D01*
X133316Y157721D01*
X133304Y157709D01*
X133172Y157649D01*
X133052Y157601D01*
X132919Y157577D01*
X132811Y157553D01*
X132703Y157541D01*
X132631Y157528D01*
X132583D01*
X132559D01*
X132391Y157541D01*
X132247Y157565D01*
X132102Y157601D01*
X131982Y157637D01*
X131886Y157673D01*
X131802Y157709D01*
X131754Y157733D01*
X131742Y157745D01*
X131610Y157841D01*
X131502Y157949D01*
X131406Y158057D01*
X131322Y158165D01*
X131262Y158261D01*
X131213Y158334D01*
X131189Y158382D01*
X131177Y158406D01*
X131141Y158490D01*
X131093Y158598D01*
X131009Y158838D01*
X130937Y159090D01*
X130853Y159355D01*
X130793Y159583D01*
X130757Y159691D01*
X130733Y159787D01*
X130709Y159859D01*
X130697Y159919D01*
X130685Y159955D01*
Y159967D01*
X130649Y160124D01*
X130613Y160256D01*
X130577Y160376D01*
X130541Y160484D01*
X130517Y160580D01*
X130481Y160664D01*
X130433Y160808D01*
X130396Y160905D01*
X130360Y160965D01*
X130348Y161001D01*
X130336Y161013D01*
X130264Y161121D01*
X130168Y161193D01*
X130084Y161253D01*
X130000Y161289D01*
X129916Y161313D01*
X129856Y161325D01*
X129808D01*
X129796D01*
X129652Y161313D01*
X129531Y161277D01*
X129411Y161217D01*
X129315Y161157D01*
X129231Y161085D01*
X129171Y161037D01*
X129135Y160989D01*
X129123Y160977D01*
X129027Y160832D01*
X128967Y160676D01*
X128919Y160496D01*
X128883Y160328D01*
X128859Y160172D01*
X128847Y160051D01*
Y159931D01*
X128859Y159679D01*
X128895Y159463D01*
X128943Y159283D01*
X129003Y159126D01*
X129063Y159006D01*
X129111Y158910D01*
X129147Y158862D01*
X129159Y158838D01*
X129291Y158706D01*
X129447Y158598D01*
X129604Y158526D01*
X129748Y158466D01*
X129880Y158418D01*
X130000Y158394D01*
X130072Y158370D01*
X130084D01*
X130096D01*
X129940Y157360D01*
X129604Y157444D01*
X129303Y157553D01*
X129063Y157685D01*
X128859Y157817D01*
X128690Y157937D01*
X128582Y158045D01*
X128510Y158117D01*
X128498Y158129D01*
X128486Y158141D01*
X128402Y158261D01*
X128330Y158394D01*
X128210Y158682D01*
X128126Y158982D01*
X128066Y159271D01*
X128042Y159403D01*
X128030Y159523D01*
X128018Y159643D01*
Y159739D01*
X128006Y159823D01*
Y159931D01*
X128018Y160196D01*
X128042Y160424D01*
X128078Y160640D01*
X128126Y160832D01*
X128174Y160989D01*
X128210Y161109D01*
X128234Y161181D01*
X128246Y161193D01*
Y161205D01*
X128354Y161409D01*
X128462Y161577D01*
X128582Y161721D01*
X128690Y161854D01*
X128787Y161950D01*
X128871Y162010D01*
X128919Y162058D01*
X128943Y162070D01*
X129111Y162166D01*
X129291Y162238D01*
X129447Y162298D01*
X129592Y162334D01*
X129724Y162358D01*
X129820Y162370D01*
X129880D01*
X129904D01*
X130096Y162358D01*
D02*
G37*
%LPC*%
G36*
X39876Y92028D02*
X37669D01*
Y90573D01*
Y90523D01*
Y90272D01*
X37719D01*
Y89971D01*
X37769D01*
Y89871D01*
X37819D01*
Y89720D01*
X37870D01*
Y89670D01*
X37920D01*
Y89620D01*
X37970D01*
Y89570D01*
X38020D01*
Y89519D01*
X38070D01*
Y89469D01*
X38120D01*
Y89419D01*
X38170D01*
Y89369D01*
X38271D01*
Y89319D01*
X38371D01*
Y89269D01*
X38522D01*
Y89218D01*
X38973D01*
Y89269D01*
X39174D01*
Y89319D01*
X39274D01*
Y89369D01*
X39375D01*
Y89419D01*
X39425D01*
Y89469D01*
X39475D01*
Y89519D01*
X39525D01*
Y89570D01*
X39575D01*
Y89620D01*
X39625D01*
Y89670D01*
X39676D01*
Y89770D01*
X39726D01*
Y89871D01*
X39776D01*
Y90071D01*
X39826D01*
Y90573D01*
X39876D01*
Y92028D01*
D02*
G37*
G36*
X48907Y91978D02*
X47101D01*
Y89720D01*
X47151D01*
Y89469D01*
X47201D01*
Y89369D01*
X47251D01*
Y89269D01*
X47302D01*
Y89218D01*
X47352D01*
Y89168D01*
X47402D01*
Y89118D01*
X47452D01*
Y89068D01*
X47552D01*
Y89018D01*
X47653D01*
Y88968D01*
X48305D01*
Y89018D01*
X48405D01*
Y89068D01*
X48506D01*
Y89118D01*
X48556D01*
Y89168D01*
X48606D01*
Y89218D01*
X48656D01*
Y89269D01*
X48706D01*
Y89369D01*
X48756D01*
Y89469D01*
X48807D01*
Y89670D01*
X48857D01*
Y90523D01*
X48907D01*
Y91978D01*
D02*
G37*
G36*
X52319D02*
X50212D01*
Y90172D01*
X50262D01*
Y89519D01*
X50312D01*
Y89319D01*
X50362D01*
Y89218D01*
X50412D01*
Y89118D01*
X50462D01*
Y89018D01*
X50512D01*
Y88968D01*
X50563D01*
Y88917D01*
X50613D01*
Y88867D01*
X50663D01*
Y88817D01*
X50713D01*
Y88767D01*
X50814D01*
Y88717D01*
X50964D01*
Y88666D01*
X51616D01*
Y88717D01*
X51717D01*
Y88767D01*
X51817D01*
Y88817D01*
X51917D01*
Y88867D01*
X51968D01*
Y88917D01*
X52018D01*
Y88968D01*
X52068D01*
Y89018D01*
X52118D01*
Y89118D01*
X52168D01*
Y89218D01*
X52218D01*
Y89419D01*
X52269D01*
Y89971D01*
X52319D01*
Y91627D01*
Y91677D01*
Y91978D01*
D02*
G37*
G36*
X26505Y60626D02*
X25724D01*
X25139Y60236D01*
X24944Y59260D01*
Y57114D01*
X26115D01*
X26700Y57699D01*
X27090Y58480D01*
Y59846D01*
X26505Y60626D01*
D02*
G37*
G36*
X25334Y34089D02*
X23383Y33894D01*
X21237Y32918D01*
X20456Y31747D01*
X20261Y31162D01*
Y30577D01*
X20456Y29601D01*
X21627Y28820D01*
X24358Y29016D01*
X26895Y29991D01*
X27676Y31162D01*
Y32723D01*
X27285Y33699D01*
X25334Y34089D01*
D02*
G37*
G36*
X23188Y14771D02*
X21432Y14186D01*
X20456Y13210D01*
X20066Y11844D01*
X20456Y10478D01*
X21432Y9893D01*
X22407Y9698D01*
X23188D01*
Y14771D01*
D02*
G37*
G36*
X49745Y167116D02*
Y164305D01*
X52172Y165206D01*
X52473Y165314D01*
X52761Y165398D01*
X53025Y165482D01*
X53266Y165542D01*
X53470Y165590D01*
X53554Y165614D01*
X53638Y165626D01*
X53686Y165650D01*
X53734D01*
X53758Y165662D01*
X53770D01*
X53494Y165746D01*
X53205Y165842D01*
X52917Y165938D01*
X52641Y166035D01*
X52521Y166083D01*
X52400Y166119D01*
X52292Y166155D01*
X52208Y166191D01*
X52136Y166215D01*
X52076Y166239D01*
X52040Y166251D01*
X52028D01*
X49745Y167116D01*
D02*
G37*
G36*
X63933Y172955D02*
X63825D01*
X63765D01*
X63753D01*
X63741D01*
X63368D01*
X63032Y172931D01*
X62732Y172907D01*
X62443Y172883D01*
X62203Y172847D01*
X61975Y172799D01*
X61783Y172750D01*
X61602Y172715D01*
X61458Y172666D01*
X61338Y172618D01*
X61230Y172582D01*
X61146Y172534D01*
X61086Y172510D01*
X61050Y172486D01*
X61026Y172462D01*
X61014D01*
X60894Y172366D01*
X60797Y172270D01*
X60701Y172174D01*
X60629Y172078D01*
X60509Y171873D01*
X60425Y171693D01*
X60377Y171525D01*
X60353Y171405D01*
X60341Y171357D01*
Y171285D01*
X60353Y171153D01*
X60365Y171033D01*
X60449Y170804D01*
X60557Y170600D01*
X60677Y170420D01*
X60797Y170288D01*
X60905Y170180D01*
X60990Y170119D01*
X61002Y170095D01*
X61014D01*
X61158Y170011D01*
X61326Y169939D01*
X61518Y169867D01*
X61722Y169819D01*
X61939Y169771D01*
X62167Y169735D01*
X62636Y169675D01*
X62852Y169651D01*
X63056Y169639D01*
X63248Y169627D01*
X63404D01*
X63549Y169615D01*
X63657D01*
X63717D01*
X63741D01*
X64113Y169627D01*
X64450Y169639D01*
X64762Y169663D01*
X65050Y169699D01*
X65303Y169735D01*
X65531Y169783D01*
X65735Y169831D01*
X65915Y169879D01*
X66072Y169927D01*
X66204Y169963D01*
X66312Y170011D01*
X66408Y170047D01*
X66468Y170083D01*
X66516Y170107D01*
X66540Y170131D01*
X66552D01*
X66660Y170215D01*
X66756Y170300D01*
X66828Y170396D01*
X66901Y170492D01*
X67009Y170684D01*
X67081Y170864D01*
X67117Y171021D01*
X67141Y171153D01*
X67153Y171201D01*
Y171273D01*
X67141Y171405D01*
X67129Y171537D01*
X67093Y171657D01*
X67045Y171765D01*
X66937Y171970D01*
X66817Y172150D01*
X66684Y172282D01*
X66576Y172390D01*
X66528Y172426D01*
X66492Y172450D01*
X66480Y172474D01*
X66468D01*
X66324Y172558D01*
X66156Y172630D01*
X65964Y172702D01*
X65759Y172750D01*
X65543Y172799D01*
X65315Y172835D01*
X64858Y172895D01*
X64630Y172919D01*
X64426Y172931D01*
X64233Y172943D01*
X64077D01*
X63933Y172955D01*
D02*
G37*
G36*
X63068Y165530D02*
Y162719D01*
X65495Y163620D01*
X65795Y163728D01*
X66084Y163812D01*
X66348Y163896D01*
X66588Y163956D01*
X66792Y164004D01*
X66877Y164028D01*
X66961Y164040D01*
X67009Y164064D01*
X67057D01*
X67081Y164076D01*
X67093D01*
X66817Y164160D01*
X66528Y164256D01*
X66240Y164353D01*
X65964Y164449D01*
X65843Y164497D01*
X65723Y164533D01*
X65615Y164569D01*
X65531Y164605D01*
X65459Y164629D01*
X65399Y164653D01*
X65363Y164665D01*
X65351D01*
X63068Y165530D01*
D02*
G37*
G36*
X77160Y166407D02*
X77100D01*
X77052D01*
X77039D01*
X76703Y166395D01*
X76391Y166371D01*
X76115Y166335D01*
X75874Y166299D01*
X75778Y166275D01*
X75694Y166251D01*
X75610Y166227D01*
X75550Y166215D01*
X75502Y166203D01*
X75466Y166191D01*
X75442Y166179D01*
X75430D01*
X75201Y166095D01*
X74997Y165998D01*
X74817Y165890D01*
X74661Y165794D01*
X74541Y165710D01*
X74457Y165638D01*
X74408Y165590D01*
X74384Y165578D01*
X74288Y165458D01*
X74204Y165338D01*
X74132Y165218D01*
X74060Y165098D01*
X74012Y164989D01*
X73976Y164905D01*
X73964Y164845D01*
X73952Y164821D01*
X73904Y164641D01*
X73868Y164425D01*
X73844Y164208D01*
X73832Y164004D01*
X73820Y163824D01*
X73808Y163740D01*
Y161770D01*
X80151D01*
Y163692D01*
X80139Y163848D01*
Y164004D01*
X80127Y164148D01*
X80091Y164389D01*
X80067Y164581D01*
X80031Y164737D01*
X79995Y164845D01*
X79983Y164905D01*
X79971Y164929D01*
X79863Y165145D01*
X79731Y165350D01*
X79574Y165530D01*
X79418Y165686D01*
X79274Y165806D01*
X79154Y165902D01*
X79106Y165926D01*
X79070Y165951D01*
X79046Y165975D01*
X79034D01*
X78902Y166047D01*
X78746Y166119D01*
X78433Y166227D01*
X78097Y166299D01*
X77772Y166359D01*
X77628Y166371D01*
X77484Y166383D01*
X77364Y166395D01*
X77256D01*
X77160Y166407D01*
D02*
G37*
G36*
X90410Y167933D02*
X90350D01*
X90302D01*
X90290D01*
X89954Y167921D01*
X89641Y167897D01*
X89365Y167861D01*
X89125Y167825D01*
X89029Y167801D01*
X88945Y167777D01*
X88861Y167753D01*
X88800Y167741D01*
X88752Y167729D01*
X88716Y167717D01*
X88692Y167705D01*
X88680D01*
X88452Y167621D01*
X88248Y167524D01*
X88068Y167416D01*
X87911Y167320D01*
X87791Y167236D01*
X87707Y167164D01*
X87659Y167116D01*
X87635Y167104D01*
X87539Y166984D01*
X87455Y166864D01*
X87383Y166743D01*
X87311Y166623D01*
X87263Y166515D01*
X87227Y166431D01*
X87215Y166371D01*
X87203Y166347D01*
X87155Y166167D01*
X87118Y165951D01*
X87094Y165734D01*
X87082Y165530D01*
X87070Y165350D01*
X87058Y165266D01*
Y163295D01*
X93402D01*
Y165218D01*
X93390Y165374D01*
Y165530D01*
X93378Y165674D01*
X93342Y165914D01*
X93318Y166107D01*
X93282Y166263D01*
X93246Y166371D01*
X93234Y166431D01*
X93222Y166455D01*
X93113Y166671D01*
X92981Y166876D01*
X92825Y167056D01*
X92669Y167212D01*
X92525Y167332D01*
X92405Y167428D01*
X92357Y167452D01*
X92321Y167476D01*
X92297Y167500D01*
X92285D01*
X92152Y167572D01*
X91996Y167645D01*
X91684Y167753D01*
X91347Y167825D01*
X91023Y167885D01*
X90879Y167897D01*
X90735Y167909D01*
X90615Y167921D01*
X90506D01*
X90410Y167933D01*
D02*
G37*
G36*
X103685Y172955D02*
X103577D01*
X103517D01*
X103505D01*
X103493D01*
X103120D01*
X102784Y172931D01*
X102484Y172907D01*
X102195Y172883D01*
X101955Y172847D01*
X101727Y172799D01*
X101534Y172750D01*
X101354Y172715D01*
X101210Y172666D01*
X101090Y172618D01*
X100982Y172582D01*
X100898Y172534D01*
X100838Y172510D01*
X100802Y172486D01*
X100778Y172462D01*
X100765D01*
X100645Y172366D01*
X100549Y172270D01*
X100453Y172174D01*
X100381Y172078D01*
X100261Y171873D01*
X100177Y171693D01*
X100129Y171525D01*
X100105Y171405D01*
X100093Y171357D01*
Y171285D01*
X100105Y171153D01*
X100117Y171033D01*
X100201Y170804D01*
X100309Y170600D01*
X100429Y170420D01*
X100549Y170288D01*
X100657Y170180D01*
X100742Y170119D01*
X100753Y170095D01*
X100765D01*
X100910Y170011D01*
X101078Y169939D01*
X101270Y169867D01*
X101474Y169819D01*
X101691Y169771D01*
X101919Y169735D01*
X102388Y169675D01*
X102604Y169651D01*
X102808Y169639D01*
X103000Y169627D01*
X103156D01*
X103301Y169615D01*
X103409D01*
X103469D01*
X103493D01*
X103865Y169627D01*
X104202Y169639D01*
X104514Y169663D01*
X104802Y169699D01*
X105055Y169735D01*
X105283Y169783D01*
X105487Y169831D01*
X105667Y169879D01*
X105823Y169927D01*
X105956Y169963D01*
X106064Y170011D01*
X106160Y170047D01*
X106220Y170083D01*
X106268Y170107D01*
X106292Y170131D01*
X106304D01*
X106412Y170215D01*
X106508Y170300D01*
X106580Y170396D01*
X106652Y170492D01*
X106761Y170684D01*
X106833Y170864D01*
X106869Y171021D01*
X106893Y171153D01*
X106905Y171201D01*
Y171273D01*
X106893Y171405D01*
X106881Y171537D01*
X106845Y171657D01*
X106797Y171765D01*
X106688Y171970D01*
X106568Y172150D01*
X106436Y172282D01*
X106328Y172390D01*
X106280Y172426D01*
X106244Y172450D01*
X106232Y172474D01*
X106220D01*
X106076Y172558D01*
X105908Y172630D01*
X105715Y172703D01*
X105511Y172750D01*
X105295Y172799D01*
X105067Y172835D01*
X104610Y172895D01*
X104382Y172919D01*
X104178Y172931D01*
X103985Y172943D01*
X103829D01*
X103685Y172955D01*
D02*
G37*
G36*
X103733Y166347D02*
X103673D01*
X103625D01*
X103613D01*
X103277Y166335D01*
X102964Y166311D01*
X102688Y166275D01*
X102448Y166239D01*
X102351Y166215D01*
X102267Y166191D01*
X102183Y166167D01*
X102123Y166155D01*
X102075Y166143D01*
X102039Y166131D01*
X102015Y166119D01*
X102003D01*
X101775Y166035D01*
X101571Y165938D01*
X101390Y165830D01*
X101234Y165734D01*
X101114Y165650D01*
X101030Y165578D01*
X100982Y165530D01*
X100958Y165518D01*
X100862Y165398D01*
X100778Y165278D01*
X100705Y165158D01*
X100633Y165037D01*
X100585Y164929D01*
X100549Y164845D01*
X100537Y164785D01*
X100525Y164761D01*
X100477Y164581D01*
X100441Y164365D01*
X100417Y164148D01*
X100405Y163944D01*
X100393Y163764D01*
X100381Y163680D01*
Y161709D01*
X106725D01*
Y163632D01*
X106713Y163788D01*
Y163944D01*
X106700Y164088D01*
X106664Y164329D01*
X106641Y164521D01*
X106604Y164677D01*
X106568Y164785D01*
X106556Y164845D01*
X106544Y164869D01*
X106436Y165086D01*
X106304Y165290D01*
X106148Y165470D01*
X105992Y165626D01*
X105848Y165746D01*
X105727Y165842D01*
X105679Y165866D01*
X105643Y165890D01*
X105619Y165914D01*
X105607D01*
X105475Y165986D01*
X105319Y166059D01*
X105007Y166167D01*
X104670Y166239D01*
X104346Y166299D01*
X104202Y166311D01*
X104057Y166323D01*
X103937Y166335D01*
X103829D01*
X103733Y166347D01*
D02*
G37*
G36*
X117362Y172919D02*
X117338D01*
X117326D01*
Y169543D01*
X117602Y169579D01*
X117855Y169651D01*
X118071Y169735D01*
X118239Y169831D01*
X118383Y169915D01*
X118491Y169999D01*
X118552Y170047D01*
X118575Y170071D01*
X118732Y170264D01*
X118852Y170456D01*
X118936Y170660D01*
X118996Y170852D01*
X119032Y171008D01*
X119044Y171141D01*
X119056Y171189D01*
Y171261D01*
X119044Y171405D01*
X119032Y171537D01*
X118960Y171789D01*
X118864Y172006D01*
X118756Y172186D01*
X118648Y172330D01*
X118552Y172438D01*
X118479Y172498D01*
X118467Y172522D01*
X118455D01*
X118299Y172630D01*
X118119Y172726D01*
X117939Y172787D01*
X117747Y172847D01*
X117590Y172883D01*
X117446Y172907D01*
X117398D01*
X117362Y172919D01*
D02*
G37*
G36*
X116894Y162671D02*
X116833D01*
X116797D01*
X116785D01*
X116569D01*
X116365Y162647D01*
X116185Y162623D01*
X116004Y162586D01*
X115848Y162551D01*
X115704Y162502D01*
X115572Y162466D01*
X115452Y162418D01*
X115356Y162370D01*
X115260Y162322D01*
X115188Y162274D01*
X115127Y162238D01*
X115079Y162202D01*
X115043Y162178D01*
X115031Y162166D01*
X115019Y162154D01*
X114923Y162058D01*
X114827Y161950D01*
X114683Y161745D01*
X114587Y161529D01*
X114515Y161337D01*
X114479Y161157D01*
X114455Y161025D01*
X114443Y160965D01*
Y160893D01*
X114455Y160748D01*
X114467Y160616D01*
X114527Y160364D01*
X114623Y160148D01*
X114731Y159967D01*
X114827Y159823D01*
X114923Y159715D01*
X114983Y159643D01*
X115007Y159631D01*
Y159619D01*
X115127Y159535D01*
X115248Y159451D01*
X115524Y159331D01*
X115812Y159235D01*
X116101Y159174D01*
X116353Y159138D01*
X116461Y159126D01*
X116557D01*
X116641Y159114D01*
X116701D01*
X116737D01*
X116749D01*
X116954Y159126D01*
X117158Y159138D01*
X117338Y159163D01*
X117506Y159199D01*
X117662Y159235D01*
X117807Y159271D01*
X117927Y159319D01*
X118047Y159367D01*
X118143Y159415D01*
X118239Y159463D01*
X118311Y159499D01*
X118371Y159535D01*
X118419Y159571D01*
X118455Y159595D01*
X118467Y159619D01*
X118479D01*
X118575Y159715D01*
X118672Y159823D01*
X118816Y160028D01*
X118912Y160244D01*
X118984Y160448D01*
X119032Y160628D01*
X119044Y160760D01*
X119056Y160820D01*
Y160893D01*
X119044Y161037D01*
X119032Y161169D01*
X118972Y161409D01*
X118876Y161625D01*
X118768Y161806D01*
X118660Y161950D01*
X118575Y162058D01*
X118503Y162130D01*
X118491Y162154D01*
X118479D01*
X118371Y162250D01*
X118239Y162322D01*
X117975Y162454D01*
X117687Y162551D01*
X117422Y162610D01*
X117170Y162647D01*
X117062Y162659D01*
X116966D01*
X116894Y162671D01*
D02*
G37*
%LPD*%
D11*
X101835Y120582D02*
X103001Y121748D01*
X105334D01*
X106500Y120582D01*
Y115916D01*
X105334Y114750D01*
X103001D01*
X101835Y115916D01*
Y118249D01*
X104167D01*
X118250Y121748D02*
Y114750D01*
X114751D01*
X113585Y115916D01*
Y117083D01*
X114751Y118249D01*
X118250D01*
X114751D01*
X113585Y119415D01*
Y120582D01*
X114751Y121748D01*
X118250D01*
X90085Y120582D02*
X91251Y121748D01*
X93584D01*
X94750Y120582D01*
Y115916D01*
X93584Y114750D01*
X91251D01*
X90085Y115916D01*
X82752Y92500D02*
X90750D01*
X82752D02*
X90750Y87168D01*
X82752D02*
X90750D01*
X82752Y84959D02*
X90750D01*
X82752D02*
Y81531D01*
X83133Y80388D01*
X83513Y80007D01*
X84275Y79626D01*
X85037D01*
X85799Y80007D01*
X86180Y80388D01*
X86560Y81531D01*
Y84959D01*
Y82293D02*
X90750Y79626D01*
X82752Y77836D02*
X90750D01*
X82752D02*
Y72885D01*
X86560Y77836D02*
Y74790D01*
X82752Y67401D02*
Y71209D01*
X86180Y71590D01*
X85799Y71209D01*
X85418Y70067D01*
Y68924D01*
X85799Y67781D01*
X86560Y67020D01*
X87703Y66639D01*
X88465D01*
X89607Y67020D01*
X90369Y67781D01*
X90750Y68924D01*
Y70067D01*
X90369Y71209D01*
X89988Y71590D01*
X89227Y71971D01*
X82752Y64087D02*
Y59897D01*
X85799Y62183D01*
Y61040D01*
X86180Y60278D01*
X86560Y59897D01*
X87703Y59517D01*
X88465D01*
X89607Y59897D01*
X90369Y60659D01*
X90750Y61802D01*
Y62944D01*
X90369Y64087D01*
X89988Y64468D01*
X89227Y64849D01*
X82752Y53918D02*
X88084Y57726D01*
Y52013D01*
X82752Y53918D02*
X90750D01*
X82752Y48319D02*
X83133Y49461D01*
X84275Y50223D01*
X86180Y50604D01*
X87322D01*
X89227Y50223D01*
X90369Y49461D01*
X90750Y48319D01*
Y47557D01*
X90369Y46415D01*
X89227Y45653D01*
X87322Y45272D01*
X86180D01*
X84275Y45653D01*
X83133Y46415D01*
X82752Y47557D01*
Y48319D01*
X84025Y24500D02*
X83644Y23738D01*
X82502Y22596D01*
X90500D01*
X89738Y18254D02*
X90119Y18635D01*
X90500Y18254D01*
X90119Y17873D01*
X89738Y18254D01*
X82502Y15359D02*
Y11170D01*
X85549Y13455D01*
Y12312D01*
X85929Y11550D01*
X86310Y11170D01*
X87453Y10789D01*
X88215D01*
X89357Y11170D01*
X90119Y11931D01*
X90500Y13074D01*
Y14217D01*
X90119Y15359D01*
X89738Y15740D01*
X88976Y16121D01*
X114537Y91970D02*
Y87971D01*
X113204Y86638D01*
X111871Y87971D01*
Y90637D01*
X110538Y91970D01*
X109205Y90637D01*
Y86638D01*
Y78641D02*
Y82640D01*
X110538Y83973D01*
X113204D01*
X114537Y82640D01*
Y78641D01*
X106539Y75975D02*
X114537D01*
X110538D01*
X109205Y74642D01*
Y71976D01*
X110538Y70644D01*
X114537D01*
Y67978D02*
Y65312D01*
Y66645D01*
X109205D01*
Y67978D01*
X114537Y61313D02*
Y58647D01*
Y59980D01*
X106539D01*
Y61313D01*
X114537Y54649D02*
X106539D01*
X111871D02*
X109205Y50650D01*
X111871Y54649D02*
X114537Y50650D01*
X117203Y46651D02*
X109205D01*
Y42653D01*
X110538Y41320D01*
X113204D01*
X114537Y42653D01*
Y46651D01*
Y30656D02*
X109205D01*
X106539Y27991D01*
X109205Y25325D01*
X114537D01*
X110538D01*
Y30656D01*
X106539Y22659D02*
X114537D01*
Y18660D01*
X113204Y17327D01*
X111871D01*
X110538Y18660D01*
Y22659D01*
Y18660D01*
X109205Y17327D01*
X107872D01*
X106539Y18660D01*
Y22659D01*
Y14662D02*
Y11996D01*
Y13329D01*
X114537D01*
Y14662D01*
Y11996D01*
X82502Y35250D02*
X90500Y32203D01*
X82502Y29156D02*
X90500Y32203D01*
X89738Y27747D02*
X90119Y28128D01*
X90500Y27747D01*
X90119Y27366D01*
X89738Y27747D01*
D14*
X267619Y12083D02*
X268571Y11607D01*
X269523Y10655D01*
X269999Y9703D01*
Y7798D01*
X269523Y6846D01*
X268571Y5894D01*
X267619Y5418D01*
X266190Y4942D01*
X263810D01*
X262381Y5418D01*
X261429Y5894D01*
X260477Y6846D01*
X260001Y7798D01*
Y9703D01*
X260477Y10655D01*
X261429Y11607D01*
X262381Y12083D01*
X263810D01*
Y9703D02*
Y12083D01*
X269999Y14368D02*
X260001D01*
X269999D02*
X260001Y21033D01*
X269999D02*
X260001D01*
X269999Y23795D02*
X260001D01*
X269999D02*
Y27127D01*
X269523Y28556D01*
X268571Y29508D01*
X267619Y29984D01*
X266190Y30460D01*
X263810D01*
X262381Y29984D01*
X261429Y29508D01*
X260477Y28556D01*
X260001Y27127D01*
Y23795D01*
D16*
X198000Y143000D02*
G03*
X193000Y148000I-5000J0D01*
G01*
X198000Y33000D02*
G03*
X193000Y38000I-5000J0D01*
G01*
Y46000D02*
G03*
X198000Y51000I0J5000D01*
G01*
X198000Y74000D02*
G03*
X193000Y79000I-5000J0D01*
G01*
X193000Y91000D02*
G03*
X198000Y96000I0J5000D01*
G01*
X198000Y5000D02*
G03*
X203000Y0I5000J0D01*
G01*
X64000Y143000D02*
G03*
X59000Y148000I-5000J0D01*
G01*
X77000D02*
G03*
X72000Y143000I0J-5000D01*
G01*
X0Y153000D02*
G03*
X5000Y148000I5000J0D01*
G01*
X127000Y148000D02*
G03*
X122000Y143000I0J-5000D01*
G01*
X114000D02*
G03*
X109000Y148000I-5000J0D01*
G01*
X5000Y192000D02*
G03*
X0Y187000I0J-5000D01*
G01*
X367000D02*
G03*
X362000Y192000I-5000J0D01*
G01*
Y0D02*
G03*
X367000Y5000I0J5000D01*
G01*
X122000Y131000D02*
G03*
X127000Y126000I5000J0D01*
G01*
X59000D02*
G03*
X64000Y131000I0J5000D01*
G01*
X109000Y126000D02*
G03*
X114000Y131000I0J5000D01*
G01*
X72000Y131000D02*
G03*
X77000Y126000I5000J0D01*
G01*
X181000Y79000D02*
G03*
X176000Y74000I0J-5000D01*
G01*
X176000Y96000D02*
G03*
X181000Y91000I5000J0D01*
G01*
X181000Y38000D02*
G03*
X176000Y33000I0J-5000D01*
G01*
X176000Y51000D02*
G03*
X181000Y46000I5000J0D01*
G01*
X20000Y95000D02*
G03*
X30000Y105000I0J10000D01*
G01*
X0Y153000D02*
X0Y187000D01*
X203000Y0D02*
X362000D01*
X64000Y143045D02*
X64000Y131000D01*
X72000Y143000D02*
X72000Y131000D01*
X114000Y143000D02*
X114000Y131000D01*
X122000Y143000D02*
X122000Y131000D01*
X127000Y148000D02*
X193000D01*
X198000Y143000D02*
X198000Y96000D01*
X181000Y91000D02*
X193000D01*
X192000Y79000D02*
X193000D01*
X181000D02*
X192000D01*
X181000Y46000D02*
X193011D01*
X181000Y38000D02*
X193000D01*
X198000Y5000D02*
Y30000D01*
Y33000D01*
Y51000D02*
Y74000D01*
X77000Y148000D02*
X109000D01*
X5000Y148000D02*
X59000D01*
X5000Y192000D02*
X362000Y192000D01*
X367000Y5000D02*
Y187000D01*
X77000Y126000D02*
X109000D01*
X176000Y51000D02*
Y74000D01*
Y30000D02*
Y33000D01*
X127000Y126000D02*
X156000D01*
X175990Y29058D02*
X175998Y29529D01*
X175879Y26708D02*
X175911Y27177D01*
X175800Y25773D02*
X175842Y26240D01*
X175754Y25307D02*
X175800Y25773D01*
X175842Y26240D02*
X175879Y26708D01*
X175978Y28587D02*
X175990Y29058D01*
X175702Y24842D02*
X175754Y25307D01*
X175646Y24379D02*
X175702Y24842D01*
X175961Y28116D02*
X175978Y28587D01*
X175584Y23916D02*
X175646Y24379D01*
X175938Y27646D02*
X175961Y28116D01*
X175911Y27177D02*
X175938Y27646D01*
X175518Y23456D02*
X175584Y23916D01*
X173215Y14729D02*
X173373Y15136D01*
X173526Y15547D01*
X174228Y17655D02*
X174355Y18086D01*
X174097Y17227D02*
X174228Y17655D01*
X173960Y16802D02*
X174097Y17227D01*
X173053Y14325D02*
X173215Y14729D01*
X172887Y13925D02*
X173053Y14325D01*
X173820Y16380D02*
X173960Y16802D01*
X173675Y15962D02*
X173820Y16380D01*
X173526Y15547D02*
X173675Y15962D01*
X174596Y18956D02*
X174709Y19396D01*
X174922Y20282D02*
X175021Y20729D01*
X175447Y22997D02*
X175518Y23456D01*
X175372Y22539D02*
X175447Y22997D01*
X174818Y19838D02*
X174922Y20282D01*
X174709Y19396D02*
X174818Y19838D01*
X175291Y22084D02*
X175372Y22539D01*
X175206Y21630D02*
X175291Y22084D01*
X174478Y18520D02*
X174596Y18956D01*
X175116Y21179D02*
X175206Y21630D01*
X174355Y18086D02*
X174478Y18520D01*
X175021Y20729D02*
X175116Y21179D01*
X168008Y6010D02*
X168258Y6295D01*
X168748Y6885D02*
X168989Y7188D01*
X170142Y8787D02*
X170362Y9123D01*
X168505Y6587D02*
X168748Y6885D01*
X169918Y8456D02*
X170142Y8787D01*
X168258Y6295D02*
X168505Y6587D01*
X169691Y8131D02*
X169918Y8456D01*
X169460Y7811D02*
X169691Y8131D01*
X167756Y5730D02*
X168008Y6010D01*
X169226Y7497D02*
X169460Y7811D01*
X168989Y7188D02*
X169226Y7497D01*
X170362Y9123D02*
X170579Y9464D01*
X167242Y5188D02*
X167500Y5455D01*
X165909Y3941D02*
X166181Y4178D01*
X165635Y3711D02*
X165909Y3941D01*
X165359Y3487D02*
X165635Y3711D01*
X166980Y4926D02*
X167242Y5188D01*
X166716Y4670D02*
X166980Y4926D01*
X165080Y3270D02*
X165359Y3487D01*
X164799Y3059D02*
X165080Y3270D01*
X166450Y4421D02*
X166716Y4670D01*
X164516Y2855D02*
X164799Y3059D01*
X166181Y4178D02*
X166450Y4421D01*
X167500Y5455D02*
X167756Y5730D01*
X162180Y1468D02*
X162478Y1618D01*
X160363Y723D02*
X160669Y829D01*
X160056Y623D02*
X160363Y723D01*
X161881Y1326D02*
X162180Y1468D01*
X159748Y531D02*
X160056Y623D01*
X161580Y1191D02*
X161881Y1326D01*
X161277Y1063D02*
X161580Y1191D01*
X159439Y447D02*
X159748Y531D01*
X159129Y369D02*
X159439Y447D01*
X160974Y943D02*
X161277Y1063D01*
X160669Y829D02*
X160974Y943D01*
X162478Y1618D02*
X162775Y1774D01*
X172542Y13138D02*
X172716Y13529D01*
X171410Y10877D02*
X171609Y11243D01*
X171208Y10517D02*
X171410Y10877D01*
X172363Y12750D02*
X172542Y13138D01*
X172180Y12366D02*
X172363Y12750D01*
X171002Y10161D02*
X171208Y10517D01*
X170793Y9810D02*
X171002Y10161D01*
X171994Y11987D02*
X172180Y12366D01*
X170579Y9464D02*
X170793Y9810D01*
X171803Y11613D02*
X171994Y11987D01*
X172716Y13529D02*
X172887Y13925D01*
X171609Y11243D02*
X171803Y11613D01*
X156000Y0D02*
X156314Y4D01*
X156628Y15D01*
X156942Y33D01*
X157256Y59D01*
X158507Y237D02*
X158818Y299D01*
X158195Y181D02*
X158507Y237D01*
X157882Y133D02*
X158195Y181D01*
X157569Y93D02*
X157882Y133D01*
X157256Y59D02*
X157569Y93D01*
X158818Y299D02*
X159129Y369D01*
X162775Y1774D02*
X163069Y1937D01*
X163943Y2467D02*
X164230Y2658D01*
X163654Y2284D02*
X163943Y2467D01*
X163363Y2107D02*
X163654Y2284D01*
X163069Y1937D02*
X163363Y2107D01*
X164230Y2658D02*
X164516Y2855D01*
X175998Y29529D02*
X176000Y30000D01*
X175990Y96942D02*
X175998Y96471D01*
X175879Y99292D02*
X175911Y98823D01*
X175800Y100227D02*
X175842Y99760D01*
X175754Y100693D02*
X175800Y100227D01*
X175842Y99760D02*
X175879Y99292D01*
X175978Y97413D02*
X175990Y96942D01*
X175702Y101158D02*
X175754Y100693D01*
X175646Y101621D02*
X175702Y101158D01*
X175961Y97884D02*
X175978Y97413D01*
X175584Y102084D02*
X175646Y101621D01*
X175938Y98354D02*
X175961Y97884D01*
X175911Y98823D02*
X175938Y98354D01*
X175518Y102544D02*
X175584Y102084D01*
X173215Y111271D02*
X173373Y110864D01*
X173526Y110453D01*
X174228Y108345D02*
X174355Y107914D01*
X174097Y108773D02*
X174228Y108345D01*
X173960Y109198D02*
X174097Y108773D01*
X173053Y111675D02*
X173215Y111271D01*
X172887Y112075D02*
X173053Y111675D01*
X173820Y109620D02*
X173960Y109198D01*
X173675Y110038D02*
X173820Y109620D01*
X173526Y110453D02*
X173675Y110038D01*
X174596Y107044D02*
X174709Y106604D01*
X174922Y105717D02*
X175021Y105271D01*
X175447Y103003D02*
X175518Y102544D01*
X175372Y103461D02*
X175447Y103003D01*
X174818Y106162D02*
X174922Y105717D01*
X174709Y106604D02*
X174818Y106162D01*
X175291Y103916D02*
X175372Y103461D01*
X175206Y104370D02*
X175291Y103916D01*
X174478Y107480D02*
X174596Y107044D01*
X175116Y104821D02*
X175206Y104370D01*
X174355Y107914D02*
X174478Y107480D01*
X175021Y105271D02*
X175116Y104821D01*
X168008Y119991D02*
X168258Y119705D01*
X168748Y119115D02*
X168989Y118812D01*
X170142Y117213D02*
X170362Y116877D01*
X168505Y119413D02*
X168748Y119115D01*
X169918Y117544D02*
X170142Y117213D01*
X168258Y119705D02*
X168505Y119413D01*
X169691Y117869D02*
X169918Y117544D01*
X169460Y118189D02*
X169691Y117869D01*
X167756Y120270D02*
X168008Y119991D01*
X169226Y118503D02*
X169460Y118189D01*
X168989Y118812D02*
X169226Y118503D01*
X170362Y116877D02*
X170579Y116536D01*
X167242Y120812D02*
X167500Y120544D01*
X165909Y122059D02*
X166181Y121822D01*
X165635Y122289D02*
X165909Y122059D01*
X165359Y122513D02*
X165635Y122289D01*
X166980Y121074D02*
X167242Y120812D01*
X166716Y121330D02*
X166980Y121074D01*
X165080Y122730D02*
X165359Y122513D01*
X164799Y122941D02*
X165080Y122730D01*
X166450Y121579D02*
X166716Y121330D01*
X164516Y123145D02*
X164799Y122941D01*
X166181Y121822D02*
X166450Y121579D01*
X167500Y120544D02*
X167756Y120270D01*
X162180Y124532D02*
X162478Y124382D01*
X160363Y125277D02*
X160669Y125171D01*
X160056Y125377D02*
X160363Y125277D01*
X161881Y124674D02*
X162180Y124532D01*
X159748Y125469D02*
X160056Y125377D01*
X161580Y124809D02*
X161881Y124674D01*
X161277Y124937D02*
X161580Y124809D01*
X159439Y125553D02*
X159748Y125469D01*
X159129Y125631D02*
X159439Y125553D01*
X160974Y125057D02*
X161277Y124937D01*
X160669Y125171D02*
X160974Y125057D01*
X162478Y124382D02*
X162775Y124226D01*
X172542Y112863D02*
X172716Y112471D01*
X171410Y115123D02*
X171609Y114757D01*
X171208Y115483D02*
X171410Y115123D01*
X172363Y113250D02*
X172542Y112863D01*
X172180Y113633D02*
X172363Y113250D01*
X171002Y115839D02*
X171208Y115483D01*
X170793Y116190D02*
X171002Y115839D01*
X171994Y114012D02*
X172180Y113633D01*
X170579Y116536D02*
X170793Y116190D01*
X171803Y114387D02*
X171994Y114012D01*
X172716Y112471D02*
X172887Y112075D01*
X171609Y114757D02*
X171803Y114387D01*
X156000Y126000D02*
X156314Y125996D01*
X156628Y125985D01*
X156942Y125967D01*
X157256Y125941D01*
X158507Y125763D02*
X158818Y125701D01*
X158195Y125819D02*
X158507Y125763D01*
X157882Y125867D02*
X158195Y125819D01*
X157569Y125907D02*
X157882Y125867D01*
X157256Y125941D02*
X157569Y125907D01*
X158818Y125701D02*
X159129Y125631D01*
X162775Y124226D02*
X163069Y124063D01*
X163943Y123533D02*
X164230Y123342D01*
X163654Y123716D02*
X163943Y123533D01*
X163363Y123893D02*
X163654Y123716D01*
X163069Y124063D02*
X163363Y123893D01*
X164230Y123342D02*
X164516Y123145D01*
X175998Y96471D02*
X176000Y96000D01*
X50000Y126000D02*
X59000D01*
X884Y84411D02*
X979Y84635D01*
X628Y83730D02*
X709Y83958D01*
X415Y83042D02*
X482Y83272D01*
X1405Y85522D02*
X1522Y85740D01*
X2785Y87636D02*
X2947Y87837D01*
X4197Y89194D02*
X4391Y89379D01*
X154Y9215D02*
X222Y9059D01*
X616Y8436D02*
X745Y8281D01*
X4792Y89742D02*
X4998Y89920D01*
X5207Y90095D02*
X5421Y90268D01*
X5858Y90607D02*
X6082Y90772D01*
X6309Y90934D02*
X6540Y91095D01*
X7495Y91706D02*
X7742Y91852D01*
X5099Y5601D02*
X5450Y5460D01*
X9550Y92790D02*
X9819Y92911D01*
X10920Y93365D02*
X11201Y93470D01*
X11484Y93572D01*
X6963Y4910D02*
X7368Y4775D01*
X18118Y94933D02*
X18431Y94954D01*
X19058Y94983D02*
X19372Y94993D01*
X30062Y106648D02*
X30089Y106976D01*
X30121Y107304D02*
X30158Y107632D01*
X30354Y108935D02*
X30415Y109258D01*
X31182Y112114D02*
X31291Y112423D01*
X31405Y112731D02*
X31522Y113036D01*
X31772Y113642D02*
X31904Y113941D01*
X32474Y115117D02*
X32627Y115405D01*
X34590Y118386D02*
X34792Y118638D01*
X33063Y591D02*
X33804Y539D01*
X37992Y121793D02*
X38244Y121989D01*
X38758Y122369D02*
X39020Y122552D01*
X39550Y122905D02*
X39819Y123076D01*
X40641Y123559D02*
X40920Y123711D01*
X43522Y124868D02*
X43820Y124972D01*
X44119Y125072D02*
X44420Y125166D01*
X46860Y20D02*
X47645Y11D01*
X48429Y5D01*
X47805Y125873D02*
X48118Y125907D01*
X48431Y125935D02*
X48744Y125959D01*
X49058Y125977D02*
X49372Y125990D01*
X48744Y125959D02*
X49058Y125977D01*
X1522Y85740D02*
X1645Y85957D01*
X1772Y86173D02*
X1903Y86387D01*
X2325Y87019D02*
X2474Y87226D01*
X0Y80000D02*
X3Y80236D01*
X0Y10000D02*
Y80000D01*
X6Y9843D02*
X25Y9686D01*
X55Y9529D02*
X99Y9372D01*
X222Y9059D02*
X302Y8903D01*
X1571Y7513D02*
X1772Y7361D01*
X3228Y6465D02*
X3511Y6319D01*
X3806Y6173D01*
X4430Y5885D02*
X4759Y5742D01*
X5099Y5601D01*
X9819Y92911D02*
X10091Y93029D01*
X5812Y5321D02*
X6185Y5182D01*
X6568Y5045D01*
X9093Y4250D02*
X9549Y4122D01*
X16252Y94734D02*
X16561Y94777D01*
X11474Y3626D02*
X11980Y3505D01*
X17805Y94909D02*
X18118Y94933D01*
X13018Y3270D02*
X13552Y3155D01*
X18744Y94970D02*
X19058Y94983D01*
X30010Y105660D02*
X30022Y105989D01*
X31078Y111802D02*
X31182Y112114D01*
X23875Y1474D02*
X24548Y1393D01*
X25227Y1314D02*
X25912Y1237D01*
X32180Y114534D02*
X32325Y114826D01*
X30143Y822D02*
X30866Y761D01*
X31594Y702D02*
X32326Y646D01*
X36806Y354D02*
X37566Y314D01*
X39020Y122552D02*
X39283Y122731D01*
X40631Y177D02*
X41403Y149D01*
X45295Y44D02*
X46077Y31D01*
X46871Y125742D02*
X47182Y125791D01*
X47493Y125834D01*
X49215Y1D02*
X50000Y0D01*
X482Y83272D02*
X553Y83502D01*
X246Y82346D02*
X298Y82579D01*
X4391Y89379D02*
X4590Y89561D01*
X4792Y89742D01*
X302Y8903D02*
X394Y8747D01*
X745Y8281D02*
X886Y8126D01*
X7992Y91995D02*
X8244Y92135D01*
X3806Y6173D02*
X4112Y6029D01*
X8758Y92406D02*
X9020Y92537D01*
X4112Y6029D02*
X4430Y5885D01*
X6568Y5045D02*
X6963Y4910D01*
X10016Y3996D02*
X10492Y3871D01*
X10978Y3748D01*
X15331Y94586D02*
X15637Y94639D01*
X15944Y94688D02*
X16252Y94734D01*
X17493Y94882D02*
X17805Y94909D01*
X18431Y94954D02*
X18744Y94970D01*
X14094Y3041D02*
X14645Y2929D01*
X30089Y106976D02*
X30121Y107304D01*
X19979Y2003D02*
X20611Y1910D01*
X30628Y110223D02*
X30709Y110541D01*
X22549Y1642D02*
X23209Y1557D01*
X30794Y110859D02*
X30884Y111175D01*
X30979Y111489D02*
X31078Y111802D01*
X31645Y113340D02*
X31772Y113642D01*
X33458Y116804D02*
X33637Y117075D01*
X34998Y118888D02*
X35207Y119133D01*
X33804Y539D02*
X34549Y489D01*
X36540Y120532D02*
X36774Y120752D01*
X37011Y120969D01*
X38500Y122181D02*
X38758Y122369D01*
X39093Y241D02*
X39861Y208D01*
X44513Y60D02*
X45295Y44D01*
X44420Y125166D02*
X44722Y125256D01*
X46077Y31D02*
X46860Y20D01*
X46252Y125628D02*
X46561Y125687D01*
X1182Y85081D02*
X1291Y85302D01*
X1903Y86387D02*
X2039Y86599D01*
X2180Y86810D01*
X22Y80707D02*
X39Y80942D01*
X3113Y88037D02*
X3284Y88235D01*
X3458Y88431D01*
X4006Y89006D02*
X4197Y89194D01*
X394Y8747D02*
X499Y8591D01*
X1985Y7210D02*
X2210Y7060D01*
X2447Y6910D02*
X2696Y6761D01*
X8244Y92135D02*
X8500Y92272D01*
X10091Y93029D02*
X10365Y93145D01*
X8646Y4379D02*
X9093Y4250D01*
X14119Y94337D02*
X14420Y94404D01*
X16561Y94777D02*
X16871Y94815D01*
X17182Y94850D01*
X15204Y2819D02*
X15773Y2710D01*
X30000Y105000D02*
X30003Y105330D01*
X18129Y2295D02*
X18738Y2196D01*
X19355Y2098D02*
X19979Y2003D01*
X20611Y1910D02*
X21250Y1819D01*
X30553Y109902D02*
X30628Y110223D01*
X31522Y113036D02*
X31645Y113340D01*
X25912Y1237D02*
X26604Y1162D01*
X28711Y952D02*
X29424Y886D01*
X34391Y118130D02*
X34590Y118386D01*
X35207Y119133D02*
X35421Y119375D01*
X35638Y119614D01*
X36082Y120081D02*
X36309Y120308D01*
X35298Y442D02*
X36050Y397D01*
X37011Y120969D02*
X37252Y121181D01*
X39283Y122731D02*
X39550Y122905D01*
X41484Y124001D02*
X41770Y124139D01*
X42057Y124273D01*
X42955Y100D02*
X43733Y79D01*
X44722Y125256D02*
X45026Y125340D01*
X45331Y125420D01*
X48429Y5D02*
X49215Y1D01*
X709Y83958D02*
X794Y84185D01*
X553Y83502D02*
X628Y83730D01*
X89Y81412D02*
X121Y81646D01*
X3Y80236D02*
X10Y80471D01*
X62Y81177D02*
X89Y81412D01*
X3637Y88625D02*
X3820Y88817D01*
X0Y10000D02*
X6Y9843D01*
X3820Y88817D02*
X4006Y89006D01*
X4998Y89920D02*
X5207Y90095D01*
X886Y8126D02*
X1039Y7972D01*
X1772Y7361D02*
X1985Y7210D01*
X2210Y7060D02*
X2447Y6910D01*
X2696Y6761D02*
X2956Y6613D01*
X8500Y92272D02*
X8758Y92406D01*
X9283Y92665D02*
X9550Y92790D01*
X12057Y93766D02*
X12346Y93858D01*
X7784Y4642D02*
X8210Y4510D01*
X14420Y94404D02*
X14723Y94468D01*
X15637Y94639D02*
X15944Y94688D01*
X30199Y107959D02*
X30246Y108285D01*
X21250Y1819D02*
X21896Y1729D01*
X30482Y109581D02*
X30553Y109902D01*
X30709Y110541D02*
X30794Y110859D01*
X30884Y111175D02*
X30979Y111489D01*
X32325Y114826D02*
X32474Y115117D01*
X33284Y116530D02*
X33458Y116804D01*
X34197Y117871D02*
X34391Y118130D01*
X34792Y118638D02*
X34998Y118888D01*
X34549Y489D02*
X35298Y442D01*
X37495Y121389D02*
X37742Y121593D01*
X36050Y397D02*
X36806Y354D01*
X37566Y314D02*
X38328Y276D01*
X42178Y123D02*
X42955Y100D01*
X42638Y124525D02*
X42930Y124644D01*
X43225Y124759D02*
X43522Y124868D01*
X43820Y124972D02*
X44119Y125072D01*
X45637Y125494D02*
X45944Y125564D01*
X46561Y125687D02*
X46871Y125742D01*
X979Y84635D02*
X1078Y84859D01*
X1182Y85081D01*
X1645Y85957D02*
X1772Y86173D01*
X200Y82114D02*
X246Y82346D01*
X121Y81646D02*
X158Y81880D01*
X39Y80942D02*
X62Y81177D01*
X10Y80471D02*
X22Y80707D01*
X5421Y90268D02*
X5638Y90439D01*
X1382Y7666D02*
X1571Y7513D01*
X6540Y91095D02*
X6774Y91252D01*
X7011Y91406D01*
X7251Y91558D01*
X7495Y91706D01*
X2956Y6613D02*
X3228Y6465D01*
X10641Y93257D02*
X10920Y93365D01*
X7368Y4775D02*
X7784Y4642D01*
X12637Y93947D02*
X12931Y94032D01*
X13225Y94113D01*
X13522Y94191D02*
X13820Y94266D01*
X15026Y94529D02*
X15331Y94586D01*
X9549Y4122D02*
X10016Y3996D01*
X10978Y3748D02*
X11474Y3626D01*
X19372Y94993D02*
X19686Y94998D01*
X30003Y105330D02*
X30010Y105660D01*
X30022Y105989D02*
X30040Y106319D01*
X30062Y106648D01*
X18738Y2196D02*
X19355Y2098D01*
X30246Y108285D02*
X30298Y108610D01*
X32947Y115972D02*
X33113Y116252D01*
X29424Y886D02*
X30143Y822D01*
X34006Y117609D02*
X34197Y117871D01*
X30866Y761D02*
X31594Y702D01*
X32326Y646D02*
X33063Y591D01*
X37252Y121181D02*
X37495Y121389D01*
X39819Y123076D02*
X40091Y123241D01*
X42057Y124273D02*
X42346Y124402D01*
X42638Y124525D01*
X42930Y124644D02*
X43225Y124759D01*
X49372Y125990D02*
X49686Y125997D01*
X50000Y0D02*
X156000D01*
X298Y82579D02*
X354Y82811D01*
X2627Y87432D02*
X2785Y87636D01*
X3458Y88431D02*
X3637Y88625D01*
X25Y9686D02*
X55Y9529D01*
X499Y8591D02*
X616Y8436D01*
X5638Y90439D02*
X5858Y90607D01*
X1204Y7819D02*
X1382Y7666D01*
X6082Y90772D02*
X6309Y90934D01*
X9020Y92537D02*
X9283Y92665D01*
X10365Y93145D02*
X10641Y93257D01*
X11770Y93671D02*
X12057Y93766D01*
X12346Y93858D02*
X12637Y93947D01*
X13225Y94113D02*
X13522Y94191D01*
X14723Y94468D02*
X15026Y94529D01*
X11980Y3505D02*
X12494Y3387D01*
X13552Y3155D02*
X14094Y3041D01*
X14645Y2929D02*
X15204Y2819D01*
X15773Y2710D02*
X16349Y2604D01*
X16934Y2499D01*
X30158Y107632D02*
X30199Y107959D01*
X30298Y108610D02*
X30354Y108935D01*
X30415Y109258D02*
X30482Y109581D01*
X21896Y1729D02*
X22549Y1642D01*
X32039Y114239D02*
X32180Y114534D01*
X32627Y115405D02*
X32785Y115690D01*
X27301Y1090D02*
X28003Y1020D01*
X28711Y952D01*
X32785Y115690D02*
X32947Y115972D01*
X35638Y119614D02*
X35858Y119849D01*
X37742Y121593D02*
X37992Y121793D01*
X39861Y208D02*
X40631Y177D01*
X41403Y149D02*
X42178Y123D01*
X40920Y123711D02*
X41201Y123859D01*
X45944Y125564D02*
X46252Y125628D01*
X794Y84185D02*
X884Y84411D01*
X1291Y85302D02*
X1405Y85522D01*
X354Y82811D02*
X415Y83042D01*
X158Y81880D02*
X200Y82114D01*
X2180Y86810D02*
X2325Y87019D01*
X2474Y87226D02*
X2627Y87432D01*
X2947Y87837D02*
X3113Y88037D01*
X99Y9372D02*
X154Y9215D01*
X1039Y7972D02*
X1204Y7819D01*
X7742Y91852D02*
X7992Y91995D01*
X5450Y5460D02*
X5812Y5321D01*
X11484Y93572D02*
X11770Y93671D01*
X8210Y4510D02*
X8646Y4379D01*
X13820Y94266D02*
X14119Y94337D01*
X17182Y94850D02*
X17493Y94882D01*
X12494Y3387D02*
X13018Y3270D01*
X19686Y94998D02*
X20000Y95000D01*
X16934Y2499D02*
X17528Y2396D01*
X18129Y2295D01*
X23209Y1557D02*
X23875Y1474D01*
X31291Y112423D02*
X31405Y112731D01*
X24548Y1393D02*
X25227Y1314D01*
X31904Y113941D02*
X32039Y114239D01*
X26604Y1162D02*
X27301Y1090D01*
X33113Y116252D02*
X33284Y116530D01*
X33637Y117075D02*
X33820Y117344D01*
X34006Y117609D01*
X35858Y119849D02*
X36082Y120081D01*
X36309Y120308D02*
X36540Y120532D01*
X38244Y121989D02*
X38500Y122181D01*
X38328Y276D02*
X39093Y241D01*
X40091Y123241D02*
X40365Y123402D01*
X40641Y123559D01*
X41201Y123859D02*
X41484Y124001D01*
X43733Y79D02*
X44513Y60D01*
X45331Y125420D02*
X45637Y125494D01*
X47493Y125834D02*
X47805Y125873D01*
X48118Y125907D02*
X48431Y125935D01*
X49686Y125997D02*
X50000Y126000D01*
D94*
X24183Y69972D02*
X25971Y69972D01*
X25984Y70029D02*
X27475Y69848D01*
X28047Y69614D01*
X28860Y68833D02*
X29108Y68274D01*
X29302Y65655D02*
Y66797D01*
X28047Y69614D02*
X28508Y69277D01*
X29108Y68274D02*
X29302Y66797D01*
X28508Y69277D02*
X28860Y68833D01*
X14597Y51691D02*
X14753Y51750D01*
X25547Y15104D02*
X26571Y14967D01*
X22747Y57211D02*
X22876Y57340D01*
X24880Y57340D02*
X25009Y57211D01*
X14538Y80446D02*
X14589Y80626D01*
X18928Y21866D02*
X19084Y21836D01*
X19259Y33098D02*
X20077Y34095D01*
X26805Y57696D02*
X27074Y58302D01*
X28973Y75911D02*
X29130Y75852D01*
X28973Y54346D02*
X29130Y54405D01*
X27680Y38339D02*
X28417Y39076D01*
X26699Y48234D02*
X26754Y47829D01*
X14597Y72954D02*
X14753Y72895D01*
X19431Y55385D02*
X19956Y54914D01*
X23692Y62328D02*
X24160Y62835D01*
X14753Y80726D02*
X24362Y83570D01*
X26553Y34014D02*
X27263Y33659D01*
X27714Y13868D02*
X27853Y12907D01*
X18976Y70967D02*
X20765Y70967D01*
X26969Y65301D02*
X29102D01*
X15674Y69917D02*
X15831Y69976D01*
X26545Y60562D02*
X26889Y60276D01*
X20256Y39790D02*
X20479Y39276D01*
X24720Y35793D02*
X25871Y35872D01*
X19549Y21516D02*
X20183Y22031D01*
X23668Y45300D02*
X25871Y45535D01*
X19574Y27920D02*
X20081Y27522D01*
X28973Y82148D02*
X29130Y82245D01*
X23331Y61700D02*
X23692Y62328D01*
X23536Y16537D02*
X25806Y16763D01*
X27702Y42699D02*
X27853Y41807D01*
X18856Y10131D02*
X19135Y9544D01*
X14753Y72895D02*
X16886Y72895D01*
X20786Y37283D02*
X21454Y38209D01*
X26549Y9928D02*
X26603Y9783D01*
X27335Y16534D02*
X27955Y16250D01*
X14538Y77666D02*
X14600Y77516D01*
X28925Y10895D02*
X29292Y11981D01*
X16886Y75911D02*
X17043Y75852D01*
X28523Y50999D02*
X28876Y50554D01*
X21454Y38209D02*
X21486Y38376D01*
X18632Y19187D02*
X18842Y18074D01*
X20855Y38859D02*
X21389Y38511D01*
X27108Y10677D02*
X27497Y11345D01*
X29130Y82245D02*
X29189Y82406D01*
X27702Y33036D02*
X27853Y32123D01*
X24880Y58805D02*
X24950Y59631D01*
X20657Y18152D02*
X20743Y18295D01*
X18632Y11506D02*
X18813Y12952D01*
X22373Y16254D02*
X23536Y16537D01*
X27290Y14555D02*
X27714Y13868D01*
X29259Y47220D02*
X29318Y47376D01*
X21728Y57311D02*
X22359Y57211D01*
X14538Y73110D02*
X14597Y72954D01*
X20937Y59344D02*
X21023Y58311D01*
X18693Y29720D02*
X18875Y29023D01*
X26237Y63524D02*
X27011Y63451D01*
X24535Y14889D02*
X24664Y15040D01*
X21109Y66981D02*
X25720Y66981D01*
X29364Y42846D02*
X29426Y42066D01*
X19695Y37681D02*
X20484Y37197D01*
X18754Y39215D02*
X19114Y38355D01*
X20140Y11722D02*
X20266Y10863D01*
X26889Y60276D02*
X27095Y59804D01*
X29182Y33855D02*
X29364Y33155D01*
X20244Y12526D02*
X20554Y13241D01*
X14753Y86565D02*
X24363Y83634D01*
X18820Y72954D02*
X18976Y72895D01*
X27263Y33659D02*
X27702Y33036D01*
X20294Y41183D02*
X20622Y41877D01*
X14589Y86664D02*
X14753Y86565D01*
X26209Y66930D02*
X26528Y66766D01*
X20980Y66852D02*
X21109Y66981D01*
X19084Y21836D02*
X20183Y22051D01*
X19170Y28421D02*
X19574Y27920D01*
X20195Y15127D02*
X21346Y15858D01*
X14600Y89815D02*
X14775Y89839D01*
X28973Y72895D02*
X29130Y72954D01*
X22294Y54346D02*
X28973Y54346D01*
X26218Y48680D02*
X26525Y48516D01*
X21303Y44565D02*
X22441Y44999D01*
X18598Y60187D02*
X18807Y61232D01*
X17043Y75852D02*
X17102Y75696D01*
X27671Y63243D02*
X28221Y62915D01*
X20244Y20433D02*
X20419Y20909D01*
X27425Y30623D02*
X27745Y31320D01*
X20980Y70105D02*
X21109Y69976D01*
X18761Y70752D02*
X18761Y70105D01*
X27511Y9053D02*
X27680Y9136D01*
X25165Y60209D02*
X25534Y60548D01*
X18807Y61232D02*
X19133Y62120D01*
X19342Y14159D02*
X20195Y15127D01*
X28221Y62915D02*
X28663Y62484D01*
X18746Y56818D02*
X19029Y56016D01*
X14753Y48734D02*
X25763Y48734D01*
X23452Y35579D02*
X24720Y35793D01*
X29124Y49996D02*
X29318Y48518D01*
X22241Y35264D02*
X23452Y35579D01*
X26702Y66472D02*
X26754Y66033D01*
X20921Y65360D02*
X20980Y65516D01*
X27357Y9115D02*
X27511Y9053D01*
X29259Y65360D02*
X29318Y65516D01*
X28965Y39952D02*
X29307Y40953D01*
X27260Y43316D02*
X27702Y42699D01*
X28472Y15855D02*
X28883Y15350D01*
X29130Y23671D02*
X29189Y23819D01*
X21331Y8126D02*
X22143Y8059D01*
X28063Y51335D02*
X28523Y50999D01*
X20419Y20909D02*
X21074Y21688D01*
X28886Y34456D02*
X29182Y33855D01*
X20921Y70908D02*
X20980Y70752D01*
X26754Y65516D02*
X26813Y65360D01*
X14538Y48949D02*
Y51535D01*
X28883Y15350D02*
X29181Y14736D01*
X28480Y44625D02*
X28886Y44129D01*
X26172Y29560D02*
X26899Y30036D01*
X27955Y16250D02*
X28472Y15855D01*
X21146Y32836D02*
X21885Y33308D01*
X21777Y14307D02*
X23048Y14717D01*
X14775Y77494D02*
X28973Y82148D01*
X22812Y43326D02*
X23840Y43582D01*
X29130Y75852D02*
X29189Y75696D01*
X21389Y38511D02*
X21486Y38376D01*
X29130Y25264D02*
X29189Y25111D01*
X18632Y40256D02*
X18803Y41638D01*
X25806Y16763D02*
X26617Y16706D01*
X19133Y62120D02*
X19558Y62856D01*
X15831Y66981D02*
X18632Y66981D01*
X25871Y45535D02*
X26661Y45476D01*
X18524Y58978D02*
X18579Y57801D01*
X14597Y48793D02*
X14753Y48734D01*
X20765Y70967D02*
X20921Y70908D01*
X20081Y27522D02*
X20686Y27232D01*
X24362Y83570D02*
X24363Y83634D01*
X24739Y63211D02*
X25431Y63444D01*
X28284Y57168D02*
X28973D01*
X29239Y61379D02*
X29426Y60055D01*
X25431Y63444D02*
X26237Y63524D01*
X29130Y54405D02*
X29189Y54561D01*
X18579Y57801D02*
X18746Y56818D01*
X14538Y89646D02*
X14600Y89815D01*
X15674Y67040D02*
X15831Y66981D01*
X18868Y22009D02*
Y23323D01*
X29112Y68194D02*
X29267Y67493D01*
X19029Y56016D02*
X19431Y55385D01*
X26571Y14967D02*
X27290Y14555D01*
X21023Y58311D02*
X21284Y57656D01*
X27497Y11345D02*
X27758Y12093D01*
X27362Y35639D02*
X27971Y35352D01*
X14775Y89839D02*
X28973Y85186D01*
X20328Y19095D02*
X20700Y18454D01*
X20479Y39276D02*
X20855Y38859D01*
X18761Y75696D02*
X18820Y75852D01*
X29318Y47376D02*
Y48518D01*
X19135Y9544D02*
X19523Y9039D01*
X27074Y58302D02*
X27163Y59150D01*
X18761Y73110D02*
Y75696D01*
X19558Y62856D02*
X19684Y62953D01*
X25720Y57211D02*
X26354Y57332D01*
X29102Y65301D02*
X29259Y65360D01*
X28753Y57665D02*
X29113Y58291D01*
X25720Y66981D02*
X26209Y66930D01*
X23048Y14717D02*
X23178Y14630D01*
X29426Y13186D02*
Y13187D01*
X28973Y57168D02*
X29130Y57109D01*
X23077Y60961D02*
X23331Y61700D01*
X14538Y51535D02*
X14597Y51691D01*
X25591Y34127D02*
X26553Y34014D01*
X20980Y66852D02*
X20980Y65516D01*
X26603Y9783D02*
X27357Y9115D01*
X14538Y48949D02*
X14597Y48793D01*
X26582Y39114D02*
X27379Y38339D01*
X21492Y28872D02*
X22445Y28763D01*
X25871Y35872D02*
X26661Y35813D01*
X20646Y10235D02*
X21285Y9849D01*
X21605Y61671D02*
X21656Y61827D01*
X29002Y61967D02*
X29239Y61379D01*
X23178Y9977D02*
Y14630D01*
X29364Y33155D02*
X29426Y32360D01*
X24373Y29016D02*
X26172Y29560D01*
X27011Y63451D02*
X27671Y63243D01*
X18632Y11506D02*
X18688Y10789D01*
X20019Y8627D02*
X20622Y8318D01*
X26528Y66766D02*
X26702Y66472D01*
X26544Y43674D02*
X27260Y43316D01*
X28876Y50554D02*
X29124Y49996D01*
X24664Y15040D02*
X25547Y15104D01*
X26531Y39254D02*
X26625Y39394D01*
X19114Y38355D02*
X19695Y37681D01*
X27745Y31320D02*
X27853Y32123D01*
X29113Y58291D02*
X29344Y59083D01*
X22441Y44999D02*
X23668Y45300D01*
X15831Y69976D02*
X18632D01*
X14538Y75696D02*
X14597Y75852D01*
X21074Y21688D02*
X22064Y22246D01*
X24594Y27300D02*
X25807Y27623D01*
X26531Y39254D02*
X26582Y39114D01*
X26354Y57332D02*
X26805Y57696D01*
X20622Y41877D02*
X21155Y42483D01*
X27971Y45017D02*
X28480Y44625D01*
X29272Y30978D02*
X29426Y32360D01*
X27758Y12093D02*
X27853Y12907D01*
X19956Y54914D02*
X20605Y54591D01*
X18868Y23323D02*
X18928Y23482D01*
X26813Y47220D02*
X26969Y47161D01*
X18820Y65360D02*
X18976Y65301D01*
X20937Y59344D02*
X21133Y60718D01*
X29189Y82406D02*
Y84906D01*
X20183Y30766D02*
X20291Y31566D01*
X14753Y75911D02*
X16886D01*
X18842Y18074D02*
X19086Y17626D01*
X21285Y9849D02*
X22187Y9718D01*
X24535Y8576D02*
Y14889D01*
X21382Y27056D02*
X22165Y26996D01*
X18875Y29023D02*
X19170Y28421D01*
X20554Y13241D02*
X21067Y13843D01*
X14600Y77516D02*
X14775Y77494D01*
X28973Y85186D02*
X29129Y85086D01*
X26754Y65516D02*
Y66033D01*
X20183Y19898D02*
X20244Y20433D01*
X29130Y57109D02*
X29189Y56953D01*
X23325Y27078D02*
X24594Y27300D01*
X19684Y62953D02*
X19860Y62921D01*
X24880Y57340D02*
Y58805D01*
X29129Y85086D02*
X29189Y84906D01*
X26661Y45476D02*
X27362Y45302D01*
X27562Y40569D02*
X27782Y41176D01*
X21067Y13843D02*
X21777Y14307D01*
X29267Y67493D02*
X29318Y66658D01*
X18744Y20076D02*
X19060Y20859D01*
X18761Y65516D02*
X18820Y65360D01*
X26754Y47376D02*
Y47829D01*
X15615Y67197D02*
X15674Y67040D01*
X21346Y15858D02*
X22373Y16254D01*
X26754Y47376D02*
X26813Y47220D01*
X21260Y34881D02*
X22241Y35264D01*
X14538Y86845D02*
X14589Y86664D01*
X19060Y20859D02*
X19549Y21516D01*
X23307Y22591D02*
X28973Y23603D01*
X19709Y17269D02*
X20657Y18152D01*
X29344Y59083D02*
X29426Y60055D01*
X17043Y72954D02*
X17102Y73110D01*
X26065Y60658D02*
X26545Y60562D01*
X18820Y70908D02*
X18976Y70967D01*
X28886Y44129D02*
X29182Y43535D01*
X18632Y69976D02*
X18761Y70105D01*
X23673Y33871D02*
X25591Y34127D01*
X29182Y43535D02*
X29364Y42846D01*
X22165Y26996D02*
X23325Y27078D01*
X29307Y40953D02*
X29426Y42066D01*
X28371Y9942D02*
X28925Y10895D01*
X28798Y29780D02*
X29272Y30978D01*
X25763Y48734D02*
X26218Y48680D01*
X26813Y65360D02*
X26969Y65301D01*
X19550Y17213D02*
X19709Y17269D01*
X23840Y43582D02*
X25569Y43790D01*
X29189Y54561D02*
Y56953D01*
X15615Y69760D02*
X15674Y69917D01*
X20484Y37197D02*
X20651Y37183D01*
X21133Y60718D02*
X21605Y61671D01*
X28973Y23603D02*
X29130Y23671D01*
X29102Y47161D02*
X29259Y47220D01*
X24160Y62835D02*
X24739Y63211D01*
X27180Y39978D02*
X27562Y40569D01*
X17102Y73110D02*
Y75696D01*
X18820Y75852D02*
X18976Y75911D01*
X20183Y30766D02*
X20336Y29844D01*
X21384Y54405D02*
X22294Y54346D01*
X18976Y75911D02*
X28973D01*
X28480Y34957D02*
X28886Y34456D01*
X20183Y22031D02*
Y22051D01*
X21885Y33308D02*
X23673Y33871D01*
X14538Y89646D02*
X14538Y86845D01*
X23048Y9804D02*
X23178Y9977D01*
X22876Y57340D02*
Y59193D01*
X18632Y40256D02*
X18754Y39215D01*
X18785Y31900D02*
X19259Y33098D01*
X29364Y14014D02*
X29426Y13186D01*
X18688Y10789D02*
X18856Y10131D01*
X22187Y9718D02*
X23048Y9804D01*
X27980Y28785D02*
X28798Y29780D01*
X21562Y61951D02*
X21656Y61827D01*
X18632Y19187D02*
X18744Y20076D01*
X19860Y62921D02*
X21562Y61951D01*
X21155Y42483D02*
X21885Y42971D01*
X20651Y37183D02*
X20786Y37283D01*
X18868Y22009D02*
X18928Y21866D01*
X27782Y41176D02*
X27853Y41807D01*
X25534Y60548D02*
X26065Y60658D01*
X20614Y32255D02*
X21146Y32836D01*
X18524Y58978D02*
X18598Y60187D01*
X27095Y59804D02*
X27163Y59150D01*
X14538Y80446D02*
X14538Y77666D01*
X20291Y31566D02*
X20614Y32255D01*
X20183Y40429D02*
X20294Y41183D01*
X18761Y73110D02*
X18820Y72954D01*
X18928Y23482D02*
X19084Y23560D01*
X22143Y8059D02*
X24320Y8317D01*
X24476Y8406D02*
X24535Y8576D01*
X14589Y80626D02*
X14753Y80726D01*
X18632Y66981D02*
X18761Y66852D01*
X14597Y75852D02*
X14753Y75911D01*
X27680Y9136D02*
X28371Y9942D01*
X20700Y18454D02*
X20743Y18295D01*
X29189Y75696D02*
X29189Y73110D01*
X24320Y8317D02*
X24476Y8406D01*
X27491Y51569D02*
X28063Y51335D01*
X29189Y23819D02*
X29189Y25111D01*
X27971Y35352D02*
X28480Y34957D01*
X28284Y57168D02*
Y57190D01*
X18761Y70752D02*
X18820Y70908D01*
X20266Y10863D02*
X20646Y10235D01*
X14538Y73110D02*
Y75696D01*
X19086Y17626D02*
X19407Y17269D01*
X26899Y30036D02*
X27425Y30623D01*
X20622Y8318D02*
X21331Y8126D01*
X19407Y17269D02*
X19550Y17213D01*
X29181Y14736D02*
X29364Y14014D01*
X15615Y67197D02*
Y69760D01*
X29130Y72954D02*
X29189Y73110D01*
X28284Y57190D02*
X28753Y57665D01*
X26797Y28008D02*
X27980Y28785D01*
X29292Y11981D02*
X29426Y13187D01*
X19523Y9039D02*
X20019Y8627D01*
X21284Y57656D02*
X21728Y57311D01*
X26969Y47161D02*
X29102Y47161D01*
X18632Y30508D02*
X18785Y31900D01*
X21885Y42971D02*
X22812Y43326D01*
X18976Y72895D02*
X28973Y72895D01*
X20605Y54591D02*
X21384Y54405D01*
X26000Y51750D02*
X27491Y51569D01*
X26625Y10106D02*
X27108Y10677D01*
X18761Y65516D02*
Y66852D01*
X20765Y65301D02*
X20921Y65360D01*
X16886Y72895D02*
X17043Y72954D01*
X27362Y45302D02*
X27971Y45017D01*
X26661Y35813D02*
X27362Y35639D01*
X18976Y65301D02*
X20765D01*
X28973Y25305D02*
X29130Y25264D01*
X26549Y9928D02*
X26625Y10106D01*
X22359Y57211D02*
X22747Y57211D01*
X27522Y38274D02*
X27680Y38339D01*
X20686Y27232D02*
X21382Y27056D01*
X26525Y48516D02*
X26699Y48234D01*
X28417Y39076D02*
X28965Y39952D01*
X22876Y59193D02*
X23077Y60961D01*
X25807Y27623D02*
X26797Y28008D01*
X22064Y22246D02*
X23307Y22591D01*
X20183Y19898D02*
X20328Y19095D01*
X27379Y38339D02*
X27522Y38274D01*
X20150Y43813D02*
X21303Y44565D01*
X24950Y59631D02*
X25165Y60209D01*
X22445Y28763D02*
X24373Y29016D01*
X20980Y70752D02*
X20980Y70105D01*
X26617Y16706D02*
X27335Y16534D01*
X25009Y57211D02*
X25720Y57211D01*
X20183Y40429D02*
X20256Y39790D01*
X14753Y51750D02*
X26000D01*
X26625Y39394D02*
X27180Y39978D01*
X18632Y30508D02*
X18693Y29720D01*
X20781Y29223D02*
X21492Y28872D01*
X29318Y65516D02*
Y66658D01*
X19084Y23560D02*
X28973Y25305D01*
X18803Y41638D02*
X19313Y42831D01*
X28663Y62484D02*
X29002Y61967D01*
X20077Y34095D02*
X21260Y34881D01*
X20140Y11722D02*
X20244Y12526D01*
X18813Y12952D02*
X19342Y14159D01*
X20336Y29844D02*
X20781Y29223D01*
X25569Y43790D02*
X26544Y43674D01*
X19313Y42831D02*
X20150Y43813D01*
M02*
